<svg width="40" height="40" viewBox="0 0 40 40" fill="none" xmlns="http://www.w3.org/2000/svg">
<path d="M19.4013 28.6754C19.4013 27.6826 20.1984 26.8871 21.1927 26.8871C22.1856 26.8871 22.9811 27.6826 22.9811 28.6754C22.9819 28.9106 22.9362 29.1436 22.8466 29.361C22.7571 29.5784 22.6254 29.776 22.4592 29.9423C22.293 30.1087 22.0955 30.2405 21.8782 30.3303C21.6608 30.42 21.4279 30.4659 21.1927 30.4653C20.9575 30.4663 20.7243 30.4208 20.5067 30.3313C20.2891 30.2418 20.0914 30.1102 19.9249 29.944C19.7583 29.7778 19.6264 29.5802 19.5365 29.3628C19.4467 29.1453 19.4007 28.9107 19.4013 28.6754ZM26.6842 28.677C26.6842 27.6826 27.4812 26.8856 28.474 26.8856C29.4669 26.8856 30.2639 27.6826 30.2639 28.6754C30.2639 29.6683 29.4669 30.4653 28.4756 30.4653C28.2403 30.4663 28.0072 30.4208 27.7895 30.3313C27.5719 30.2418 27.3742 30.1102 27.2077 29.944C27.0412 29.7778 26.9092 29.5802 26.8193 29.3628C26.7295 29.1453 26.6836 28.9123 26.6842 28.677ZM9.80292 28.677C9.80292 27.6826 10.6 26.8856 11.5928 26.8856C12.5856 26.8856 13.3811 27.6826 13.3811 28.6754C13.3811 29.6683 12.5856 30.4653 11.5928 30.4653C11.3576 30.4661 11.1247 30.4204 10.9072 30.3309C10.6898 30.2413 10.4922 30.1096 10.3259 29.9434C10.1595 29.7772 10.0277 29.5798 9.93795 29.3624C9.8482 29.1451 9.80231 28.9121 9.80292 28.677ZM2.52008 28.677C2.52008 27.6826 3.31713 26.8856 4.30996 26.8856C5.30279 26.8856 6.09983 27.6826 6.09983 28.6754C6.10065 28.9107 6.05491 29.1438 5.96525 29.3614C5.87559 29.5789 5.74378 29.7765 5.57741 29.9429C5.41104 30.1093 5.2134 30.2411 4.99588 30.3307C4.77835 30.4204 4.54524 30.4661 4.30996 30.4653C4.07494 30.4659 3.84212 30.4201 3.62487 30.3304C3.40763 30.2408 3.21024 30.1091 3.04405 29.9429C2.87787 29.7767 2.74617 29.5793 2.65651 29.3621C2.56685 29.1448 2.51947 28.912 2.52008 28.677ZM17.2445 25.5135H15.6875V31.7773H17.2445V25.5135ZM6.0875 31.7773H7.64458V25.5135H6.0875V26.0161C5.54474 25.6383 4.89877 25.437 4.2375 25.4395C2.44608 25.4395 1 26.8856 1 28.677C1 30.4776 2.44608 31.9129 4.2375 31.9129C4.92354 31.9129 5.56025 31.7048 6.0875 31.3364V31.7773ZM30.2516 31.7773H31.8087V25.5135H30.2516V26.0161C29.7088 25.6383 29.0628 25.437 28.4016 25.4395C26.6102 25.4395 25.1641 26.8856 25.1641 28.677C25.1627 29.1025 25.2454 29.524 25.4076 29.9174C25.5699 30.3107 25.8083 30.6681 26.1092 30.9689C26.4102 31.2697 26.7676 31.5079 27.1611 31.67C27.5545 31.832 27.9761 31.9146 28.4016 31.9129C29.0876 31.9129 29.7243 31.7048 30.2516 31.3364V31.7773ZM32.3852 29.7423C32.4346 31.0064 33.5137 31.9006 35.3144 31.9006C36.7867 31.9006 38 31.2624 38 29.8533C38 28.8728 37.4481 28.2962 36.1731 28.0495L35.1803 27.8553C34.542 27.7319 34.1011 27.6086 34.1011 27.2294C34.1011 26.8131 34.5297 26.6281 35.0693 26.6281C35.8555 26.6281 36.1731 27.0212 36.1978 27.4868H37.7672C37.6809 26.2612 36.7004 25.4395 35.1186 25.4395C33.4891 25.4395 32.5194 26.3336 32.5194 27.4991C32.5194 28.9206 33.6725 29.1534 34.6654 29.3384L35.4871 29.4848C36.076 29.5958 36.3335 29.7669 36.3335 30.1107C36.3335 30.4175 36.039 30.7228 35.3391 30.7228C34.3216 30.7228 33.9917 30.1955 33.9793 29.7423H32.3852ZM13.3703 23.3798V26.0161C12.8276 25.6383 12.1816 25.437 11.5203 25.4395C9.72892 25.4395 8.28283 26.8856 8.28283 28.677C8.28283 30.4776 9.72892 31.9129 11.5203 31.9129C12.2048 31.9129 12.8431 31.7048 13.3703 31.3364V31.7773H14.9274V23.3798H13.3703ZM22.9688 23.3798V26.0161C22.426 25.6383 21.78 25.437 21.1187 25.4395C19.3289 25.4395 17.8812 26.8856 17.8812 28.677C17.8798 29.1025 17.9626 29.524 18.1248 29.9174C18.287 30.3107 18.5255 30.6681 18.8264 30.9689C19.1273 31.2697 19.4848 31.5079 19.8782 31.67C20.2717 31.832 20.6933 31.9146 21.1187 31.9129C21.8048 31.9129 22.4415 31.7048 22.9688 31.3364V31.7773H24.5258V23.3798H22.9688ZM5.04533 21.5298L6.09983 23.3798H13.3703L10.489 18.4018L5.04688 21.5283L5.04533 21.5298ZM17.2445 24.9369V23.3798H22.9688L16.8637 12.8117L11.4078 15.9382L15.6875 23.3798V24.9369H17.2445ZM25.2874 23.3798H32.5687L23.1537 7.08594L17.7101 10.2248L25.2874 23.3798Z" fill="black"/>
</svg>
