<svg width="40" height="40" viewBox="0 0 40 40" fill="none" xmlns="http://www.w3.org/2000/svg">
<path d="M35.4696 28.4094C34.6258 30.2797 34.218 31.1234 33.1352 32.7688C31.6164 35.075 29.4789 37.9578 26.8211 37.9859C24.4586 38.0141 23.8539 36.4531 20.6617 36.4672C17.4696 36.4813 16.7946 38.0141 14.4321 37.9859C11.7742 37.9578 9.74925 35.3563 8.2305 33.05C3.98362 26.5813 3.53362 19.0016 6.16331 14.9656C8.01956 12.0969 10.9586 10.4234 13.7289 10.4234C16.5414 10.4234 18.2992 11.9703 20.6336 11.9703C22.8836 11.9703 24.2617 10.4234 27.5102 10.4234C29.9711 10.4234 32.5727 11.7594 34.4289 14.0797C28.3399 17.4125 29.3242 26.0891 35.4696 28.4094ZM25.0352 7.85C26.2164 6.33125 27.1164 4.19375 26.793 2C24.8664 2.12656 22.6024 3.36406 21.2946 4.96719C20.0992 6.41563 19.1149 8.56719 19.4946 10.6625C21.5899 10.7328 23.7696 9.46719 25.0352 7.85Z" fill="black"/>
</svg>
