<svg width="40" height="40" viewBox="0 0 40 40" fill="none" xmlns="http://www.w3.org/2000/svg">
<g clip-path="url(#clip0_2755_4875)">
<path fill-rule="evenodd" clip-rule="evenodd" d="M19.9935 37.9929C29.7893 38.1381 37.8466 30.083 37.9953 19.9997C37.8466 9.91646 29.7893 1.86334 19.9935 2.00777C10.1971 1.86334 2.14936 9.91646 2 19.9997C2.14936 30.083 10.1971 38.1381 19.9935 37.9929Z" fill="url(#paint0_radial_2755_4875)"/>
<path fill-rule="evenodd" clip-rule="evenodd" d="M27.7439 33.4104C21.6325 36.9381 15.0066 37.5656 10.7753 35.4563C16.402 38.8047 23.3287 38.8476 28.9996 35.5837C34.6077 32.4108 38.0601 26.3192 37.9992 19.7374C37.7165 24.4573 33.8475 29.874 27.7439 33.4104ZM29.9361 5.64327C29.5714 5.02646 29.0701 4.49925 28.4682 4.11727C30.7021 5.29892 32.6655 6.95367 34.2276 8.9725C34.5013 9.31886 34.7564 9.67249 34.9962 10.0453C35.641 11.1807 35.941 12.4819 35.8782 13.7994C35.7205 18.5913 31.4707 24.4006 24.7747 28.2649C18.0795 32.1285 10.9246 32.9102 6.69465 30.6466C5.52936 30.0469 4.55694 29.1285 3.87683 27.9831L3.84929 27.9376C3.67239 27.5826 3.51469 27.2283 3.36536 26.8649C2.37503 24.4916 1.91537 21.9291 2.0128 19.3553C2.04938 20.0837 2.25003 20.7917 2.60575 21.4191C4.76974 25.1646 12.6393 24.6731 20.1826 20.3192C27.7356 15.9549 32.1001 9.39079 29.9361 5.64327ZM22.2864 3.32554C22.2159 3.22527 22.1428 3.12495 22.0647 3.04452C21.0397 2.19016 19.7057 1.8365 18.407 2.07067C18.1609 2.08985 17.8936 2.11689 17.6301 2.16168C15.2982 2.46258 13.0554 3.23454 11.0042 4.41748C8.96446 5.58128 7.17158 7.15417 5.73069 9.02799C5.573 9.23512 5.42357 9.44495 5.271 9.65408C4.41467 10.6543 4.05253 12.0003 4.28325 13.3079C4.31721 13.4174 4.36276 13.5369 4.41467 13.6364C5.65115 15.782 10.6606 15.2199 15.5892 12.3637C20.5262 9.51878 23.5229 5.4718 22.2864 3.32554Z" fill="url(#paint1_radial_2755_4875)"/>
</g>
<defs>
<radialGradient id="paint0_radial_2755_4875" cx="0" cy="0" r="1" gradientUnits="userSpaceOnUse" gradientTransform="translate(19.9977 20.0003) scale(17.9975 17.9947)">
<stop stop-color="#FEC700"/>
<stop offset="1" stop-color="#FFDB51"/>
</radialGradient>
<radialGradient id="paint1_radial_2755_4875" cx="0" cy="0" r="1" gradientUnits="userSpaceOnUse" gradientTransform="translate(20 20) scale(17.9996 18.0005)">
<stop stop-color="#050007"/>
<stop offset="0.48" stop-color="#050007"/>
<stop offset="1" stop-color="#50504F"/>
</radialGradient>
<clipPath id="clip0_2755_4875">
<rect width="36" height="36" fill="white" transform="translate(2 2)"/>
</clipPath>
</defs>
</svg>
