<svg width="40" height="40" viewBox="0 0 40 40" fill="none" xmlns="http://www.w3.org/2000/svg">
<g clip-path="url(#clip0_2702_4834)">
<path d="M20 37C29.3888 37 37 29.3888 37 20C37 10.6112 29.3888 3 20 3C10.6112 3 3 10.6112 3 20C3 29.3888 10.6112 37 20 37Z" fill="#CF4037"/>
<path d="M23.5913 28.6177C23.5913 27.682 24.017 25.6572 24.1389 24.0774C24.0858 24.0886 24.0316 24.0944 23.9773 24.0947C23.6126 24.0947 23.317 23.7909 23.3221 23.2596C23.3302 22.5047 23.8016 21.4959 24.4061 20.7258C24.379 20.0389 24.3336 19.3529 24.2699 18.6685C24.1628 18.7182 24.0466 18.7451 23.9286 18.7477C23.5567 18.7477 23.3566 18.5191 23.3596 18.1402C23.3657 17.6332 23.5862 17.1263 23.9265 16.6701C23.8498 16.4459 23.7692 16.223 23.6848 16.0016C21.789 17.4402 20.0801 21.4451 20.069 22.4671C20.0629 23.0371 20.4977 23.5308 20.9711 23.5308C21.6803 23.5308 23.319 22.1258 23.3363 20.4555C23.3383 20.228 23.2387 20.038 23.002 20.038C22.5286 20.038 22.1832 20.7207 22.0745 21.4806C21.5309 21.7458 21.3948 21.8596 20.8482 22.3534C21.0331 20.9107 21.8245 19.5432 22.9401 19.5432C23.4135 19.5432 23.6136 19.8094 23.6086 20.2645C23.5872 22.3147 21.6406 24.1374 20.4571 24.1374C19.5793 24.1374 18.8092 23.416 18.8214 22.3147C18.8508 19.4477 21.4375 16.4567 23.4521 15.394C23.1737 14.6768 22.873 13.9179 22.6881 13.3632C22.364 12.3909 22.1405 11.5832 21.9038 9.88655C21.8012 9.15303 21.853 8.642 21.853 8.642C21.853 8.642 22.1761 8.40528 22.1761 7.6362C22.1761 7.24405 22.0511 6.96669 22.0226 6.86103C21.8357 6.89456 20.7608 7.02257 20.1817 7.00631C19.6026 6.98802 18.1092 6.87017 18.035 6.81836C18.031 6.93316 18.0066 7.01139 17.9832 7.17598C17.9385 7.49905 17.8471 8.1137 18.2565 8.65927C18.2565 8.65927 18.3073 10.1598 17.9324 11.6594C17.5585 13.1589 16.4654 15.3991 16.2459 16.2779C16.2114 16.4151 16.1606 16.4821 16.3648 16.5512C16.569 16.6203 16.7905 16.5847 16.7905 16.9434H16.3821C16.3821 16.9434 16.3577 16.9759 16.3221 17.044C16.116 17.4026 15.9449 17.7803 15.8111 18.1717C16.2378 17.6657 16.6736 17.301 17.1105 17.301C17.3767 17.301 17.5088 17.3762 17.7719 17.5286L17.907 17.3386H18.7025L17.6175 19.5778C17.5829 19.6915 17.1755 20.5653 17.1745 20.6791C17.1735 20.7928 17.206 20.8304 17.3056 20.8304C17.4722 20.8304 17.6398 20.6404 18.3469 19.5778L18.5125 19.6164C17.8339 21.0966 17.0963 21.7804 16.4999 21.7804C16.0346 21.7804 15.9706 21.5894 15.9747 21.1342C15.8578 21.2561 15.7501 21.3597 15.6506 21.4451C15.6902 21.5934 15.7379 21.7428 15.7938 21.8931C15.7908 22.3808 15.7105 22.3737 15.7003 22.5921C16.6167 22.7597 17.3147 23.1783 18.2006 23.9819C17.209 23.602 16.9114 23.4882 16.6137 23.4882C16.3483 23.4902 16.0851 23.5373 15.8355 23.6274C15.9188 24.1455 16.0214 24.752 16.0742 25.1929C16.1768 26.0281 16.4146 27.4433 16.4146 28.125C16.4146 28.8067 15.9371 30.8691 15.6983 31.5843C15.4596 32.3006 15.4768 32.6237 15.4768 32.9477C15.4768 33.2718 15.7837 34.7724 20.2153 34.7724C24.4427 34.7724 24.3228 33.2718 24.3228 32.6582C24.3238 31.0042 23.5913 29.7089 23.5913 28.6177Z" fill="#65493C"/>
<path d="M19.6228 6.97703C19.7538 6.97906 19.8859 6.99329 20.0403 6.99837C20.466 7.03392 20.7698 6.98516 21.0228 6.97297C21.4769 6.93639 21.9127 6.88153 22.0255 6.86223C22.0286 6.8734 22.058 6.85308 22.0641 6.81956C22.1403 6.35019 22.0814 5.78023 21.8081 5.59228C21.5358 5.40433 20.6469 5.30273 20.0515 5.30273C19.4562 5.30273 18.5662 5.40535 18.2939 5.59228C18.0216 5.77922 17.9617 6.35019 18.0389 6.81956C18.0928 6.85613 18.9533 6.93334 19.6228 6.97703Z" fill="white"/>
<path d="M22.7097 32.8792C21.8238 33.0712 21.3971 33.0489 21.3971 33.0489L21.3799 32.929C21.3799 32.929 21.7375 32.9971 22.5218 32.674C22.662 32.6151 22.7727 32.5104 22.725 31.9151C22.6823 31.3797 22.4761 29.2543 22.3003 28.4984C22.2658 28.3724 22.3125 28.2089 22.3125 28.2089C22.3308 28.2546 22.3501 28.3227 22.3704 28.407C22.4974 28.8631 22.6986 30.0731 22.7737 30.8686C22.8713 31.8826 22.915 32.5714 22.915 32.5714C22.915 32.5714 23.7958 32.3143 23.8527 32.2138C23.8527 32.2138 23.5946 29.8242 23.047 28.4954C22.9353 28.2211 23.0958 28.1256 23.2736 28.7361C23.4504 29.3488 23.9817 31.1734 24.0793 32.3336C24.0782 32.3347 23.6089 32.6821 22.7097 32.8792ZM17.6899 27.3951C17.6899 27.3951 17.2388 27.3219 17.2551 24.4966C17.2551 24.4966 17.3831 24.1908 17.4318 24.8674C17.4806 25.544 17.7671 27.2193 17.6899 27.3951ZM20.2044 16.5497C20.6738 16.5497 20.9664 16.6077 21.1248 16.6859C21.1055 16.0387 20.9359 13.5771 20.9359 13.5771C21.132 14.5453 21.2437 16.3943 21.2681 16.8535C21.2783 16.9846 21.073 16.9937 21.073 16.9937C20.8475 16.9937 19.5735 17.0018 18.9944 17.0018C18.9944 17.0018 18.8887 17.009 18.8816 16.9836C18.8034 16.8992 19.2839 13.0386 19.2839 13.0386C19.1712 13.8534 19.0574 16.1566 19.0279 16.7885C19.3998 16.63 19.8001 16.5487 20.2044 16.5497ZM20.5793 24.7434C20.5915 24.7434 20.7022 24.7414 20.7459 24.7373C20.7449 24.9334 20.7154 25.1793 20.6992 25.3307C20.6677 25.6527 20.7012 27.4855 20.6992 27.6623C20.6941 28.0646 20.5864 28.3216 20.5864 27.774C20.5864 27.3372 20.5579 25.4495 20.5793 24.7434ZM22.6589 24.0831C22.6589 24.0831 22.8306 23.826 22.8469 24.0831C22.8632 24.3411 22.6864 26.0774 22.5573 26.946C22.4283 27.8157 22.2871 27.5485 22.2871 27.5485C22.4791 27.1462 22.6589 24.0831 22.6589 24.0831ZM23.3569 27.2833C23.4687 26.816 23.6942 25.0289 23.6942 25.0289C23.7115 26.5264 23.3569 27.2833 23.3569 27.2833ZM22.8012 15.3336C22.6854 14.8958 22.5208 14.3847 22.3247 13.764C22.2373 13.4877 22.1794 12.7988 22.1794 12.7988C22.1794 12.7988 22.2922 13.3627 22.3724 13.572C22.4131 13.6787 22.6661 14.3858 22.8875 15.1508L22.8012 15.3336ZM18.0069 12.7734C18.0069 12.7734 17.949 13.4623 17.8616 13.7386C17.3567 15.3428 17.1982 16.3415 17.1535 16.7377C17.314 16.6574 17.6015 16.6442 17.9033 16.6442C18.8339 16.6442 18.6439 16.9937 18.5535 16.9937H17.1362C17.1362 16.9937 16.9107 16.9947 16.9056 16.8566C16.8975 16.5924 17.7316 13.7549 17.8128 13.5456C17.8941 13.3363 18.0069 12.7734 18.0069 12.7734ZM16.739 25.7045C16.8202 26.3812 16.7715 26.8312 16.7715 26.8312C16.7715 26.8312 16.4819 24.4326 16.4657 24.271C16.4667 24.272 16.6587 25.0289 16.739 25.7045ZM18.842 33.1423C19.5806 33.2114 20.4787 33.181 20.7012 33.0895C20.9755 32.9778 20.814 31.6408 20.814 30.7549C20.814 29.87 20.6849 28.9678 20.6687 28.8073C20.6524 28.6467 20.4665 28.3359 20.5783 28.7869C20.691 29.237 20.6687 31.527 20.7002 31.9943C20.7327 32.4606 20.7164 32.8955 20.4431 32.9442C20.2257 32.9828 19.4973 32.9717 18.8897 32.9656C18.6866 32.9646 18.5697 33.117 18.842 33.1423ZM18.1288 33.0011C17.4085 32.8528 16.5744 32.7085 15.978 32.1792C15.8246 32.0431 15.8876 31.7708 15.9526 31.528C16.0166 31.2872 16.6719 28.6092 16.7054 28.2851C16.74 27.962 17.0062 28.1144 16.9493 28.3105C16.8924 28.5065 16.1944 31.207 16.1456 31.528C16.0969 31.8501 16.1142 32.0756 16.4037 32.2046C16.6932 32.3326 16.9025 32.5257 16.9503 32.2524C16.9991 31.9791 17.4664 28.8073 17.6909 28.0351C17.6909 28.0351 17.886 27.7141 17.6269 28.9525C17.5527 29.3051 17.1992 31.528 17.1596 32.2046C17.1372 32.6059 17.6533 32.6567 18.1623 32.8508C18.2781 32.8955 18.4722 33.0722 18.1288 33.0011Z" fill="#CF4037"/>
<path d="M13.0725 23.184C14.0346 23.184 14.4969 23.4126 15.0536 24.0567C15.2883 23.8667 15.8897 23.4868 16.6192 23.4868C16.9179 23.4868 17.2155 23.6005 18.2061 23.9805C16.991 22.8802 16.1315 22.4992 14.572 22.4992C12.4152 22.4992 10.4452 23.6381 9.01881 23.6381C7.92361 23.6381 7.1332 23.0682 7.1464 21.8165C7.16571 19.9949 9.70153 15.4008 11.3941 15.4008C11.5932 15.4008 11.6258 15.5145 11.6237 15.7421C11.4571 15.8183 10.9888 16.1597 10.9857 16.4634C10.9837 16.6148 11.1483 16.7672 11.2803 16.7672C11.6125 16.7672 11.9498 16.2359 11.9559 15.7035C11.96 15.3246 11.6969 15.0208 11.2326 15.0208C8.97614 15.0208 5.84801 19.0836 5.82058 21.7027C5.80128 23.4868 6.82435 24.0557 8.21824 24.0557C10.0104 24.0567 11.2468 23.184 13.0725 23.184ZM24.7854 14.9883C25.1238 14.9883 25.3249 15.1021 25.6947 15.3296C26.3063 15.1021 26.6111 14.9883 27.0175 14.9883C27.7602 14.9883 28.6014 15.4434 29.5056 16.2023L28.7528 17.0751C27.177 15.8224 26.605 15.6324 25.7597 15.6324C25.7577 15.8224 25.7892 15.9748 25.7882 16.0875C25.776 17.264 24.7468 18.7453 23.9351 18.7453C23.5632 18.7453 23.3631 18.5167 23.3661 18.1377C23.3773 17.1126 24.2673 16.0875 25.2538 15.48H24.9825C22.6499 15.48 20.0887 21.213 20.0745 22.4647C20.0684 23.0347 20.5032 23.5284 20.9766 23.5284C21.6858 23.5284 23.3245 22.1233 23.3418 20.4531C23.3438 20.2255 23.2442 20.0356 23.0075 20.0356C22.5341 20.0356 22.1887 20.7183 22.08 21.4782C21.5364 21.7434 21.4003 21.8572 20.8537 22.3509C21.0386 20.9083 21.83 19.5408 22.9455 19.5408C23.419 19.5408 23.6191 19.807 23.614 20.2621C23.5927 22.3123 21.6461 24.1349 20.4625 24.1349C19.5848 24.1349 18.8147 23.4136 18.8269 22.3123C18.8644 18.7473 22.8592 14.9883 24.7854 14.9883ZM19.7636 18.3938L20.236 17.4885H19.3521L18.9132 18.3938H19.7636ZM33.9707 15.0787C32.7637 16.2552 31.8982 16.5589 30.7359 16.5589L30.0623 17.5089C30.3275 17.5465 30.427 17.5465 30.5926 17.5465C32.0211 17.5465 33.5257 16.4076 33.9707 15.0787Z" fill="white"/>
<path d="M14.5624 17.2617C14.8601 17.2617 15.1232 17.5279 15.1191 17.9079C15.1151 18.3254 14.7768 18.8954 14.5116 18.8954C14.3785 18.8954 14.2474 18.744 14.2485 18.6292C14.2525 18.2116 14.6193 18.0979 14.8519 18.0592C14.8529 17.9455 14.855 17.7555 14.6569 17.7555C14.2251 17.7555 12.8129 19.5771 12.7997 20.7546C12.7967 21.0583 12.9277 21.1711 13.1604 21.1711C14.2881 21.1711 15.6891 17.2993 17.1165 17.2993C17.3827 17.2993 17.5148 17.3745 17.7779 17.5269L17.913 17.3369H18.7085L17.6235 19.5761C17.5889 19.6899 17.1815 20.5636 17.1805 20.6774C17.1795 20.7912 17.212 20.8287 17.3116 20.8287C17.4782 20.8287 17.6458 20.6388 18.3529 19.5761L18.5185 19.6147C17.8399 21.0949 17.1023 21.7787 16.5059 21.7787C16.0406 21.7787 15.9766 21.5877 15.9807 21.1325C15.5448 21.5877 15.2441 21.7787 14.9119 21.7787C14.3815 21.7787 14.3856 21.2849 14.3937 20.6022C13.6876 21.4749 13.2193 21.8538 12.6219 21.8538C12.0916 21.8538 11.7299 21.4739 11.736 20.8663C11.7411 20.3736 11.8427 20.145 12.2511 19.1961L11.6527 19.3475C10.8064 20.9039 10.0668 21.7776 9.30379 21.7776C8.93907 21.7776 8.64342 21.5115 8.6485 20.9425C8.66577 19.3485 10.3462 17.2983 11.4078 17.2983C11.8396 17.2983 12.0347 17.6397 12.0306 18.0196C12.0276 18.2472 11.9239 18.6648 11.7878 19.0447C13.1207 18.7044 13.5007 17.2617 14.5624 17.2617Z" fill="white"/>
<path d="M10.5928 18.7017C10.0879 19.3855 9.71502 20.1444 9.71096 20.5619C9.70893 20.7905 9.83999 20.9419 10.0381 20.9419C10.4374 20.9419 10.7411 20.3719 11.3497 19.3093C10.986 19.1569 10.8874 19.0817 10.5928 18.7017ZM11.5336 17.7559C11.2684 17.7559 10.9332 18.022 10.9301 18.3258C10.926 18.7048 11.2562 18.8958 11.5864 19.0085C11.7561 18.592 11.7906 18.4782 11.7927 18.2496C11.7977 17.9448 11.6992 17.7559 11.5336 17.7559Z" fill="#CF4037"/>
<path d="M31.1544 23.1084C31.3871 23.1084 31.7894 22.6157 32.2618 21.8568L32.462 21.8182C31.8503 23.148 31.0772 24.0959 30.3813 24.0959C30.0165 24.0959 29.9536 23.7546 29.9586 23.2994C29.5553 23.7922 29.2536 24.0583 28.8553 24.0583C28.4571 24.0583 28.328 23.6408 28.3351 23.0332C27.7967 23.7546 27.3608 24.0959 26.9301 24.0959C26.5979 24.0959 26.3022 23.8297 26.3073 23.2994C26.3124 22.8057 26.415 22.5019 26.6568 21.6282H26.2575C25.4783 23.147 24.6716 24.0959 23.9757 24.0959C23.6109 24.0959 23.3153 23.7922 23.3204 23.2608C23.3356 21.8568 24.951 19.579 26.0472 19.579C26.4119 19.579 26.6405 19.9203 26.6365 20.3379C26.6334 20.6417 26.5643 20.8693 26.3936 21.3254H26.7929C28.0537 18.0601 30.3091 15.0234 31.637 15.0234C31.9032 15.0234 32.0993 15.252 32.0962 15.5548C32.0942 15.7448 32.0596 15.821 31.9245 16.0861L31.5466 16.207C31.6837 15.7895 31.7965 15.631 31.7975 15.5162C31.7985 15.44 31.7335 15.3648 31.6665 15.3648C31.1361 15.3648 29.4547 17.4526 28.0598 20.6793C28.9965 19.9579 29.9698 18.9318 30.6454 17.794L30.9776 17.7553C30.0978 19.3494 29.3602 20.1093 27.7886 21.2482C27.6169 21.8182 27.4421 22.5781 27.4391 22.8433C27.438 22.9956 27.5021 23.1846 27.6687 23.1846C28.2986 23.1846 29.5644 19.5404 31.1585 19.5404C31.3566 19.5404 31.4887 19.6156 31.7203 19.768L31.954 19.5404H32.6844L31.3952 22.1971C31.3617 22.2733 31.0559 22.956 31.0549 22.9946C31.0549 23.0698 31.0874 23.1084 31.1544 23.1084Z" fill="white"/>
<path d="M31.293 19.9991C30.8612 19.9991 29.4155 21.7832 29.4054 22.8845C29.4033 23.0744 29.4683 23.1496 29.6014 23.1496C29.767 23.1496 29.9672 23.0369 30.3736 22.3155L31.2869 20.6067C31.3885 20.4157 31.4566 20.2267 31.4576 20.1129C31.4586 20.0367 31.4261 19.9991 31.293 19.9991ZM25.9826 19.9961C25.7174 19.9961 25.4492 20.2623 25.4462 20.6047C25.4411 21.0598 25.7378 21.2122 26.069 21.326C26.2386 20.9084 26.3067 20.756 26.3097 20.4909C26.3128 20.1475 26.2488 19.9961 25.9826 19.9961ZM25.181 20.9856C24.7452 21.4032 24.3743 22.0107 24.3672 22.6569C24.3642 22.9607 24.5278 23.1882 24.7269 23.1882C24.9595 23.1882 25.5305 22.5807 26.0039 21.5932C25.6402 21.4794 25.3425 21.328 25.181 20.9856Z" fill="#CF4037"/>
<path d="M9.49326 8.22206C10.0398 7.73644 11.9509 6.23282 13.4006 5.68928C13.744 5.56127 14.0874 5.68928 13.487 6.03268C12.8855 6.37607 10.1811 8.13571 9.49326 8.77982C8.80648 9.42394 8.72012 8.90885 9.49326 8.22206ZM30.4016 31.2091C30.0583 31.5098 27.6118 33.3121 27.0957 33.5275C26.5806 33.7419 26.8194 34.0345 27.3111 33.8709C28.0843 33.6128 29.8967 32.3835 30.745 31.3808C31.2164 30.822 30.4016 31.2091 30.4016 31.2091Z" fill="white"/>
<path d="M23.7325 32.8786C23.7325 32.8786 24.0738 32.6744 24.1419 32.6053C24.1419 32.6053 24.3431 32.969 24.022 33.6101C23.8005 34.054 23.4937 33.985 23.4937 33.985C23.4937 33.985 23.5618 33.6101 23.4937 33.5765C23.4947 33.5765 23.7508 33.2362 23.7325 32.8786ZM22.617 33.286C22.4808 33.2342 22.365 33.2748 22.304 33.2697C21.6752 33.2138 21.5177 33.4912 19.8302 33.4912C18.7065 33.4912 16.9449 33.3104 16.2347 32.7414C16.064 32.6053 15.6719 32.4346 15.6719 32.776C15.6719 32.9802 15.7572 33.543 16.2855 33.798C16.8148 34.054 17.8877 34.5315 20.1553 34.5315C22.4229 34.5315 22.8648 34.2085 22.8648 33.9524C22.8648 33.6964 22.558 33.6456 22.558 33.8671C22.558 34.0886 22.4727 34.1231 22.3538 34.0205C22.235 33.9179 22.0297 33.7137 21.8601 33.731C21.6894 33.7482 21.2464 33.7482 21.2464 33.7482C21.2464 33.7482 21.7757 33.6456 21.8946 33.6111C22.0135 33.5776 22.4046 33.6294 22.6159 33.4882C22.7693 33.3855 23.2408 33.288 23.4114 33.2362C23.5821 33.1844 23.6156 33.0147 23.3942 33.0482C23.2255 33.0736 22.7531 33.1671 22.617 33.286Z" fill="#62A24C"/>
<path d="M20.2031 12.5661C20.2031 12.5661 21.0901 12.5154 21.4731 12.3965C21.4731 12.3965 21.6438 12.5418 21.2689 12.5926C20.893 12.6434 20.3738 12.6434 20.2031 12.5661Z" fill="#CF4037"/>
<path d="M21.8374 8.25C22.0416 8.25 22.0071 8.45421 21.8374 8.45421C21.5743 8.45522 21.6088 8.25 21.8374 8.25ZM21.5469 8.83011C21.5469 8.65943 21.7308 8.47148 21.7338 8.81284C21.743 9.66015 21.9116 10.7493 21.9563 11.1821C22.0071 11.6758 22.194 12.1533 22.1087 12.1706C22.0244 12.1878 21.871 12.1706 21.7856 11.7266C21.7003 11.2847 21.5469 10.5511 21.5469 8.83011Z" fill="#62A24C"/>
<path d="M18.2072 5.98024C18.1941 5.97678 18.1802 5.97857 18.1684 5.98521C18.1567 5.99185 18.148 6.00283 18.1442 6.0158C18.0792 6.24947 18.0781 6.57864 18.0781 6.59185C18.078 6.59869 18.0792 6.60549 18.0818 6.61184C18.0844 6.61819 18.0882 6.62395 18.093 6.62879C18.0978 6.63363 18.1036 6.63744 18.11 6.64C18.1163 6.64255 18.1231 6.6438 18.1299 6.64366C18.1574 6.64366 18.1807 6.62029 18.1807 6.59185C18.1807 6.5888 18.1818 6.26369 18.2437 6.04323C18.2464 6.03007 18.2442 6.0164 18.2374 6.00479C18.2307 5.99318 18.2199 5.98445 18.2072 5.98024ZM18.6735 6.04526C18.667 6.04341 18.6602 6.04287 18.6536 6.04366C18.6469 6.04445 18.6404 6.04656 18.6346 6.04987C18.6287 6.05318 18.6236 6.05762 18.6194 6.06293C18.6153 6.06824 18.6123 6.07432 18.6105 6.08082C18.5607 6.2576 18.5607 6.65585 18.5607 6.67312C18.5607 6.70055 18.5831 6.72392 18.6115 6.72392C18.6183 6.72405 18.625 6.72284 18.6313 6.72035C18.6375 6.71786 18.6433 6.71414 18.6481 6.70941C18.6529 6.70468 18.6567 6.69903 18.6594 6.6928C18.662 6.68657 18.6633 6.67988 18.6633 6.67312C18.6633 6.66906 18.6633 6.27182 18.709 6.10723C18.7109 6.10083 18.7114 6.09412 18.7106 6.08751C18.7098 6.08089 18.7077 6.07451 18.7044 6.06873C18.7011 6.06295 18.6966 6.05789 18.6913 6.05386C18.686 6.04983 18.6799 6.04691 18.6735 6.04526ZM19.1408 6.10825C19.1278 6.10505 19.114 6.10695 19.1023 6.11356C19.0906 6.12016 19.0818 6.13098 19.0778 6.14381C19.0443 6.26166 19.0433 6.70258 19.0433 6.75237C19.0433 6.78081 19.0667 6.80418 19.0951 6.80418C19.1019 6.80418 19.1086 6.80283 19.1148 6.80022C19.121 6.7976 19.1267 6.79377 19.1314 6.78894C19.1361 6.78412 19.1398 6.7784 19.1423 6.77212C19.1448 6.76584 19.146 6.75912 19.1459 6.75237C19.1459 6.62131 19.151 6.26064 19.1764 6.17226C19.1799 6.15906 19.1781 6.14503 19.1715 6.13309C19.1649 6.12116 19.1539 6.11226 19.1408 6.10825ZM19.6072 6.12146C19.5941 6.11826 19.5803 6.12016 19.5686 6.12677C19.5569 6.13337 19.5482 6.14419 19.5442 6.15702C19.5269 6.21696 19.5259 6.64976 19.5259 6.78081C19.5259 6.79442 19.5313 6.80747 19.5409 6.81709C19.5505 6.82671 19.5636 6.83212 19.5772 6.83212C19.5908 6.83212 19.6038 6.82671 19.6135 6.81709C19.6231 6.80747 19.6285 6.79442 19.6285 6.78081C19.6285 6.51565 19.6336 6.22001 19.6427 6.18343V6.18445C19.6446 6.17798 19.6451 6.1712 19.6443 6.16452C19.6435 6.15784 19.6414 6.15138 19.6381 6.14552C19.6348 6.13966 19.6304 6.13451 19.625 6.13038C19.6197 6.12625 19.6136 6.12322 19.6072 6.12146ZM21.9753 6.0158C21.9713 6.00297 21.9626 5.99215 21.9509 5.98555C21.9392 5.97894 21.9254 5.97704 21.9124 5.98024C21.9059 5.982 21.8998 5.98503 21.8945 5.98916C21.8892 5.99329 21.8847 5.99844 21.8814 6.0043C21.8781 6.01016 21.876 6.01662 21.8752 6.0233C21.8744 6.02998 21.8749 6.03676 21.8768 6.04323C21.9378 6.26369 21.9388 6.5888 21.9388 6.59185C21.9386 6.59869 21.9399 6.60549 21.9424 6.61184C21.945 6.61819 21.9488 6.62395 21.9536 6.62879C21.9585 6.63363 21.9642 6.63744 21.9706 6.64C21.9769 6.64255 21.9837 6.6438 21.9906 6.64366C22.018 6.64366 22.0414 6.62029 22.0414 6.59185C22.0404 6.57864 22.0404 6.25048 21.9753 6.0158ZM21.445 6.04526C21.432 6.04905 21.4211 6.05776 21.4144 6.06952C21.4078 6.08129 21.406 6.09519 21.4095 6.10825C21.4552 6.27284 21.4562 6.67007 21.4562 6.67414C21.4562 6.70157 21.4785 6.72494 21.507 6.72494C21.5137 6.72507 21.5205 6.72386 21.5267 6.72136C21.533 6.71887 21.5387 6.71515 21.5436 6.71042C21.5484 6.70569 21.5522 6.70005 21.5548 6.69382C21.5575 6.68758 21.5588 6.6809 21.5588 6.67414C21.5588 6.65687 21.5578 6.25861 21.509 6.08184C21.5074 6.07514 21.5044 6.06884 21.5002 6.06333C21.4961 6.05782 21.4909 6.05321 21.4849 6.04979C21.4789 6.04637 21.4723 6.0442 21.4654 6.04342C21.4586 6.04265 21.4516 6.04327 21.445 6.04526ZM20.9787 6.10825C20.9722 6.11001 20.9661 6.11304 20.9608 6.11717C20.9555 6.1213 20.951 6.12645 20.9477 6.13231C20.9444 6.13817 20.9423 6.14463 20.9415 6.15131C20.9407 6.15799 20.9413 6.16477 20.9431 6.17124C20.9675 6.25963 20.9726 6.62029 20.9726 6.75135C20.9726 6.76496 20.978 6.77801 20.9876 6.78763C20.9972 6.79725 21.0103 6.80266 21.0239 6.80266C21.0375 6.80266 21.0506 6.79725 21.0602 6.78763C21.0698 6.77801 21.0752 6.76496 21.0752 6.75135C21.0752 6.70157 21.0742 6.26166 21.0417 6.14279C21.0375 6.13015 21.0286 6.11957 21.017 6.11317C21.0053 6.10676 20.9916 6.10501 20.9787 6.10825ZM20.5114 6.12146C20.4985 6.12547 20.4877 6.13421 20.4811 6.14591C20.4745 6.15761 20.4726 6.17139 20.4758 6.18445V6.18343C20.4849 6.22001 20.49 6.51565 20.49 6.78081C20.49 6.80926 20.5134 6.83263 20.5408 6.83263C20.5477 6.83277 20.5545 6.83152 20.5608 6.82896C20.5672 6.82641 20.5729 6.8226 20.5778 6.81776C20.5826 6.81292 20.5864 6.80715 20.589 6.8008C20.5915 6.79446 20.5928 6.78766 20.5926 6.78081C20.5926 6.64976 20.5906 6.21594 20.5743 6.15702C20.5726 6.15052 20.5695 6.14444 20.5654 6.13913C20.5613 6.13381 20.5561 6.12937 20.5503 6.12606C20.5444 6.12276 20.538 6.12064 20.5313 6.11985C20.5246 6.11906 20.5178 6.11961 20.5114 6.12146ZM20.0593 6.13263C20.0525 6.13263 20.0458 6.13398 20.0396 6.13659C20.0333 6.13921 20.0277 6.14304 20.023 6.14787C20.0182 6.15269 20.0145 6.15841 20.012 6.1647C20.0095 6.17098 20.0083 6.17769 20.0085 6.18445V6.81028C20.0083 6.81703 20.0095 6.82375 20.012 6.83003C20.0145 6.83631 20.0182 6.84203 20.023 6.84685C20.0277 6.85168 20.0333 6.85551 20.0396 6.85813C20.0458 6.86074 20.0525 6.86209 20.0593 6.86209C20.073 6.86209 20.0862 6.85663 20.0959 6.84691C20.1056 6.8372 20.1111 6.82402 20.1111 6.81028V6.18343C20.1111 6.17667 20.1097 6.16998 20.1071 6.16375C20.1045 6.15752 20.1007 6.15188 20.0958 6.14715C20.091 6.14242 20.0853 6.1387 20.079 6.1362C20.0727 6.13371 20.066 6.1325 20.0593 6.13263Z" fill="black"/>
<path d="M32.8665 22.4532C32.7633 22.4518 32.6608 22.471 32.5651 22.5097C32.4694 22.5483 32.3823 22.6056 32.3089 22.6782C32.2355 22.7508 32.1774 22.8373 32.1377 22.9326C32.0981 23.028 32.0778 23.1302 32.0781 23.2334C32.0781 23.6866 32.4388 24.0178 32.8665 24.0178C32.9698 24.0187 33.0722 23.9991 33.1678 23.96C33.2634 23.9209 33.3502 23.8632 33.4232 23.7902C33.4962 23.7171 33.554 23.6303 33.5931 23.5347C33.6321 23.4391 33.6518 23.3367 33.6508 23.2334C33.6512 23.1305 33.6312 23.0285 33.5919 22.9334C33.5526 22.8383 33.4947 22.752 33.4218 22.6794C33.3488 22.6068 33.2621 22.5494 33.1668 22.5106C33.0715 22.4718 32.9694 22.4522 32.8665 22.4532Z" fill="white"/>
<path d="M32.8665 23.8874C32.511 23.8874 32.2336 23.61 32.2336 23.2331C32.2336 23.0657 32.3001 22.9053 32.4184 22.787C32.5367 22.6686 32.6972 22.6022 32.8645 22.6022C33.0318 22.6022 33.1923 22.6686 33.3106 22.787C33.4289 22.9053 33.4954 23.0657 33.4954 23.2331C33.4954 23.61 33.217 23.8874 32.8665 23.8874ZM16.3847 16.9413H16.7931C16.7931 16.5826 16.5716 16.6182 16.3674 16.5491C16.2668 16.5156 16.2282 16.482 16.2191 16.4414C16.1561 16.6954 16.2953 16.8915 16.3654 16.9707C16.3765 16.9514 16.3847 16.9413 16.3847 16.9413Z" fill="#CF4037"/>
<path d="M21.1518 8.4611C20.972 8.4611 20.3167 8.41031 20.1714 8.41031C20.0261 8.41031 20.0952 8.05167 20.1714 8.05167H20.4945C20.717 8.05167 20.7932 7.84747 20.7932 7.73571L20.7942 7.11191C20.5798 7.1241 20.3726 7.12918 20.206 7.1241C19.6758 7.10138 19.1463 7.06479 18.618 7.01438C18.5946 7.06111 18.554 7.16677 18.4839 7.40552C18.3478 7.8749 18.6373 8.27518 18.424 8.11263C18.2106 7.95109 18.3051 7.372 18.3305 7.26939C18.3549 7.16677 18.3732 6.99609 18.2624 6.99609C18.1517 6.99609 18.0318 7.21757 18.0318 7.74587C18.0318 8.27417 18.3386 8.53832 18.3386 8.53832C18.3386 8.53832 18.3732 8.56371 18.3813 8.9132C18.3904 9.26269 18.2787 10.8049 18.1862 11.2397C18.0917 11.6746 17.9383 12.211 17.9637 12.2963L17.9678 12.2953C17.9465 12.2638 17.9912 12.2354 18.1497 12.2171C18.1305 12.1504 18.1344 12.0791 18.1608 12.0149C18.2116 11.8788 18.3061 11.3932 18.3742 11.0782C18.4412 10.7633 18.4676 10.3711 18.493 10.0633C18.5184 9.75645 18.5611 9.11741 18.5611 8.89593C18.5611 8.67445 18.7572 8.72627 18.7572 8.8878C18.7572 9.04934 18.7491 9.4669 18.7399 9.91087C18.7308 10.3538 18.5784 11.5384 18.5611 11.6827C18.5438 11.827 18.5357 12.02 18.5784 12.02H18.8121C18.8883 12.02 18.936 12.0586 18.936 12.1429V13.1741L19.192 13.1863L19.2266 12.9262C19.2865 12.9262 19.2946 12.654 19.2946 12.654H19.7386V12.1592C19.7386 12.0576 19.8067 12.0068 19.8666 12.0068C19.9266 12.0068 20.4965 11.9895 20.4965 11.9895V9.86719C20.4965 9.38054 20.3218 9.22307 20.2283 9.18954C20.1338 9.155 20.1298 9.15094 20.1298 9.091V8.89492C20.1298 8.85225 20.0698 8.77503 20.1978 8.77503C20.3258 8.77503 20.8196 8.71509 21.1173 8.71509C21.416 8.71712 21.3306 8.4611 21.1518 8.4611Z" fill="#62A24C"/>
<path d="M18.5759 12.4929C18.5759 12.4929 17.3832 12.2562 18.3199 12.2033C18.4733 12.1952 18.5414 12.2125 18.5414 12.2125C18.5414 12.2125 18.0049 12.2806 18.2345 12.2887C18.4652 12.2978 18.5505 12.3141 18.5505 12.3141C18.5505 12.3141 18.1594 12.3486 18.3117 12.3822C18.389 12.3994 18.5759 12.4929 18.5759 12.4929Z" fill="#CF4037"/>
<path d="M19.3148 7.43178C19.3148 7.17575 19.7587 7.09143 19.7587 7.43178V7.73859C19.7587 7.94788 19.3239 7.99868 19.3239 7.73047C19.3229 7.52626 19.3148 7.43178 19.3148 7.43178ZM19.4001 8.68445C19.2548 8.68445 19.1105 8.76065 19.1105 8.89678C19.1105 9.03292 19.2812 8.99025 19.2812 9.31434C19.2812 9.63843 19.2213 11.8288 19.2213 12.093C19.2213 12.3571 19.5027 12.3998 19.5027 12.093C19.5027 11.7851 19.6053 9.36514 19.6053 9.23713C19.6053 9.10912 19.7669 9.05832 19.8695 9.05832C19.9721 9.05832 20.0655 8.68343 19.8522 8.68343L19.4001 8.68445ZM18.9927 8.00173C18.6686 7.91639 18.6341 8.29127 18.9246 8.35934C19.2142 8.42741 19.5037 8.39389 19.6581 8.39389C19.8105 8.39389 19.9518 8.03525 19.6236 8.03525C19.2314 8.03627 18.9927 8.00173 18.9927 8.00173Z" fill="#AFD4B9"/>
<path d="M21.1562 7.08954L21.4031 7.07227V7.49897C21.4031 7.66965 21.1735 7.70317 21.1735 7.49897C21.1735 7.29476 21.1562 7.08954 21.1562 7.08954Z" fill="#62A24C"/>
<path d="M24.0312 17.012C24.1125 17.3472 24.1847 17.844 24.2385 18.349C24.9253 18.0422 25.4048 16.4969 25.413 15.7461C24.872 16.0709 24.402 16.5014 24.0312 17.012Z" fill="#CF4037"/>
<path d="M15.7163 20.9054C15.8819 20.9054 16.1176 20.6392 16.3878 20.1455L17.2341 18.5138C17.4708 18.0587 17.4708 18.0587 17.4718 17.9439C17.4729 17.8291 17.4414 17.7539 17.3083 17.7539C16.8765 17.7539 15.4623 19.7655 15.4531 20.6016C15.4521 20.753 15.5496 20.9054 15.7163 20.9054Z" fill="#65493C"/>
<path d="M33.2208 23.0412C33.2208 22.8634 33.1152 22.7852 32.9039 22.7852H32.5625V23.6873H32.6986V23.2962H32.8541L33.0898 23.6873H33.2412L32.9872 23.2901C33.1192 23.2728 33.2208 23.2017 33.2208 23.0412Z" fill="white"/>
<path d="M32.7031 23.1807V22.9023H32.888C32.9825 22.9023 33.0831 22.9227 33.0831 23.0344C33.0831 23.1736 32.9795 23.1817 32.8647 23.1817L32.7031 23.1807Z" fill="#CF4037"/>
<path d="M24.0016 18.4055C24.0839 18.4055 24.1632 18.3852 24.2404 18.3507C24.1993 17.9011 24.1301 17.4546 24.0331 17.0137C23.7994 17.3479 23.6359 17.7106 23.6328 18.0632C23.6308 18.2907 23.7984 18.4055 24.0016 18.4055Z" fill="#65493C"/>
<path d="M18.817 33.9416C18.949 33.5525 17.9696 33.4265 17.8508 33.7201C17.7522 33.9609 18.7204 34.2302 18.817 33.9416Z" fill="#AFD4B9"/>
</g>
<defs>
<clipPath id="clip0_2702_4834">
<rect width="34" height="34" fill="white" transform="translate(3 3)"/>
</clipPath>
</defs>
</svg>
