<svg width="40" height="40" viewBox="0 0 40 40" fill="none" xmlns="http://www.w3.org/2000/svg">
<g clip-path="url(#clip0_2755_4861)">
<path d="M31.2709 34.3483L12.9852 37.8897C8.25616 38.6945 4 34.9922 4 30.163V9.71969C4 4.89055 8.25616 1.18821 12.9852 2.15404L31.2709 5.53444C33.9507 6.17832 36 8.59289 36 11.3294V28.5533C36 31.4508 33.9507 33.8654 31.2709 34.3483Z" fill="#FF5200"/>
<path d="M13.9326 27.1047V13.4221C13.9326 12.7783 14.4055 12.2953 15.036 12.4563L28.435 14.388V11.3295L15.6666 9.39787C13.1444 8.91495 10.9375 11.0076 10.9375 13.5831V27.1047C10.9375 29.6803 13.1444 31.6119 15.6666 31.129L28.435 29.1973V26.1389L15.036 28.0705C14.4055 28.2315 13.9326 27.7486 13.9326 27.1047Z" fill="white"/>
</g>
<defs>
<clipPath id="clip0_2755_4861">
<rect width="32" height="36" fill="white" transform="translate(4 2)"/>
</clipPath>
</defs>
</svg>
