<svg width="40" height="40" viewBox="0 0 40 40" fill="none" xmlns="http://www.w3.org/2000/svg">
<g clip-path="url(#clip0_2704_7325)">
<path d="M27.9109 13.5518L30.5488 6.10352H19.997H9.44531L12.0832 13.5518H27.9109Z" fill="#00D2FF"/>
<path d="M20 13.5527H38L20 35.8976V13.5527Z" fill="#00D2FF"/>
<path d="M20 6.10352V13.5518H2L9.44827 6.10352H20Z" fill="#18BDF6"/>
<path d="M20 13.5527H2L20 35.8976V13.5527Z" fill="#18BDF6"/>
<path d="M20 6.10352V13.5518H38L30.5517 6.10352H20Z" fill="#18BDF6"/>
<path d="M19.998 6.10352L12.0859 13.5518H19.998H27.91L19.998 6.10352Z" fill="#00D2FF"/>
<path d="M12.0859 13.5508L19.9998 35.8956L27.9136 13.5508H12.0859Z" fill="#28AFF0"/>
<path d="M30.552 6.10352L27.9141 13.5518H38.0002L30.552 6.10352Z" fill="#59E2FF"/>
<path d="M9.44827 6.10352L12.0862 13.5518H2L9.44827 6.10352Z" fill="#28AFF0"/>
<path d="M31.9673 9.5633C30.896 9.31904 30.0526 8.47571 29.8084 7.40429C29.79 7.32357 29.6831 7.32357 29.6648 7.40429C29.4205 8.47557 28.5772 9.31897 27.5059 9.5633C27.4251 9.58173 27.4251 9.68853 27.5059 9.70688C28.5771 9.95115 29.4205 10.7944 29.6648 11.8658C29.6832 11.9465 29.79 11.9465 29.8084 11.8658C30.0526 10.7944 30.896 9.95115 31.9673 9.70688C32.048 9.68853 32.048 9.58173 31.9673 9.5633Z" fill="white"/>
<path d="M29.1917 14.0672C28.3628 13.8526 27.7102 13.1999 27.4955 12.371C27.4739 12.2878 27.3662 12.2878 27.3446 12.371C27.1299 13.1999 26.4773 13.8525 25.6484 14.0672C25.5651 14.0888 25.5651 14.1966 25.6484 14.2181C26.4773 14.4328 27.1299 15.0854 27.3446 15.9144C27.3662 15.9976 27.4739 15.9976 27.4955 15.9144C27.7101 15.0854 28.3628 14.4329 29.1917 14.2181C29.275 14.1966 29.275 14.0888 29.1917 14.0672Z" fill="white"/>
</g>
<defs>
<clipPath id="clip0_2704_7325">
<rect width="36" height="36" fill="white" transform="translate(2 3)"/>
</clipPath>
</defs>
</svg>
