<svg width="40" height="40" viewBox="0 0 40 40" fill="none" xmlns="http://www.w3.org/2000/svg">
<g clip-path="url(#clip0_2724_5119)">
<path fill-rule="evenodd" clip-rule="evenodd" d="M9.9987 16.8671H10.2464V15.683H10.6982V15.4629H9.54688V15.683H9.9987V16.8671Z" fill="black"/>
<path fill-rule="evenodd" clip-rule="evenodd" d="M10.9219 16.8671H11.1696V16.2428H11.8354V16.8671H12.0832V15.4629H11.8354V16.0227H11.1696V15.4629H10.9219V16.8671Z" fill="black"/>
<path fill-rule="evenodd" clip-rule="evenodd" d="M12.4141 16.8671H13.401V16.6508H12.6618V16.2428H13.175V16.0322H12.6618V15.683H13.3613V15.4629H12.4141V16.8671Z" fill="black"/>
<path d="M6.83181 15C6.81207 14.9999 6.79445 15.0033 6.78 15.0114C6.70692 15.0527 6.71845 15.1047 6.76633 15.1665C6.81231 15.2264 6.97381 15.3726 7.07922 15.4798C7.43305 15.841 7.71863 16.445 7.86541 16.9275C8.11845 17.7588 8.10877 18.6649 7.89647 19.5239C7.7163 20.2565 7.38578 21.0209 6.7577 21.4449C6.53785 21.5933 6.15254 21.7621 5.85246 21.7475C5.55953 21.7334 5.31694 21.5927 5.16512 21.3471C5.13782 21.3028 5.10322 21.2439 5.10322 21.2439C5.10322 21.2439 5.42472 21.0118 5.59082 20.8748C6.05343 20.4924 6.37408 19.9279 6.47026 19.3267C6.53431 18.9293 6.51981 18.3261 6.2926 17.9439C6.16178 17.7241 5.90388 17.6189 5.65483 17.6246C5.35518 17.6324 5.01461 17.7861 4.80147 17.9626C4.58035 18.1457 4.40333 18.3669 4.27187 18.5923C4.10682 18.8736 4.02531 19.1449 3.98394 19.4992C3.93375 19.9314 3.98857 20.5592 4.12486 20.9528C4.17441 21.0945 4.25021 21.2831 4.25021 21.2831C4.25021 21.2831 4.15195 21.3261 4.08286 21.3532C3.82269 21.4535 3.62134 21.462 3.404 21.3124C3.19758 21.1707 3.06003 20.8672 3.00439 20.643C2.96344 20.4767 2.93658 20.2213 2.92986 20.0441C2.89794 19.1864 3.22778 18.0803 3.64314 17.3821C3.6864 17.3085 4.01567 16.8296 4.08896 16.7334C4.15574 16.6433 4.47935 16.2583 4.53646 16.1984C4.6024 16.1303 4.72162 16.0165 4.76824 15.9327C4.79764 15.8787 4.79895 15.8455 4.75927 15.8045C4.68304 15.7254 4.55117 15.7672 4.45205 15.8125C4.39724 15.8369 4.12926 15.9882 4.07992 16.0228C3.64062 16.3274 3.27252 16.752 2.98861 17.1819C2.53882 17.8642 2.23709 18.6349 2.12936 19.4485C2.06637 19.9279 2.07871 20.3947 2.23347 20.8454C2.33847 21.1494 2.57598 21.4845 2.85674 21.6608C3.24375 21.9046 3.71498 21.9405 4.13621 21.788C4.20068 21.7648 4.32226 21.7099 4.35082 21.6908C4.38357 21.6686 4.41357 21.6488 4.42155 21.6506C4.4289 21.6518 4.48564 21.7475 4.5312 21.8262C4.60134 21.9489 4.77647 22.1211 4.8802 22.2038C5.15067 22.4173 5.42787 22.5259 5.76553 22.5663C6.37954 22.6393 6.93892 22.3748 7.45675 21.9714C7.56028 21.8905 7.78185 21.7042 7.87151 21.6125C7.90364 21.5791 8.16442 21.2388 8.20684 21.1748C8.38575 20.9021 8.55749 20.5786 8.66879 20.2642C8.92371 19.5479 8.98524 18.7366 8.88907 18.0222C8.81284 17.4608 8.67051 17.0176 8.39291 16.509C8.34755 16.4263 8.09955 16.0302 8.03781 15.9421C7.79317 15.5933 7.52311 15.3506 7.11007 15.107C7.04165 15.0669 6.91734 15.0004 6.83181 15ZM5.44899 18.0071C5.45883 18.0065 5.46915 18.007 5.48012 18.0085C5.55173 18.0191 5.58641 18.0636 5.63176 18.1343C5.67313 18.1987 5.69053 18.2621 5.70334 18.3465C5.71867 18.4462 5.72606 18.6249 5.72606 18.6249C5.72606 18.6249 5.72894 18.6241 5.73146 18.6249C5.73734 18.6249 5.73215 18.8528 5.72606 18.8844C5.67251 19.1596 5.68716 19.2513 5.60463 19.4992C5.56935 19.6068 5.52361 19.7418 5.49211 19.8295C5.47573 19.8753 5.38188 20.0708 5.36907 20.0927C5.36067 20.113 5.3004 20.2129 5.27793 20.2508C5.26638 20.2706 5.13619 20.4595 5.1089 20.4885C5.04485 20.5553 4.95704 20.651 4.95704 20.651C4.95704 20.651 4.93901 20.548 4.92809 20.4777C4.86908 20.0692 4.92453 19.4687 4.97934 19.1156C5.01251 18.9004 5.03875 18.7841 5.10069 18.595C5.14353 18.4618 5.21621 18.2513 5.28907 18.1378C5.33703 18.0646 5.38016 18.011 5.44899 18.0071Z" fill="black"/>
<path d="M10.3159 18.3694C10.2418 18.3741 10.1656 18.3939 10.1347 18.4408C10.095 18.4997 10.0858 18.5733 10.0797 18.6146C10.0774 18.6261 9.79473 19.0023 9.6469 19.2017C9.51355 19.3801 9.18997 20.011 9.12592 20.1467C9.06503 20.276 8.98669 20.4468 8.98669 20.4468L8.69819 20.4601C8.68328 20.4607 8.68093 20.4615 8.67274 20.468C8.64649 20.4882 8.62802 20.5369 8.63222 20.5557C8.63516 20.5744 8.65117 20.5991 8.66671 20.6225C8.78683 20.8052 8.85649 20.8518 8.80588 20.9923C8.68535 21.3262 8.568 21.5533 8.61042 21.8348C8.63457 22.0001 8.69947 22.1603 8.84184 22.2362C8.91744 22.2759 8.98924 22.2686 9.09381 22.2553C9.1881 22.2431 9.22337 22.1883 9.26348 22.0941C9.28258 22.0492 9.36261 21.7618 9.40418 21.6169C9.42476 21.5447 9.47241 21.4163 9.52554 21.2879C9.55011 21.2279 9.58015 21.156 9.58015 21.156L9.89782 21.1509L10.4681 21.1287C10.4681 21.1287 10.502 21.5007 10.5259 21.6304C10.5538 21.7794 10.641 21.901 10.7719 22.0209C10.8191 22.0637 10.927 22.1365 10.9806 22.1383C11.0203 22.1389 11.0614 22.1134 11.0828 22.0829C11.1407 22.0026 11.1437 21.8399 11.1408 21.7419C11.1376 21.6022 11.0969 20.9821 11.0838 20.8631C11.0336 20.4095 10.8806 19.5267 10.7388 19.054C10.7126 18.9692 10.5912 18.614 10.52 18.4893C10.4831 18.4236 10.398 18.3647 10.3159 18.3694ZM10.2193 19.575C10.2193 19.575 10.2261 19.5833 10.2307 19.5913C10.2569 19.6304 10.2819 19.7305 10.292 19.7656C10.314 19.8445 10.3275 19.906 10.3443 20.0057C10.369 20.1549 10.3997 20.3887 10.3997 20.3887C10.3997 20.3887 10.1261 20.4179 9.96295 20.4199C9.91171 20.4207 9.86192 20.4199 9.86192 20.4199C9.86192 20.4199 9.86066 20.4011 9.86192 20.3852C9.86318 20.3624 9.87413 20.3359 9.884 20.3165C9.92516 20.2336 9.95456 20.1317 10.0134 19.9949C10.0873 19.8225 10.2193 19.575 10.2193 19.575Z" fill="black"/>
<path d="M12.1703 18.498C12.1536 18.4981 12.1356 18.5011 12.1163 18.5077C11.9609 18.5609 11.7937 18.8908 11.7597 18.9615C11.5069 19.4892 11.3015 20.4126 11.3309 21.0447C11.3412 21.2649 11.3981 21.4992 11.527 21.6885C11.6696 21.8979 11.9056 21.9663 12.1721 21.9166C12.3424 21.885 12.5806 21.7778 12.6969 21.7024C12.8918 21.574 13.136 21.3159 13.2116 21.0659C13.2397 20.971 13.2397 20.769 13.1232 20.7195C13.1137 20.7156 13.1028 20.7121 13.0956 20.7117C12.9944 20.7036 12.8831 20.7384 12.7937 20.7706C12.5549 20.8573 12.1175 21.0525 12.0864 21.0551C12.0182 21.0604 12.0012 21.0168 11.9893 20.9296C11.9659 20.7653 12.0306 20.4432 12.0585 20.2928C12.085 20.1505 12.1965 19.6543 12.2742 19.3369C12.3183 19.1555 12.3739 18.9313 12.3542 18.7621C12.3408 18.6471 12.287 18.498 12.1703 18.498Z" fill="black"/>
<path d="M13.0216 18.4689C12.9624 18.4632 12.8733 18.6444 12.8572 18.6874C12.7938 18.8552 12.7979 18.9926 12.8693 19.1504C12.8825 19.1791 12.9721 19.3081 12.9989 19.3383C13.0873 19.4351 13.1749 19.4985 13.3028 19.5764C13.3649 19.6139 13.51 19.6871 13.5533 19.7024C13.6684 19.7454 13.7939 19.7919 13.7973 19.7986C13.801 19.8059 13.7513 19.9582 13.7202 20.0357C13.6616 20.1796 13.5772 20.5793 13.5449 20.7593C13.4657 21.1941 13.3761 22.0743 13.6507 22.5051C13.7683 22.6893 13.9976 22.9196 14.2374 22.8585C14.3172 22.8385 14.3668 22.7833 14.3823 22.704C14.3884 22.6762 14.3863 22.6304 14.3823 22.5901C14.3248 21.9298 14.3046 21.5965 14.363 20.9217C14.3728 20.806 14.3852 20.6896 14.4024 20.5812C14.423 20.4446 14.4512 20.3218 14.4743 20.1484C14.4808 20.099 14.5163 19.9575 14.5224 19.957C14.5278 19.9556 14.5339 19.9592 14.5438 19.9627C14.5979 19.979 14.809 19.9729 14.8445 19.9707C15.1032 19.9519 15.3611 19.8502 15.5156 19.6463C15.6057 19.5267 15.6574 19.3756 15.6462 19.2187C15.6351 19.0629 15.5902 18.921 15.4907 18.8002C15.3972 18.6931 15.3233 18.6648 15.3008 18.6524C15.2017 18.5975 15.0058 18.5812 14.9058 18.6008C14.6788 18.646 14.4508 18.7987 14.2964 18.96C14.2761 18.9814 14.2574 19.0024 14.2408 19.0307C14.2099 19.0811 14.1616 19.1645 14.1517 19.1689C14.1146 19.1855 13.8607 19.1104 13.8374 19.1033C13.675 19.0562 13.2788 18.9066 13.1608 18.7714C13.1419 18.7494 13.118 18.7086 13.1106 18.6842C13.0881 18.6132 13.1068 18.4762 13.0216 18.4689ZM15.1233 18.9062C15.1762 18.9077 15.2481 18.9268 15.2704 18.9714C15.3124 19.0546 15.2271 19.1243 15.1534 19.1547C15.02 19.2107 14.9142 19.2186 14.7435 19.2288V19.2289C14.7318 19.2289 14.7311 19.2225 14.7334 19.2164C14.7945 19.0458 14.9233 18.9182 15.102 18.9066C15.1086 18.9061 15.1157 18.9059 15.1233 18.9062Z" fill="black"/>
<path d="M16.9509 15.4711C16.9001 15.4716 16.8492 15.4728 16.7981 15.4747C16.437 15.4881 15.9542 15.5597 15.572 15.6616C15.3024 15.7328 15.1188 15.8469 14.9903 16.066C14.9263 16.1757 14.8677 16.2941 14.8996 16.415C14.9275 16.5177 15.0785 16.5534 15.1999 16.5726C15.3164 16.5901 15.5819 16.6048 15.6524 16.521C15.6829 16.4849 15.6793 16.4509 15.6541 16.4077C15.6281 16.3618 15.5606 16.3286 15.4968 16.3167C15.425 16.3041 15.2862 16.2962 15.2532 16.2821C15.235 16.2741 15.2157 16.2639 15.2157 16.2639C15.2157 16.2639 15.2239 16.256 15.2314 16.2493C15.2457 16.2385 15.2965 16.2175 15.3292 16.2097C15.3706 16.2012 15.4151 16.1865 15.46 16.1745C15.7706 16.0909 16.3864 16.077 16.6684 16.0868C17.7635 16.1263 18.7827 16.3636 19.8144 16.7752C20.8244 17.1784 21.9728 17.866 22.6429 18.7027C22.8962 19.0193 23.2139 19.5387 23.2523 19.9774C23.2874 20.3782 23.1553 20.7618 22.9029 21.0429C22.7118 21.2547 22.4592 21.411 22.1839 21.5368C21.5567 21.8248 20.7938 21.884 20.1103 21.8665C20.0206 21.8642 19.683 21.8347 19.603 21.8232C19.4642 21.8012 19.2878 21.7684 19.2878 21.7684L19.2428 19.7152C19.2428 19.7152 19.4558 19.7226 19.6057 19.7311C19.9891 19.7532 20.7816 19.8806 21.1785 20.0335C21.2633 20.0657 21.3517 20.116 21.3597 20.1975C21.3653 20.2599 21.3144 20.3133 21.2572 20.3624C21.2308 20.3861 21.2022 20.4055 21.168 20.4236C21.0993 20.4591 20.9836 20.518 20.9754 20.5282C20.9536 20.5561 20.9519 20.5973 20.9821 20.6205C21.0584 20.6778 21.3063 20.71 21.3725 20.7057C21.594 20.6937 21.8127 20.5481 21.928 20.3516C22.0306 20.1778 22.0409 20.0449 21.9733 19.8522C21.9009 19.6421 21.677 19.4433 21.4374 19.3257C21.1468 19.1824 20.6399 19.075 20.3797 19.035C20.1764 19.0036 19.9608 18.9735 19.7653 18.9688C19.5637 18.9637 19.2363 18.9729 19.2363 18.9729C19.2363 18.9729 19.23 18.6942 19.2172 18.5091C19.196 18.2049 19.1095 17.6073 18.8241 17.4355C18.772 17.4039 18.708 17.4006 18.6721 17.4479C18.6166 17.5178 18.5625 17.785 18.5499 17.8549C18.5266 17.9832 18.4539 18.59 18.456 18.6826C18.4579 18.7763 18.4482 19.0336 18.4425 19.0416C18.4394 19.0454 18.4361 19.0483 18.4314 19.0515C18.4203 19.0589 18.238 19.0903 18.1207 19.1066C17.8716 19.1416 17.2729 19.3314 17.0799 19.4139C16.8174 19.5254 16.4342 19.7214 16.3271 19.9809C16.2499 20.167 16.279 20.3233 16.3809 20.499C16.5119 20.7241 16.6839 20.8998 16.8752 21.0753C16.9436 21.1381 17.2528 21.3896 17.3246 21.4412C17.5839 21.6279 17.881 21.8085 18.1935 21.9581C18.2953 22.0075 18.4171 22.0633 18.4171 22.0633C18.4171 22.0633 18.4413 22.3012 18.4644 22.4382C18.4925 22.6082 18.5513 22.7566 18.7143 22.8237C18.8138 22.8644 18.9279 22.8585 19.0354 22.8385C19.1242 22.8222 19.1852 22.7838 19.2228 22.7089C19.2369 22.681 19.2625 22.5946 19.2665 22.5624C19.275 22.4904 19.2745 22.3885 19.2745 22.3885C19.2745 22.3885 19.537 22.4468 19.7134 22.4784C20.2268 22.5703 20.7833 22.5791 21.2673 22.5222C21.9813 22.4376 22.8132 22.1808 23.3504 21.7299C23.4953 21.6086 23.7385 21.325 23.8409 21.146C23.901 21.0418 23.9571 20.9365 24.0144 20.8091C24.0257 20.7832 24.0967 20.573 24.1101 20.4819C24.1171 20.4424 24.1595 20.1423 24.1414 19.9837C24.1444 19.9167 24.1062 19.7442 24.1019 19.713C24.099 19.7099 24.0789 19.6253 24.0652 19.5679C24.0514 19.5096 23.9675 19.3082 23.948 19.2748C23.8917 19.1767 23.8573 19.0933 23.8138 19.0081C23.6307 18.6547 23.2546 18.209 22.9522 17.9181C22.7964 17.7675 22.5803 17.5794 22.4153 17.4485C22.3363 17.3847 21.8271 17.0216 21.7402 16.966C21.4643 16.7905 20.9729 16.5218 20.6617 16.3763C20.2276 16.173 19.6338 15.9499 19.1806 15.8172C18.4384 15.598 17.7124 15.4628 16.9509 15.4711ZM18.4169 19.7487C18.4169 19.7487 18.4097 20.0522 18.4085 20.3596C18.4054 20.9412 18.4214 21.5317 18.4214 21.5317C18.4214 21.5317 18.2076 21.4575 18.0791 21.4055C17.7026 21.2526 17.1923 20.9377 16.9405 20.7341C16.8807 20.6854 16.6665 20.4854 16.6287 20.4424C16.563 20.3675 16.5045 20.296 16.5205 20.2034C16.5363 20.115 16.7171 20.0414 16.8063 20.0113C17.1024 19.9079 17.6162 19.8217 17.8899 19.7933C18.1045 19.7701 18.4169 19.7487 18.4169 19.7487Z" fill="black"/>
<path d="M25.664 16.1134C25.418 16.1104 25.1574 16.1735 24.9602 16.2545C24.6564 16.379 24.3773 16.5624 24.1639 16.7832C23.9518 17.0017 23.7885 17.2781 23.806 17.5786C23.8108 17.6748 23.8508 17.8239 23.9004 17.9101C23.9424 17.9829 24.0209 18.0607 24.0384 18.1366C24.0482 18.1822 24.0392 18.2407 24.0413 18.2944C24.0453 18.4167 24.0999 18.5428 24.1944 18.6235C24.2625 18.6812 24.3214 18.679 24.3914 18.629C24.4111 18.6156 24.4414 18.5813 24.4576 18.5548C24.4882 18.5049 24.5174 18.4356 24.5449 18.4076C24.5491 18.4038 24.5686 18.414 24.584 18.4248C24.5961 18.4337 24.7118 18.4621 24.7431 18.4647C24.8048 18.4692 24.8706 18.4853 24.934 18.4904C25.139 18.5083 25.4201 18.4445 25.6003 18.376C26.0115 18.2195 26.3288 17.9955 26.6503 17.676C26.8378 17.491 27.0024 17.1862 26.9419 16.9088C26.9119 16.7708 26.8464 16.6756 26.7281 16.5759C26.6691 16.5268 26.5243 16.453 26.4235 16.4361C26.3943 16.431 26.3575 16.4275 26.3439 16.419C26.3281 16.4094 26.3155 16.389 26.3004 16.3702C26.2286 16.282 26.0854 16.1972 25.9831 16.1629C25.8846 16.1297 25.7758 16.1147 25.664 16.1134ZM25.1391 16.7628C25.1391 16.7628 25.0726 16.8164 25.0155 16.8633C24.8303 17.0174 24.5839 17.2662 24.4477 17.4455C24.3729 17.5442 24.2839 17.6738 24.2839 17.6738C24.2839 17.6738 24.2647 17.6353 24.2521 17.6059C24.1679 17.4021 24.3548 17.1722 24.5249 17.0311C24.6282 16.9451 24.8347 16.8119 24.9754 16.7852C25.0344 16.7734 25.1391 16.7628 25.1391 16.7628ZM26.2326 16.8211C26.2752 16.8199 26.3142 16.8288 26.3657 16.8505C26.4446 16.8833 26.5068 16.9534 26.518 17.0458C26.5524 17.3324 26.2145 17.5758 25.9846 17.7005C25.7504 17.8263 25.4984 17.9019 25.2297 17.9195C25.1244 17.9268 24.8473 17.9296 24.8393 17.9005C24.8372 17.8934 24.855 17.8671 24.879 17.8391C24.9157 17.7935 24.9632 17.7264 25.0102 17.6669C25.2133 17.4127 25.5869 17.0945 25.851 16.9457C25.9407 16.8957 25.9833 16.8794 26.0782 16.8521C26.1439 16.8335 26.1899 16.8222 26.2326 16.8211ZM24.8957 19.0217C24.8157 19.021 24.7687 19.1306 24.7463 19.1872C24.6751 19.3645 24.6234 19.7881 24.6098 19.9196C24.5673 20.32 24.5331 21.2685 24.6047 21.7518C24.6345 21.9542 24.7032 22.0858 24.9142 22.1282C24.9997 22.1454 25.1553 22.1421 25.224 22.0997C25.2838 22.0632 25.3254 21.9935 25.3394 21.9329C25.3777 21.7644 25.363 21.5255 25.3552 21.3459C25.346 21.1341 25.3405 20.9223 25.3305 20.7083C25.317 20.4219 25.2818 19.6919 25.1994 19.3616C25.1639 19.2198 25.1047 19.0902 24.9606 19.0368C24.9441 19.031 24.9245 19.0255 24.9121 19.0233C24.9065 19.0222 24.9011 19.0217 24.8957 19.0217Z" fill="black"/>
<path d="M27.6821 18.9864C27.4994 18.9874 27.3268 18.9994 27.1821 19.0169C26.7035 19.0744 26.0639 19.2189 25.7905 19.6005C25.6864 19.7465 25.6249 19.9703 25.6727 20.1526C25.7 20.2535 25.7912 20.3447 25.8838 20.3855C25.9768 20.4261 26.0931 20.4467 26.2 20.4613C26.3042 20.476 26.7369 20.5115 27.012 20.5343C27.2747 20.5553 27.7837 20.6096 28.0592 20.7211C28.0825 20.7306 28.2012 20.7802 28.2306 20.815C28.2438 20.8315 28.2596 20.8566 28.2691 20.8593C28.272 20.8599 28.276 20.8581 28.2797 20.8597C28.3053 20.8676 28.3188 20.9447 28.3188 20.9539C28.318 21.0254 28.2634 21.0824 28.2069 21.121C27.7976 21.4023 27.2359 21.482 26.7364 21.4747C26.5667 21.472 26.4268 21.4465 26.2549 21.3742C26.1816 21.3434 26.0854 21.2692 26.0996 21.1895C26.1271 21.0347 26.3029 20.9958 26.4482 21.0092C26.5297 21.0166 26.6357 21.05 26.7153 21.0802C27.036 21.2031 27.1821 21.3065 27.4646 21.2647C27.5698 21.2494 27.9341 21.1725 27.9837 21.0268C27.9958 20.9907 27.978 20.9526 27.9511 20.9257C27.9129 20.8882 27.6935 20.805 27.6336 20.784C27.4184 20.7103 27.0115 20.642 26.7851 20.6338C26.488 20.6236 26.0942 20.6774 25.9105 20.9217C25.7948 21.0749 25.7918 21.2847 25.8867 21.4465C26.0159 21.6669 26.2717 21.8377 26.481 21.9369C26.8351 22.1033 27.2605 22.182 27.6532 22.1402C27.8783 22.1153 28.0738 22.0709 28.2735 21.9771C28.465 21.8874 28.6749 21.7185 28.7709 21.5173C28.899 21.2466 28.8896 20.8892 28.7478 20.6338C28.6548 20.4652 28.5523 20.371 28.3782 20.296C28.1907 20.2145 27.9455 20.1708 27.6952 20.1378C27.6811 20.1358 27.6773 20.1352 27.662 20.1338H27.6619L26.5081 20.0011C26.4928 19.9997 26.4896 19.999 26.4749 19.9962C26.4247 19.9856 26.1912 19.9611 26.2729 19.8751C26.2962 19.8498 26.3667 19.8321 26.4077 19.8207C26.9295 19.6823 27.5921 19.6979 28.1403 19.668C28.2626 19.6606 28.5412 19.6445 28.6756 19.6029C28.8034 19.5642 28.9101 19.4762 28.9395 19.3394C28.9546 19.2664 28.9185 19.2324 28.8482 19.1961C28.5356 19.0348 28.0842 18.9841 27.6821 18.9864Z" fill="black"/>
<path d="M30.8457 18.5353C30.767 18.5316 30.7204 18.5867 30.72 18.6731C30.7194 18.7467 30.7372 18.8248 30.7563 18.9021C30.8162 19.14 30.8961 19.3962 30.9617 19.642C31.0211 19.8618 31.0969 20.1867 31.1263 20.4176C31.137 20.4971 31.1427 20.5718 31.1551 20.6639C31.1624 20.7218 31.1729 21.0105 31.1674 21.0186C31.1557 21.0396 31.1297 21.0384 31.1007 21.0158C31.0793 20.9987 31.0608 20.9717 31.0412 20.944C30.8816 20.7151 30.7193 20.4621 30.5503 20.211C30.3991 19.987 30.1711 19.665 29.9976 19.4276C29.9298 19.3346 29.8435 19.2442 29.7225 19.2338C29.5467 19.2197 29.4655 19.4688 29.409 19.6212C29.2115 20.1567 29.0558 20.9517 29.0909 21.5231C29.1012 21.6986 29.1513 22.0456 29.3727 22.1244C29.459 22.1554 29.5132 22.1685 29.5844 22.1373C29.6846 22.0928 29.711 22.0061 29.737 21.9003C29.7769 21.7382 29.7836 21.4091 29.7887 21.275C29.7891 21.2528 29.8099 20.4558 29.8401 20.2853C29.8448 20.2619 29.8519 20.2259 29.8697 20.231C29.8932 20.2379 29.9067 20.2518 29.917 20.2662C29.964 20.3319 30.2679 20.9171 30.4445 21.2163C30.4963 21.3038 30.8006 21.8155 30.9859 21.9174C31.1551 22.0112 31.4007 21.9245 31.524 21.8136C31.6025 21.7429 31.697 21.6024 31.743 21.498C31.8684 21.2143 31.8892 20.795 31.8645 20.5071C31.8386 20.211 31.7821 19.9533 31.6887 19.6816C31.6624 19.6023 31.5452 19.3194 31.5156 19.2637C31.4287 19.099 31.1303 18.6246 30.9052 18.5476C30.8837 18.5401 30.8639 18.5362 30.8457 18.5353Z" fill="black"/>
<path d="M34.1843 18.9006C34.0077 18.8961 33.453 18.9585 33.332 18.9728C33.193 18.9895 33.0555 19.0072 32.9094 19.028C32.7922 19.0441 32.4213 19.1132 32.3743 19.1279C32.2462 19.1665 32.2054 19.2325 32.2674 19.3516C32.319 19.4533 32.4054 19.5072 32.5196 19.549C32.6219 19.5865 32.813 19.6294 32.813 19.6294C32.813 19.6294 32.7411 19.822 32.6951 19.9484C32.6621 20.0383 32.6235 20.1504 32.5632 20.1647C32.5531 20.1675 32.5429 20.1674 32.529 20.1686C32.3778 20.1841 32.2876 20.2641 32.2916 20.3771C32.2949 20.451 32.352 20.6814 32.348 20.7157C32.3459 20.7307 32.343 20.7426 32.3369 20.7562C32.2407 21.0061 32.2055 21.0141 32.1683 21.1961C32.1282 21.3912 32.1263 21.57 32.1987 21.7516C32.2088 21.7773 32.2193 21.7995 32.2332 21.8303C32.2489 21.866 32.3285 21.9817 32.3329 21.986C32.3611 22.0168 32.3997 22.0551 32.4236 22.0728V22.0729C32.4438 22.0882 32.5032 22.1265 32.5032 22.1265C32.5022 22.1318 32.6118 22.1816 32.642 22.1891C32.8006 22.2293 32.8447 22.2488 33.0257 22.2291C33.4175 22.1867 33.9433 21.9392 34.2509 21.7109C34.3482 21.6388 34.4277 21.5717 34.4233 21.4704C34.4183 21.3627 34.3814 21.2881 34.3102 21.199C34.2279 21.0983 34.1491 21.1091 33.9927 21.1334C33.7016 21.1778 33.3469 21.2288 33.1084 21.2712C33.0647 21.2785 33.0089 21.2863 32.9539 21.2859C32.9209 21.2859 32.8812 21.2842 32.8812 21.2842C32.8812 21.2842 32.9236 21.1307 32.9732 20.9801C33.0223 20.8355 33.0788 20.6925 33.0788 20.6925C33.0788 20.6925 33.1487 20.6823 33.2149 20.6754C33.3209 20.6633 34.1029 20.6588 34.1726 20.6481C34.3074 20.626 34.3393 20.5504 34.3322 20.3861C34.3269 20.2456 34.2818 20.1482 34.1512 20.1201C34.1163 20.1129 34.0542 20.1097 33.992 20.1097C33.7363 20.1107 33.281 20.1154 33.281 20.1154L33.4103 19.6957C33.4103 19.6957 33.6667 19.6987 33.8522 19.6968C33.9687 19.6956 34.6041 19.6868 34.8002 19.5713C34.9279 19.4952 34.8702 19.355 34.7856 19.237C34.6283 19.0158 34.4535 18.9082 34.1843 18.9006Z" fill="black"/>
<path d="M36.0399 19.0157C35.9431 19.0108 35.7299 19.2587 35.6972 19.2982C35.2629 19.8181 34.8757 20.4653 34.8749 21.1194C34.8749 21.3261 34.9301 21.5819 35.0326 21.7937C35.0393 21.8063 35.0393 21.8096 35.0338 21.8239C34.7052 22.6584 34.5857 23.0271 34.4675 23.8655C34.4339 24.1053 34.3927 24.5138 34.5649 24.7309C34.6506 24.8407 34.751 24.9003 34.8652 24.9586C34.9532 25.0042 34.9824 25.0179 35.055 24.9765C35.0849 24.958 35.093 24.9506 35.1054 24.9274C35.1144 24.9103 35.2909 24.1089 35.3528 23.8032C35.394 23.5971 35.5718 22.934 35.6527 22.6878C35.6995 22.5451 35.7633 22.3632 35.7633 22.3632L35.7634 22.3632C35.7634 22.3632 35.8257 22.3663 35.8792 22.3674C36.2753 22.3764 36.6791 22.2258 37.0233 22.0044C37.3599 21.7879 37.6075 21.5405 37.7887 21.1968C37.9416 20.9088 38.0123 20.5304 37.9785 20.1941C37.9495 19.9126 37.8374 19.5654 37.5799 19.4013C37.4176 19.2972 37.2681 19.318 37.1016 19.4016C36.8916 19.5074 36.8056 19.5822 36.6113 19.7622C36.5189 19.8476 36.1978 20.1715 36.1145 20.2629C36.0321 20.3528 35.9612 20.4361 35.8625 20.5623C35.6817 20.792 35.4078 21.1642 35.4078 21.1642C35.4078 21.1642 35.3921 21.0758 35.3887 21.0057C35.3872 20.9812 35.4202 20.7904 35.4334 20.7496C35.5157 20.4885 35.5523 20.3713 35.7207 20.0865C35.8704 19.8317 36.0894 19.5239 36.1382 19.2218C36.1526 19.1301 36.1369 19.0202 36.0399 19.0157ZM37.4091 19.9472C37.4342 19.9472 37.4577 19.9601 37.4696 19.975C37.5671 20.0995 37.5497 20.3794 37.5154 20.5129C37.4382 20.8067 37.2746 21.0578 37.0396 21.2406C36.8855 21.3601 36.5967 21.5048 36.3844 21.5395C36.2847 21.5558 36.1877 21.5595 36.181 21.5479C36.1776 21.5424 36.274 21.3782 36.3061 21.3324C36.4556 21.1283 36.6119 20.865 36.778 20.635C36.9023 20.4616 37.1627 20.1275 37.3643 19.9636C37.3784 19.9519 37.394 19.9472 37.4091 19.9472Z" fill="black"/>
<path fill-rule="evenodd" clip-rule="evenodd" d="M24.744 24.9571C25.0737 24.9571 25.2492 24.772 25.3187 24.4972L25.0892 24.4468C25.0352 24.6543 24.931 24.744 24.7459 24.744C24.5048 24.744 24.3602 24.5627 24.3602 24.2337C24.3602 23.9196 24.501 23.7383 24.742 23.7383C24.931 23.7383 25.014 23.8318 25.068 24.015L25.2974 23.9514C25.2338 23.6991 25.0757 23.5215 24.744 23.5215C24.3853 23.5215 24.1172 23.772 24.1172 24.2355C24.1172 24.7122 24.3775 24.9571 24.744 24.9571Z" fill="black"/>
<path fill-rule="evenodd" clip-rule="evenodd" d="M26.1304 24.9571C26.4911 24.9571 26.7726 24.7047 26.7726 24.2393C26.7726 23.7738 26.4911 23.5215 26.1304 23.5215C25.7679 23.5215 25.4844 23.7738 25.4844 24.2393C25.4844 24.7047 25.7679 24.9571 26.1304 24.9571ZM26.1304 24.7459C25.8874 24.7459 25.7274 24.5645 25.7274 24.2393C25.7274 23.914 25.8874 23.7364 26.1304 23.7364C26.3696 23.7364 26.5296 23.914 26.5296 24.2393C26.5296 24.5645 26.3696 24.7459 26.1304 24.7459Z" fill="black"/>
<path fill-rule="evenodd" clip-rule="evenodd" d="M27.0234 24.9301H27.2414V23.8889H27.2452C27.2761 24.0217 27.2973 24.0815 27.332 24.1806L27.6078 24.9301H27.8219L28.0996 24.1806C28.1323 24.0834 28.1632 23.9936 28.1844 23.8983H28.1883V24.9301H28.4216V23.5469H28.0976L27.7274 24.6441H27.7235L27.3416 23.5469H27.0234V24.9301Z" fill="black"/>
<path fill-rule="evenodd" clip-rule="evenodd" d="M28.7422 24.9301H28.9813V24.4049H29.234C29.5271 24.4049 29.7913 24.3058 29.7913 23.9712C29.7913 23.6516 29.5502 23.5469 29.2417 23.5469H28.7422V24.9301ZM28.9813 24.2011V23.76H29.2436C29.4577 23.76 29.5541 23.8254 29.5541 23.9787C29.5541 24.1376 29.4577 24.2011 29.2455 24.2011H28.9813Z" fill="black"/>
<path fill-rule="evenodd" clip-rule="evenodd" d="M29.7578 24.9318H29.9835L30.1011 24.6028H30.643L30.7587 24.9318H31.0056L30.5003 23.543H30.2631L29.7578 24.9318ZM30.1744 24.3972L30.373 23.8364H30.3769L30.5717 24.3972H30.1744Z" fill="black"/>
<path fill-rule="evenodd" clip-rule="evenodd" d="M31.2109 24.9301H31.4346V23.9226H31.4385L32.1386 24.9301H32.3584V23.5469H32.1347V24.5338H32.1308L31.4559 23.5469H31.2109V24.9301Z" fill="black"/>
<path fill-rule="evenodd" clip-rule="evenodd" d="M33.0407 24.9301H33.2837V24.3338L33.7716 23.5469H33.5209L33.166 24.1357L32.8092 23.5469H32.5547L33.0407 24.3338V24.9301Z" fill="black"/>
</g>
<defs>
<clipPath id="clip0_2724_5119">
<rect width="36" height="10" fill="white" transform="translate(2 15)"/>
</clipPath>
</defs>
</svg>
