<svg width="40" height="40" viewBox="0 0 40 40" fill="none" xmlns="http://www.w3.org/2000/svg">
<g clip-path="url(#clip0_2756_4919)">
<path d="M23.7626 15H26.123V23.7531C26.123 24.2543 25.8309 24.7066 25.3986 24.9022C25.2466 24.9634 25.0947 25 24.9428 25C24.639 25 24.3585 24.8411 24.1015 24.6332L16.214 18.6675V25H13.8536V16.2469C13.8536 15.7457 14.1458 15.2812 14.5781 15.0978C15.0222 14.9022 15.4778 15.0733 15.8634 15.3667L23.7509 21.3448V15H23.7626ZM38.1236 19.6699C37.8548 19.3887 37.5276 19.1565 37.1771 18.9976C36.8149 18.8386 36.4176 18.7531 36.0203 18.7531H29.6987C29.3598 18.7531 29.091 18.4597 29.091 18.1174C29.091 17.7751 29.3715 17.4817 29.6987 17.4817H37.1888C37.8432 17.4817 38.369 16.9315 38.369 16.2469C38.369 15.5623 37.8432 15 37.1888 15H29.6987C29.3013 15 28.9041 15.0856 28.5418 15.2445C28.1913 15.4034 27.8641 15.6235 27.5953 15.9169C27.3266 16.198 27.1045 16.5403 26.9526 16.9071C26.8007 17.2861 26.7189 17.7017 26.7189 18.1174C26.7189 18.533 26.8007 18.9487 26.9526 19.3276C27.1045 19.6944 27.3149 20.0367 27.5953 20.3178C27.8641 20.599 28.1913 20.8313 28.5418 20.9902C28.9041 21.1491 29.3013 21.2347 29.6987 21.2347H36.0203C36.3592 21.2347 36.628 21.5159 36.628 21.8704C36.628 22.2249 36.3592 22.5061 36.0203 22.5061H27.8991C27.2448 22.5061 26.7189 23.0562 26.7189 23.7408C26.7189 24.4254 27.2448 24.9755 27.8991 24.9755H36.0203C36.4176 24.9755 36.8149 24.89 37.1771 24.7311C37.5276 24.5721 37.8548 24.352 38.1236 24.0587C38.3924 23.7775 38.6144 23.4352 38.7663 23.0685C38.9182 22.6895 39 22.2738 39 21.8582C39 21.4426 38.9182 21.0269 38.7663 20.6479C38.6144 20.2934 38.404 19.9511 38.1236 19.6699ZM13.2928 20C13.2928 22.7628 11.1544 25 8.51349 25H2.93973H1.8647H1V20V15H8.51349C11.1544 15 13.2928 17.2372 13.2928 20ZM10.909 20C10.909 19.3276 10.6636 18.7042 10.2079 18.2274C9.75218 17.7506 9.15622 17.4939 8.51349 17.4939H3.37208V20V22.5061H8.50182C9.14451 22.5061 9.74043 22.2494 10.1962 21.7726C10.6636 21.2958 10.909 20.6724 10.909 20Z" fill="#FF9519"/>
</g>
<defs>
<clipPath id="clip0_2756_4919">
<rect width="38" height="10" fill="white" transform="translate(1 15)"/>
</clipPath>
</defs>
</svg>
