<svg width="40" height="40" viewBox="0 0 40 40" fill="none" xmlns="http://www.w3.org/2000/svg">
<path d="M2 22.7939C2.2916 22.7939 2.5868 22.7939 2.8784 22.7975C2.9252 22.7975 2.9432 22.7791 2.954 22.7348C3.0548 22.2103 3.1628 21.6821 3.2528 21.1577C3.3356 20.6812 3.4076 20.2011 3.4724 19.7172C3.5372 19.2445 3.5948 18.768 3.6488 18.2915C3.6992 17.8483 3.7424 17.4051 3.7856 16.9656C3.818 16.6036 3.8468 16.2417 3.8756 15.8797C3.8792 15.8576 3.8756 15.8317 3.8756 15.8022C3.6452 15.8022 3.422 15.8022 3.1916 15.8022C3.1916 15.3257 3.1916 14.8603 3.1916 14.4023C3.4976 14.4208 3.8036 14.4541 4.1132 14.4577C5.3948 14.4688 6.6764 14.4688 7.9544 14.4762C7.9832 14.4762 8.0156 14.4762 8.0408 14.4762C8.0408 14.624 8.0444 14.7643 8.0408 14.9047C8.0336 15.3368 8.0192 15.7689 8.012 16.2047C8.0048 16.6036 7.9976 17.0025 7.9976 17.4051C7.994 18.8788 7.9904 20.3525 7.9868 21.8262C7.9868 22.129 7.9868 22.4282 7.9868 22.7311C7.9868 22.7865 8.0012 22.8049 8.0588 22.8049C8.2856 22.8012 8.5088 22.8049 8.7356 22.8049C8.7608 22.8049 8.786 22.8049 8.8184 22.8049C8.8184 22.8382 8.8184 22.864 8.8184 22.8899C8.8184 23.4661 8.8112 24.0422 8.822 24.6147C8.8292 25.0579 8.858 25.5048 8.876 25.9481C8.876 25.9702 8.8868 25.9887 8.8904 26.0108C8.4008 26.0108 7.9148 26.0108 7.4252 26.0108C7.4252 25.9924 7.4288 25.9739 7.4288 25.9554C7.4288 25.3719 7.4288 24.7846 7.4288 24.2011C7.4288 24.1789 7.4252 24.1604 7.4252 24.1383C6.1004 24.1383 4.7828 24.1383 3.4544 24.1383C3.4544 24.1678 3.4544 24.1937 3.4544 24.2195C3.458 24.5556 3.458 24.888 3.4688 25.2241C3.4796 25.4864 3.5048 25.7523 3.5228 26.0145C3.044 26.0145 2.5652 26.0145 2.0864 26.0145C2.0864 25.9961 2.09 25.9776 2.09 25.9591C2.09 25.0469 2.1044 24.1383 2.0432 23.2297C2.036 23.1041 2.0144 22.9785 2 22.8529C2 22.8234 2 22.8086 2 22.7939ZM4.4768 22.7902C5.0564 22.7902 5.6216 22.7902 6.1832 22.7902C6.1904 20.467 6.1976 18.1475 6.2048 15.8317C5.8736 15.8317 5.5568 15.8317 5.2364 15.8317C5.1068 18.166 4.9412 20.4891 4.4768 22.7902Z" fill="#1A5632"/>
<path d="M20.0505 26.0009C20.0505 25.9714 20.0469 25.9418 20.0469 25.916C20.0469 23.8329 20.0469 21.7498 20.0469 19.6667C20.0469 19.1385 20.1441 18.6288 20.3889 18.156C20.7597 17.4395 21.3429 17.0295 22.1277 16.9261C22.5777 16.867 23.0277 16.9003 23.4597 17.048C23.9997 17.2327 24.3633 17.6168 24.6009 18.1339C24.7953 18.5512 24.8961 18.9944 24.9573 19.4487C25.0257 19.9695 25.0509 20.494 25.0365 21.0185C25.0185 21.6426 24.9465 22.2558 24.7017 22.8356C24.4749 23.3786 24.1257 23.8107 23.5893 24.0508C23.1069 24.2687 22.6029 24.3093 22.0881 24.1911C22.0377 24.18 21.9873 24.1579 21.9369 24.1357C21.8865 24.1136 21.8397 24.0877 21.7785 24.0582C21.7785 24.7119 21.7821 25.3582 21.8469 26.0009C21.2529 26.0009 20.6517 26.0009 20.0505 26.0009ZM21.7857 21.1145C21.7857 21.8088 21.7857 22.5032 21.7857 23.1939C21.7857 23.2604 21.8037 23.2936 21.8721 23.2899C21.9837 23.2862 22.0953 23.2936 22.2105 23.2862C22.5777 23.2567 22.8549 23.0831 23.0169 22.7359C23.1681 22.4109 23.2293 22.0637 23.2509 21.7091C23.2761 21.3176 23.2833 20.9224 23.2833 20.5272C23.2833 20.0582 23.2545 19.5891 23.1681 19.1274C23.1249 18.8984 23.0637 18.6768 22.9413 18.4774C22.8045 18.2558 22.6065 18.1634 22.3545 18.1856C22.1061 18.2077 21.9405 18.3555 21.8685 18.5956C21.8217 18.7433 21.7929 18.9058 21.7893 19.0609C21.7785 19.7442 21.7857 20.4312 21.7857 21.1145Z" fill="#1A5632"/>
<path d="M19.4612 14C19.4612 14.0332 19.4612 14.0554 19.4612 14.0813C19.4612 14.6057 19.4612 15.1302 19.4612 15.6547C19.4612 15.7175 19.4396 15.747 19.3856 15.7692C19.1372 15.8652 18.878 15.9058 18.6188 15.9428C18.1292 16.0129 17.6396 16.0683 17.1608 16.2161C16.8152 16.3232 16.5236 16.5005 16.376 16.8587C16.3148 17.0102 16.2752 17.1727 16.232 17.3315C16.2176 17.3869 16.214 17.4423 16.1996 17.5162C16.2356 17.4903 16.2572 17.4718 16.2788 17.4571C16.5776 17.2281 16.9052 17.0545 17.2796 17.0139C18.1868 16.9141 18.8276 17.2687 19.184 18.1256C19.3316 18.4801 19.4144 18.8532 19.4648 19.2299C19.5332 19.7101 19.5548 20.1939 19.544 20.6777C19.5332 21.35 19.4648 22.0111 19.2272 22.6464C19.0544 23.1043 18.806 23.5106 18.4208 23.8135C18.0752 24.0868 17.6792 24.2271 17.2472 24.2678C16.8764 24.301 16.5128 24.2752 16.1564 24.157C15.6128 23.9723 15.2348 23.5919 14.9648 23.0859C14.738 22.6611 14.612 22.2031 14.5292 21.7304C14.4428 21.2502 14.4104 20.7664 14.396 20.2825C14.3816 19.7544 14.396 19.2225 14.4428 18.6981C14.5112 17.9668 14.6444 17.2502 14.9396 16.5743C15.3608 15.6103 16.0772 14.9935 17.042 14.6648C17.456 14.5245 17.888 14.4469 18.3092 14.3435C18.6404 14.2622 18.9644 14.1625 19.292 14.0702C19.3532 14.0517 19.4036 14.0259 19.4612 14ZM17.7908 20.6076C17.7908 20.1828 17.78 19.7544 17.7152 19.3333C17.6756 19.0748 17.618 18.8199 17.492 18.5873C17.3768 18.3767 17.204 18.2438 16.97 18.2031C16.7684 18.1699 16.5668 18.181 16.3724 18.2512C16.1024 18.3546 16.1528 18.3102 16.1528 18.5577C16.1528 19.2188 16.1564 19.88 16.1636 20.5448C16.1672 21.0508 16.1924 21.5605 16.2788 22.0628C16.3184 22.2992 16.3688 22.5282 16.4876 22.7387C16.5668 22.8827 16.6748 22.9898 16.8368 23.0268C17.132 23.097 17.3624 22.9898 17.5064 22.7128C17.6144 22.5023 17.6648 22.2733 17.7008 22.0406C17.7764 21.5642 17.7872 21.084 17.7908 20.6076Z" fill="#1A5632"/>
<path d="M32.9375 17.0467C33.5495 17.0467 34.1507 17.0467 34.7627 17.0467C34.7627 17.0799 34.7627 17.1095 34.7627 17.1427C34.7627 18.6016 34.7627 20.0605 34.7663 21.5194C34.7663 21.7115 34.7807 21.9109 34.8131 22.0993C34.8635 22.3874 35.0399 22.5388 35.3243 22.5757C35.6411 22.6201 35.9219 22.5351 36.1703 22.3283C36.2063 22.2987 36.2207 22.2692 36.2207 22.2175C36.2207 21.1722 36.2243 20.127 36.2171 19.0818C36.2135 18.5167 36.1811 17.9516 36.1631 17.3865C36.1595 17.2757 36.1451 17.1612 36.1343 17.043C36.7427 17.043 37.3439 17.043 37.9487 17.043C37.9775 19.3994 37.9091 21.7521 38.0063 24.1085C37.4195 24.1085 36.8255 24.1085 36.2207 24.1085C36.2207 23.7909 36.2207 23.4733 36.2207 23.1593C36.2171 23.1556 36.2099 23.1556 36.2063 23.1519C36.1919 23.1741 36.1739 23.1926 36.1595 23.2147C35.9291 23.5434 35.6591 23.8315 35.3171 24.0457C34.7879 24.3781 33.9815 24.271 33.5999 23.9719C33.3191 23.754 33.1751 23.4548 33.0959 23.1113C33.0383 22.8564 33.0239 22.5979 33.0239 22.3357C33.0239 21.1501 33.0311 19.9645 33.0203 18.7826C33.0167 18.2766 32.9879 17.7669 32.9663 17.2609C32.9591 17.1981 32.9447 17.1242 32.9375 17.0467Z" fill="#1A5632"/>
<path d="M13.9 20.4485C13.9 21.1724 13.8496 21.8003 13.6696 22.4097C13.5832 22.7052 13.468 22.9822 13.306 23.2408C12.9496 23.8059 12.4492 24.1457 11.7976 24.2454C11.3728 24.3119 10.9516 24.286 10.5376 24.1715C9.88597 23.9868 9.45397 23.5473 9.18397 22.9268C9.01837 22.5427 8.92837 22.1327 8.87437 21.7191C8.81317 21.2389 8.80237 20.7551 8.82037 20.2712C8.84557 19.6618 8.92477 19.0635 9.14077 18.491C9.32437 18.0072 9.59437 17.5898 10.0192 17.2906C10.3432 17.0616 10.7068 16.9471 11.0992 16.9139C11.4556 16.8843 11.812 16.9102 12.1576 17.0062C12.7444 17.1724 13.1692 17.5455 13.45 18.0958C13.6552 18.4947 13.7596 18.9231 13.8244 19.3663C13.8784 19.7578 13.9 20.1494 13.9 20.4485ZM12.1252 20.5963C12.1252 20.4005 12.1288 20.2011 12.1252 20.0053C12.1144 19.6544 12.0856 19.3072 12.01 18.9675C11.9632 18.7569 11.902 18.5501 11.758 18.3802C11.5276 18.1032 11.0992 18.118 10.9048 18.4245C10.8256 18.5538 10.768 18.7052 10.7284 18.853C10.6024 19.3146 10.5916 19.7948 10.5772 20.2712C10.5628 20.7883 10.57 21.3054 10.6276 21.8225C10.6564 22.081 10.6924 22.3396 10.7968 22.5796C10.8472 22.6978 10.9156 22.8123 10.9984 22.9047C11.182 23.1078 11.6248 23.1447 11.8336 22.7828C11.9632 22.5575 12.0136 22.31 12.0532 22.0589C12.1252 21.5676 12.136 21.0801 12.1252 20.5963Z" fill="#1A5632"/>
<path d="M27.2609 17.0469C27.2609 17.7893 27.2609 18.5316 27.2609 19.2814C27.2933 19.2666 27.3113 19.2592 27.3329 19.2482C27.8369 19.0044 28.3589 18.9638 28.8881 19.13C29.4749 19.3146 29.8529 19.7431 30.0725 20.3156C30.2489 20.7699 30.2921 21.2463 30.2633 21.7339C30.2417 22.1254 30.1697 22.5021 30.0113 22.8604C29.6873 23.5917 29.1293 24.0275 28.3733 24.2048C27.9197 24.3119 27.4625 24.3119 27.0053 24.2011C26.3213 24.0312 25.8965 23.5806 25.6841 22.9047C25.5617 22.5169 25.5185 22.118 25.5185 21.7154C25.5149 20.6997 25.5221 19.684 25.5149 18.6683C25.5113 18.1623 25.4825 17.6526 25.4645 17.1466C25.4645 17.1171 25.4609 17.0838 25.4609 17.0506C26.0585 17.0469 26.6561 17.0469 27.2609 17.0469ZM27.2645 20.1789C27.2645 20.2011 27.2609 20.2122 27.2609 20.2269C27.2609 20.9361 27.2609 21.6489 27.2609 22.358C27.2609 22.539 27.2861 22.7163 27.3581 22.8862C27.4121 23.0118 27.4949 23.1078 27.6281 23.1411C27.8405 23.1928 28.0313 23.1521 28.1933 22.9933C28.3085 22.8788 28.3733 22.7348 28.4165 22.5833C28.5101 22.2436 28.5209 21.8964 28.5065 21.5455C28.4957 21.2722 28.4633 21.0026 28.3625 20.7477C28.2509 20.4596 28.0637 20.2565 27.7577 20.1863C27.5957 20.1457 27.4337 20.1531 27.2645 20.1789Z" fill="#1A5632"/>
<path d="M30.5391 17.0469C31.1259 17.0469 31.7199 17.0469 32.3283 17.0469C32.3283 17.0764 32.3283 17.106 32.3283 17.1355C32.3283 18.8345 32.3247 20.5335 32.3319 22.2362C32.3319 22.7496 32.3571 23.2666 32.3751 23.78C32.3787 23.8908 32.4003 24.0016 32.4111 24.1198C31.8027 24.1198 31.2015 24.1198 30.5931 24.1198C30.5571 21.7597 30.6363 19.4033 30.5391 17.0469Z" fill="#1A5632"/>
<path d="M35.423 16.6632C35.153 16.3677 34.883 16.0833 34.6238 15.7878C34.4582 15.6031 34.325 15.3926 34.2494 15.1488C34.1954 14.9716 34.1846 14.7943 34.2386 14.617C34.3466 14.2476 34.6886 14.0704 35.0522 14.1885C35.2466 14.2513 35.4014 14.3695 35.5166 14.5468C35.5238 14.5394 35.5274 14.5357 35.531 14.5283C35.6282 14.2255 35.9018 14.111 36.1898 14.159C36.4814 14.2033 36.6578 14.4138 36.7082 14.7389C36.755 15.0159 36.6938 15.267 36.5462 15.4997C36.3374 15.8321 36.0602 16.1054 35.7722 16.3603C35.6534 16.4711 35.5346 16.5671 35.423 16.6632Z" fill="#1A5632"/>
</svg>
