<svg width="40" height="40" viewBox="0 0 40 40" fill="none" xmlns="http://www.w3.org/2000/svg">
<path d="M18.7363 1C29.6318 1 38 8.52329 38 19.6685C38 30.8836 29.6318 38.5267 18.7363 38.5267H6.51741C4.04975 38.5267 2 36.8903 2 34.0366V5.66963C2 2.81597 4.04975 1 6.51741 1H18.7363Z" fill="#FF6900"/>
<path d="M7.87418 38.5259C10.9986 36.7898 12.5508 35.2033 13.6254 33.7066C15.7249 34.6446 17.7349 35.0437 19.5458 35.0437C22.9488 35.0437 25.8543 33.4772 27.3667 30.6734C28.919 29.7355 29.9538 27.8097 30.0234 26.4328C30.9986 25.2155 31.1677 23.6689 30.8692 22.6213C30.7996 22.3718 30.6006 22.3618 30.2523 22.5814C27.1876 24.4273 24.2125 25.3053 21.3767 25.3053C19.6553 25.3053 17.8941 25.0359 16.0234 24.4871C15.8841 22.4716 15.4762 20.7853 15.3269 19.7576C15.108 18.4006 15.4165 17.4029 16.8991 17.4029C17.9836 17.4029 19.9936 17.6822 21.5956 18.4106C23.1876 19.139 24.1329 20.5658 24.7996 20.5658C25.0682 20.5658 25.3468 20.3962 25.3468 19.8275C25.3468 18.67 24.9389 16.8142 24.4314 16.1556C25.914 16.0658 27.0981 16.0858 27.7647 16.1556C29.1478 16.3951 29.2175 17.0935 29.4861 17.5426C29.7548 18.0015 30.2224 18.1911 30.7797 18.1911C31.8145 18.1911 32.4513 17.6523 32.4513 15.7366C32.4513 11.506 29.7846 9.4605 26.9986 9.4605C24.71 9.4605 23.8244 9.96937 21.6453 9.96937C20.103 9.96937 18.8195 6.81637 17.0682 6.40728C16.2921 4.68112 14.5608 4.48156 13.4861 5.34963C12.511 4.76094 10.9986 5.08023 10.9289 6.16781C9.81448 5.81859 8.36175 6.42724 8.98861 7.89398C6.27219 7.98378 5.75478 10.4084 7.61548 10.6778C5.22742 12.0348 6.32195 14.3696 8.32195 13.8707C8.46125 15.527 9.13787 18.2111 9.13787 20.0669C9.13787 22.6512 7.97369 23.2499 6.38165 23.2499C5.12792 23.2499 3.27717 22.7909 2.02344 22.4317V24.2277C3.28712 24.547 5.19757 24.9461 6.62045 24.9461C9.12792 24.9461 10.5309 23.4694 10.5309 20.6556C10.5309 17.2033 9.42642 14.0603 9.78463 12.0847L9.69508 11.9749C8.44135 13.292 7.62543 12.9428 7.53588 12.5137C7.35677 11.6756 8.82941 10.6379 9.66523 10.2787C9.68513 10.2188 9.70503 10.1689 9.72493 10.1091C8.93886 10.2288 8.01349 10.129 7.98364 9.57026C7.94384 8.90174 9.28712 8.30307 11.0284 8.45274C11.0583 8.42281 11.0981 8.39287 11.1279 8.37292C11.0185 8.33301 10.8991 8.27314 10.7598 8.20329C10.312 7.96383 10.1926 7.58467 10.3518 7.29531C10.511 6.986 11.0085 6.86626 11.4065 6.87624C12.0334 6.88622 12.5707 7.04586 12.9588 7.20551C12.9986 7.18555 13.0483 7.1656 13.0881 7.15562C12.9389 7.04586 12.8195 6.91615 12.7399 6.78644C12.6304 6.59686 12.6006 6.34742 12.8095 6.17779C13.0483 5.98821 13.6752 5.91837 14.2324 6.42724C14.3518 6.52702 14.4413 6.63677 14.5409 6.73655C14.6006 6.72657 14.6702 6.70662 14.7299 6.70662C14.6404 6.56693 14.5608 6.41726 14.5409 6.27757C14.511 6.08799 14.5707 5.87846 14.7896 5.80861C15.0284 5.72879 15.3369 5.8585 15.4961 6.08799C15.6652 6.33744 15.7647 6.65673 15.8344 6.87624C14.6006 7.01593 11.317 7.77425 11.317 11.7454C11.317 15.6168 14.5309 19.6978 14.5309 25.7044C14.5309 27.8896 14.0433 30.0747 12.0732 32.629C10.5508 34.5947 8.12294 36.5004 4.3518 38.057C4.99856 38.3763 5.74483 38.5459 6.5309 38.5459L7.87418 38.5259ZM22.9787 14.1401C23.3568 13.0126 23.6851 12.1545 24.2921 11.506C24.9389 10.8275 25.6553 10.608 27.2274 10.608C29.3966 10.608 31.2175 12.8131 31.2175 15.8962C31.2175 16.3552 30.6105 16.3552 30.4115 15.9261C29.6652 14.619 28.6702 14.4295 27.0981 14.3097C25.9339 14.2399 24.5309 14.3397 23.2473 14.3995C23.0085 14.4095 22.9488 14.2499 22.9787 14.1401ZM16.0433 26.5027C17.7647 26.9816 20.1428 27.241 22.113 27.1013C25.5856 26.8619 28.1826 25.5647 29.6453 24.6168C28.7697 26.8519 25.4662 28.2288 22.2622 28.618C22.2423 28.7776 22.2224 28.9372 22.1926 29.0969C24.5906 28.9672 26.8792 28.1889 27.904 27.4705C27.317 29.6656 24.3717 30.5437 21.705 30.6734C21.6354 30.843 21.5458 31.0126 21.4662 31.1623C23.0185 31.1922 24.511 30.9029 25.3866 30.6235C24.5906 32.1501 21.8344 33.3574 19.0384 33.3574C17.6553 33.3574 15.9438 33.088 14.4513 32.3796C15.5458 30.394 15.9538 28.3685 16.0433 26.5027Z" fill="black"/>
<path d="M2 29.7178C3.31343 29.4584 4.60697 29.2089 4.60697 29.2089L4.77612 28.5005C4.1791 28.4706 3.00498 28.4805 2.00995 28.5105V29.7178H2Z" fill="black"/>
<path d="M16.1678 8.49215C16.6255 8.33251 17.2822 8.79149 17.6404 9.50989C17.9887 10.2183 17.9091 10.9267 17.4514 11.0764C16.9936 11.2361 16.3369 10.7871 15.9887 10.0687C15.9389 9.96887 15.8991 9.87907 15.8693 9.77929L15.9489 9.75934C16.0981 9.89903 16.2673 9.93894 16.3867 9.85912C16.5459 9.75934 16.526 9.46998 16.3966 9.22054C16.2971 9.02098 16.0782 8.81144 15.8892 8.8314L15.8593 8.79149C15.919 8.6518 16.0285 8.55202 16.1678 8.49215ZM19.3817 15.6562C17.322 15.2072 15.0732 14.6086 13.8693 12.8325C13.8494 12.8026 13.7996 12.7826 13.7698 12.8026C13.73 12.8126 13.7001 12.8425 13.7001 12.8924C13.7001 12.9922 13.7101 13.0919 13.73 13.2017L13.5608 13.2616C13.2424 12.8126 13.1827 12.2738 13.4912 11.8846C13.9389 11.3259 14.8543 11.3757 15.4116 11.725L15.3419 11.8746C15.0434 11.8248 14.7648 11.8248 14.5558 11.9545C14.3668 12.0642 14.3469 12.2338 14.4563 12.4534C15.4514 14.3092 18.3469 14.7183 21.7897 14.4489C22.1479 14.419 22.2275 14.2593 22.2673 14.0897C22.5658 12.8924 23.113 11.8248 23.919 11.0165C23.2921 11.1063 22.7051 11.1263 22.1976 11.1562C20.4165 11.266 19.4016 11.0365 19.0832 10.7871L19.1429 10.6274C19.332 10.6973 19.531 10.7072 19.5708 10.6573C19.6305 10.5875 19.5807 10.5376 19.5011 10.4578C19.1628 10.1385 17.6404 8.58195 17.6504 8.59193C17.4812 7.27486 15.5708 7.22497 14.8145 8.52209L14.5558 8.45224C14.6255 8.17286 14.7449 7.93339 14.8543 7.77375C13.2523 8.13295 12.3469 9.56976 12.1877 10.9667C11.4812 16.9434 20.516 15.5565 23.1031 17.9511C23.1528 17.9911 23.2722 18.1607 23.3618 18.0509C23.4514 17.7017 22.317 16.3148 19.3817 15.6562Z" fill="white"/>
<path d="M29.6405 24.6074C28.1778 25.5553 25.5708 26.8425 22.1081 27.0919C20.138 27.2316 17.7499 26.9722 16.0385 26.4932C16.0086 27.0719 15.9589 27.6606 15.8594 28.2593C16.8245 28.5088 18.5559 28.838 21.0435 28.9079C20.934 29.5764 20.2574 31.8513 18.5161 33.3281C21.6902 33.4677 24.5658 32.2205 25.4116 30.6141C24.526 30.8935 23.0435 31.1828 21.4912 31.1529C21.5708 31.0032 21.6504 30.8336 21.73 30.664C24.3967 30.5343 27.332 29.6562 27.929 27.4611C26.8942 28.1695 24.6156 28.9578 22.2176 29.0875C22.2474 28.9378 22.2673 28.7782 22.2872 28.6085C25.4614 28.2294 28.7648 26.8425 29.6405 24.6074Z" fill="white"/>
</svg>
