<svg width="40" height="40" viewBox="0 0 40 40" fill="none" xmlns="http://www.w3.org/2000/svg">
<g clip-path="url(#clip0_2704_4886)">
<path d="M26.6506 24.4859C26.7532 24.4508 26.8411 24.518 26.847 24.6351C26.8522 24.6957 26.8384 24.7565 26.8074 24.8089C26.7764 24.8614 26.7298 24.9028 26.674 24.9276C26.5714 24.9627 26.4835 24.8983 26.4777 24.7755C26.4724 24.7148 26.4862 24.654 26.5172 24.6016C26.5482 24.5492 26.5948 24.5077 26.6506 24.4829" fill="#900D2C"/>
<path d="M24.4907 23.8047L24.5112 24.1762C24.4343 24.1499 24.3507 24.1499 24.2738 24.1762L23.9543 24.2815C23.9543 24.3283 23.9748 24.7027 23.9807 24.7495L24.2034 24.6647C24.2671 24.6386 24.3234 24.5974 24.3676 24.5447L24.391 24.9806C24.3369 24.9521 24.2738 24.9458 24.2152 24.963C24.1419 24.9835 24.1009 24.9981 23.9953 25.0332L24.0217 25.51L24.3969 25.3813C24.4793 25.3429 24.5523 25.287 24.6109 25.2175L24.6284 25.6124L23.5938 25.9839C23.6346 25.8757 23.6506 25.7598 23.6407 25.6446C23.6407 25.6446 23.6084 24.7846 23.5733 24.3751C23.5713 24.2918 23.5459 24.2107 23.5 24.1411L24.4907 23.8047Z" fill="#900D2C"/>
<path d="M24.7666 25.1821C24.8204 25.2139 24.8802 25.2343 24.9423 25.2418C25.0043 25.2494 25.0673 25.244 25.1271 25.226C25.1607 25.216 25.1904 25.1962 25.2123 25.169C25.2343 25.1418 25.2475 25.1087 25.2502 25.0739C25.2502 24.9861 25.1916 24.9364 25.0275 24.9013C24.8633 24.8662 24.7344 24.7901 24.7344 24.6088C24.7373 24.4798 24.786 24.356 24.8719 24.2595C24.9578 24.1631 25.0753 24.1003 25.2033 24.0822C25.295 24.0644 25.3885 24.0575 25.4818 24.0618L25.4964 24.3543C25.4097 24.3194 25.3138 24.3143 25.2239 24.3397C25.1359 24.3718 25.089 24.4303 25.1037 24.4976C25.1183 24.5649 25.2092 24.5854 25.3968 24.6351C25.4586 24.6456 25.5146 24.678 25.5544 24.7264C25.5942 24.7747 25.6153 24.8358 25.6137 24.8984C25.6131 25.0302 25.5679 25.158 25.4855 25.261C25.403 25.364 25.2881 25.4362 25.1594 25.4658C25.0422 25.5001 24.921 25.5188 24.7989 25.5214L24.7666 25.1821Z" fill="#900D2C"/>
<path d="M26.1018 23.5586C26.1018 23.6376 26.1018 23.6259 26.1018 23.7868L26.178 23.7575C26.2327 23.7355 26.284 23.706 26.3304 23.6697V23.9623L26.1047 24.0412L26.137 24.6643C26.137 24.8018 26.2308 24.8369 26.3304 24.8106V25.0007C26.2602 25.0565 26.1822 25.1018 26.0989 25.1352C26.0597 25.154 26.0157 25.1604 25.9728 25.1537C25.9298 25.1469 25.89 25.1272 25.8585 25.0972C25.7989 25.0119 25.7709 24.9084 25.7794 24.8047L25.7442 24.1553L25.5859 24.205L25.8087 23.6668L26.1018 23.5586Z" fill="#900D2C"/>
<path d="M27.6546 24.5432L27.1124 24.7334C27.1592 24.6348 27.1823 24.5266 27.1798 24.4175L27.1329 23.5107C27.1341 23.4564 27.1191 23.403 27.0899 23.3572C27.0607 23.3113 27.0185 23.2752 26.9688 23.2533C26.9863 23.2533 27.4582 22.832 27.4582 22.832L27.5344 24.2946C27.5326 24.342 27.5423 24.3891 27.5627 24.4319C27.5831 24.4747 27.6137 24.5119 27.6517 24.5403" fill="#900D2C"/>
<path d="M29.1612 23.0269C29.1217 22.9971 29.0896 22.9586 29.0672 22.9145C29.0449 22.8704 29.0329 22.8218 29.0322 22.7724C29.0361 22.6274 29.0858 22.4874 29.1743 22.3723C29.2627 22.2573 29.3854 22.1731 29.5247 22.1318C29.7914 22.0353 30.0112 22.1113 30.0259 22.3834C30.0098 22.5455 29.9334 22.6958 29.8119 22.8046C29.8505 22.8152 29.8878 22.8299 29.9233 22.8485C29.9823 22.8779 30.0321 22.9229 30.0672 22.9786C30.1023 23.0343 30.1215 23.0986 30.1226 23.1644C30.1186 23.326 30.065 23.4824 29.9691 23.6127C29.8732 23.743 29.7396 23.8407 29.5862 23.8927C29.2931 24.001 29.0264 23.8927 29 23.6148C29.0055 23.5143 29.0311 23.4159 29.0754 23.3255C29.1197 23.235 29.1818 23.1544 29.2579 23.0883C29.2195 23.074 29.1838 23.0532 29.1524 23.0269M29.34 23.5329C29.3388 23.5594 29.3445 23.5857 29.3566 23.6092C29.3687 23.6328 29.3867 23.6528 29.4089 23.6673C29.4311 23.6817 29.4567 23.6902 29.4832 23.6918C29.5096 23.6933 29.5361 23.688 29.5598 23.6763C29.6135 23.6556 29.66 23.6196 29.6933 23.5728C29.7267 23.526 29.7455 23.4704 29.7474 23.413C29.7474 23.2872 29.6566 23.2346 29.4953 23.179C29.4024 23.2755 29.3473 23.4022 29.34 23.5359M29.6917 22.4565C29.6945 22.4354 29.6917 22.414 29.6835 22.3944C29.6753 22.3748 29.662 22.3577 29.645 22.3449C29.628 22.3321 29.6079 22.3241 29.5867 22.3216C29.5656 22.3191 29.5442 22.3222 29.5247 22.3307C29.4784 22.3467 29.4387 22.3773 29.4117 22.4181C29.3847 22.4588 29.3718 22.5072 29.3752 22.5559C29.3752 22.6554 29.4807 22.7197 29.5745 22.7461C29.6454 22.6647 29.6858 22.5613 29.6888 22.4536" fill="#900D2C"/>
<path d="M27.8907 23.4791C27.8518 23.4494 27.82 23.4114 27.7976 23.3679C27.7753 23.3244 27.7631 23.2764 27.7617 23.2275C27.7656 23.0826 27.8153 22.9425 27.9038 22.8275C27.9922 22.7124 28.1149 22.6282 28.2541 22.5869C28.5209 22.4904 28.7407 22.5665 28.7554 22.8356C28.739 22.9983 28.6615 23.1488 28.5385 23.2568C28.577 23.2674 28.6144 23.2821 28.6498 23.3007C28.7083 23.3305 28.7575 23.3757 28.7921 23.4314C28.8267 23.487 28.8454 23.5511 28.8462 23.6166C28.8429 23.7779 28.7899 23.9343 28.6945 24.0646C28.5991 24.1949 28.4658 24.2928 28.3128 24.3449C28.0197 24.4532 27.7529 24.3449 27.7266 24.0671C27.7322 23.9666 27.7579 23.8682 27.8022 23.7778C27.8465 23.6874 27.9085 23.6067 27.9845 23.5405C27.946 23.5262 27.9104 23.5055 27.879 23.4791M28.0636 23.9881C28.0629 24.0143 28.069 24.0402 28.0813 24.0633C28.0936 24.0865 28.1117 24.1061 28.1338 24.1202C28.1559 24.1343 28.1813 24.1425 28.2076 24.144C28.2338 24.1454 28.2599 24.1401 28.2835 24.1285C28.3372 24.1078 28.3836 24.0719 28.417 24.025C28.4503 23.9782 28.4691 23.9226 28.471 23.8652C28.471 23.7394 28.3802 23.6897 28.219 23.6312C28.126 23.7277 28.0709 23.8544 28.0636 23.9881ZM28.4124 22.9087C28.4124 22.7946 28.3274 22.7566 28.2454 22.7829C28.1991 22.7989 28.1594 22.8296 28.1324 22.8703C28.1054 22.911 28.0925 22.9594 28.0959 23.0082C28.0959 23.1076 28.2014 23.172 28.2981 23.1983C28.369 23.117 28.4094 23.0136 28.4124 22.9058" fill="#900D2C"/>
<path d="M30.3076 23.1615C30.3596 23.2032 30.4216 23.2305 30.4874 23.2408C30.5532 23.251 30.6206 23.2439 30.6828 23.22C30.762 23.1883 30.8287 23.1318 30.8731 23.059C30.9174 22.9863 30.9371 22.9012 30.929 22.8164C30.929 22.6409 30.8176 22.5853 30.6916 22.6292C30.6039 22.6683 30.5324 22.7365 30.4893 22.8222L30.3281 22.7784L30.3047 21.8833L30.9671 21.6463C31.0405 21.624 31.1091 21.5883 31.1693 21.541V21.9184L30.5831 22.1319V22.4712C30.6567 22.4 30.7446 22.3451 30.8411 22.3103C31.1635 22.1933 31.3188 22.4098 31.3305 22.6496C31.33 22.8307 31.2734 23.0072 31.1685 23.1548C31.0635 23.3025 30.9154 23.4142 30.7443 23.4745C30.6098 23.5213 30.4654 23.5323 30.3252 23.5067L30.3076 23.1615Z" fill="#900D2C"/>
<path d="M7.10693 17.459L7.59641 26.7931C7.66344 27.5642 7.5249 28.3392 7.19486 29.0396C7.44986 28.9489 9.95296 28.0656 10.5509 27.8403C10.3697 27.6502 10.228 27.4262 10.1339 27.1812C10.0399 26.9362 9.99531 26.6751 10.0028 26.4129L9.78296 22.2036C10.7372 22.0234 11.6453 21.6533 12.4531 21.1154C14.4873 19.7201 15.0354 18.161 14.8918 16.4908C14.7247 14.5104 13.2621 12.8431 10.9583 12.9806C10.1595 13.0416 9.37718 13.2395 8.64572 13.5656C5.77917 14.7766 3.11486 17.8012 3.01813 21.6215C2.95951 23.8651 3.93262 26.1876 5.4421 27.3664C5.72545 27.6012 6.04922 27.7826 6.39762 27.9017C4.30193 26.1613 4.01468 23.4526 4.18175 21.9257C4.58331 18.1756 7.32676 15.897 9.16451 15.3236C10.8938 14.7883 12.4619 15.3412 12.5616 17.2542C12.6247 17.9821 12.4652 18.712 12.1042 19.3475C11.7431 19.9831 11.1974 20.4944 10.5392 20.8141C10.2801 20.9386 10.0048 21.0262 9.72141 21.0745L9.45175 15.8677C8.56875 16.2314 7.77048 16.7732 7.10693 17.459Z" fill="#900D2C"/>
<path d="M25.5078 19.484C25.5371 21.0957 26.6275 22.2014 28.1457 21.7685C29.1599 21.476 30.1301 20.461 30.4906 19.6887C30.5092 20.0946 30.4202 20.4982 30.2326 20.8588L32.2433 20.1304C32.025 19.7747 31.9169 19.3626 31.9326 18.9457C31.9326 18.7966 31.8857 18.1121 31.8476 17.3515C31.8095 16.591 32.1056 16.1201 32.3371 15.9679C32.3957 15.9219 32.4647 15.8909 32.5381 15.8775C32.6115 15.8642 32.6871 15.869 32.7582 15.8915C32.8293 15.914 32.8938 15.9535 32.9461 16.0066C32.9984 16.0597 33.0368 16.1248 33.0582 16.1961C33.0861 16.3161 33.0776 16.4416 33.0337 16.5568C32.9899 16.6719 32.9127 16.7714 32.812 16.8426C32.9999 16.8932 33.1975 16.8964 33.387 16.8518C33.5765 16.8072 33.7518 16.7162 33.8973 16.5871C34.0427 16.4579 34.1536 16.2946 34.22 16.112C34.2864 15.9293 34.3061 15.733 34.2775 15.5409C34.2753 15.3678 34.2326 15.1976 34.1529 15.0439C34.0732 14.8902 33.9586 14.7572 33.8182 14.6555C33.6779 14.5538 33.5157 14.4862 33.3445 14.4581C33.1734 14.43 32.9981 14.4422 32.8325 14.4937C32.5717 14.5836 32.3381 14.7382 32.1536 14.9428C31.969 15.1475 31.8396 15.3955 31.7773 15.6637C31.7568 15.2396 31.7451 14.95 31.7451 14.95L29.9161 15.6169C30.0291 15.722 30.1185 15.8499 30.1781 15.9922C30.2377 16.1344 30.2663 16.2877 30.262 16.4418L30.3645 18.387C30.1242 19.326 29.2537 20.3732 28.5151 20.5399C27.7764 20.7067 27.3426 20.4112 27.1052 19.8701C27.5353 19.9289 27.9733 19.8765 28.3773 19.718C28.8069 19.5332 29.1663 19.2167 29.4034 18.8144C29.6406 18.412 29.7432 17.9447 29.6963 17.4802C29.5966 16.4418 28.6997 15.9475 27.6709 16.2751C26.2054 16.7402 25.4844 18.0623 25.5107 19.4927M27.624 17.1907C28.1106 17.0941 28.2571 17.5621 28.2601 17.8751C28.2722 18.1073 28.2187 18.3381 28.1057 18.5414C27.9928 18.7446 27.8248 18.9121 27.6211 19.0247C27.4112 19.128 27.1774 19.1735 26.944 19.1564C26.8004 17.919 27.2371 17.2667 27.6269 17.1907" fill="#900D2C"/>
<path d="M18.8258 24.9149C19.8663 24.2304 20.3792 22.8147 20.3089 21.4457C20.2239 19.8164 19.1834 19.3981 18.4506 19.6497C18.2002 19.7141 17.9655 19.8288 17.7609 19.9867C17.5563 20.1446 17.3861 20.3425 17.2606 20.5682L17.2372 20.1206L15.3642 20.8022C15.4766 20.9076 15.5653 21.0357 15.6244 21.1779C15.6835 21.3201 15.7117 21.4732 15.7071 21.6271C15.7071 21.785 15.7628 22.7328 15.8156 23.7829C15.5577 24.6838 14.6432 25.5731 13.9397 25.734C13.2363 25.8948 12.7673 25.6052 12.5299 25.0641C12.96 25.1225 13.3979 25.0702 13.802 24.912C14.2318 24.7276 14.5915 24.4112 14.8287 24.0087C15.066 23.6063 15.1683 23.1388 15.1209 22.6743C15.0213 21.6358 14.1273 21.1415 13.0985 21.4691C11.633 21.9342 10.909 23.2564 10.9384 24.6868C10.9677 26.2985 12.0551 27.4042 13.5763 26.9684C14.5787 26.6758 15.5782 25.8363 15.8772 25.146C15.9709 27.0327 15.9856 27.2872 15.9885 27.3194C16.0119 27.8168 15.9361 28.3139 15.7658 28.782L17.9054 28.0009C17.6945 27.6395 17.5833 27.2287 17.583 26.8104L17.5097 25.4151C17.9756 25.3295 18.4218 25.1589 18.8258 24.912M13.0516 22.3934C13.5382 22.2969 13.6847 22.7649 13.6877 23.0779C13.6995 23.31 13.6458 23.5407 13.5329 23.7439C13.42 23.9471 13.2522 24.1146 13.0487 24.2275C12.8388 24.3307 12.605 24.3761 12.3716 24.3591C12.228 23.1218 12.6647 22.4695 13.0546 22.3934M17.9553 21.083C18.4418 21.004 18.7173 21.4164 18.7496 22.0132C18.7906 22.7825 18.6059 23.5898 18.1399 24.0783C17.9504 24.2591 17.7187 24.3898 17.4658 24.4586L17.3104 21.5071C17.4741 21.3008 17.7003 21.153 17.9553 21.0859" fill="#900D2C"/>
<path d="M23.7682 23.1308C24.8058 22.4434 25.3363 21.1388 25.2542 19.7259C25.1516 18.0089 24.1844 17.6198 23.393 17.8802C22.896 18.0686 22.486 18.433 22.2411 18.904L22.2089 18.3365L20.3359 19.021C20.4477 19.1266 20.5356 19.2548 20.5937 19.3971C20.6519 19.5393 20.6789 19.6923 20.673 19.8459L20.9661 25.5557C20.9979 26.0426 20.9239 26.5305 20.7492 26.9861L22.8742 26.2168C22.6633 25.8543 22.5521 25.4426 22.5518 25.0234L22.4785 23.6134C22.9321 23.5329 23.3666 23.3682 23.7594 23.1279M22.9504 19.2989C23.437 19.217 23.6715 19.6967 23.7037 20.2934C23.7447 21.0627 23.5923 21.8086 23.0911 22.3059C22.9026 22.4751 22.6766 22.5974 22.4316 22.6628L22.2763 19.7172C22.4529 19.5122 22.6881 19.3663 22.9504 19.2989Z" fill="#900D2C"/>
<path d="M22.5197 13.1908L22.6721 16.0955C22.7253 16.6069 22.6673 17.1237 22.5021 17.6107L24.5157 16.8824C24.2912 16.5256 24.1789 16.1099 24.1933 15.6889C24.1933 15.5397 24.1523 14.8552 24.1171 14.0947C24.0731 13.2406 24.3516 12.9042 24.6037 12.714C24.6618 12.6665 24.7308 12.6342 24.8046 12.6201C24.8784 12.606 24.9545 12.6104 25.0261 12.6331C25.0977 12.6558 25.1625 12.6959 25.2147 12.7499C25.2668 12.8038 25.3046 12.8699 25.3247 12.9422C25.3526 13.0622 25.3441 13.1877 25.3003 13.3029C25.2564 13.418 25.1792 13.5175 25.0785 13.5887C25.8318 13.7905 26.6114 13.261 26.544 12.287C26.5418 12.1139 26.4991 11.9437 26.4194 11.79C26.3397 11.6363 26.2251 11.5033 26.0847 11.4016C25.9444 11.2999 25.7822 11.2323 25.6111 11.2042C25.4399 11.1761 25.2646 11.1883 25.099 11.2398C24.8381 11.3295 24.6044 11.4839 24.4198 11.6886C24.2352 11.8933 24.1058 12.1415 24.0438 12.4098C24.0233 11.9857 24.0087 11.6961 24.0087 11.6961L22.1797 12.363C22.2927 12.4681 22.3821 12.596 22.4417 12.7383C22.5013 12.8805 22.5299 13.0338 22.5255 13.1879" fill="#900D2C"/>
<path d="M15.2825 13.2619C15.3118 13.7504 15.5404 18.182 15.5522 18.3809C15.6411 18.9945 15.5388 19.6205 15.2591 20.174C15.6166 20.0512 18.0934 19.1824 18.7382 18.9221C20.5378 18.1937 21.9447 16.4415 21.8158 13.7914C21.6809 11.0125 19.764 10.1613 17.6713 10.8662C17.1085 11.0505 15.1301 11.7876 14.6875 11.9339C15.0128 12.1474 15.2356 12.5189 15.2737 13.2736M18.533 11.9953C19.4328 12.2059 19.7641 13.2882 19.8022 14.3354C19.8461 15.5377 19.4504 16.9944 18.5096 17.6847C18.2142 17.8915 17.8891 18.0523 17.5453 18.1615C17.5453 17.9451 17.2522 12.7734 17.2316 12.3112C17.6092 12.0435 18.0731 11.9257 18.533 11.9807" fill="#900D2C"/>
<path d="M34.0311 19.6739C33.9161 19.873 33.7345 20.0252 33.5182 20.1039C33.4221 20.1447 33.3179 20.1628 33.2136 20.1567C33.1094 20.1506 33.008 20.1205 32.9173 20.0688C32.8279 20.0164 32.752 19.9438 32.6955 19.857C32.6391 19.7702 32.6036 19.6715 32.592 19.5686C32.5508 19.3296 32.6021 19.0839 32.7356 18.8812C32.8512 18.6887 33.029 18.5412 33.2397 18.4629C33.3341 18.4251 33.4357 18.4089 33.5372 18.4155C33.6386 18.4221 33.7373 18.4513 33.826 18.5009C33.9162 18.5523 33.9932 18.624 34.0507 18.7103C34.1082 18.7967 34.1447 18.8953 34.1572 18.9982C34.1979 19.2323 34.1498 19.4732 34.0223 19.6739M32.8294 18.9807C32.7295 19.1423 32.691 19.3343 32.721 19.5218C32.7308 19.6071 32.7606 19.6889 32.8079 19.7605C32.8553 19.8322 32.9189 19.8917 32.9935 19.9343C33.0676 19.977 33.1506 20.0022 33.236 20.0078C33.3214 20.0133 33.4069 19.9992 33.486 19.9664C33.6664 19.8996 33.8164 19.7697 33.908 19.6008C34.0091 19.4364 34.0475 19.2412 34.0165 19.0509C34.0047 18.9669 33.974 18.8868 33.9267 18.8165C33.8793 18.7461 33.8166 18.6875 33.7432 18.6449C33.6697 18.6023 33.5876 18.577 33.5029 18.5708C33.4182 18.5646 33.3333 18.5777 33.2544 18.6092C33.071 18.6765 32.9187 18.8087 32.8265 18.9807M33.102 19.8582L32.9466 18.9485L33.1899 18.8607L33.3687 18.7964C33.4273 18.7775 33.4893 18.7715 33.5504 18.7788C33.5917 18.7872 33.629 18.8089 33.6566 18.8407C33.6842 18.8724 33.7004 18.9124 33.7028 18.9543C33.7103 18.9866 33.7112 19.02 33.7057 19.0526C33.7002 19.0852 33.6882 19.1165 33.6706 19.1445C33.6344 19.1947 33.586 19.235 33.5299 19.2615C33.5741 19.2498 33.6206 19.2498 33.6647 19.2615C33.6979 19.2778 33.726 19.3027 33.7461 19.3336C33.7662 19.3644 33.7776 19.4002 33.7791 19.437V19.5189C33.7784 19.5277 33.7784 19.5365 33.7791 19.5452V19.5715V19.5949L33.5622 19.6739C33.5465 19.6342 33.5348 19.593 33.527 19.5511C33.5208 19.5134 33.509 19.4769 33.4918 19.4428C33.4841 19.4295 33.473 19.4184 33.4596 19.4107C33.4462 19.403 33.4311 19.399 33.4156 19.399C33.3884 19.3948 33.3607 19.3948 33.3335 19.399L33.2808 19.4136L33.2339 19.4311L33.2896 19.7558L33.102 19.8582ZM33.3951 18.9807C33.3477 18.9816 33.301 18.9915 33.2573 19.0099L33.2016 19.0304L33.2485 19.2937L33.3365 19.2615C33.383 19.2465 33.4245 19.2192 33.4566 19.1825C33.4705 19.165 33.4803 19.1446 33.4853 19.1229C33.4904 19.1011 33.4906 19.0785 33.486 19.0567C33.4852 19.0456 33.4823 19.0347 33.4773 19.0247C33.4723 19.0147 33.4654 19.0057 33.457 18.9984C33.4485 18.991 33.4387 18.9854 33.4281 18.9819C33.4175 18.9784 33.4063 18.9769 33.3951 18.9777" fill="#900D2C"/>
<path d="M36.5246 14.4164C35.6863 12.2927 34.1094 10.6137 31.5008 9.59284C30.7424 9.29539 29.9482 9.09869 29.1384 9.00781C32.0695 9.96433 34.2677 11.6872 35.2027 14.0566C37.3541 19.512 31.9346 26.3071 23.0917 29.2323C18.6453 30.6948 14.1843 30.9171 10.5703 30.0747C10.9513 30.3438 11.8629 30.5515 12.5517 30.686C16.0396 31.3588 20.231 30.9786 24.4136 29.6008C33.2536 26.6757 38.676 19.8835 36.5246 14.4281" fill="#900D2C"/>
</g>
<defs>
<clipPath id="clip0_2704_4886">
<rect width="34" height="22" fill="white" transform="translate(3 9)"/>
</clipPath>
</defs>
</svg>
