<svg width="40" height="40" viewBox="0 0 40 40" fill="none" xmlns="http://www.w3.org/2000/svg">
<g clip-path="url(#clip0_2757_4928)">
<path d="M1.18646 22.7752H2.54861C2.65936 22.7752 2.72581 22.7643 2.75903 22.7422C2.79225 22.7202 2.8144 22.6652 2.82547 22.5882L3.39027 20.2125H5.91522C6.03706 20.2125 6.11456 20.1355 6.14781 19.9926L6.38036 19.0027C6.40249 18.8927 6.41357 18.8267 6.39145 18.8047C6.36928 18.7607 6.3139 18.7497 6.24748 18.7497H3.7225L3.86647 18.1558C3.87754 18.0898 3.89969 18.0238 3.93292 17.9688C3.96614 17.9028 3.99936 17.8478 4.05473 17.7928C4.09903 17.7378 4.17655 17.6938 4.25407 17.6608C4.34267 17.6278 4.44234 17.6058 4.57523 17.6058H6.94514C7.0116 17.6058 7.06698 17.5948 7.10019 17.5618C7.1334 17.5288 7.15556 17.4738 7.17773 17.3968L7.42137 16.33C7.44349 16.22 7.45458 16.154 7.43241 16.132C7.41028 16.11 7.36599 16.099 7.28845 16.099H4.37589C4.03258 16.099 3.73357 16.154 3.47886 16.253C3.21308 16.363 2.99159 16.4949 2.80333 16.6599C2.61506 16.8249 2.47109 17.0229 2.36035 17.2429C2.24961 17.4628 2.16101 17.6828 2.10564 17.9138L1.00927 22.5773C0.976049 22.7092 1.03142 22.7752 1.18646 22.7752ZM10.7437 22.6433C11.1756 22.4893 11.541 22.2583 11.8622 21.9613C12.1834 21.6644 12.4491 21.3014 12.6595 20.8725C12.87 20.4435 13.0471 19.9706 13.1689 19.4316C13.2908 18.9147 13.3462 18.4417 13.324 18.0128C13.3019 17.5948 13.2022 17.2319 13.0139 16.9349C12.8367 16.6379 12.571 16.407 12.2277 16.242C11.8954 16.077 11.4635 16 10.943 16C10.4447 16 9.9906 16.077 9.56979 16.242C9.16003 16.407 8.78351 16.6379 8.46233 16.9349C8.14119 17.2319 7.86434 17.6058 7.63175 18.0238C7.3992 18.4527 7.22203 18.9257 7.10019 19.4426C6.97839 19.9816 6.92301 20.4545 6.93406 20.8834C6.95622 21.3124 7.04481 21.6644 7.22202 21.9613C7.3992 22.2583 7.65392 22.4783 7.99723 22.6323C8.34053 22.7862 8.77243 22.8632 9.29291 22.8632C9.83555 22.8742 10.3228 22.7972 10.7437 22.6433ZM8.96068 20.7515C8.90531 20.5865 8.89426 20.3885 8.90531 20.1575C8.92747 19.9266 8.96068 19.6626 9.03823 19.3656C9.09356 19.1346 9.17111 18.9037 9.2597 18.6837C9.35937 18.4637 9.47012 18.2767 9.59192 18.1118C9.72484 17.9468 9.8688 17.8258 10.0239 17.7268C10.1899 17.6278 10.3561 17.5838 10.5443 17.5838C10.7658 17.5838 10.943 17.6388 11.0648 17.7268C11.1867 17.8258 11.2752 17.9578 11.3195 18.1228C11.3638 18.2877 11.3749 18.4857 11.3638 18.7057C11.3417 18.9257 11.3085 19.1676 11.2642 19.4096C11.2088 19.6516 11.1313 19.8826 11.0427 20.1025C10.9541 20.3225 10.8544 20.5205 10.7326 20.6855C10.6108 20.8505 10.4668 20.9824 10.3007 21.0814C10.1346 21.1804 9.94631 21.2244 9.73588 21.2244C9.51441 21.2244 9.34828 21.1804 9.2154 21.0924C9.09356 21.0484 9.00498 20.9164 8.96068 20.7515ZM26.2257 18.5407C26.414 18.3097 26.5358 18.0678 26.5911 17.8258C26.6686 17.5178 26.6686 17.2649 26.6133 17.0449C26.5579 16.8249 26.4472 16.6489 26.2921 16.5169C26.1371 16.374 25.9488 16.275 25.7163 16.209C25.4837 16.143 25.2179 16.11 24.93 16.11H22.4383C22.1725 16.11 21.9953 16.165 21.8956 16.264C21.7959 16.374 21.7184 16.5279 21.6741 16.7369L20.4005 22.1483C20.3452 22.3683 20.3452 22.5333 20.4005 22.6323C20.4559 22.7312 20.611 22.7752 20.8767 22.7752H23.3685C23.7007 22.7752 24.0219 22.7312 24.332 22.6323C24.6421 22.5333 24.9189 22.3903 25.1736 22.2143C25.4283 22.0383 25.6387 21.8184 25.8159 21.5654C25.9931 21.3124 26.115 21.0374 26.1925 20.7295C26.2257 20.5755 26.2478 20.4215 26.2478 20.2675C26.2478 20.1136 26.2257 19.9596 26.1814 19.8166C26.1371 19.6736 26.0596 19.5416 25.971 19.4206C25.8713 19.2996 25.7495 19.2116 25.5833 19.1346L25.5944 19.0797C25.827 18.9477 26.0374 18.7717 26.2257 18.5407ZM24.3541 20.5975C24.343 20.6635 24.3098 20.7405 24.2766 20.8065C24.2434 20.8725 24.188 20.9385 24.1215 21.0045C24.0551 21.0704 23.9776 21.1144 23.889 21.1584C23.8004 21.1914 23.6896 21.2134 23.5568 21.2134H22.4272L22.7262 19.9706H23.8558C24.0662 19.9706 24.2101 20.0255 24.2988 20.1465C24.3763 20.2675 24.3984 20.4105 24.3541 20.5975ZM24.6864 18.0898C24.6421 18.2767 24.5645 18.3977 24.4427 18.4637C24.3209 18.5297 24.1991 18.5627 24.0662 18.5627H23.0695L23.2799 17.6498H24.3209C24.4648 17.6498 24.5756 17.6828 24.6421 17.7598C24.6974 17.8368 24.7196 17.9468 24.6864 18.0898ZM29.4373 17.9688C29.4705 17.9028 29.5037 17.8478 29.5591 17.7928C29.6144 17.7378 29.6809 17.6938 29.7584 17.6608C29.847 17.6278 29.9467 17.6058 30.0796 17.6058H32.3609C32.4273 17.6058 32.4827 17.5948 32.5159 17.5618C32.5491 17.5288 32.5713 17.4738 32.5935 17.3968L32.8482 16.319C32.8703 16.209 32.8814 16.143 32.8592 16.121C32.8371 16.099 32.7928 16.088 32.7153 16.088H29.8913C29.548 16.088 29.249 16.143 28.9943 16.242C28.7285 16.341 28.507 16.4839 28.3298 16.6489C28.1415 16.8139 27.9976 17.0119 27.8869 17.2319C27.7761 17.4518 27.6875 17.6718 27.6321 17.9028L26.9123 20.9494C26.868 21.1584 26.8348 21.3674 26.8348 21.5874C26.8348 21.8074 26.8791 21.9943 26.9787 22.1703C27.0784 22.3463 27.2335 22.4893 27.4439 22.5992C27.6543 22.7092 27.9533 22.7643 28.3409 22.7643H31.3088C31.4306 22.7643 31.5082 22.6873 31.5414 22.5443L31.7961 21.4664C31.8182 21.3564 31.8293 21.2904 31.8072 21.2684C31.785 21.2464 31.7407 21.2354 31.6632 21.2354H29.2268C29.1493 21.2354 29.0718 21.2354 29.0054 21.2244C28.9389 21.2134 28.8835 21.1914 28.8392 21.1584C28.7949 21.1254 28.7728 21.0704 28.7617 21.0045C28.7506 20.9385 28.7617 20.8394 28.7839 20.7185L28.95 20.0035H31.5192C31.6411 20.0035 31.7186 19.9266 31.7518 19.7836L31.9844 18.7937C32.0065 18.6837 32.0176 18.6177 31.9955 18.5957C31.9844 18.5737 31.929 18.5627 31.8515 18.5627H29.2822L29.3819 18.1668C29.393 18.1008 29.4151 18.0348 29.4373 17.9688ZM38.9834 16.33C39.0055 16.22 39.0055 16.154 38.9834 16.132C38.9612 16.11 38.9059 16.099 38.8394 16.099H33.7784C33.7009 16.099 33.6455 16.11 33.6123 16.132C33.5791 16.165 33.5569 16.22 33.5237 16.33L33.269 17.3968C33.2358 17.5398 33.2801 17.6168 33.4241 17.6168H35.0298L33.867 22.5663C33.8338 22.6983 33.8892 22.7643 34.0442 22.7643H35.4063C35.5171 22.7643 35.5836 22.7532 35.6168 22.7202C35.65 22.6873 35.6721 22.6433 35.6832 22.5663L36.846 17.6168H38.4851C38.6179 17.6168 38.7065 17.5398 38.7397 17.3968L38.9834 16.33ZM20.5888 16.11H19.2267C19.1159 16.11 19.0495 16.121 19.0162 16.154C18.983 16.187 18.9609 16.231 18.9498 16.308L18.1303 19.7396H18.0528L17.5876 18.5737L16.7017 16.5389C16.6574 16.44 16.6131 16.363 16.5688 16.308C16.5245 16.253 16.4802 16.209 16.4248 16.176C16.3695 16.143 16.3141 16.132 16.2477 16.121C16.1701 16.11 16.0926 16.11 15.9929 16.11H15.4946C15.2288 16.11 15.0295 16.165 14.9076 16.264C14.7858 16.363 14.6862 16.5609 14.6197 16.8689L13.2465 22.5773C13.2133 22.7092 13.2686 22.7752 13.4237 22.7752H14.7858C14.8966 22.7752 14.963 22.7643 14.9962 22.7312C15.0295 22.6983 15.0516 22.6542 15.0627 22.5773L15.8822 19.1676H15.9486L16.4359 20.3445L17.3108 22.3463C17.3551 22.4453 17.3994 22.5223 17.4437 22.5773C17.488 22.6323 17.5433 22.6763 17.5987 22.7092C17.6541 22.7422 17.7095 22.7533 17.787 22.7643C17.8534 22.7752 17.942 22.7752 18.0306 22.7752H18.529C18.8169 22.7752 19.0273 22.7092 19.1492 22.5663C19.271 22.4233 19.3595 22.2473 19.4149 22.0273L20.7881 16.308C20.7881 16.176 20.7328 16.11 20.5888 16.11Z" fill="#D42A28"/>
</g>
<defs>
<clipPath id="clip0_2757_4928">
<rect width="38" height="7" fill="white" transform="translate(1 16)"/>
</clipPath>
</defs>
</svg>
