<svg width="40" height="40" viewBox="0 0 40 40" fill="none" xmlns="http://www.w3.org/2000/svg">
<g clip-path="url(#clip0_2755_4901)">
<path d="M12.8906 22.8008H15.2531V23.5863H14.1293V29.1052H12.8906V22.8008Z" fill="#0079C2"/>
<path d="M16.6529 26.7385L16.8652 23.5863H16.9363L17.1486 26.7385H16.6529ZM15.2812 29.1052H16.494L16.6088 27.4309H17.1928L17.3081 29.1052H18.5203L17.8743 22.8008H15.9272L15.2812 29.1052Z" fill="#0079C2"/>
<path d="M20.2938 26.8987V28.0872C20.2938 28.2474 20.4157 28.2939 20.4868 28.2939C20.6036 28.2939 20.6849 28.1957 20.6849 28.0872V26.6196C20.6849 26.4232 20.6493 26.2062 20.1872 26.2062H19.6844V25.5138H20.2075C20.5579 25.5138 20.6849 25.4311 20.6849 25.0435V23.793C20.6849 23.6844 20.6036 23.5863 20.4868 23.5863C20.4157 23.5863 20.2938 23.6276 20.2938 23.793V24.8213H19.0547V23.9273C19.0547 23.4881 19.1055 22.8008 19.9739 22.8008H20.9997C21.8681 22.8008 21.924 23.4881 21.924 23.9273V24.935C21.924 25.6223 21.4517 25.8083 21.081 25.7928V25.8548C21.9138 25.8341 21.924 26.4853 21.924 26.7075V27.9787C21.924 28.4231 21.8681 29.1052 20.9997 29.1052H19.9739C19.1055 29.1052 19.0547 28.4231 19.0547 27.9787V26.8987H20.2938Z" fill="#0079C2"/>
<path d="M22.7344 22.8008H25.6037V29.1052H24.3646V23.5863H23.9735V29.1052H22.7344V22.8008Z" fill="#0079C2"/>
<path d="M27.6532 26.2682V23.5863H27.8157C27.9477 23.5863 28.0442 23.6999 28.0442 23.9015V25.953C28.0442 26.1545 27.9477 26.2682 27.8157 26.2682H27.6532ZM26.4141 29.1052H27.6532V26.9607H28.3642C29.2275 26.9607 29.2834 26.2786 29.2834 25.8341V23.9273C29.2834 23.4881 29.2275 22.8008 28.3642 22.8008H26.4141V29.1052Z" fill="#0079C2"/>
<path d="M31.7317 28.0872C31.7317 28.1957 31.6505 28.2939 31.5337 28.2939C31.4626 28.2939 31.3407 28.2474 31.3407 28.0872V23.793C31.3407 23.6276 31.4626 23.5863 31.5337 23.5863C31.6505 23.5863 31.7317 23.6844 31.7317 23.793V28.0872ZM30.1016 27.9787C30.1016 28.4231 30.1574 29.1052 31.0208 29.1052H32.0517C32.915 29.1052 32.9709 28.4231 32.9709 27.9787V23.9273C32.9709 23.4881 32.915 22.8008 32.0517 22.8008H31.0208C30.1574 22.8008 30.1016 23.4881 30.1016 23.9273V27.9787Z" fill="#0079C2"/>
<path d="M37.001 22.8008H38.6159V29.1052H37.3768V25.152H37.3311L36.6912 29.1052H35.7009L35.0661 25.152H35.0204V29.1052H33.7812V22.8008H35.3911L36.1986 27.2346L37.001 22.8008Z" fill="#0079C2"/>
<path d="M11.283 14.1811C10.9036 12.4913 9.95294 11.1167 9.82191 10.8945C9.61471 11.2098 8.8565 12.4241 8.47105 13.7677C8.05005 15.2715 7.98809 16.6047 8.13333 17.9121C8.27756 19.2246 8.82247 20.5734 8.82247 20.5734C9.11195 21.2762 9.54565 22.0358 9.82801 22.4079C10.2419 21.8601 11.1931 20.2272 11.4897 18.0981C11.6547 16.9096 11.6618 15.8709 11.283 14.1811ZM9.82191 21.9841C9.63553 21.6276 9.34606 20.9506 9.31864 19.8964C9.31153 18.8836 9.7112 18.0103 9.82801 17.8294C9.93211 18.0103 10.2764 18.7699 10.3176 19.8086C10.3455 20.8214 10.0144 21.6224 9.82191 21.9841ZM11.1728 17.0491C11.1586 17.6951 11.0829 18.3772 10.9864 18.7854C11.0209 18.0826 10.9382 17.0956 10.7797 16.3205C10.6213 15.5505 10.1728 14.2586 9.8148 13.6643C9.4842 14.2328 9.07691 15.349 8.86361 16.3153C8.6493 17.2816 8.64321 18.4547 8.64321 18.8061C8.58633 18.5115 8.44413 17.4522 8.48425 16.3928C8.51777 15.5195 8.71887 14.6152 8.82908 14.2018C9.24957 12.822 9.72542 11.9384 9.8148 11.7989C9.90418 11.9384 10.5034 13.0287 10.8142 14.1708C11.1235 15.3128 11.186 16.4083 11.1728 17.0491Z" fill="#0079C2"/>
<path d="M10.4648 22.8H7.58073V24.7688C7.58327 24.7688 7.5853 24.7636 7.58784 24.7636C8.26734 24.0712 9.36936 24.0712 10.0494 24.7636C10.7289 25.4509 10.7289 26.5723 10.0494 27.2647C10.0463 27.2699 10.0433 27.2699 10.0402 27.2751C10.0367 27.2751 10.0331 27.2802 10.0301 27.2854C9.35209 27.9675 8.46641 28.3086 7.58073 28.3086C6.69099 28.3086 5.80125 27.9675 5.12277 27.2751C3.92629 26.0607 3.7846 24.1745 4.69669 22.8C4.81958 22.6139 4.96127 22.4382 5.12277 22.2729C5.80125 21.5804 6.69099 21.2393 7.58073 21.2393V16.5059C4.16193 16.5059 1.39062 19.3222 1.39062 22.8C1.39062 26.2777 4.16193 29.0992 7.58073 29.0992C9.36326 29.0992 10.9691 28.3293 12.0985 27.1045V22.8H10.4648Z" fill="#0079C2"/>
</g>
<defs>
<clipPath id="clip0_2755_4901">
<rect width="38" height="19" fill="white" transform="translate(1 10.5)"/>
</clipPath>
</defs>
</svg>
