<svg width="40" height="40" viewBox="0 0 40 40" fill="none" xmlns="http://www.w3.org/2000/svg">
<g clip-path="url(#clip0_2704_4888)">
<path fill-rule="evenodd" clip-rule="evenodd" d="M10.3175 19.9984C10.3175 18.9187 10.4968 17.8836 10.8168 16.9127L5.21477 12.6348C4.12295 14.8516 3.50781 17.3494 3.50781 19.9984C3.50781 22.6451 4.1222 25.1415 5.2125 27.3568L10.8116 23.0705C10.4945 22.1041 10.3175 21.0728 10.3175 19.9984Z" fill="#FBBC05"/>
<path fill-rule="evenodd" clip-rule="evenodd" d="M20.1498 10.177C22.4954 10.177 24.6139 11.0081 26.2785 12.3681L31.1209 7.53251C28.1701 4.96362 24.3869 3.37695 20.1498 3.37695C13.5717 3.37695 7.91816 7.13886 5.21094 12.6355L10.813 16.9135C12.1038 12.9952 15.7833 10.177 20.1498 10.177Z" fill="#EB4335"/>
<path fill-rule="evenodd" clip-rule="evenodd" d="M20.1498 29.8205C15.7833 29.8205 12.1038 27.0023 10.813 23.084L5.21094 27.3612C7.91816 32.8586 13.5717 36.6205 20.1498 36.6205C24.2099 36.6205 28.0861 35.1789 30.9953 32.4778L25.6777 28.3668C24.1774 29.312 22.288 29.8205 20.1498 29.8205Z" fill="#34A853"/>
<path fill-rule="evenodd" clip-rule="evenodd" d="M36.0455 19.9988C36.0455 19.0166 35.8941 17.9588 35.6671 16.9766H20.1562V23.3988H29.0845C28.6381 25.5884 27.4229 27.2718 25.6842 28.3673L31.0018 32.4783C34.0578 29.6419 36.0455 25.4169 36.0455 19.9988Z" fill="#4285F4"/>
</g>
<defs>
<clipPath id="clip0_2704_4888">
<rect width="34" height="34" fill="white" transform="translate(3 3)"/>
</clipPath>
</defs>
</svg>
