<svg width="40" height="40" viewBox="0 0 40 40" fill="none" xmlns="http://www.w3.org/2000/svg">
<path fill-rule="evenodd" clip-rule="evenodd" d="M36.7322 17.1932H38C37.8596 17.3022 37.7753 17.4356 37.7753 17.6183V21.9837C37.7753 22.1661 37.8632 22.2962 38 22.4049H36.7322C36.8691 22.2962 36.9533 22.1627 36.9533 21.9837V17.618C36.9535 17.4354 36.8726 17.3019 36.7322 17.1932ZM7.34874 19.0685C7.14161 18.6225 6.91335 18.1835 6.53053 17.864C6.12321 17.5199 5.60672 17.3127 5.07292 17.3127C3.65418 17.3127 3.01839 18.5944 3.01839 19.8552C3.01839 21.074 3.6261 22.3065 4.99564 22.3065C5.55392 22.3065 6.0985 22.0643 6.44246 21.6251V20.6418C6.44246 20.3749 6.35462 20.203 6.14748 20.0451H7.59789C7.44333 20.2205 7.34874 20.3996 7.34874 20.6418V21.6251C6.68487 22.2434 5.85969 22.6224 4.94307 22.6224C3.32416 22.6224 2 21.4319 2 19.7743C2 18.1274 3.30641 17 4.90443 17C5.89833 17 6.70239 17.3653 7.34874 18.0993V19.0685ZM10.9027 17.1932H12.2688C12.0826 17.33 12.0195 17.4846 12.0195 17.7129V20.8983C12.0195 21.7725 13.0448 22.2011 13.7965 22.2011C14.5341 22.2011 15.4963 21.7693 15.4963 20.9159V17.7129C15.4963 17.4985 15.4435 17.3511 15.2997 17.1932H16.0443C15.8933 17.3478 15.8371 17.5021 15.8371 17.7129V20.9159C15.8371 22.0677 14.4782 22.5101 13.5368 22.5101C12.5676 22.5101 11.1523 22.0818 11.1523 20.8983V17.7129C11.152 17.4952 11.0642 17.3336 10.9027 17.1932ZM24.5848 19.086C24.4024 18.6259 24.188 18.2222 23.8122 17.8885C23.4085 17.5302 22.9167 17.3055 22.3725 17.3055C20.968 17.3055 20.2479 18.5347 20.2479 19.8096C20.2479 21.0913 20.996 22.3029 22.3831 22.3029C23.4156 22.3029 24.1532 21.5759 24.585 20.7013V21.6496C23.9427 22.2854 23.1137 22.6085 22.2076 22.6085C20.5287 22.6085 19.2715 21.5233 19.2715 19.7921C19.2715 18.1101 20.4795 17.0038 22.1268 17.0038C23.0398 17.0038 23.9245 17.3199 24.5848 17.9485V19.086ZM33.3926 19.086C33.2102 18.6259 32.9954 18.2222 32.62 17.8885C32.2163 17.5302 31.7245 17.3055 31.1804 17.3055C29.7754 17.3055 29.0589 18.5347 29.0589 19.8096C29.0589 21.0913 29.8034 22.3029 31.191 22.3029C32.2235 22.3029 32.9642 21.5759 33.3929 20.7013V21.6496C32.7501 22.2854 31.9247 22.6085 31.0155 22.6085C29.3366 22.6085 28.0796 21.5233 28.0796 19.7921C28.0796 18.1101 29.2876 17.0038 30.9344 17.0038C31.8474 17.0038 32.7326 17.3199 33.3929 17.9485L33.3926 19.086Z" fill="black"/>
</svg>
