<svg width="40" height="40" viewBox="0 0 40 40" fill="none" xmlns="http://www.w3.org/2000/svg">
<g clip-path="url(#clip0_2704_7315)">
<path fill-rule="evenodd" clip-rule="evenodd" d="M32.2848 22.3031V23.2249H35.2533V20.4593H33.4275V19.5374H35.2533V16.7687H32.2848V17.6912H34.3371V18.6152H32.5076V21.3814H34.3371V22.3031H32.2848ZM27.0079 19.9995C27.0079 17.2002 29.2614 14.9273 32.041 14.9273C34.8199 14.9273 37.0738 17.2002 37.0738 19.9995C37.0738 22.7998 34.8199 25.071 32.041 25.071C29.2614 25.071 27.0079 22.7998 27.0079 19.9995ZM26.0859 19.9995C26.0859 16.6848 28.7503 14 32.041 14C35.3308 14 37.997 16.6848 37.997 19.9995C37.997 23.3142 35.3308 26 32.041 26C28.7503 26 26.0859 23.3142 26.0859 19.9995ZM31.8231 17.6887V16.7666H28.851V19.5336H30.6722V20.4566H28.851V23.2232H31.8231V22.3011H29.7657V21.3793H31.595V18.6107H29.7657V17.6887" fill="#CB0202"/>
<path fill-rule="evenodd" clip-rule="evenodd" d="M12.0025 20.5131V20.498H14.2116C14.4134 20.498 14.7039 20.5306 14.9366 20.6848C15.1534 20.8293 15.2643 21.0429 15.2643 21.3194C15.2643 21.5396 15.2049 21.712 15.0884 21.831C14.8718 22.0504 14.4978 22.0499 14.2242 22.0499H11.9944V22.0364L12.0025 20.5131ZM12.0025 19.3081V17.9551H14.0248C14.3805 17.9551 14.9767 17.9551 14.9767 18.6683C14.9767 18.9298 14.865 19.1147 14.6449 19.2188C14.4463 19.313 14.1984 19.3228 14.0297 19.3228H12.0025V19.3081ZM14.2937 23.2455C15.0603 23.2455 15.6386 23.0572 16.0122 22.6856C16.3959 22.3036 16.4767 21.8128 16.4767 21.467C16.4767 20.7116 16.1644 20.1862 15.548 19.9065L15.5209 19.895L15.5466 19.8812C15.8245 19.7334 16.1926 19.433 16.1926 18.5376C16.1926 18.0457 16.0087 17.6025 15.6739 17.2892C15.3071 16.9451 14.7718 16.7638 14.1277 16.7638L10.7891 16.7617V23.2436" fill="#201E1D"/>
<path fill-rule="evenodd" clip-rule="evenodd" d="M2 23.2453H3.27183V16.7637H2V23.2453Z" fill="#201E1D"/>
<path fill-rule="evenodd" clip-rule="evenodd" d="M4.30469 19.9492C4.30469 20.5759 4.4092 21.0933 4.62419 21.5307C4.80379 21.895 5.05684 22.202 5.42222 22.4976C5.99066 22.9567 6.79116 23.1899 7.80171 23.1899H9.5424V21.9665H7.8982C6.98352 21.9665 6.32024 21.7365 5.92729 21.2822C5.64791 20.9601 5.50451 20.5251 5.50081 19.99C5.49567 19.4161 5.6549 18.9597 5.97255 18.6347C6.37002 18.2279 7.01787 18.0219 7.8982 18.0219H9.5424V16.8086H7.8624C7.29664 16.8086 6.82243 16.8663 6.41138 16.983C6.00115 17.1004 5.66396 17.2752 5.38149 17.517C4.97969 17.8615 4.30469 18.6347 4.30469 19.9492Z" fill="#201E1D"/>
<path fill-rule="evenodd" clip-rule="evenodd" d="M17.25 19.9491C17.25 20.5745 17.357 21.1266 17.5695 21.588C17.7534 21.9879 18.0215 22.3326 18.3671 22.6116C18.9014 23.0444 19.6577 23.2454 20.7466 23.2454H22.5817V22.0222H20.8435C19.9305 22.0222 19.2672 21.7821 18.8718 21.3088C18.5928 20.9756 18.4494 20.532 18.4459 19.9899C18.4406 19.4001 18.6054 18.9297 18.9341 18.5934C19.3339 18.1836 19.9759 17.9759 20.8435 17.9759H22.5817V16.7637H20.8069C20.2415 16.7637 19.7677 16.8208 19.3563 16.9377C18.946 17.0548 18.6089 17.2288 18.3272 17.4708C18.0026 17.7482 17.25 18.545 17.25 19.9491Z" fill="#201E1D"/>
</g>
<defs>
<clipPath id="clip0_2704_7315">
<rect width="36" height="12" fill="white" transform="translate(2 14)"/>
</clipPath>
</defs>
</svg>
