<svg width="40" height="40" viewBox="0 0 40 40" fill="none" xmlns="http://www.w3.org/2000/svg">
<g clip-path="url(#clip0_2704_7309)">
<path d="M20.0014 2.29492C19.5722 2.29492 18.7351 2.33979 18.7009 2.34186C18.8632 2.38514 6.17738 8.89341 6.17738 8.82514C6.17348 8.8472 6.16751 8.86549 6.15593 8.87988C3.64113 11.9562 2.14844 15.8642 2.14844 20.1477C2.14844 23.678 3.17701 26.9662 4.94559 29.7368C4.95753 29.7304 9.44877 34.0805 9.39379 34.5064C12.3603 36.7008 16.0281 37.9995 20.0009 37.9995C21.3883 37.9995 22.7363 37.8357 24.0337 37.5369C24.0102 37.3972 23.9887 37.2571 23.9692 37.1168L23.7349 35.471C23.6642 35.0207 23.2955 31.9607 23.2955 31.9607L23.2942 31.9517L23.6868 31.801C23.6868 31.801 24.2026 31.8224 24.1899 31.824C24.1899 31.824 24.713 34.9015 24.804 35.4354L24.9025 36.0005C24.9404 36.228 24.9724 36.4538 25.0194 36.6876C25.0524 36.8821 25.0815 37.0685 25.1103 37.254C25.5335 37.1269 25.9504 36.9858 26.3594 36.8295C26.2973 36.4798 26.2297 36.1193 26.224 36.0659L26.0132 34.8138C25.7348 33.5222 25.5574 32.5641 25.427 31.9267C25.4086 31.8352 25.3739 31.6724 25.3739 31.6724L25.7768 31.5113L26.3083 31.5527C26.3083 31.5527 26.9864 34.52 27.1558 35.4172L27.3491 36.416C27.7128 36.2514 28.0729 36.0777 28.4227 35.8896L28.3108 35.3771C28.2988 35.3275 28.286 35.2678 28.2708 35.2015C28.0429 34.1992 27.4384 31.407 27.4384 31.407L27.9233 31.2166L28.3971 31.2833H28.3993C28.3993 31.2833 29.0078 33.8573 29.4026 35.3223C30.0807 34.9015 30.7303 34.4393 31.3428 33.9341C31.3428 33.9341 36.9963 25.4715 37.0367 25.4994C37.5667 23.8101 37.8537 22.0122 37.8537 20.1476C37.8534 10.2881 29.8606 2.29492 20.0014 2.29492Z" fill="#A3080C"/>
<path d="M24.47 11.1828C24.47 11.1828 22.2402 6.97802 21.3306 6.34688C20.4221 5.71574 18.9247 5.32172 17.8866 5.4529C16.5723 5.61882 13.5661 7.20965 13.3663 7.2622C13.3678 7.27756 12.2463 8.66089 11.9535 10.0856C11.8884 10.4022 10.7344 15.4497 10.7344 15.4497L12.9288 21.7891L20.749 25.5201L23.6164 22.3987C23.6164 22.3987 23.9823 19.3103 24.7544 16.9939C25.5264 14.6776 25.2826 13.4179 25.2826 13.4179L24.47 11.1828Z" fill="#FFF1E2"/>
<path d="M14.8923 15.2671C14.7682 15.3378 14.6764 15.3544 14.6191 15.3849C14.5616 15.4162 14.4711 15.4835 14.4935 15.6038C14.5171 15.7248 14.5503 15.764 14.5619 15.8573C14.5729 15.9496 14.5285 16.1168 14.4212 16.3068C14.3156 16.4972 14.1467 16.6347 14.0507 16.6904C13.9564 16.7469 13.8984 16.7621 13.8448 16.7904C13.8326 16.796 13.8216 16.8251 13.8107 16.8837L13.8096 16.8848C13.8171 16.8787 13.8255 16.8738 13.8344 16.8704C13.855 16.8616 13.8975 16.8605 13.9356 16.8534C13.9726 16.8466 13.9998 16.8379 14.0133 16.8361C14.0277 16.8344 14.1133 16.8223 14.1276 16.8192C14.142 16.8164 14.4013 16.7621 14.562 16.6881C14.7218 16.6138 15.0025 16.4784 15.1633 16.2841C15.2814 16.1418 15.4237 15.8828 15.4376 15.6257C15.4409 15.5725 15.4403 15.5395 15.4403 15.5395C15.4403 15.5395 15.4409 15.5395 15.4409 15.5389C15.4427 15.5389 15.4443 15.5384 15.446 15.5384C15.4209 15.5377 15.3968 15.5288 15.3774 15.513C15.3343 15.4794 15.2996 15.4545 15.1677 15.3136C15.0828 15.2226 15.0887 15.1559 15.1346 15.0797C15.1335 15.0814 15.1316 15.0831 15.1304 15.0849C15.0911 15.1214 15.0148 15.1965 14.8923 15.2671ZM21.4485 14.4268C21.4485 14.4268 21.376 14.433 21.3512 14.444C21.3314 14.4521 21.2941 14.466 21.2686 14.5002C21.2432 14.5349 21.2374 14.5956 21.2907 14.6608C21.3448 14.7258 21.4197 14.8472 21.4135 14.9512C21.4094 14.997 21.416 15.1464 21.3677 15.2541C21.3135 15.3761 21.2508 15.4964 21.2078 15.5507C21.1829 15.5826 21.0681 15.7097 21.0513 15.7996C21.0468 15.8185 21.0513 15.8395 21.0602 15.8592C21.0602 15.8592 21.0615 15.8581 21.0615 15.8597C21.0609 15.8603 21.0615 15.8614 21.0609 15.8625C21.0631 15.8551 21.0667 15.8482 21.0716 15.8422C21.1002 15.81 21.1587 15.7774 21.2603 15.7461C21.3952 15.7034 21.491 15.6526 21.5655 15.5958C21.5565 15.6063 21.5542 15.6185 21.5484 15.6305C21.5561 15.6119 21.5649 15.5935 21.5816 15.5788C21.6216 15.5443 22.1507 15.1892 22.1642 14.6159C22.1693 14.4006 21.89 14.3722 21.7737 14.3683C21.6873 14.3646 21.5244 14.4438 21.4556 14.4271C21.4544 14.4266 21.4525 14.4248 21.4499 14.4243C21.4511 14.4243 21.4511 14.4248 21.4511 14.4248C21.451 14.4262 21.4489 14.4262 21.4485 14.4268ZM15.8142 18.385C15.8142 18.385 17.9172 19.0353 18.9229 17.8669C19.9287 16.6986 21.6659 18.4867 21.7776 19.0149C21.8895 19.5432 19.1667 21.0061 18.3438 21.0366C17.5209 21.0671 14.2598 20.6303 14.2598 20.295C14.2598 19.9597 15.8142 18.385 15.8142 18.385ZM24.4446 10.029C24.1102 6.48238 22.4782 4.70478 21.3053 3.84201C20.0727 3.02983 17.1403 2.31445 15.7583 2.37906C14.1278 2.45526 10.3621 4.23383 10.2165 4.36525C10.0776 4.49192 7.5522 8.71471 7.86453 9.4691C8.17687 10.2235 8.61941 13.7864 8.76364 14.0725C8.80752 14.1582 9.5279 16.4794 10.0031 16.3939C10.4821 16.3078 10.9287 14.1908 10.9073 14.0268C10.8464 13.5595 9.99824 11.4537 10.0641 11.1567C10.1308 10.8606 12.396 7.31406 12.5581 7.18947C12.6725 7.10242 16.5582 6.61916 16.5808 6.65671C16.5803 6.65561 16.5803 6.6544 16.5787 6.6533L16.5782 6.65269C16.8498 6.41594 17.4797 5.79187 18.0426 5.8143C18.605 5.83746 20.2129 6.03837 21.1212 6.67024C22.031 7.30138 22.3118 7.91923 22.3889 8.0921C22.3884 8.0921 22.3872 8.09296 22.3866 8.09296C22.417 8.09747 23.6824 10.9739 24.0532 10.9841C24.3007 10.9908 24.4853 10.4554 24.4446 10.029ZM22.8704 12.3872C22.7355 12.4029 22.3665 12.4366 22.3257 12.4417C22.2532 12.4511 22.2551 12.492 22.2597 12.5228C22.2634 12.5544 22.2749 12.6759 22.2792 12.7282C22.2837 12.7801 22.3379 12.8106 22.3936 12.8061C22.4496 12.8022 22.8025 12.7702 22.8551 12.7621C22.9065 12.7537 22.9575 12.7101 22.9568 12.6686C22.9557 12.6267 22.9563 12.5163 22.9557 12.4717C22.9544 12.4267 22.9213 12.3815 22.8704 12.3872ZM8.18748 29.3472C8.25758 29.3625 8.33231 29.3795 8.40448 29.3963C8.24319 29.3589 8.06776 29.3206 7.96718 29.2958C7.91744 29.2832 7.83918 29.276 7.7486 29.2778C7.59742 29.2811 7.41078 29.3109 7.26009 29.3866C7.06955 29.4812 5.85896 30.0951 5.35156 30.3514C5.93118 31.1824 6.57994 31.9631 7.29094 32.6849C7.33531 32.5019 8.12884 31.6693 8.24051 31.1813C8.39339 30.5124 8.0129 29.6297 8.18748 29.3472ZM28.3934 31.2834L27.4366 31.4068C27.4366 31.4068 28.1248 34.5842 28.3091 35.3767L28.42 35.8893C28.7528 35.71 29.0783 35.5208 29.398 35.322C29.0026 33.857 28.394 31.2834 28.394 31.2834H28.3934Z" fill="white"/>
<path d="M33.9372 18.5718C33.4541 18.9368 33.1866 19.4298 33.1881 19.9232C33.1903 20.6545 33.7818 21.3588 35.1523 21.3543C35.4583 21.3516 35.7636 21.3238 36.0651 21.2713C36.1426 21.2587 36.2198 21.2445 36.2967 21.2287L36.456 20.548C36.1905 20.6367 35.855 20.7101 35.586 20.7113C34.8562 20.7136 34.3668 20.2808 34.3656 19.7132C34.3644 19.4109 34.4887 19.1451 34.7135 18.9508C34.9544 18.7426 35.3093 18.6166 35.7531 18.6166C36.1046 18.6166 36.3101 18.7138 36.4503 18.8525C36.4785 18.8797 36.5044 18.9082 36.5272 18.9381H36.6416L36.8653 18.1347C36.6346 18.0586 36.293 17.9946 35.9325 17.9906C35.0933 17.9795 34.4113 18.2136 33.9372 18.5718ZM32.7943 18.6834C32.8928 18.6834 32.9746 18.7193 33.0295 18.7662C33.0765 18.8061 33.1046 18.8535 33.1046 18.8945H33.2171L33.4351 18.0221H30.4732L30.43 18.1927L30.4198 18.2342C30.4198 18.2342 30.744 18.2706 30.6446 18.5947L29.9053 21.2809L31.1627 21.2833H31.3834L31.4394 21.0527C31.4394 21.0527 31.1627 20.986 31.2352 20.7306C31.2384 20.7146 31.3427 20.3325 31.4049 20.1032C31.4327 20.0042 31.4524 19.933 31.4524 19.933L32.1294 19.9325C32.2401 19.9325 32.3249 19.9529 32.3905 19.9783C32.5261 20.0302 32.5781 20.109 32.5781 20.109L32.7744 19.3107H31.6334L31.7568 18.8547L31.803 18.6847L32.7943 18.6834ZM29.1956 20.8014C29.1078 20.7075 28.3468 19.5222 28.3468 19.5222L29.6926 18.4451L29.7372 18.4093C29.7885 18.3661 29.8443 18.3286 29.9036 18.2975C30.0468 18.224 30.1389 18.2344 30.1389 18.2344L30.1929 18.0197L28.4631 18.0223L28.42 18.1924L28.4097 18.2344C28.5274 18.2426 28.6915 18.3477 28.5574 18.4729C28.5397 18.4879 27.1671 19.5368 27.1671 19.5368L27.1778 19.4998L27.4632 18.4658C27.5235 18.2593 27.7454 18.2344 27.7454 18.2344L27.7997 18.0217L26.1481 18.0222L26.1057 18.1924L26.0947 18.2344C26.1737 18.2548 26.3993 18.2986 26.3211 18.5949C25.77 20.5867 25.833 20.3896 25.7957 20.4981C25.6722 20.9703 25.4872 21.0352 25.3761 21.0473C25.3518 21.0496 25.3308 21.0496 25.3156 21.0505L25.2928 21.1396L25.2578 21.2808H26.9851L27.0428 21.0469C27.0428 21.0469 26.7688 20.9927 26.821 20.795C26.8728 20.6035 26.9251 20.4122 26.9779 20.221C27.0371 20.0051 27.0895 19.8159 27.0895 19.8159C27.3891 20.2961 27.4581 20.3553 27.8195 20.8515C28.1522 21.3105 28.5079 21.2891 29.3664 21.2831C29.4362 21.2826 29.5088 21.282 29.5868 21.282L29.644 21.0526C29.4265 21.0539 29.2825 20.895 29.1956 20.8014ZM37.34 18.0784C37.3198 18.0579 37.2957 18.0418 37.2691 18.031C37.2425 18.0201 37.2139 18.0148 37.1852 18.0154C37.1255 18.0154 37.0745 18.0363 37.0315 18.0784C37.011 18.0984 36.9947 18.1223 36.9838 18.1488C36.9729 18.1753 36.9675 18.2037 36.9679 18.2324C36.9679 18.2931 36.9894 18.3445 37.0315 18.3873C37.0734 18.4295 37.1255 18.4514 37.1852 18.4514C37.2463 18.4514 37.2971 18.4294 37.34 18.3873C37.3827 18.3444 37.4039 18.293 37.4039 18.2324C37.4046 18.2037 37.3992 18.1751 37.3882 18.1486C37.3772 18.1221 37.3608 18.0982 37.34 18.0784ZM37.3189 18.366C37.3017 18.3839 37.281 18.3982 37.258 18.4077C37.235 18.4173 37.2103 18.4221 37.1854 18.4217C37.1335 18.4217 37.0894 18.403 37.0533 18.366C37.0356 18.3486 37.0215 18.3278 37.0121 18.3048C37.0027 18.2818 36.998 18.2572 36.9984 18.2324C36.9984 18.1809 37.0171 18.1363 37.0533 18.0998C37.0703 18.082 37.0908 18.0678 37.1136 18.0583C37.1363 18.0487 37.1608 18.0439 37.1854 18.0443C37.2103 18.044 37.235 18.0487 37.2579 18.0583C37.2809 18.0679 37.3016 18.082 37.3189 18.0998C37.3551 18.1363 37.3731 18.1809 37.3731 18.2324C37.3731 18.2848 37.355 18.3295 37.3189 18.366Z" fill="white"/>
<path d="M37.2878 18.1801C37.2878 18.1501 37.2749 18.1299 37.2509 18.1194C37.2296 18.1134 37.2075 18.1107 37.1854 18.1115H37.1017V18.3508H37.143V18.2562H37.176C37.1991 18.2562 37.2143 18.259 37.2243 18.2641C37.2385 18.2734 37.2464 18.2915 37.2459 18.3192V18.3376L37.2476 18.3458V18.3486C37.2476 18.3486 37.2476 18.3497 37.2489 18.3509H37.2878L37.2871 18.3475C37.2848 18.3458 37.2848 18.3419 37.2838 18.3353V18.2999C37.2838 18.2877 37.2794 18.2745 37.2705 18.2623C37.2627 18.25 37.2476 18.2419 37.2298 18.2391C37.242 18.2379 37.2537 18.2339 37.2642 18.2275C37.2719 18.2223 37.2781 18.2152 37.2822 18.2069C37.2864 18.1986 37.2883 18.1894 37.2878 18.1801ZM37.2213 18.222C37.2087 18.2258 37.1956 18.2273 37.1825 18.2265H37.1436V18.1404H37.1792C37.2027 18.1399 37.2204 18.143 37.2311 18.1491C37.2414 18.1547 37.2471 18.1669 37.2471 18.1845C37.2473 18.1927 37.2449 18.2007 37.2402 18.2074C37.2356 18.2142 37.229 18.2193 37.2213 18.222ZM34.9177 24.7963C32.642 24.1054 27.9688 24.268 27.9688 24.268L31.7886 33.2691C31.7886 33.2691 32.1423 33.0918 32.1867 33.1886C34.2589 31.2511 35.868 28.8285 36.833 26.0999C36.7569 26.0413 37.1935 25.4871 34.9177 24.7963Z" fill="white"/>
<path d="M27.1535 35.4172C26.983 34.5202 26.3042 31.5527 26.3042 31.5527C26.3042 31.5527 27.2054 31.316 27.4166 30.8002C27.6277 30.2846 27.1497 29.4902 27.127 29.1773C27.0294 28.2427 26.6623 24.415 26.0603 23.6226C25.7098 23.1612 24.098 22.2507 23.9725 22.2562C23.3935 22.2816 22.2353 24.8037 21.2676 25.0323C20.6225 25.1847 20.1668 24.5572 20.2713 24.6045C20.2693 24.6031 20.2673 24.602 20.2661 24.6011C20.2661 24.6011 20.2673 24.5289 20.1594 24.1899C20.0514 23.8496 19.8253 23.4926 19.7835 23.4119C19.7429 23.331 19.6203 23.1548 19.616 23.1346C19.6126 23.1147 19.568 23.0012 19.5364 22.7944C19.4763 22.3956 19.5039 22.1283 19.5062 22.1041C19.5074 22.0797 19.5185 22.0074 19.5218 21.9928C19.5243 21.9774 19.5184 21.9514 19.5 21.9469C19.4807 21.9436 19.4292 21.9311 19.3755 21.9864C19.2633 22.0995 19.2582 22.121 19.2561 22.1401C19.2522 22.1581 19.2638 22.1922 19.2604 22.2317C19.2482 22.3572 19.2263 22.4531 19.1701 22.5447C19.1141 22.6373 19.0777 22.6691 18.9984 22.6616C18.9178 22.6542 18.8508 22.5904 18.841 22.4249C18.8305 22.2596 18.798 22.2029 18.7648 22.1639C18.7318 22.1232 18.6564 22.1045 18.6307 22.1061C18.6054 22.1061 18.5842 22.1288 18.4098 22.1716C18.2369 22.2155 17.9622 22.2302 17.9217 22.2319C17.8804 22.2345 17.7295 22.2497 17.7285 22.25C17.76 22.368 17.0948 22.1865 16.9828 22.2763C16.7543 22.4592 16.6475 23.6466 16.5358 24.2624L16.5355 24.2643L12.7871 24.6436L11.4766 27.6914C11.4766 27.6914 11.8728 33.7261 11.8728 33.8175C11.8728 33.9089 20.1628 32.0193 20.1628 32.0193L23.2903 31.9516C23.2903 31.9516 23.2912 31.9539 23.2918 31.9598C23.314 32.1401 23.6606 35.0203 23.7312 35.4713L23.9657 37.1159C23.985 37.2556 24.0064 37.3969 24.03 37.5362C24.3929 37.4523 24.7522 37.3594 25.1064 37.2533C25.0777 37.0679 25.0479 36.8808 25.0155 36.6875C24.9689 36.4531 24.9367 36.2278 24.8991 35.9998L24.7998 35.4348C24.7094 34.9014 24.1852 31.8246 24.1852 31.8246L24.7346 31.4776L25.3706 31.672C25.3876 31.7501 25.4044 31.8346 25.4238 31.9263C25.5542 32.5646 25.7321 33.5219 26.0098 34.8123L26.2206 36.0653C26.2263 36.1186 26.2942 36.4791 26.3568 36.8293C26.6903 36.701 27.02 36.563 27.3455 36.4156L27.1535 35.4172Z" fill="white"/>
<path d="M20.9459 12.5545C20.255 12.6561 19.2492 13.2199 19.295 13.6314C19.3231 13.8864 20.764 13.9254 21.4132 13.9717C22.0624 14.0181 22.1695 13.394 22.1347 13.0548C22.0998 12.7157 21.673 12.4477 20.9459 12.5545ZM25.6605 23.6308C25.3177 23.5951 25.4769 24.1511 25.4729 24.2073V24.2084C25.6385 24.8357 25.7816 25.4687 25.9017 26.1062C25.9032 26.1645 25.9075 26.2156 25.9147 26.257C25.9638 26.5144 26.0655 27.3467 26.261 29.2263C26.3062 29.8525 26.3457 30.5054 26.3718 31.0546C26.3896 31.0534 27.5444 31.1204 27.5444 31.1204C27.5444 31.1204 27.4987 29.505 27.1406 27.4782C26.7823 25.4517 26.2453 23.6918 25.6605 23.6308ZM22.5468 18.541C22.5989 18.2551 22.5393 18.1138 22.4458 17.9467C22.3536 17.78 22.1756 17.6241 21.9455 17.4729C21.7231 17.3249 21.2202 16.8812 21.1713 16.8392C21.1238 16.7983 20.889 16.5763 20.8346 16.5321C20.778 16.4886 20.6684 16.3974 20.4278 16.2754C19.8447 15.9813 19.3758 16.2014 19.3576 16.2115C19.3398 16.2215 19.2533 16.2915 19.1704 16.3702C19.0887 16.4476 19.15 16.5973 19.1813 16.652C19.1813 16.652 22.276 18.9204 22.2822 18.9733L22.2845 18.975C22.2845 18.975 22.5038 18.7746 22.5468 18.541ZM21.2665 15.7471C21.1649 15.7785 21.1065 15.8109 21.0778 15.8432C21.0722 15.8497 21.07 15.8567 21.0677 15.8636C21.0651 15.8689 21.0651 15.8745 21.0651 15.8799V15.8923C21.0663 15.8977 21.0684 15.9022 21.0696 15.9071C21.0723 15.9127 21.0754 15.9187 21.0787 15.9243C21.0811 15.9279 21.0832 15.932 21.0862 15.9359C21.0907 15.9429 21.0972 15.9496 21.1034 15.9567C21.106 15.9601 21.1091 15.9629 21.1124 15.9661C21.123 15.9768 21.1342 15.987 21.1458 15.9966C21.1568 16.006 21.168 16.0146 21.1791 16.024C21.1816 16.0251 21.1824 16.0263 21.1848 16.028C21.1984 16.0379 21.212 16.0469 21.2256 16.0562C21.2261 16.0568 21.2268 16.0568 21.2273 16.0573C21.2425 16.0672 21.2573 16.0765 21.2713 16.0858C21.2865 16.0948 21.308 16.0996 21.3342 16.1002C21.3638 16.1006 21.3934 16.0978 21.4225 16.092C21.531 16.0706 21.6697 16.0158 21.7873 15.9595C21.7873 15.9601 21.7861 15.9595 21.7849 15.9601C21.7781 15.9624 21.563 15.6073 21.5713 15.5968C21.4971 15.6536 21.4021 15.7045 21.2665 15.7471ZM17.1113 17.8693C17.1198 17.8727 17.1274 17.8777 17.1361 17.8811C17.1351 17.88 17.1343 17.8794 17.1337 17.8783C17.0897 17.8326 17.0863 17.8223 17.0709 17.7601C17.0542 17.6954 17.0119 17.616 16.9941 17.5712C16.975 17.526 16.8899 17.3726 16.8571 17.2732C16.8244 17.1737 16.8097 17.113 16.8031 17.0133C16.7777 16.9381 16.7585 16.7884 16.77 16.6531C16.7799 16.5333 16.8065 16.3955 16.8824 16.0079C16.9339 15.7534 16.8533 15.4602 16.8505 15.1887C16.8481 14.9793 16.8275 14.4649 16.8331 13.9471V13.9454C16.7972 13.9576 12.1886 12.9689 12.221 12.964C12.2216 12.964 12.2229 12.9634 12.2238 12.9634C12.2603 12.5818 12.2382 12.0684 12.2176 11.6792C12.337 10.5099 12.5167 9.15645 12.9298 8.25418C13.2491 7.56038 13.2064 7.78896 13.3642 7.462C13.373 7.44444 13.3846 7.42384 13.3864 7.39958C13.3881 7.38324 13.3747 7.29144 13.372 7.2623V7.26121C13.3626 7.26401 12.2394 6.94948 10.842 10.1569C10.257 11.5006 11.0354 14.8607 11.0354 14.8607L12.252 15.2646L13.0444 14.8341L14.9188 14.4494L15.6845 14.8228C15.6845 14.8228 15.4486 15.5398 15.4468 15.5398C15.4468 15.5402 15.4462 15.5402 15.4462 15.5402C15.4462 15.5402 15.4468 15.5739 15.4429 15.6264C15.4297 15.884 15.2874 16.1431 15.1686 16.2855C15.0085 16.4793 14.728 16.6147 14.5683 16.6894C14.4074 16.7629 14.1483 16.8176 14.1331 16.8202C14.1193 16.8235 14.0331 16.8352 14.0191 16.8374C14.0052 16.8385 13.9786 16.8473 13.9417 16.8546C13.9033 16.8612 13.8612 16.8623 13.8403 16.871C13.8311 16.8743 13.8226 16.8794 13.8154 16.886C13.8035 16.8953 13.7957 16.9088 13.7934 16.9237C13.7911 16.9348 13.7909 16.9462 13.7928 16.9574C13.8005 16.9954 13.8418 17.0487 13.8467 17.0579C13.864 17.091 13.9634 17.1853 14.1261 17.1489C14.2934 17.1116 14.4588 17.0658 14.6215 17.0118C14.7656 16.9649 14.9566 16.8823 14.9857 16.8568C15.0154 16.8322 15.0946 16.7717 15.1073 16.7647C15.1073 16.7641 15.1078 16.7641 15.1078 16.7641C15.1242 16.7491 15.1398 16.735 15.1553 16.7217C15.1619 16.7161 15.1685 16.709 15.1752 16.7039L15.1796 16.7001C15.2048 17.0021 14.8426 17.9088 14.8426 17.9088C14.8426 17.9088 13.9987 18.209 14.0523 18.1693C14.0523 18.1693 14.0513 18.1693 14.0513 18.1698C13.9828 18.2034 13.8817 18.2399 13.7795 18.1599C13.7795 18.1599 13.6802 18.0438 13.5585 17.8899C13.4806 17.7919 13.4052 17.692 13.3324 17.5902C13.2907 17.5324 13.2522 17.4723 13.2172 17.4103C13.1646 17.3208 13.1437 17.2634 13.1344 17.2275C13.1333 17.2247 13.1319 17.2215 13.1319 17.2193C13.1093 17.1597 13.0904 17.0632 13.0904 17.0632C12.9381 17.0443 12.7779 17.0095 12.63 16.9555C12.6311 16.956 12.6311 16.9575 12.6324 16.9586C12.6447 16.9695 11.5872 17.2002 11.5872 17.2002L12.6814 21.6577C12.6814 21.6577 14.7234 24.868 16.0035 24.2483C16.1943 24.1559 16.5265 23.5052 16.3896 23.2831C16.2489 23.0555 14.0834 19.4633 14.0834 19.4633C14.0834 19.4633 17.0821 17.8563 17.1113 17.8693ZM21.2621 29.985C21.662 30.2506 21.8012 30.3127 22.2384 30.4956C22.3776 30.5611 22.7446 30.4865 22.9016 30.2515C22.8989 30.2527 22.896 30.256 22.8939 30.2578C22.8927 30.2583 22.8927 30.2583 22.8915 30.2583C22.8813 30.2645 20.714 28.5641 20.4316 28.4634C20.331 28.4278 19.7775 28.6309 19.8487 28.7332C19.9124 28.8252 20.1802 29.1041 20.1864 29.1148C20.5642 29.4086 21.0395 29.8007 21.2621 29.985ZM16.6536 26.8487L13.0293 24.7736C13.0293 24.7736 13.135 25.8017 13.1344 25.8177L13.1355 25.819C13.3999 26.0555 13.814 26.339 13.8795 26.3835C13.9037 26.3994 14.0721 26.5106 14.1081 26.5509C14.1526 26.5991 14.5998 26.9173 14.6339 26.941C14.6666 26.9633 15.1495 27.2297 15.4421 27.3855C15.4525 27.3796 15.2385 27.555 15.2418 27.5494C15.1389 27.5563 15.0643 27.6034 14.9508 27.6398C14.4427 27.9252 14.7442 28.5189 14.7921 28.9325C14.8893 29.2811 15.0121 29.8862 15.464 29.9427C15.808 29.984 16.5956 29.7687 17.0119 29.6834C17.0709 29.5791 17.6745 29.5416 17.6671 29.55C17.7736 29.5181 17.9165 29.4678 17.9598 29.476C17.9858 29.4805 17.8654 29.6083 17.7957 29.7387C17.7256 29.8704 17.2923 31.1495 16.8889 31.8309C16.7536 32.1099 16.8177 31.9947 16.7353 32.1976V32.1982L17.5527 32.3853L18.8734 29.0326L16.6536 26.8487ZM12.5423 29.4549C12.6829 29.7159 13.0883 30.2634 13.1082 30.2945C13.1279 30.325 13.2152 30.419 13.3181 30.5341C13.4212 30.6487 13.5096 30.749 13.5345 30.7782C13.5594 30.8064 13.7526 31.007 13.8025 31.0529C13.8522 31.0987 13.9099 31.192 13.9517 31.2308C14.0947 31.3593 14.6212 31.817 14.6721 31.8546C14.7229 31.8934 14.974 32.0618 15.0193 32.068C15.4716 32.1254 15.6936 31.8776 15.7394 31.8042C15.7857 31.7325 15.7945 31.7015 15.766 31.594C15.7654 31.6017 14.02 30.2903 12.8618 27.7681C12.8169 27.6705 12.4152 27.1841 12.0464 27.4786C11.7436 27.7205 11.9626 28.3 11.9626 28.3V28.3033C12.0775 28.5408 12.4219 29.2323 12.5423 29.4549ZM9.11531 29.7035C9.23211 29.2666 8.26352 29.364 8.19366 29.3481C7.89168 29.8369 7.57118 31.4968 7.40794 32.2743C7.37965 32.3618 7.34162 32.5025 7.29688 32.6844C7.51875 32.9105 7.74656 33.1308 7.98007 33.3449C8.14867 32.6889 9.08435 29.8197 9.11531 29.7035Z" fill="#F5D4B7"/>
<path d="M35.0467 24.6029C34.5065 24.4833 33.2276 24.2266 31.5032 24.0682C29.78 23.9113 28.3694 23.7766 28.1754 23.7557C27.998 23.7379 27.9338 23.5754 27.7725 23.4944C27.1884 23.2015 26.0842 22.9295 25.3924 22.686C25.2213 22.6268 25.1088 22.4752 24.8726 22.1871C24.7289 22.0115 24.6317 21.9322 24.5089 21.8209C24.4187 21.7399 24.3264 21.6613 24.232 21.5852C24.1901 21.5513 24.1608 21.4542 24.197 21.2654C24.2333 21.076 24.3464 20.3372 24.337 19.477C24.3346 19.2461 24.4362 19.0982 24.5444 19.0442C24.6025 19.0148 24.9811 18.8465 24.9556 18.4744C24.9289 18.0978 24.8125 17.5725 25.1155 16.8331C25.4086 16.1167 25.7747 14.8381 25.819 13.9946C25.866 13.0986 25.6409 12.5206 25.2874 12.2076C25.1495 12.0867 24.9868 11.9039 25.1197 11.5138C25.2615 11.0941 25.5189 9.94775 25.266 9.18945C25.2092 9.02109 25.145 9.02 25.1063 8.99964C25.0676 8.97989 24.8839 8.8392 24.8148 8.52979C24.722 8.12187 24.4238 6.67209 23.2994 5.1983C22.7036 4.41587 22.0676 3.95053 21.8135 3.76303C21.6393 3.64977 21.3337 3.43679 20.9681 3.24234C20.445 2.96573 20.0297 2.7547 19.1945 2.48442C19.0308 2.43334 18.8661 2.38578 18.7004 2.34178H18.6977C18.6977 2.34178 17.9861 2.15135 17.2166 2.0615C17.0852 2.04931 16.9054 2.03273 16.7013 2.01884C15.9091 1.97251 15.6199 2.02115 15.208 2.0626C15.164 2.06687 15.1191 2.07357 15.0749 2.07955C14.9927 2.09052 14.9077 2.1032 14.8188 2.1171C13.5948 2.32666 12.3496 2.90075 11.744 3.18956C11.402 3.35194 11.0996 3.52091 10.8213 3.6794C10.8137 3.68427 10.8038 3.68988 10.7987 3.69293C10.702 3.75034 10.6041 3.80582 10.5052 3.85934C10.3341 3.95589 10.1705 4.04635 10.012 4.12377C9.52177 4.36223 9.09056 4.48426 8.7753 4.59362C8.718 4.61507 8.67009 4.63324 8.63291 4.64592C8.40566 4.73442 8.26083 4.82586 8.23425 4.97666C8.18573 5.24731 8.50429 5.49845 8.39055 5.93014C8.11051 6.99175 6.91224 8.01069 6.72011 8.12821C6.16358 8.46786 6.19832 8.70424 6.17687 8.82518C6.17687 8.93758 6.19991 9.06242 6.26391 9.19726C6.44934 9.59018 6.7924 9.9269 6.96027 10.282C7.12863 10.6374 7.22458 11.2603 7.09864 11.9883C6.97844 12.6924 6.94077 12.8485 6.87823 12.9776C6.81605 13.1072 6.6906 13.359 6.8636 13.6584C7.03732 13.9587 7.40342 14.265 7.63311 14.4412C7.75526 14.5355 7.81853 14.6211 7.72795 14.7912C7.57873 15.0695 7.61689 15.7258 7.75819 16.093C7.97153 16.6531 8.22206 17.1871 8.45455 17.5303C8.68728 17.8732 9.10251 18.457 9.3467 18.6681C9.58992 18.8806 9.62332 19.2489 9.61856 19.4775C9.61344 19.7048 9.5815 20.3495 10.244 20.7529C10.5705 20.9536 10.5997 20.9031 10.7194 21.0015C10.8391 21.0982 10.8955 21.1484 10.9783 21.4094C11.061 21.6695 11.4376 22.5812 11.9561 23.2231C12.1074 23.4095 12.1914 23.5417 12.2094 23.5723C12.2277 23.6027 12.2559 23.6366 12.1903 23.7902C12.1251 23.944 11.8633 24.8191 11.6545 25.7236C11.6163 25.8894 11.5603 26.1075 11.3522 26.21C11.1437 26.3104 10.6781 26.5678 10.5086 26.6613C10.3382 26.7551 10.254 26.8061 10.0578 27.0499C9.97053 27.1585 9.90701 27.2221 9.8519 27.2883C9.82021 27.3265 9.80619 27.3512 9.64039 27.4376C9.49677 27.5121 7.36551 28.2621 5.1055 29.6447C5.05261 29.6764 4.99921 29.7073 4.94531 29.7374C5.07764 29.9452 5.21442 30.1502 5.35555 30.3522C5.86294 30.0957 7.07341 29.4821 7.26371 29.3872C7.41391 29.3115 7.6008 29.2821 7.75185 29.2784C7.84279 29.2766 7.92082 29.2842 7.97044 29.2964C8.07187 29.3213 8.24645 29.3599 8.40859 29.3967C8.42358 29.4 8.43858 29.4038 8.45406 29.407C8.46406 29.4094 8.47393 29.4115 8.4843 29.4145C8.55123 29.4311 8.61316 29.4457 8.66314 29.4591C8.66594 29.4602 8.66826 29.4602 8.67107 29.4616C8.69533 29.4685 8.71739 29.4744 8.73434 29.4795C8.87832 29.5269 8.95488 29.797 8.87697 30.0427C8.79656 30.3188 8.71809 30.5955 8.64156 30.8727C8.60036 31.0208 8.55537 31.1838 8.50795 31.3567C8.32556 32.018 8.14866 32.6808 7.97726 33.345C8.42834 33.7562 8.9016 34.1432 9.39339 34.5069C9.4485 34.0811 9.50641 33.6376 9.55127 33.315C9.66879 32.4733 10.3411 29.3554 10.531 28.6465C10.6691 28.1307 10.7409 27.8956 10.9224 27.8143C10.9769 27.7907 11.0388 27.7545 11.0747 27.7369C11.1105 27.7203 11.189 27.7013 11.1648 27.838C11.137 28.0001 10.997 28.6617 10.7911 30.8086C10.6481 32.298 10.6447 33.6171 10.6961 34.4105C10.7183 34.7483 10.7241 35.2258 11.241 35.0187C11.8449 34.7774 13.9038 34.0393 15.0037 33.7003C16.7747 33.1541 20.0941 32.4244 23.2934 31.9522L24.188 31.8251C24.188 31.8251 24.7119 34.9024 24.8021 35.4358L24.9013 36.0003L24.8029 35.4358C24.712 34.9024 24.1889 31.8251 24.1889 31.8251C24.3141 31.8078 24.4403 31.7918 24.5646 31.776C24.8511 31.7398 25.1202 31.706 25.3731 31.6729L26.3076 31.5534C26.7449 31.4974 27.12 31.4494 27.4378 31.4078C27.4378 31.4078 28.0419 34.1998 28.2689 35.2028C28.2848 35.2687 28.2983 35.3282 28.3096 35.3781L28.4214 35.8906H28.4231L28.3119 35.3781C28.1276 34.5848 27.4398 31.4082 27.4398 31.4082L28.3965 31.2848C28.6794 31.2487 29.0399 31.2035 29.1473 31.1983C29.3721 31.1891 29.4701 31.0618 29.2986 31.0102C29.1746 30.974 28.8885 30.9455 28.7436 30.9418L28.5277 30.939C28.3063 30.9353 28.2431 30.8915 28.1944 30.5653C28.0565 29.6079 27.5234 27.2354 27.1404 25.9844C26.7698 24.7776 26.6782 24.4302 26.5891 24.1644C26.5109 23.9356 26.6622 23.9215 26.7348 23.9247C27.0048 23.9376 27.3788 24.078 27.4861 24.3089C27.7233 24.8236 29.3473 29.0765 29.9992 30.6621C30.4104 31.6609 30.8896 32.8634 31.3422 33.9345C31.6322 33.6962 31.9118 33.4451 32.1858 33.1888C31.3434 31.337 29.4683 27.1415 28.4794 25.0181C28.4393 24.9289 28.4033 24.8379 28.3716 24.7453C28.364 24.7244 28.36 24.7025 28.3596 24.6803C28.3608 24.5449 28.5399 24.526 28.6285 24.5346C28.9775 24.5696 32.1484 24.7787 33.0142 24.8614C33.5855 24.9154 34.1553 25.0025 34.536 25.0706C34.6243 25.0869 34.7018 25.1016 34.7675 25.1144C34.8286 25.1259 34.8892 25.1392 34.9494 25.1544C35.2318 25.2281 35.73 25.4252 36.1915 25.6726C36.3821 25.7742 36.5994 25.9224 36.8321 26.101C36.9032 25.9021 36.971 25.702 37.0356 25.5009C36.8632 25.3807 36.6843 25.2702 36.4998 25.1697C35.9731 24.8888 35.5286 24.7102 35.0467 24.6029ZM9.22808 14.0879C9.14189 14.1249 9.06399 14.1348 9.00437 14.0173C8.85979 13.7314 8.74994 13.2223 8.708 12.8916C8.66485 12.5611 8.59877 11.5745 8.61962 11.0356C8.64266 10.4962 8.53733 10.1949 8.34458 9.9369C8.15135 9.6793 8.02713 9.50045 7.9797 9.41365C7.92009 9.30539 7.95995 9.23139 8.07394 9.14874C8.12929 9.10997 8.2423 9.13325 8.32971 9.11509C8.50258 9.08034 9.07984 8.87102 9.50994 8.53369C9.93907 8.19636 10.623 7.54389 11.0871 7.29275C11.5498 7.04161 11.7552 6.92713 12.2967 6.86215C12.3928 6.85094 12.5369 6.90226 12.3743 7.026C12.2118 7.14974 11.6906 7.33444 11.0828 8.25146C10.7097 8.8125 10.6488 9.13654 10.5307 9.38829C10.412 9.63992 10.2985 9.71112 10.1106 9.91483C10.0192 10.012 9.83289 10.2162 9.76571 10.5123C9.70049 10.8087 9.4307 11.8527 9.58918 13.4319C9.60784 13.6157 9.68354 13.8604 9.51116 13.9494C9.40473 14.0046 9.31342 14.0514 9.22808 14.0879ZM9.97223 16.2156C9.88043 16.1504 9.50519 15.6424 9.32244 15.0778C9.30233 15.0182 9.28038 14.8665 9.37925 14.8233C9.46032 14.7885 9.56797 14.7261 9.62393 14.6995C9.68062 14.671 9.82191 14.6339 9.84142 14.8376C9.86117 15.0418 9.87897 15.2825 10.1117 15.8849C10.1539 15.9925 10.1625 16.0262 10.1735 16.0693C10.2036 16.1944 10.0572 16.2761 9.97223 16.2156ZM10.7366 14.2972C10.7118 14.3015 10.4543 14.3326 10.3154 14.3585C10.2292 14.3744 10.1405 14.4066 10.1306 14.3235C10.1188 14.2386 10.103 14.1543 10.0832 14.0709C10.0757 14.0359 10.0926 14.0028 10.1343 13.9929C10.2365 13.9693 10.6318 13.9028 10.6699 13.9009C10.7081 13.9004 10.7467 13.9133 10.7633 13.9924C10.7783 14.0718 10.7973 14.1563 10.8018 14.1906C10.8065 14.226 10.8164 14.285 10.7366 14.2972ZM10.8771 13.0076C10.8533 12.8873 10.82 12.6813 10.8307 12.553C10.8344 12.5019 10.8499 12.3742 10.9112 12.3053C10.9979 12.207 11.1131 12.1177 11.1878 12.0572C11.3237 11.9459 11.2955 11.6578 11.3053 11.4925C11.3353 11.0123 11.2927 9.49582 12.2767 8.04494C12.3148 7.98984 12.3533 7.939 12.3913 7.89097C12.4029 7.87658 12.4145 7.8633 12.4261 7.84915C12.4542 7.81587 12.4825 7.78381 12.5117 7.75418C12.5567 7.70675 12.6042 7.66178 12.6541 7.61947C12.6592 7.61545 12.6637 7.61094 12.6684 7.60679C12.7083 7.57461 12.7483 7.54547 12.788 7.5178C12.8024 7.50841 12.8168 7.49915 12.8312 7.49073C12.8586 7.47269 12.8863 7.45648 12.914 7.44075C12.9297 7.43222 12.9453 7.42344 12.9614 7.41527C12.9916 7.39979 13.0227 7.38528 13.0534 7.3715C13.0651 7.36663 13.0766 7.36102 13.0882 7.35565C13.128 7.33895 13.169 7.32408 13.2096 7.31018C13.227 7.30421 13.2439 7.29921 13.2611 7.29384C13.2884 7.28531 13.3155 7.27714 13.3427 7.26958C13.352 7.26727 13.3605 7.26398 13.3699 7.26166V7.26276C13.5702 7.20936 13.7756 7.17937 13.9831 7.14414C14.5689 7.04466 15.2518 7.13768 15.603 7.24947C15.8822 7.33786 16.0236 7.40564 16.117 7.3175C16.2108 7.22972 16.4553 6.95249 16.559 6.85423C16.5733 6.84033 16.5845 6.82509 16.5922 6.8101C16.5953 6.80498 16.5971 6.79974 16.5994 6.79462C16.6031 6.78474 16.6064 6.77426 16.608 6.76389C16.6086 6.75829 16.6099 6.75231 16.6099 6.74609C16.6099 6.73622 16.6086 6.72634 16.607 6.71586C16.606 6.71074 16.606 6.70489 16.6034 6.69977C16.5994 6.68499 16.5931 6.67096 16.5846 6.6582C16.5618 6.62028 16.5256 6.58651 16.4807 6.55957C16.3669 6.49264 15.2236 5.65364 13.6824 5.61609C12.1764 5.57842 10.9541 6.1113 10.6299 6.22285C10.5644 6.24491 10.5307 6.2565 10.4922 6.25698C10.454 6.25808 10.3226 6.21322 10.3712 6.11825C10.4246 6.01682 10.5583 5.86065 10.6971 5.7341C10.8428 5.6028 11.5554 4.93204 12.2592 4.62141C12.3894 4.56436 12.4211 4.54058 12.5045 4.50816C12.611 4.4678 12.674 4.22764 12.4386 4.22703C12.1974 4.22532 12.1013 4.25238 11.9739 4.27226C11.8463 4.29347 11.7762 4.23641 11.8567 4.12706C11.9364 4.01807 12.0937 3.89713 12.3778 3.74291C12.9946 3.4068 14.1227 3.05253 14.6561 2.93586C15.3516 2.78359 15.4366 2.77371 15.8981 2.74543C16.3298 2.72056 16.6751 2.75104 16.8384 2.75762C18.2213 2.81017 19.8138 3.26782 21.0468 4.07964C22.219 4.94216 23.9063 6.37914 24.2406 9.92641C24.2807 10.3521 24.2525 10.5934 24.2361 10.6999C24.2215 10.8065 24.1006 11.0024 23.9944 10.7799C23.6447 10.0469 23.1039 9.08754 22.4937 8.17819C22.4575 8.12419 22.4207 8.09822 22.3908 8.09432C22.3794 8.09203 22.3675 8.09344 22.3569 8.09834C22.3543 8.10005 22.3524 8.10285 22.3495 8.1048C22.3429 8.10964 22.3373 8.11568 22.333 8.1226C22.3306 8.12797 22.3278 8.13357 22.3261 8.1393C22.3233 8.14736 22.3214 8.1557 22.3205 8.16417C22.3192 8.17173 22.3179 8.17893 22.3179 8.18685C22.3179 8.20489 22.3191 8.22476 22.3244 8.24647C22.3396 8.31083 22.5339 9.27272 22.541 9.4067C22.5494 9.54032 22.4841 9.86826 22.9822 10.4734C23.1858 10.7218 23.3663 10.9339 23.4591 11.3002C23.5505 11.6652 23.5818 11.8214 23.5822 11.8602C23.5837 11.8983 23.6275 12.0071 23.4513 12.0082C23.276 12.0087 22.6072 11.9601 22.3209 11.9666C22.0343 11.9734 20.0572 12.1674 19.3215 12.3237C18.5858 12.4802 18.19 12.6655 17.8121 13.0625C17.7212 13.1579 17.594 13.2469 17.5652 13.2551C17.5378 13.2628 17.4419 13.2607 17.2544 13.248C17.0676 13.2358 16.7438 13.2817 16.5736 13.3585C16.4025 13.435 16.2804 13.5062 16.0743 13.4222C15.7796 13.303 15.2742 12.7587 13.9618 12.8228C13.1718 12.8614 12.7671 12.883 12.2188 12.9641C12.1869 12.9692 12.1538 12.974 12.1211 12.9791C12.1002 12.9825 12.0786 12.9858 12.0573 12.9895C12.0457 12.9912 12.0336 12.9929 12.0215 12.9951C11.7982 13.0315 11.5461 13.0784 11.2349 13.1392C11.1917 13.1473 11.1493 13.1561 11.1047 13.1645C10.9835 13.1888 10.8996 13.1344 10.8771 13.0076ZM22.9617 12.6692C22.9617 12.711 22.9108 12.7543 22.8587 12.7631C22.8072 12.7712 22.4543 12.8035 22.3979 12.8077C22.3424 12.8116 22.2881 12.7811 22.2835 12.7289C22.279 12.6775 22.2675 12.5554 22.2644 12.5235C22.2586 12.4935 22.2573 12.4517 22.3292 12.4424C22.3712 12.4373 22.7392 12.4043 22.8753 12.3882C22.926 12.3822 22.9593 12.428 22.9605 12.4725C22.9605 12.5172 22.9605 12.6277 22.9617 12.6692ZM21.3102 13.0655C21.2009 12.9887 21.0089 12.8678 20.8926 12.8254C20.8124 12.7966 20.8403 12.6963 20.9548 12.6803C21.3526 12.6223 21.6078 12.6223 21.8056 12.7459C21.9503 12.8355 22.0464 13.0094 22.002 13.1628C21.95 13.3389 21.8811 13.3007 21.7946 13.2992C21.7082 13.2975 21.4181 13.1427 21.3102 13.0655ZM21.5402 13.8416C21.4702 13.8888 21.2414 13.8467 21.1583 13.8142C20.9876 13.7473 20.8665 13.7009 20.6293 13.5504C20.4743 13.4521 20.2052 13.4035 19.9694 13.4747C19.8141 13.5216 19.6892 13.5609 19.5524 13.6136C19.4154 13.6662 19.3874 13.5413 19.4232 13.4879C19.4586 13.4346 19.6755 13.1806 19.9632 13.0727C20.0236 13.0496 20.1468 13.0369 20.2072 13.0357C20.3927 13.0303 20.6225 13.1207 20.7966 13.2478C20.972 13.3758 21.2509 13.5845 21.434 13.6628C21.5197 13.6997 21.7061 13.7269 21.5402 13.8416ZM15.8207 20.0168C15.1268 20.2598 14.9322 20.0157 14.8704 19.9433C14.8088 19.871 14.8848 19.8004 14.9583 19.7662C15.1234 19.6894 15.3443 19.5221 15.4558 19.4131C15.568 19.3044 15.7858 18.9258 15.9431 18.7928C16.0177 18.7293 16.4208 18.5923 16.724 18.7369C17.0845 18.9086 17.6457 18.9264 17.9904 18.8816C18.3348 18.8353 18.4661 18.5835 18.5408 18.4349C18.6153 18.2849 18.7981 18.2301 18.8941 18.1906C19.1585 18.0824 19.5086 17.7196 19.5444 17.6827C19.5802 17.6445 19.6894 17.5909 19.8628 17.6926C20.1786 17.8781 20.3391 18.1237 20.6322 18.4567C20.9255 18.79 21.2725 18.8421 21.3742 18.8485C21.4758 18.855 21.5392 18.9729 21.5439 19.0053C21.5495 19.0377 21.4648 19.1505 21.4015 19.1979C21.338 19.2454 21.303 19.3294 20.7416 19.3426C17.9244 19.4123 16.6568 19.7242 15.8207 20.0168ZM19.6417 20.3559C19.4745 20.4423 18.9774 20.6297 18.7299 20.6773C18.4816 20.725 17.6937 20.8847 17.5606 20.8954C17.3951 20.9082 17.1631 20.8586 16.9617 20.7209C16.9212 20.6929 16.8662 20.5847 17.0131 20.563C17.2857 20.5225 17.7258 20.3178 19.3268 20.2363C19.4988 20.2275 19.5796 20.2238 19.6208 20.223C19.662 20.2221 19.81 20.2694 19.6417 20.3559ZM15.9326 23.9102C15.3735 24.0024 13.8851 23.5657 12.9174 21.1774C12.6679 20.5631 12.9415 19.9518 13.1816 19.8283C13.324 19.7561 13.401 19.7267 13.4495 19.7145C13.5022 19.7012 13.7555 19.6682 13.7843 19.9532C13.8071 20.1837 14.2546 22.0765 14.8564 22.7024C15.0048 22.8575 15.122 22.848 15.1603 22.6878C15.1932 22.5409 15.2581 22.3477 15.277 22.2739C15.2903 22.2207 15.4355 22.0603 15.5178 22.2649C15.6948 22.6991 15.9084 23.2675 16.0487 23.4951C16.186 23.7171 16.1418 23.8756 15.9326 23.9102ZM16.043 17.6656C16.0955 17.7385 16.1281 17.871 16.124 17.9296C16.1187 17.9971 15.8878 18.1196 15.6477 17.8502C15.4076 17.5802 15.4545 17.207 15.5539 17.0485C15.7123 16.7957 16.0237 16.9216 15.9936 17.0118C15.8896 17.3242 15.9896 17.5922 16.043 17.6656ZM14.2588 14.1683C14.0792 14.1625 13.886 14.1404 13.5582 14.2618C13.1912 14.3974 12.9553 14.5743 12.7846 14.679C12.6093 14.7884 12.4235 14.8353 12.3613 14.8398C12.2995 14.8452 12.0742 14.8156 12.2294 14.6525C12.2706 14.6078 12.3695 14.5742 12.5196 14.4648C12.6269 14.3858 12.7064 14.3295 12.8284 14.2267C13.0459 14.0414 13.4892 13.7736 13.6824 13.7498C13.8242 13.7329 14.0748 13.7597 14.2239 13.8817C14.3791 14.0091 14.4387 14.1741 14.2588 14.1683ZM11.1711 14.4865C11.19 14.369 11.3185 14.0591 11.5893 13.9693C11.6257 13.9583 11.7607 13.9144 11.8734 13.8854C11.989 13.8565 12.1053 13.8311 12.2224 13.8092C12.4183 13.7751 12.4596 13.9241 12.3362 14.0213C12.2554 14.0857 12.1263 14.1696 12.0122 14.262C11.8387 14.4039 11.6721 14.5616 11.5432 14.6688C11.3863 14.7995 11.1321 14.7278 11.1711 14.4865ZM12.0909 17.8612C12.0905 17.8608 12.0902 17.8605 12.0898 17.8601L12.087 17.8558C12.0384 17.787 11.9929 17.7161 11.9509 17.6431C11.942 17.627 11.9331 17.6104 11.9238 17.5944C11.8816 17.5162 11.8421 17.437 11.811 17.3538C11.7503 17.1925 11.852 17.1687 11.9198 17.2038C11.9874 17.24 12.1854 17.3555 12.3969 17.4001C12.5262 17.4267 12.6028 17.3647 12.6332 17.2716C12.6377 17.2577 12.6436 17.2405 12.6499 17.2219C12.6536 17.2137 12.6564 17.2049 12.6592 17.1959C12.6609 17.1905 12.6625 17.1849 12.6645 17.179C12.6672 17.1688 12.6697 17.159 12.6719 17.1485C12.6737 17.1431 12.6743 17.1375 12.6753 17.1321C12.6778 17.1214 12.6789 17.1109 12.6801 17.1C12.6806 17.0946 12.6806 17.0895 12.6812 17.0835C12.6812 17.0728 12.6801 17.0623 12.6789 17.0513C12.6783 17.0466 12.6777 17.0414 12.6765 17.0369C12.6737 17.0253 12.6696 17.0141 12.6643 17.0034C12.6621 17 12.6611 16.9963 12.6594 16.9935C12.6514 16.9804 12.6415 16.9684 12.63 16.9582C12.6121 16.9425 12.5915 16.9302 12.5693 16.9217C12.3851 16.8477 11.8628 16.6828 11.4707 15.9534C11.4496 15.9182 11.4416 15.8767 11.448 15.8361C11.4544 15.7956 11.4749 15.7586 11.5058 15.7316C11.544 15.7011 11.6806 15.6141 11.7459 15.5737C11.812 15.5333 11.9015 15.5379 11.9948 15.6023C12.0844 15.6664 12.2791 15.8082 12.4352 15.7944C12.5803 15.7803 12.5948 15.7208 12.6206 15.6831C12.7229 15.5339 13 14.9919 13.7263 14.9831C14.0259 14.9792 14.3066 15.0069 14.407 15.0006C14.5064 14.9942 14.8608 14.9622 15.0695 14.8202C15.275 14.6789 15.3627 14.7806 15.2439 14.9352C15.2263 14.9583 15.2103 14.9787 15.1953 14.999C15.1895 15.0064 15.1849 15.0128 15.1796 15.0197C15.1647 15.0395 15.1506 15.0599 15.1374 15.081C15.0922 15.1575 15.0866 15.2239 15.1709 15.3148C15.3034 15.4557 15.3379 15.481 15.381 15.5142C15.4005 15.53 15.4247 15.5387 15.4497 15.5391C15.4607 15.5391 15.4729 15.5368 15.4851 15.5335C15.4902 15.5318 15.4952 15.5318 15.5012 15.5296C15.5226 15.5201 15.5424 15.5075 15.5602 15.4923C15.6359 15.4254 15.6867 15.3855 15.7528 15.3002C15.8019 15.2371 15.8435 15.3007 15.8313 15.3993C15.8217 15.4761 15.8562 15.9691 15.3189 16.5752C15.3014 16.5956 15.2605 16.6293 15.2097 16.6724C15.1972 16.6826 15.1848 16.693 15.1728 16.7037C15.1662 16.7094 15.1595 16.7159 15.1529 16.7215C15.1361 16.7362 15.1194 16.7518 15.102 16.7679C15.0883 16.7805 15.0742 16.7958 15.0602 16.8097C15.0458 16.8241 15.0321 16.8374 15.0174 16.8528C15.0087 16.8622 14.9999 16.8732 14.9909 16.8837C14.9728 16.904 14.9544 16.9246 14.9364 16.9472C14.9308 16.9548 14.9254 16.9627 14.9203 16.9699C14.8998 16.9962 14.8804 17.0234 14.8622 17.0514C14.8391 17.0882 14.8182 17.1264 14.7997 17.1658C14.6502 17.4847 14.6696 17.5899 14.6534 17.7062C14.6388 17.8214 14.5493 17.8673 14.4486 17.9138C14.3879 17.9418 14.227 18.0348 14.0486 18.1697L14.0496 18.1689C13.9962 18.209 13.9418 18.2536 13.8879 18.2997C13.8776 18.3091 13.8676 18.3177 13.8579 18.3271C13.804 18.3745 13.7509 18.4249 13.7018 18.4773C13.6706 18.51 13.6373 18.5406 13.602 18.5689C13.5905 18.5779 13.5797 18.585 13.5683 18.5931C13.5449 18.6101 13.5208 18.6259 13.496 18.6406C13.4834 18.6479 13.4704 18.6546 13.4571 18.6607C13.4327 18.6729 13.4084 18.6827 13.3835 18.6914C13.3703 18.6959 13.3575 18.7014 13.3443 18.7047C13.3377 18.7064 13.3316 18.7092 13.3257 18.7111C13.3102 18.7146 13.2946 18.715 13.2791 18.7174C13.2598 18.7208 13.2407 18.7244 13.2211 18.7255C13.1996 18.7266 13.1778 18.7255 13.1556 18.7244C13.1367 18.7224 13.1174 18.7224 13.099 18.7202C13.0764 18.7168 13.0539 18.7097 13.0317 18.7035C13.013 18.6986 12.9942 18.6947 12.975 18.688C12.9538 18.6798 12.9329 18.6681 12.9115 18.6577C12.8912 18.6479 12.8717 18.6399 12.8519 18.6278C12.8501 18.6263 12.848 18.6258 12.8463 18.6247C12.8084 18.6006 12.772 18.5742 12.7373 18.5456C12.631 18.4542 12.5283 18.3587 12.4296 18.2591C12.4267 18.2561 12.424 18.253 12.4214 18.2497C12.3675 18.1951 12.3154 18.1388 12.2653 18.0807C12.261 18.0753 12.1418 17.9318 12.0909 17.8612ZM18.5481 29.1883C18.5151 29.3599 18.375 29.9383 17.8608 31.1289C17.826 31.2091 17.7923 31.2865 17.7594 31.3612C17.7514 31.3788 17.7433 31.3954 17.7356 31.4132C17.7229 31.4417 17.7096 31.4708 17.6971 31.4976C17.6958 31.5001 17.6952 31.5021 17.6943 31.5046C17.6756 31.546 17.6567 31.5848 17.6374 31.6235C17.6374 31.6235 17.6364 31.6245 17.6364 31.6259C17.6339 31.6304 17.6312 31.6354 17.6282 31.6404C17.6214 31.6539 17.6143 31.6671 17.6076 31.6799C17.5983 31.6971 17.5895 31.7155 17.5797 31.7321C17.5797 31.7339 17.5791 31.7345 17.5786 31.7352C17.576 31.7389 17.5738 31.7427 17.5717 31.7466L17.5497 31.785C17.5485 31.7873 17.5469 31.7894 17.5456 31.7918V31.793C17.5391 31.8025 17.5333 31.8122 17.5276 31.8212C17.5259 31.8244 17.5243 31.828 17.5225 31.8307C17.5214 31.8319 17.5205 31.8333 17.5188 31.8351C17.5111 31.8479 17.5027 31.8601 17.4947 31.8734C17.4929 31.8753 17.4913 31.8767 17.4902 31.8785C17.4809 31.892 17.4715 31.9053 17.4624 31.918C17.4619 31.918 17.4604 31.9206 17.4588 31.9212C17.451 31.9321 17.4426 31.9429 17.4346 31.953C17.4321 31.9555 17.4307 31.9575 17.429 31.9587C17.4197 31.9713 17.4098 31.981 17.4012 31.9917C17.3998 31.9917 17.3986 31.9935 17.3976 31.9948C17.3925 31.9999 17.3866 32.005 17.3814 32.0106H17.3809C17.3782 32.014 17.375 32.017 17.3716 32.0197C17.3699 32.0215 17.3672 32.0228 17.3653 32.0254C17.3555 32.0343 17.3461 32.0432 17.3362 32.0497C17.3351 32.0508 17.3345 32.0514 17.3329 32.0522C17.3243 32.0592 17.3151 32.0655 17.3056 32.0711C17.3034 32.0728 17.301 32.0743 17.2985 32.0756L17.294 32.0782C17.2921 32.0799 17.2904 32.0807 17.2887 32.0807C17.2818 32.0853 17.2748 32.0892 17.2677 32.0934C17.2677 32.0934 17.2666 32.0934 17.2654 32.0939C17.2564 32.0989 17.2465 32.1022 17.236 32.1059C17.2336 32.1071 17.2311 32.1083 17.2283 32.1091C17.2173 32.1123 17.2069 32.1155 17.1953 32.1182C17.0885 32.1411 16.9742 32.1575 16.9074 32.1691C16.8976 32.1701 16.8292 32.1816 16.8236 32.1835C16.7956 32.1875 16.7655 32.192 16.7332 32.1977V32.197C15.9614 32.3269 13.862 32.6885 12.8881 32.8854C12.2421 33.0143 12.3056 32.689 12.1435 32.1016C12.0753 31.8548 11.8354 29.6707 11.9601 28.2996C12.0019 27.8444 12.0219 27.7111 12.1036 27.6608C12.1852 27.6105 12.3101 27.5292 12.3477 27.5184C12.3843 27.5088 12.4956 27.4794 12.5475 27.573C12.5983 27.6658 13.5412 29.5786 14.1575 30.2716C14.7042 30.8889 15.0886 31.3368 15.5496 31.6377C15.5801 31.6581 15.6063 31.6706 15.63 31.6784C15.6324 31.6795 15.6352 31.681 15.6378 31.6816C15.6488 31.6849 15.6587 31.6866 15.6681 31.6879C15.6773 31.6892 15.6859 31.6886 15.694 31.6879C15.6965 31.6873 15.6986 31.6873 15.701 31.6866C15.715 31.6837 15.7278 31.6767 15.7377 31.6664L15.7417 31.6619C15.7507 31.6505 15.7569 31.6372 15.7599 31.6231C15.7605 31.6206 15.7605 31.618 15.7605 31.6155C15.7732 31.5443 15.7393 31.4364 15.6716 31.3633C15.5699 31.2537 15.1487 30.8203 14.5939 30.0309C13.8762 29.0123 13.3899 27.5088 13.2591 27.0272C13.1735 26.712 13.1255 26.2148 13.1334 25.8181H13.1323C13.1329 25.8006 13.1334 25.7853 13.1344 25.7685L13.1362 25.7306C13.1379 25.6684 13.1425 25.6062 13.15 25.5444C13.1518 25.5298 13.1539 25.5166 13.1556 25.5025L13.1662 25.4352C13.1685 25.4225 13.171 25.4109 13.1739 25.3996C13.1801 25.3691 13.1872 25.341 13.196 25.3163C13.3076 24.9973 13.4009 25.0315 13.4996 25.1385C13.5986 25.2464 14.4896 26.055 15.9585 26.7131C16.2704 26.8528 16.4565 26.9169 16.499 26.9629C16.5411 27.0074 16.6083 27.102 16.4748 27.1333C16.3429 27.1645 15.951 27.1784 15.5408 27.3406C15.517 27.3502 15.4951 27.3598 15.475 27.3687C15.3315 27.433 15.2642 27.4977 15.2337 27.5671C15.2278 27.5806 15.2232 27.5946 15.2199 27.609C15.2174 27.6185 15.2151 27.6299 15.214 27.6401C15.2121 27.6558 15.2115 27.6717 15.2121 27.6875C15.2121 27.6979 15.2115 27.7086 15.2126 27.7193C15.2138 27.7396 15.216 27.7601 15.2182 27.7816C15.2231 27.8178 15.2281 27.8552 15.2318 27.896C15.2535 28.1186 15.292 28.2775 15.3203 28.5752C15.3479 28.874 15.3308 29.144 15.4764 29.2701C15.6216 29.3944 15.8199 29.4683 16.3493 29.3655C16.8516 29.2675 17.0189 29.2248 17.0784 29.2231C17.1368 29.2212 17.2778 29.1976 17.1916 29.3621C17.1834 29.378 17.1727 29.3971 17.16 29.4204C17.0442 29.6265 16.7637 30.0911 16.6681 30.4007C16.5622 30.7419 16.5407 30.8363 16.5315 30.8945C16.5229 30.9532 16.5634 31.0662 16.6676 30.9398C16.7716 30.8131 16.9775 30.3414 17.4948 29.7409C17.558 29.668 17.6223 29.596 17.6876 29.525C17.688 29.525 17.6887 29.5238 17.6899 29.5224C17.7367 29.4722 17.7802 29.4265 17.8218 29.3845C17.8334 29.3726 17.8443 29.3619 17.8554 29.3515L17.9547 29.2554C18.0261 29.1883 18.1014 29.1255 18.1803 29.0673C18.1862 29.064 18.1913 29.0603 18.1967 29.0566C18.219 29.04 18.241 29.0253 18.2614 29.0131C18.267 29.0099 18.273 29.0058 18.2786 29.0017C18.2989 28.9891 18.3182 28.9788 18.336 28.9688C18.3388 28.9664 18.3432 28.9643 18.3464 28.9626C18.3488 28.9619 18.3504 28.9602 18.352 28.9593C18.3729 28.9498 18.3904 28.9396 18.4082 28.9314C18.5526 28.8607 18.5919 28.9594 18.5481 29.1883ZM19.4044 31.8167C19.3215 31.8358 18.9635 31.8902 18.9081 31.891C18.8536 31.8924 18.8073 31.8414 18.8305 31.8022C18.8535 31.7639 19.1 31.4431 19.2355 30.8848C19.2584 30.7938 19.3152 30.7304 19.3521 30.8613C19.3807 30.9567 19.4912 31.4313 19.5167 31.6099C19.5205 31.6411 19.5396 31.785 19.4044 31.8167ZM19.5546 27.2639C19.3193 27.3521 19.0577 27.0877 18.846 26.9464C18.37 26.621 17.9321 26.3075 17.5728 25.8685C17.0225 25.1966 17.074 24.7282 17.2338 23.8603C17.3449 23.2437 17.1435 22.6641 17.0996 22.5825C17.0561 22.5005 17.1052 22.4174 17.2354 22.4783C17.3655 22.5395 17.4899 22.7294 17.6236 22.8921C17.7561 23.0549 17.7855 22.9392 17.7964 22.8286C17.8218 22.5733 17.7642 22.3689 17.7324 22.2502H17.7317C17.7299 22.2439 17.7285 22.2376 17.7273 22.2311C17.7086 22.1604 17.6428 22.0028 17.5043 21.9741C17.3188 21.9351 17.1364 21.9186 17.0374 21.8475C16.9913 21.8144 16.9389 21.7465 16.9908 21.6969C17.0853 21.6053 17.2226 21.4839 17.353 21.4393C17.5304 21.3783 17.701 21.2856 17.9256 21.2868C19.442 21.2964 19.8509 20.9455 20.4306 20.7051C20.5442 20.6573 20.6122 20.6363 20.7096 20.6667C20.8075 20.6961 21.0726 20.7957 21.1394 20.9135C21.2065 21.0317 21.2184 21.5244 21.348 21.8798C21.4756 22.2362 21.693 21.8668 21.7408 21.7143C21.7865 21.5611 21.8044 21.1968 21.8068 21.1046C21.8093 21.0125 21.8361 20.6238 21.958 20.4928C22.2004 20.2339 22.2575 19.9277 22.2868 19.808C22.3128 19.7006 22.3333 19.4003 22.28 18.9737C22.2743 18.9212 22.2666 18.8661 22.2572 18.8097C22.1753 18.2952 22.0718 18.2517 21.9322 18.1582C21.7923 18.0649 21.6457 18.1054 21.2896 17.8613C20.971 17.6421 20.6817 17.2591 20.4403 17.0253C20.1999 16.792 19.82 16.5573 19.4192 16.516C19.3966 16.514 19.374 16.5131 19.3513 16.5132H19.3468C19.329 16.5143 19.3122 16.5156 19.2978 16.5186C19.295 16.519 19.2933 16.5203 19.2901 16.521C19.2784 16.523 19.267 16.5263 19.256 16.5306C19.2534 16.5327 19.2506 16.5343 19.2475 16.5355C19.2399 16.54 19.2323 16.5443 19.2261 16.5493C19.2233 16.5521 19.221 16.5549 19.2179 16.5581C19.2132 16.5625 19.2091 16.5675 19.2057 16.5731C19.2029 16.577 19.2012 16.5818 19.1988 16.5863C19.1971 16.5912 19.1945 16.5951 19.1934 16.5996C19.1913 16.6066 19.1898 16.6138 19.1889 16.6211C19.1889 16.6239 19.1884 16.6262 19.1884 16.6293C19.1878 16.6391 19.1878 16.6494 19.1889 16.6597H19.1884C19.1966 16.7588 19.268 16.8798 19.2862 16.9295C19.3115 16.9971 19.3757 17.2036 19.2619 17.3239C19.1473 17.4442 18.4773 18.0437 17.8498 18.0287C17.5663 18.0222 17.3296 17.9639 17.131 17.8792C17.132 17.8801 17.1328 17.8811 17.1335 17.8823C17.1251 17.8786 17.118 17.8741 17.1092 17.8701C17.0631 17.8497 17.0179 17.8273 16.9739 17.8028C16.9671 17.7989 16.9589 17.7955 16.9512 17.7912C16.9051 17.7645 16.8602 17.7356 16.8169 17.7045L16.7798 17.6767C16.7485 17.6531 16.7182 17.6282 16.6889 17.6021C16.6804 17.5944 16.6707 17.5869 16.6623 17.5794C16.6281 17.5469 16.5964 17.5151 16.5668 17.4834C16.5595 17.4746 16.553 17.4664 16.5456 17.4585C16.5228 17.4323 16.5022 17.4062 16.4821 17.3808C16.4759 17.3727 16.4699 17.3654 16.4643 17.3571C16.4428 17.3272 16.4224 17.2966 16.4031 17.2653C16.4007 17.2616 16.3994 17.2588 16.3971 17.2554C16.3816 17.2286 16.3683 17.2031 16.3566 17.1799C16.3538 17.1737 16.3508 17.1681 16.3479 17.1615C16.3372 17.1389 16.3278 17.1157 16.3197 17.092C16.2281 16.8166 16.4555 16.1657 16.4475 15.6997C16.4447 15.4955 16.4025 15.1036 16.3711 14.8318C16.3399 14.5598 16.4833 14.1937 16.55 14.1049C16.5683 14.0832 16.5897 14.0641 16.6135 14.0485C16.6201 14.0436 16.6274 14.0397 16.6344 14.0352C16.6586 14.0194 16.6864 14.0044 16.7179 13.9906L16.7318 13.9835C16.7625 13.9708 16.7953 13.9576 16.831 13.946V13.9477C16.8895 13.9276 16.9525 13.9089 17.0216 13.8934C17.245 13.8437 17.5063 13.9543 17.5734 14.1387C17.807 14.7822 18.0658 14.9181 18.1525 14.9602C18.2405 15.0031 18.3788 14.8757 18.433 14.8287C18.4875 14.7833 18.6188 14.6106 18.5606 14.5349C18.4707 14.42 18.4215 14.3494 18.3955 14.2776C18.3515 14.1561 18.5102 14.1536 18.5478 14.1705C19.026 14.3732 19.2551 14.4157 19.7181 14.4002C20.1804 14.3858 20.8992 14.0813 20.9882 14.0796C21.0607 14.0779 21.2041 14.1225 21.2579 14.1971C21.2668 14.2098 21.2788 14.2278 21.2902 14.2456C21.3366 14.3145 21.3988 14.4069 21.454 14.4262C21.4566 14.4267 21.458 14.4279 21.4602 14.4285C21.5288 14.4454 21.6919 14.433 21.7783 14.4367C21.8952 14.4407 22.0981 14.4002 22.0924 14.6149C22.0796 15.1881 21.6264 15.5457 21.5852 15.5804C21.5692 15.5948 21.5602 15.6132 21.5522 15.6319C21.5497 15.637 21.5455 15.6424 21.5446 15.648C21.5389 15.667 21.5385 15.6872 21.5434 15.7065C21.5541 15.7406 21.6031 15.8644 21.6241 15.898C21.6315 15.9102 21.6406 15.9218 21.6521 15.9328C21.6548 15.9356 21.6597 15.9379 21.6629 15.9409C21.6719 15.9478 21.6808 15.9542 21.691 15.9587C21.6961 15.9615 21.7031 15.9622 21.7089 15.9641C21.7191 15.9669 21.7296 15.9682 21.7402 15.968C21.747 15.968 21.7554 15.9657 21.7622 15.9641C21.7793 15.9604 21.795 15.957 21.8131 15.9461C22.1971 15.7164 22.3534 15.4449 22.5205 15.1036C22.6872 14.764 22.7748 13.6423 22.7843 13.4583C22.7938 13.273 22.8522 13.1592 22.9432 13.0847C23.0334 13.0098 23.482 12.7225 23.5453 12.7078C23.6097 12.6928 23.6832 12.6866 23.7556 12.8539C23.8292 13.0222 23.9894 14.0564 24.0199 14.2154C24.0544 14.3844 24.1421 14.3643 24.1861 14.3318C24.282 14.2617 24.3515 14.1755 24.4371 14.0288C24.5254 13.8818 24.4606 13.6792 24.3749 13.5849C24.2903 13.49 24.1561 13.3385 24.2133 13.188C24.3432 12.8462 24.6163 12.8634 24.6894 12.8756C24.7614 12.8878 25.038 13.0124 25.0881 13.7573C25.1604 14.8607 24.7104 16.0017 24.603 16.2909C24.3659 16.9342 24.316 17.3721 24.2795 17.5805C24.2437 17.7882 24.0861 17.7506 24.0483 17.717C24.01 17.6834 23.9607 17.5226 23.9364 17.4989C23.9116 17.4751 23.8494 17.4873 23.8086 17.6644C23.768 17.8412 23.6326 18.0867 23.553 18.2203C23.4998 18.307 23.5098 18.4314 23.5225 18.5279C23.5463 18.7155 23.6439 19.4334 23.6142 20.2494C23.5601 21.7014 23.0746 22.616 22.7125 23.0947C21.8606 24.2213 21.0617 24.6921 20.9658 24.759C20.8424 24.8449 20.6362 24.8315 20.5672 24.8087C20.4971 24.7889 20.4356 24.7164 20.3045 24.623C20.2938 24.6146 20.2831 24.6101 20.274 24.6052C20.1699 24.5571 20.1543 24.7037 20.1553 24.7419C20.1565 24.7826 20.2194 24.9334 20.2551 25.0797C20.3232 25.3555 20.1699 25.6887 20.0123 25.9517C19.7874 26.3237 19.5364 26.7326 19.5888 27.1818C19.5883 27.2218 19.5883 27.251 19.5546 27.2639ZM26.774 27.6934C26.9024 28.4314 27.0469 29.3308 27.21 30.4332C27.2185 30.4915 27.2247 30.5412 27.2292 30.5876C27.2305 30.5933 27.2317 30.5998 27.2317 30.6052C27.2362 30.6486 27.2386 30.6885 27.2386 30.7209C27.2386 30.7244 27.238 30.7274 27.238 30.73C27.238 30.7446 27.238 30.7604 27.2368 30.7731C27.2351 30.7845 27.233 30.7957 27.2305 30.8069C27.2305 30.8113 27.2292 30.8158 27.2292 30.8198C27.2245 30.8403 27.2165 30.8599 27.2057 30.878C27.2045 30.8805 27.2024 30.8825 27.2 30.8858C27.1908 30.8982 27.1799 30.9093 27.1676 30.9187L27.1556 30.9277C27.1389 30.9382 27.121 30.9465 27.1022 30.9526C27.0972 30.9549 27.0898 30.9556 27.0832 30.9582C27.0672 30.9633 27.05 30.9678 27.031 30.9729C27.0192 30.9755 27.0075 30.9774 26.9955 30.9806L26.916 30.9963C26.8639 31.0071 26.7877 31.018 26.7348 31.0223C26.6432 31.0313 26.5364 31.0403 26.4201 31.0506C25.2957 31.1535 23.0952 31.3766 21.3325 31.5986C21.2993 31.6018 21.2653 31.6054 21.2291 31.6111C21.0917 31.6304 21.0122 31.6086 21.0012 31.4737C20.993 31.35 20.7866 30.1263 20.1636 29.0838C20.1064 28.9874 20.0459 28.8931 19.9822 28.8009C19.9111 28.6985 20.0167 28.6206 20.1171 28.6561C20.3995 28.7552 21.1814 29.1132 22.2968 29.9114C22.5816 30.1149 22.6556 30.1782 22.7195 30.2324C22.728 30.2399 22.7412 30.2471 22.7528 30.2528C22.7573 30.2551 22.7624 30.2561 22.768 30.2584C22.7756 30.2612 22.7857 30.2641 22.7952 30.2663C22.8004 30.2674 22.8054 30.2686 22.8104 30.2689C22.8211 30.2702 22.8319 30.2707 22.8416 30.2702H22.8537C22.8663 30.2686 22.8784 30.2645 22.8893 30.258C22.9153 30.2417 22.9272 30.21 22.907 30.1553C22.8376 29.9597 22.4646 29.5756 21.5102 28.69C21.3741 28.5642 21.3719 28.5109 21.5129 28.4962C21.6535 28.4829 22.0362 28.5001 22.2395 28.4917C22.4436 28.4829 22.8988 28.4701 22.8096 27.8743C22.7412 27.4127 22.6877 26.9353 22.6791 26.7924C22.6716 26.6501 22.6464 26.3837 22.3131 26.3461C21.9819 26.3081 21.4267 26.385 20.9286 26.5596C20.7912 26.6074 20.7427 26.5439 20.8443 26.4511C20.9455 26.3589 21.8201 25.7898 22.5654 24.9341C23.3847 23.9919 23.745 23.2986 23.9496 22.668C23.9866 22.5561 24.0338 22.5943 24.0795 22.6198C24.1248 22.6466 24.4322 22.895 24.5412 23.5062C24.6479 24.1185 24.8598 24.9684 24.4865 27.2001C24.2812 28.4227 24.0305 29.1447 23.9721 29.3171C23.9136 29.4877 24.0141 29.5839 24.1269 29.4309C24.3903 29.0713 24.7386 28.0748 25.0324 26.9291C25.3217 25.7986 25.4265 24.8293 25.4709 24.2082V24.2075C25.4754 24.1505 25.4793 24.0968 25.4821 24.0454L25.4841 24.0246C25.4865 23.9743 25.4891 23.9259 25.4924 23.8828C25.4924 23.8562 25.4957 23.8352 25.5002 23.8161C25.5014 23.8104 25.5035 23.8058 25.5053 23.8008C25.508 23.7923 25.5104 23.7829 25.5135 23.776C25.5135 23.7748 25.5149 23.7748 25.5149 23.7735C25.5201 23.764 25.5262 23.7551 25.5332 23.7468C25.5353 23.7445 25.5366 23.7423 25.5384 23.7411C25.5439 23.7361 25.5492 23.7338 25.5542 23.7311C25.5582 23.7293 25.562 23.7266 25.5658 23.7253C25.5689 23.7248 25.5714 23.7248 25.5746 23.7242C25.581 23.7229 25.5872 23.7217 25.5927 23.7217C25.5949 23.7217 25.5971 23.7217 25.5999 23.7229H25.6084C25.6106 23.7229 25.6117 23.7248 25.6128 23.7248C25.6356 23.7287 25.6562 23.7377 25.6722 23.7445C25.7306 23.7673 25.9881 23.8417 26.1222 24.4598C26.1279 24.4847 26.1336 24.5117 26.1402 24.5385C26.1414 24.5476 26.1432 24.5577 26.1458 24.5667C26.1521 24.5916 26.1579 24.6164 26.1637 24.6436L26.1651 24.6481C26.2764 25.1344 26.478 25.9753 26.774 27.6934Z" fill="black"/>
<path d="M22.0234 28.7459H22.1488V29.0657H22.2245V28.7459H22.3494V28.6816H22.0234V28.7459ZM22.6212 28.9562L22.5245 28.6816H22.4155V29.0657H22.4856V28.7566L22.5924 29.0657H22.654L22.7591 28.7566V29.0657H22.829V28.6816H22.72L22.6212 28.9562Z" fill="black"/>
</g>
<defs>
<clipPath id="clip0_2704_7309">
<rect width="36" height="36" fill="white" transform="translate(2 2)"/>
</clipPath>
</defs>
</svg>
