<svg width="40" height="40" viewBox="0 0 40 40" fill="none" xmlns="http://www.w3.org/2000/svg">
<path d="M36.1969 3.80078H3.79688V36.1989H36.1969V3.80078Z" fill="#ED1B34"/>
<path d="M30.9672 7.03378C30.2224 7.03378 29.656 7.52263 29.3741 8.11507L25.2948 14.8341C25.0129 15.455 24.8075 16.1523 24.8075 16.6154C24.8075 17.0293 24.8611 17.3916 25.0137 17.7279L29.4241 28.2658H12.2883C11.6729 28.2658 11.1639 27.65 11.1639 27.0782V8.9151C11.0346 6.43408 7.4682 6.43406 7.39062 8.9901L7.46559 28.2658C7.46559 30.3613 9.08489 32.0409 11.1639 32.0409H34.528L28.8369 17.4716C28.6817 16.9284 28.6041 16.4371 28.9868 15.7903L32.7601 9.66513C32.8144 9.53577 32.885 8.99273 32.885 8.8401C32.81 7.72765 31.942 6.98204 30.9672 7.03378ZM21.7152 7.04003C20.7985 7.0465 19.8848 7.67459 19.8848 8.9151V21.9156C19.8848 23.8015 17.3422 23.6489 17.3422 21.9156V8.9151C17.3422 6.43408 13.6752 6.43408 13.6752 8.9151V22.0156C13.6752 25.0114 15.9044 27.0032 18.5729 27.0032C21.3164 27.0032 23.5519 25.0114 23.5519 22.0156V8.9151C23.5519 7.64872 22.6319 7.03357 21.7152 7.04003Z" fill="white"/>
</svg>
