<svg width="40" height="40" viewBox="0 0 40 40" fill="none" xmlns="http://www.w3.org/2000/svg">
<path d="M27.554 25.1383H27.5435C27.344 25.1863 27.179 25.0693 27.2255 24.9778C27.4085 24.5578 27.6275 23.9578 27.6665 23.8018C27.848 23.1763 27.7805 22.7458 27.227 22.2838C26.897 22.0138 26.5265 21.7558 26.192 21.5173C26.0345 21.3763 26.1245 21.2398 26.174 21.1918C26.27 21.0958 26.39 21.0163 26.483 20.9443C26.753 20.7418 26.9195 20.7688 27.164 20.7943C27.542 20.8453 27.9185 20.9008 28.295 20.9668C28.6595 21.0418 28.7345 20.9083 28.823 20.6533L29.036 20.0158C29.1665 19.6498 28.991 19.5688 28.721 19.5628L25.1315 19.4233C24.8285 19.4038 24.707 19.4953 24.596 19.5703C24.056 19.9603 23.516 20.3473 22.9745 20.7358C22.694 20.9248 22.814 21.0538 22.8845 21.1828L23.1875 21.6793C23.4305 22.0753 23.3375 22.1848 23.126 22.4158C22.964 22.5808 22.787 22.7308 22.601 22.8643L22.5365 22.9093C21.9815 23.3023 21.4115 23.4793 20.9255 23.5618C19.7615 23.7223 18.668 23.7463 17.7035 23.7628C15.5605 23.794 13.4177 23.6893 11.288 23.4493C11.2059 23.4387 11.1226 23.4546 11.0502 23.4948C10.9778 23.5351 10.9203 23.5974 10.886 23.6728L10.556 24.3928C10.534 24.4398 10.495 24.4768 10.4469 24.4963C10.3988 24.5158 10.345 24.5163 10.2965 24.4978C7.2215 23.4043 5.282 21.7978 5.282 20.0083C5.282 17.5348 8.9825 15.4108 14.2625 14.5033C14.3705 14.4823 14.432 14.5258 14.4575 14.5483C14.573 14.6458 14.69 14.7433 14.8025 14.8453C14.876 14.9083 14.8595 14.9728 14.843 15.0253L12.0245 21.1828L11.57 22.1743C11.474 22.4173 11.6825 22.4938 11.7545 22.4938C13.682 22.5928 15.5735 22.5583 17.297 22.3888C19.187 22.2223 20.375 21.8143 21.842 20.9158C22.9703 20.221 24.0412 19.437 25.0445 18.5713C25.6025 18.0718 25.8905 17.7928 26.252 17.3398C26.8835 16.5268 27.008 15.7198 26.5115 14.8078C26.4575 14.6818 26.6015 14.6653 26.6555 14.6728C31.4465 15.6583 34.7315 17.6788 34.7315 20.0083C34.7315 22.1878 31.8515 24.0958 27.554 25.1383ZM15.7025 15.6763C15.827 15.7993 15.9185 15.8953 16.0355 16.0183C16.343 16.3678 16.5875 16.6828 16.5695 17.2813C16.5605 17.6623 16.379 18.1243 16.1225 18.5713C15.8675 19.0273 15.563 19.4548 15.2195 19.8463C14.717 20.4463 14.204 20.7073 13.5245 20.8798C13.4015 20.9038 13.379 20.7988 13.4045 20.7343L15.5225 15.7108C15.584 15.6013 15.6755 15.6523 15.7025 15.6763ZM20.0615 15.2368C19.8979 14.7908 19.6412 14.3848 19.3085 14.0458C19.2746 14.0129 19.2435 13.9773 19.2155 13.9393C19.1945 13.9033 19.1555 13.8373 19.2005 13.7788C19.2605 13.7098 19.337 13.7413 19.364 13.7563C19.565 13.8523 20.252 14.2393 20.621 15.2323C20.9195 16.0333 20.726 16.8283 19.9745 17.8888C18.989 19.2778 18.14 20.3233 16.1855 21.1093C15.332 21.4543 13.9355 21.5818 13.2605 21.5818C13.0265 21.5848 12.893 21.5563 12.854 21.4678C12.8446 21.4507 12.8399 21.4314 12.8404 21.4119C12.8409 21.3924 12.8467 21.3734 12.857 21.3568C12.92 21.2728 13.0145 21.2863 13.097 21.2863C13.8575 21.2863 15.2255 21.0268 16.046 20.6428C17.771 19.8343 18.632 18.7558 19.3655 17.7208C19.8605 17.0263 20.3825 16.1158 20.0615 15.2368ZM23.1215 15.4918C23.0585 15.0463 22.7555 14.6593 22.556 14.4028L22.3985 14.2003C22.3475 14.1403 22.2905 14.0728 22.3535 14.0053C22.454 13.9033 22.613 14.0248 22.646 14.0458C22.976 14.2678 23.5505 14.7688 23.7005 15.6238C23.828 16.3303 23.7125 17.3608 21.6905 19.0603C21.581 19.1503 21.4715 19.2463 21.356 19.3483C20.51 20.0833 19.4585 20.9998 17.138 21.7633C16.334 22.0258 14.8115 22.2178 13.517 22.2178C13.2815 22.2178 13.0655 22.2103 12.872 22.1968C12.656 22.1818 12.5915 22.1068 12.575 22.0468C12.5702 22.0306 12.5691 22.0135 12.572 21.9969C12.5749 21.9802 12.5815 21.9644 12.5915 21.9508C12.6215 21.9118 12.6815 21.8878 12.7565 21.8863C14.9195 21.8413 15.6665 21.7063 16.961 21.2923C18.8885 20.6743 20.291 19.5328 21.2945 18.6073C23.3015 16.7578 23.183 15.9343 23.1215 15.4918ZM20 12.5293C10.058 12.5293 2 15.8728 2 19.9993C2 24.1243 10.058 27.4693 20 27.4693C29.942 27.4693 38 24.1243 38 19.9993C38 15.8743 29.942 12.5293 20 12.5293Z" fill="black"/>
</svg>
