<svg width="40" height="40" viewBox="0 0 40 40" fill="none" xmlns="http://www.w3.org/2000/svg">
<path d="M5 26.9883C7.73658 33.4101 14.1037 37.9164 21.529 37.9164C18.7924 31.4945 12.4253 26.9883 5 26.9883Z" fill="#00BE64"/>
<path d="M35.0026 15.4701C35.0026 22.9075 28.97 28.9401 21.5326 28.9401C14.0951 28.9401 8.0625 22.9075 8.0625 15.4701C8.0625 8.03265 14.0951 2 21.5326 2C28.97 2 35.0026 8.03265 35.0026 15.4701Z" fill="#FFB900"/>
<path d="M21.5234 37.9172C26.9784 37.9172 31.6731 34.6759 33.7894 30.0176C28.3345 30.0176 23.6397 33.2589 21.5234 37.9172Z" fill="#00BE64"/>
<path d="M28.2609 15.4703C28.2609 19.192 25.2445 22.2023 21.5289 22.2023C17.8132 22.2023 14.7969 19.1859 14.7969 15.4703C14.7969 11.7485 17.8132 8.73828 21.5289 8.73828C25.2445 8.73828 28.2609 11.7485 28.2609 15.4703Z" fill="#003C96"/>
</svg>
