<svg width="40" height="40" viewBox="0 0 40 40" fill="none" xmlns="http://www.w3.org/2000/svg">
<g clip-path="url(#clip0_2726_5205)">
<path d="M14.4435 35.189H27.4739C31.5826 35.189 33.813 31.7638 34.7913 29.7165L35.3783 28.2598H37.7652L33.187 37H2.11739L2.93913 35.1496H4.11304C4.15217 35.1496 4.15217 35.1496 4.1913 35.1496C4.34783 35.1496 4.50435 35.1496 4.66087 35.1496H5.56087C7.04783 35.1102 8.65217 34.6378 9.74783 31.8425C9.86522 31.5669 9.94348 31.3307 10.0609 31.1339L13.1522 23.1811L6.5 7.62992C6.34348 7.3937 6.22609 7.07874 6.06957 6.76378C5.24783 4.83465 4.03478 4.24409 3.13478 4.04724H2V2H12.7609V4.04724H12.2522C12.213 4.04724 12.1739 4.04724 12.1739 4.04724C11.2739 4.04724 10.3348 4.08661 10.9217 5.46457C10.9609 5.54331 10.9609 5.62205 11 5.66142L15.7348 16.685L18.3174 10.0315C18.6304 8.9685 18.1217 8.61417 17.613 8.53543H16.3217L17.3 6.25197H28.4913L27.513 8.53543H25.7522C24.9696 8.73228 23.9522 9.3622 23.0913 11.0945L18.3957 22.9449L20.7826 28.4567L20.8217 28.4961C20.9391 28.811 21.1348 28.9685 21.4087 28.4961C21.4087 28.4567 21.4478 28.4567 21.4478 28.4173L30.8 7.70866C30.8783 7.47244 30.9957 7.19685 31.1522 6.88189C32.1304 4.71654 31.1522 4.16535 30.3696 4.04724H29V2H38V4.04724H36.513C35.9261 4.16535 35.0261 4.51969 34.2043 5.74016L21.7609 33.3386L17.5348 33.2598L15.8522 29.4016L13.8957 34.3622C13.8957 34.4016 13.8957 34.4409 13.8565 34.4803C13.7 35.0315 13.9739 35.189 14.4435 35.189Z" fill="#1B140F"/>
</g>
<defs>
<clipPath id="clip0_2726_5205">
<rect width="36" height="35" fill="white" transform="translate(2 2)"/>
</clipPath>
</defs>
</svg>
