<svg width="40" height="40" viewBox="0 0 40 40" fill="none" xmlns="http://www.w3.org/2000/svg">
<path d="M26.0005 7.50215C28.7614 7.50215 30.9999 19.142 30.9999 33.5005H35.0002C35.0002 18.0371 30.9704 5.50195 26.0006 5.50195C23.1729 5.50195 20.6501 9.26925 19.0005 15.1603C17.3512 9.26925 14.8276 5.50195 12.0001 5.50195C7.03032 5.50195 3 18.0371 3 33.5005H7.00086C7.00086 19.142 9.23958 7.50215 12.0001 7.50215C14.7614 7.50215 17.0008 18.2466 17.0008 31.5014H21.0002C21.0003 18.2466 23.2389 7.50215 26.0005 7.50215ZM37.0026 31.5014C37.5452 31.5014 38 31.931 38 32.4962C38 33.0704 37.5452 33.5003 37.0026 33.5003C36.4581 33.5003 35.9995 33.0702 35.9995 32.4962C35.9995 31.931 36.4581 31.5014 37.0026 31.5014ZM37.0026 33.3544C37.4621 33.3544 37.819 32.9851 37.819 32.4966C37.819 32.0165 37.4619 31.6477 37.0026 31.6477C36.5373 31.6477 36.1808 32.0165 36.1808 32.4966C36.1807 32.985 36.5373 33.3544 37.0026 33.3544ZM36.6136 31.9157H37.0643C37.3401 31.9157 37.4702 32.0255 37.4702 32.2494C37.4702 32.4606 37.3384 32.5489 37.1656 32.5672L37.4974 33.0839H37.3026L36.9865 32.5813H36.7953V33.0839H36.6139L36.6136 31.9157ZM36.7951 32.4347H36.9841C37.1432 32.4347 37.2898 32.4268 37.2898 32.2416C37.2898 32.0862 37.1569 32.0619 37.0346 32.0619H36.7954L36.7951 32.4347Z" fill="#FFC300"/>
</svg>
