<svg width="40" height="40" viewBox="0 0 40 40" fill="none" xmlns="http://www.w3.org/2000/svg">
<g clip-path="url(#clip0_2755_4881)">
<path fill-rule="evenodd" clip-rule="evenodd" d="M2 12.7604C2 9.8948 3.13221 7.1948 5.19471 5.1572C7.25361 3.1232 9.98317 2 12.8786 2H38V7.4684H12.8786C11.4579 7.4684 10.1166 8.0228 9.10337 9.0236C8.09014 10.028 7.52764 11.3564 7.52764 12.7604L7.49519 21.9404C7.23918 24.3776 5.38221 26.3468 2.97716 26.7068L2 26.858V12.7604Z" fill="#E6000E"/>
<path fill-rule="evenodd" clip-rule="evenodd" d="M2 38.0006V32.5322H27.1214C28.5421 32.5322 29.8834 31.9778 30.8966 30.9734C31.9135 29.9726 32.4687 28.6442 32.4687 27.2366L32.4724 18.5246C32.4724 15.929 34.4267 13.679 37.0192 13.2902L37.9964 13.1426V27.2366C37.9964 30.1058 36.8642 32.8022 34.8017 34.8398C32.7428 36.8774 30.0168 37.997 27.1178 37.997H2V38.0006Z" fill="#E6000E"/>
<path fill-rule="evenodd" clip-rule="evenodd" d="M23.3149 26.8586V19.889L19.9976 23.7014L16.6767 19.889V26.8586H12.2812V13.1426H16.4459L19.9976 17.5526L23.5457 13.1426H27.7103V26.8586H23.3149Z" fill="#E6000E"/>
</g>
<defs>
<clipPath id="clip0_2755_4881">
<rect width="36" height="36" fill="white" transform="translate(2 2)"/>
</clipPath>
</defs>
</svg>
