<svg width="40" height="40" viewBox="0 0 40 40" fill="none" xmlns="http://www.w3.org/2000/svg">
<g clip-path="url(#clip0_2704_4892)">
<path d="M23.1471 19.9993C23.1471 25.2869 18.8606 29.5729 13.5733 29.5729C8.28603 29.5729 4 25.2869 4 19.9993C4 14.7122 8.28597 10.4258 13.5733 10.4258C18.8606 10.4258 23.1471 14.7122 23.1471 19.9993Z" fill="#D9222A"/>
<path d="M26.4285 10.4258C23.955 10.4258 21.7009 11.3642 20.0018 12.904C19.6559 13.2178 19.3327 13.5567 19.0352 13.9171H20.9694C21.2338 14.2387 21.4774 14.5769 21.6992 14.9311H18.3054C18.102 15.2567 17.9175 15.5949 17.7538 15.9449H22.2505C22.4041 16.2734 22.5396 16.6113 22.6559 16.9584H17.3486C17.2379 17.2886 17.1448 17.6266 17.0703 17.9722H22.9338C23.0745 18.6255 23.1494 19.3038 23.1494 19.9993C23.1494 21.0624 22.9759 22.0852 22.6559 23.0404H17.3485C17.4645 23.3877 17.6001 23.7259 17.7536 24.0542H22.2505C22.0865 24.4042 21.9023 24.7424 21.6987 25.0681H18.3054C18.5269 25.4217 18.7709 25.7604 19.0352 26.0813H20.969C20.6719 26.4424 20.3485 26.7817 20.002 27.0953C21.7011 28.6348 23.955 29.5728 26.4285 29.5728C31.7159 29.5729 36.0023 25.2869 36.0023 19.9993C36.0023 14.7124 31.7159 10.4258 26.4285 10.4258Z" fill="#EE9F2D"/>
<path d="M34.7266 25.3367C34.7266 25.1661 34.8648 25.0273 35.0357 25.0273C35.2066 25.0273 35.3448 25.1661 35.3448 25.3367C35.3448 25.5073 35.2066 25.6461 35.0357 25.6461C34.8648 25.6461 34.7266 25.5073 34.7266 25.3367ZM35.0357 25.5718C35.1655 25.5718 35.2708 25.4665 35.2708 25.3367C35.2708 25.2067 35.1654 25.1019 35.0357 25.1019C34.9057 25.1019 34.8008 25.2068 34.8008 25.3367C34.8008 25.4665 34.9057 25.5718 35.0357 25.5718ZM34.9939 25.4727H34.9306V25.2009H35.0453C35.0693 25.2009 35.0937 25.2009 35.1148 25.2144C35.1369 25.2293 35.1493 25.2556 35.1493 25.2827C35.1493 25.3131 35.1313 25.3415 35.1021 25.3527L35.1522 25.4727H35.082L35.0404 25.3651H34.994V25.4727H34.9939ZM34.9939 25.3185H35.029C35.0421 25.3185 35.056 25.3196 35.0677 25.3132C35.0781 25.3065 35.0835 25.294 35.0835 25.282C35.0835 25.2716 35.0771 25.2596 35.0682 25.2544C35.0571 25.2476 35.0395 25.2491 35.0277 25.2491H34.9939V25.3185Z" fill="black"/>
<path d="M11.3354 21.0474C11.2263 21.0347 11.1784 21.0313 11.1034 21.0313C10.5143 21.0313 10.2161 21.2334 10.2161 21.6323C10.2161 21.8783 10.3616 22.0347 10.5887 22.0347C11.0121 22.0347 11.3172 21.6316 11.3354 21.0474ZM12.0912 22.8072H11.2301L11.2499 22.3978C10.9872 22.7213 10.6368 22.8751 10.1605 22.8751C9.59712 22.8751 9.21094 22.4351 9.21094 21.7963C9.21094 20.835 9.88272 20.2741 11.0358 20.2741C11.1536 20.2741 11.3048 20.2847 11.4594 20.3045C11.4916 20.1743 11.5001 20.1185 11.5001 20.0485C11.5001 19.7867 11.3189 19.6892 10.8334 19.6892C10.325 19.6834 9.9056 19.8103 9.73339 19.8669C9.74427 19.8014 9.87739 18.9784 9.87739 18.9784C10.3954 18.8267 10.7369 18.7695 11.1214 18.7695C12.0138 18.7695 12.4865 19.1702 12.4856 19.9275C12.4874 20.1304 12.4538 20.3808 12.4014 20.71C12.3112 21.2823 12.1177 22.5083 12.0912 22.8072Z" fill="black"/>
<path d="M8.77716 22.8074H7.73786L8.33316 19.0743L7.00383 22.8074H6.29561L6.20804 19.0957L5.58228 22.8074H4.60938L5.42201 17.9512H6.91647L7.00713 20.6694L7.91871 17.9512H9.58095L8.77716 22.8074Z" fill="black"/>
<path d="M27.7095 21.0474C27.6009 21.0347 27.5527 21.0313 27.4779 21.0313C26.8891 21.0313 26.5908 21.2334 26.5908 21.6323C26.5908 21.8783 26.7362 22.0347 26.9633 22.0347C27.3867 22.0347 27.692 21.6316 27.7095 21.0474ZM28.466 22.8072H27.6049L27.6244 22.3978C27.3617 22.7213 27.0111 22.8751 26.5353 22.8751C25.9718 22.8751 25.5859 22.4351 25.5859 21.7963C25.5859 20.835 26.2573 20.2741 27.4106 20.2741C27.5284 20.2741 27.6793 20.2847 27.8337 20.3045C27.8659 20.1743 27.8744 20.1185 27.8744 20.0485C27.8744 19.7867 27.6935 19.6892 27.208 19.6892C26.6995 19.6834 26.2807 19.8103 26.1078 19.8669C26.1186 19.8014 26.2522 18.9784 26.2522 18.9784C26.7702 18.8267 27.1115 18.7695 27.4956 18.7695C28.3884 18.7695 28.8611 19.1702 28.8602 19.9275C28.862 20.1304 28.8284 20.3808 28.776 20.71C28.6862 21.2823 28.4922 22.5083 28.466 22.8072Z" fill="black"/>
<path d="M16.709 22.7469C16.4246 22.8365 16.2029 22.8749 15.9624 22.8749C15.4311 22.8749 15.1411 22.5695 15.1411 22.0073C15.1335 21.8328 15.2175 21.3737 15.2836 20.9546C15.3436 20.5857 15.7342 18.2598 15.7342 18.2598H16.7673L16.6466 18.8575H17.2706L17.1297 19.8066H16.5034C16.3834 20.5577 16.2126 21.4933 16.2106 21.6173C16.2106 21.8208 16.3192 21.9097 16.5664 21.9097C16.6848 21.9097 16.7766 21.8977 16.8466 21.8724L16.709 22.7469Z" fill="black"/>
<path d="M19.882 22.7151C19.5271 22.8236 19.1847 22.876 18.8218 22.8751C17.6653 22.874 17.0625 22.27 17.0625 21.1133C17.0625 19.7633 17.8294 18.7695 18.8704 18.7695C19.7222 18.7695 20.2662 19.326 20.2662 20.1987C20.2662 20.4882 20.2289 20.7709 20.1389 21.17H18.0816C18.012 21.7428 18.3787 21.9815 18.9796 21.9815C19.3494 21.9815 19.6829 21.9053 20.0538 21.7328L19.882 22.7151ZM19.3013 20.3737C19.3071 20.2915 19.4109 19.6688 18.8206 19.6688C18.4916 19.6688 18.2562 19.9197 18.1604 20.3737H19.3013Z" fill="black"/>
<path d="M12.7136 20.1062C12.7136 20.6058 12.9559 20.9503 13.5052 21.2089C13.9261 21.4067 13.9912 21.4654 13.9912 21.6447C13.9912 21.8909 13.8056 22.0021 13.3943 22.0021C13.0843 22.0021 12.7959 21.9536 12.4632 21.8462C12.4632 21.8462 12.3266 22.7167 12.3203 22.7583C12.5566 22.8099 12.7672 22.8576 13.4019 22.8751C14.4986 22.8751 15.005 22.4576 15.005 21.5551C15.005 21.0125 14.793 20.694 14.2724 20.4547C13.8366 20.2547 13.7866 20.21 13.7866 20.0256C13.7866 19.812 13.9592 19.7031 14.2952 19.7031C14.4992 19.7031 14.7779 19.7249 15.0419 19.7624L15.1899 18.8464C14.9208 18.8038 14.5128 18.7695 14.2752 18.7695C13.1125 18.7696 12.7101 19.3769 12.7136 20.1062Z" fill="black"/>
<path d="M24.935 18.8741C25.2236 18.8741 25.4927 18.9499 25.8636 19.1366L26.0337 18.0825C25.8814 18.0228 25.3454 17.6719 24.8914 17.6719C24.1959 17.6719 23.6079 18.017 23.1943 18.5865C22.5912 18.3868 22.3433 18.7905 22.0393 19.1928L21.7692 19.2557C21.7897 19.1232 21.8081 18.9917 21.8019 18.8585H20.8474C20.717 20.0808 20.4859 21.3187 20.305 22.5425L20.2578 22.8079H21.2976C21.4711 21.6803 21.5662 20.9583 21.6241 20.4697L22.0156 20.2519C22.0741 20.0344 22.2571 19.9608 22.6245 19.9697C22.5765 20.2274 22.5507 20.4985 22.5507 20.7795C22.5507 22.0715 23.2478 22.8759 24.3667 22.8759C24.6549 22.8759 24.9022 22.838 25.2852 22.7342L25.4681 21.627C25.1236 21.7966 24.841 21.8764 24.585 21.8764C23.9807 21.8764 23.6151 21.4304 23.6151 20.6933C23.6152 19.6239 24.159 18.8741 24.935 18.8741Z" fill="black"/>
<path d="M9.07398 22.5196H8.03446L8.63025 18.7869L7.30086 22.5196H6.59244L6.50486 18.8083L5.8791 22.5196H4.90625L5.71889 17.6641H7.21334L7.25537 20.67L8.26358 17.6641H9.87782L9.07398 22.5196Z" fill="white"/>
<path d="M33.7332 17.9512L33.5027 19.3543C33.2185 18.9803 32.9132 18.7096 32.5101 18.7096C31.9857 18.7096 31.5083 19.1072 31.1959 19.6923C30.7608 19.6021 30.3107 19.4489 30.3107 19.4489L30.3105 19.4525C30.3456 19.1254 30.3596 18.9258 30.3565 18.8581H29.4018C29.2718 20.0803 29.0407 21.3182 28.8601 22.5421L28.8125 22.8074H29.8521C29.9925 21.8957 30.1 21.1385 30.1792 20.5381C30.5343 20.2172 30.7121 19.9372 31.071 19.9559C30.9121 20.3401 30.819 20.7827 30.819 21.2368C30.819 22.2241 31.3185 22.8754 32.074 22.8754C32.455 22.8754 32.7472 22.7441 33.0323 22.4397L32.9836 22.8068H33.9667L34.7583 17.9512H33.7332V17.9512ZM32.4334 21.8947C32.0796 21.8947 31.901 21.6329 31.901 21.1162C31.901 20.34 32.2354 19.7896 32.707 19.7896C33.0641 19.7896 33.2574 20.0618 33.2574 20.5634C33.2574 21.3463 32.9176 21.8947 32.4334 21.8947Z" fill="black"/>
<path d="M11.6397 20.7603C11.5308 20.7478 11.4826 20.7444 11.4079 20.7444C10.8188 20.7444 10.5208 20.9464 10.5208 21.3452C10.5208 21.5908 10.6663 21.7478 10.893 21.7478C11.3169 21.7477 11.622 21.3446 11.6397 20.7603ZM12.3959 22.5195H11.5348L11.5543 22.1108C11.2919 22.4337 10.941 22.5881 10.4652 22.5881C9.90165 22.5881 9.51562 22.1481 9.51562 21.5092C9.51562 20.5475 10.1872 19.987 11.3405 19.987C11.4583 19.987 11.6094 19.9977 11.7639 20.0175C11.7961 19.8873 11.8046 19.8315 11.8046 19.761C11.8046 19.4992 11.6237 19.4022 11.1381 19.4022C10.6295 19.3964 10.2103 19.5233 10.0379 19.5793C10.0488 19.5139 10.1819 18.692 10.1819 18.692C10.6997 18.5395 11.0417 18.4824 11.4257 18.4824C12.3183 18.4824 12.7912 18.8833 12.7903 19.64C12.7919 19.8438 12.7581 20.094 12.7059 20.4226C12.6159 20.9946 12.4222 22.2212 12.3959 22.5195Z" fill="white"/>
<path d="M26.3346 17.7932L26.1644 18.8475C25.7937 18.661 25.5244 18.5851 25.236 18.5851C24.46 18.5851 23.916 19.3348 23.916 20.4041C23.916 21.1412 24.2817 21.587 24.8858 21.587C25.1418 21.587 25.4243 21.5075 25.7687 21.3377L25.5862 22.4444C25.2031 22.5488 24.956 22.5868 24.6676 22.5868C23.5488 22.5868 22.8516 21.7823 22.8516 20.4903C22.8516 18.7543 23.8147 17.541 25.1922 17.541C25.646 17.541 26.1822 17.7334 26.3346 17.7932Z" fill="white"/>
<path d="M28.0069 20.7603C27.898 20.7478 27.85 20.7444 27.775 20.7444C27.1862 20.7444 26.8879 20.9464 26.8879 21.3452C26.8879 21.5908 27.0335 21.7478 27.2604 21.7478C27.6837 21.7477 27.9891 21.3446 28.0069 20.7603ZM28.763 22.5195H27.9017L27.9215 22.1108C27.6588 22.4337 27.3081 22.5881 26.8324 22.5881C26.269 22.5881 25.8828 22.1481 25.8828 21.5092C25.8828 20.5475 26.5546 19.987 27.7075 19.987C27.8255 19.987 27.9764 19.9977 28.131 20.0175C28.163 19.8873 28.1717 19.8315 28.1717 19.761C28.1717 19.4992 27.9908 19.4022 27.5053 19.4022C26.9968 19.3964 26.5775 19.5233 26.405 19.5793C26.4159 19.5139 26.5492 18.692 26.5492 18.692C27.067 18.5395 27.4088 18.4824 27.7928 18.4824C28.6856 18.4824 29.1583 18.8833 29.1572 19.64C29.159 19.8438 29.1254 20.094 29.073 20.4226C28.9832 20.9946 28.7891 22.2212 28.763 22.5195Z" fill="white"/>
<path d="M17.0137 22.4596C16.729 22.5491 16.5073 22.588 16.267 22.588C15.7357 22.588 15.4458 22.2827 15.4458 21.7204C15.4384 21.5456 15.5225 21.0868 15.5884 20.6678C15.6482 20.2984 16.0388 17.9727 16.0388 17.9727H17.0717L16.9513 18.5706H17.4814L17.3403 19.5193H16.8083C16.6883 20.2709 16.517 21.2058 16.5152 21.33C16.5152 21.5343 16.6241 21.6224 16.871 21.6224C16.9894 21.6224 17.081 21.6109 17.1512 21.5856L17.0137 22.4596Z" fill="white"/>
<path d="M20.1789 22.4282C19.8242 22.5366 19.4813 22.5888 19.1187 22.5882C17.9622 22.5871 17.3594 21.9831 17.3594 20.8264C17.3594 19.476 18.1263 18.4824 19.1673 18.4824C20.0191 18.4824 20.5631 19.0386 20.5631 19.9118C20.5631 20.2016 20.5258 20.4842 20.436 20.8831H18.3787C18.3091 21.456 18.6757 21.6949 19.2767 21.6949C19.6463 21.6949 19.98 21.6184 20.3507 21.4455L20.1789 22.4282ZM19.598 20.0862C19.6042 20.0042 19.7079 19.3813 19.1173 19.3813C18.7884 19.3813 18.5531 19.6329 18.4573 20.0862H19.598Z" fill="white"/>
<path d="M13.0182 19.8193C13.0182 20.3188 13.2604 20.6628 13.8097 20.9219C14.2307 21.1198 14.2957 21.1786 14.2957 21.3578C14.2957 21.604 14.11 21.7151 13.699 21.7151C13.3888 21.7151 13.1004 21.6666 12.7675 21.5593C12.7675 21.5593 12.6312 22.4297 12.625 22.4713C12.8608 22.5229 13.0717 22.57 13.7063 22.5882C14.8032 22.5882 15.3095 22.1706 15.3095 21.2684C15.3095 20.7255 15.0977 20.4071 14.5768 20.1678C14.1413 19.9673 14.0908 19.9233 14.0908 19.7386C14.0908 19.5253 14.2639 19.4155 14.5997 19.4155C14.8035 19.4155 15.0822 19.4379 15.3466 19.4755L15.4944 18.5593C15.2255 18.5166 14.8175 18.4824 14.5799 18.4824C13.4171 18.4824 13.0148 19.0893 13.0182 19.8193Z" fill="white"/>
<path d="M34.2648 22.5196H33.2814L33.3303 22.152C33.0452 22.4569 32.753 22.5883 32.3721 22.5883C31.6165 22.5883 31.1172 21.9369 31.1172 20.9496C31.1172 19.636 31.8916 18.5287 32.8083 18.5287C33.2114 18.5287 33.5165 18.6933 33.8005 19.0672L34.0312 17.6641H35.0563L34.2648 22.5196ZM32.7316 21.6072C33.2156 21.6072 33.5556 21.0587 33.5556 20.2763C33.5556 19.7747 33.3621 19.5025 33.005 19.5025C32.5337 19.5025 32.1988 20.0527 32.1988 20.8292C32.1988 21.3458 32.3779 21.6072 32.7316 21.6072Z" fill="white"/>
<path d="M29.6989 18.5699C29.5687 19.7921 29.3376 21.0302 29.1569 22.2533L29.1094 22.5186H30.1489C30.5207 20.104 30.6107 19.6324 31.1936 19.6915C31.2865 19.1973 31.4593 18.7644 31.5883 18.5459C31.1529 18.4553 30.9098 18.7013 30.5916 19.1686C30.6167 18.9666 30.6627 18.7704 30.6535 18.5699H29.6989" fill="white"/>
<path d="M21.1443 18.5699C21.0138 19.7921 20.7827 21.0302 20.602 22.2533L20.5547 22.5186H21.5947C21.966 20.104 22.0558 19.6324 22.6385 19.6915C22.7318 19.1973 22.9047 18.7644 23.0331 18.5459C22.5982 18.4553 22.3548 18.7013 22.0369 19.1686C22.062 18.9666 22.1075 18.7704 22.0988 18.5699H21.1443" fill="white"/>
<path d="M34.7266 22.2097C34.7266 22.0384 34.865 21.9004 35.0357 21.9004C35.2066 21.9004 35.3448 22.0384 35.3448 22.2097C35.3448 22.3801 35.2066 22.5188 35.0357 22.5188C34.865 22.5188 34.7266 22.3802 34.7266 22.2097ZM35.0357 22.4446C35.1657 22.4446 35.2706 22.3393 35.2706 22.2097C35.2706 22.08 35.1657 21.9746 35.0357 21.9746C34.9059 21.9746 34.8006 22.08 34.8006 22.2097C34.8005 22.3393 34.9059 22.4446 35.0357 22.4446ZM34.9939 22.3448H34.9305V22.0738H35.0453C35.0691 22.0738 35.0938 22.0742 35.1145 22.0873C35.1367 22.1024 35.1493 22.1282 35.1493 22.1553C35.1493 22.1859 35.1314 22.2146 35.102 22.2255L35.1522 22.3448H35.0818L35.0402 22.2377H34.9938L34.9939 22.3448ZM34.9939 22.1913H35.0287C35.0418 22.1913 35.0561 22.1922 35.0676 22.1859C35.078 22.1793 35.0834 22.1666 35.0834 22.1546C35.0834 22.1446 35.0772 22.1326 35.0681 22.1266C35.0572 22.1204 35.0391 22.1222 35.0274 22.1222H34.9938L34.9939 22.1913Z" fill="white"/>
</g>
<defs>
<clipPath id="clip0_2704_4892">
<rect width="40" height="40" fill="white"/>
</clipPath>
</defs>
</svg>
