<svg width="40" height="40" viewBox="0 0 40 40" fill="none" xmlns="http://www.w3.org/2000/svg">
<path fill-rule="evenodd" clip-rule="evenodd" d="M32.405 29.8201C31.163 29.8201 30.1559 28.8129 30.1559 27.5717C30.1559 26.3283 31.163 25.3212 32.405 25.3212C33.6473 25.3212 34.6544 26.3283 34.6544 27.5717C34.6544 28.8129 33.6473 29.8201 32.405 29.8201ZM27.1307 29.8201C25.8895 29.8201 24.8813 28.8129 24.8813 27.5717C24.8813 26.3283 25.8895 25.3212 27.1307 25.3212C28.3737 25.3212 29.3811 26.3283 29.3811 27.5717C29.3811 28.8129 28.3737 29.8201 27.1307 29.8201ZM21.8544 29.8201C20.6121 29.8201 19.605 28.8129 19.605 27.5717C19.605 26.3283 20.6121 25.3212 21.8544 25.3212C23.0966 25.3212 24.1045 26.3283 24.1045 27.5717C24.1045 28.8129 23.0966 29.8201 21.8544 29.8201ZM22.2212 2.13672V20.0013V20.6955V20.7073L22.2186 20.7093C22.2113 21.5159 21.5563 22.1624 20.7496 22.1624H20.0594H18.5347V22.1633C18.424 22.1643 18.3359 22.2524 18.3359 22.3631V37.9244C18.8843 37.9746 19.4389 38.0025 19.999 38.0025C29.9413 38.0025 38.0002 29.9425 38.0002 20.0013C38.0002 10.8116 31.1146 3.23126 22.2212 2.13672Z" fill="#00B956"/>
<path fill-rule="evenodd" clip-rule="evenodd" d="M16.5495 16.843C15.3072 16.843 14.3001 15.835 14.3001 14.5938C14.3001 13.3515 15.3072 12.3434 16.5495 12.3434C17.7915 12.3434 18.7986 13.3515 18.7986 14.5938C18.7986 15.835 17.7915 16.843 16.5495 16.843ZM20.0001 2C10.059 2 2 10.059 2 20.001C2 28.6277 8.07053 35.8392 16.1739 37.5923V21.4402L16.1751 21.4384C16.1916 20.6599 16.8124 20.0307 17.5871 20.002L17.589 20.001H18.3362H19.859C19.9649 20.001 20.052 19.9164 20.0586 19.8115L20.0597 2.00365H20.3066C20.2053 2.00188 20.1023 2 20.0001 2Z" fill="#00B956"/>
</svg>
