<svg width="40" height="40" viewBox="0 0 40 40" fill="none" xmlns="http://www.w3.org/2000/svg">
<g clip-path="url(#clip0_2704_4894)">
<path d="M35.2913 9.10352H4.82205C3.81513 9.10352 3 9.93608 3 10.9604V29.1069C3 30.1312 3.81513 30.9638 4.81769 30.9638H35.2869C36.2895 30.9638 37.1046 30.1312 37.1046 29.1069V10.9604C37.109 9.93608 36.2938 9.10352 35.2913 9.10352ZM15.689 24.251H13.0736V19.2817C13.0736 19.1858 12.9951 19.1074 12.8992 19.1074C12.8121 19.1074 12.7423 19.1684 12.7292 19.2512L11.1992 24.251H9.32051L7.79487 19.2469C7.7818 19.1684 7.71205 19.1074 7.62487 19.1074C7.52897 19.1074 7.45051 19.1858 7.45051 19.2817V24.251H4.83513V15.7074H7.08H7.75128C8.23077 15.7074 8.73641 16.0822 8.8759 16.5399L10.1487 20.7027C10.2141 20.912 10.3144 20.9076 10.3797 20.7027L11.6526 16.5399C11.7921 16.0779 12.2977 15.7074 12.7772 15.7074H13.4441H15.689V24.251ZM25.4095 24.251H22.7941V19.1727C22.7897 19.0899 22.7244 19.0202 22.6372 19.0202C22.5762 19.0202 22.5282 19.0507 22.5021 19.103V19.1074C22.5021 19.1117 22.4977 19.1161 22.4977 19.1204L20.3618 23.7017C20.2267 23.9981 19.8605 24.2379 19.5292 24.2553H16.9138V15.7117H19.5292V20.681C19.5292 20.7769 19.6077 20.8553 19.7036 20.8553C19.7646 20.8553 19.8169 20.8248 19.8474 20.7812C19.8562 20.7638 19.8649 20.7507 19.8692 20.7289L21.9485 16.2653C22.0879 15.9645 22.4628 15.7248 22.7941 15.7117H25.4095V24.251ZM32.2967 21.5048H29.3326V24.2945H26.7172V19.5869H35.0036C34.6026 20.6984 33.5433 21.4961 32.2967 21.5048ZM35.1126 19.151C35.1126 19.151 30.5705 19.151 30.5662 19.151C28.3431 19.151 26.521 17.6297 26.3685 15.7074H32.288C33.879 15.7204 35.1649 17.0107 35.1649 18.6061C35.1649 18.7935 35.1474 18.9766 35.1126 19.151Z" fill="#393939"/>
</g>
<defs>
<clipPath id="clip0_2704_4894">
<rect width="34" height="34" fill="white" transform="translate(3 3)"/>
</clipPath>
</defs>
</svg>
