<svg width="40" height="40" viewBox="0 0 40 40" fill="none" xmlns="http://www.w3.org/2000/svg">
<path d="M36.3125 13.7562C32.825 10.6062 29.3375 7.4 25.85 4.25C20.7313 12.0125 12.0688 18.9313 3.85625 23.9375C3.63125 25.0063 3.40625 26.0187 3.125 27.0312C6.725 30.2938 10.325 33.6125 13.925 36.875C22.4188 32.2062 31.4188 25.5688 36.875 18.0312C36.7062 16.625 36.4813 15.2188 36.3125 13.7562Z" fill="#699635"/>
<path d="M14.6 32.7125C11.0562 29.45 7.5125 26.1875 3.96875 22.9812C12.8 17.975 20.225 11.1687 25.6812 3.125C29.225 6.3875 32.7687 9.59375 36.3125 12.8562C30.8563 20.9 23.4312 27.7062 14.6 32.7125Z" fill="#83BF4F"/>
<path d="M13.6969 30.5746C11.3344 28.4371 8.97187 26.2434 6.60938 24.1059C6.77813 23.9934 6.89063 23.9371 7.05938 23.8246C7.50938 23.5434 7.62188 23.0371 7.22813 22.6434L6.89062 22.3059C14.0344 17.9184 20.2219 12.2934 25.0594 5.76836L25.3969 6.10586C25.7906 6.44336 26.3531 6.38711 26.6906 5.99336C26.8031 5.88086 26.8594 5.71211 26.9719 5.59961C29.3344 7.73711 31.6969 9.93086 34.0594 12.0684C33.9469 12.1809 33.8906 12.3496 33.7781 12.4621C33.4406 12.9121 33.4969 13.5309 33.8906 13.9246L34.2281 14.2621C29.3906 20.7309 23.2031 26.3559 16.0594 30.7434L15.7219 30.4059C15.3281 30.0684 14.6531 30.0121 14.1469 30.2934C13.9781 30.4059 13.8656 30.4621 13.6969 30.5746ZM8.12812 24.1621C10.0406 25.9059 11.9531 27.6496 13.9219 29.4496C14.6531 29.2246 15.4969 29.2809 16.1719 29.6184C22.6969 25.4559 28.3781 20.2809 32.9344 14.2621C32.5406 13.6434 32.4844 12.8559 32.7656 12.1809C30.8531 10.4371 28.9406 8.69336 26.9719 6.89336C26.4656 7.34336 25.7344 7.39961 25.1156 7.06211C20.5594 13.1371 14.8781 18.3121 8.35313 22.4746C8.69063 23.0371 8.63437 23.7121 8.12812 24.1621Z" fill="#699635"/>
<path d="M13.2453 22.9809C13.8641 22.7559 14.5391 22.8121 14.9891 23.2059C14.7078 23.4309 14.3703 23.6559 14.0891 23.8809C13.9766 23.7684 13.6953 23.7684 13.5828 23.8809C13.4141 23.9934 13.3578 24.1621 13.5266 24.2746C13.6391 24.3871 13.9203 24.3871 14.0891 24.2746C14.7641 23.8246 15.7203 23.7684 16.2266 24.2746C16.6203 24.6684 16.6766 25.2309 16.2828 25.6809C16.3953 25.7934 16.5078 25.8496 16.6203 25.9621C16.3391 26.1309 16.0578 26.3559 15.7766 26.5246C15.6641 26.4121 15.5516 26.2996 15.4391 26.2434C14.8203 26.4121 14.1453 26.3559 13.7516 25.9621C14.0891 25.7371 14.3703 25.5684 14.7078 25.3434C14.8203 25.4559 15.1016 25.4559 15.2703 25.3434C15.4391 25.2309 15.4391 25.0621 15.3266 24.9496C15.2141 24.8371 14.9891 24.8371 14.8203 24.9496C14.4266 25.2309 13.9203 25.3434 13.4703 25.2871C13.1328 25.2309 12.8516 25.1184 12.6266 24.9496C12.2328 24.5559 12.2328 24.0496 12.5703 23.5996C12.4578 23.5434 12.4016 23.4309 12.2891 23.3184C12.5703 23.1496 12.8516 22.9246 13.1328 22.7559C13.0766 22.8121 13.1891 22.8684 13.2453 22.9809Z" fill="#699635"/>
<path d="M26.2969 10.9434C26.8031 10.6059 27.4219 10.6059 27.8156 10.9996L27.1406 11.8434C27.0281 11.7309 26.8031 11.7309 26.6906 11.8996C26.5781 12.0684 26.5781 12.2934 26.6906 12.4059C26.8031 12.5184 27.0281 12.5184 27.1406 12.3496C27.6469 11.7309 28.4906 11.6184 28.9969 12.0684C29.3906 12.4621 29.5031 13.0809 29.2781 13.6434C29.3906 13.7559 29.5031 13.8121 29.6156 13.9246C29.3906 14.2059 29.2219 14.4309 28.9969 14.7121C28.8844 14.5996 28.7719 14.4871 28.6594 14.4309C28.1531 14.7121 27.5906 14.7121 27.1969 14.3184C27.4219 14.0371 27.7031 13.7559 27.9281 13.4746C28.0406 13.5871 28.2656 13.5871 28.3781 13.4184C28.4906 13.2496 28.4906 13.0246 28.3781 12.9121C28.2656 12.7996 28.0406 12.7996 27.9281 12.9684C27.6469 13.3059 27.1969 13.5309 26.8031 13.5309C26.5219 13.5309 26.2406 13.4184 26.0156 13.2496C25.6219 12.8559 25.5094 12.2934 25.7344 11.7309C25.6219 11.6746 25.5656 11.5621 25.4531 11.4496C25.6781 11.2246 25.9031 10.9434 26.0719 10.6621C26.0719 10.7746 26.1844 10.8309 26.2969 10.9434Z" fill="#699635"/>
<path d="M24.6091 21.9681C22.8091 23.5994 19.7716 23.5431 18.0279 21.9681C16.2841 20.3369 16.3966 17.8056 18.1966 16.1744C19.9966 14.5431 22.8091 14.3744 24.5529 16.0056C26.3529 17.5806 26.4091 20.3369 24.6091 21.9681Z" fill="#699635"/>
<path d="M14.2656 15.7805L24.8969 25.5117C26.1344 24.4992 27.2594 23.4305 28.3844 22.3055L17.8094 12.5742C16.6844 13.643 15.5031 14.7117 14.2656 15.7805Z" fill="#FFDD7D"/>
<path d="M24.9531 29.7875C26.1344 28.8875 27.3156 27.9313 28.4406 26.975V22.25C27.3156 23.375 26.1344 24.4438 24.9531 25.4563V29.7875Z" fill="#DBB471"/>
<path d="M8.80469 15.8937C9.42344 15.6687 9.92969 15.3312 10.4359 14.9374C10.9422 14.5437 11.3922 14.1499 11.8984 13.6999C12.4047 13.3062 12.9109 12.8562 13.4734 12.5749C14.0359 12.2374 14.7672 12.0687 15.3859 12.1812C14.7672 12.2937 14.2047 12.5749 13.6984 12.9687C13.1922 13.3062 12.7422 13.7562 12.2359 14.1499C11.7297 14.5437 11.2234 14.9937 10.6609 15.3312C10.0984 15.6687 9.42344 15.8937 8.80469 15.8937Z" fill="#8D9998"/>
<path d="M24.3866 20.6185C24.3866 20.6185 27.1429 21.406 33.5554 19.7185C39.9679 18.031 36.9304 36.481 25.2304 36.481C23.9366 36.481 23.8804 34.8497 27.4804 31.9247C27.4804 31.9247 22.4179 33.106 24.6116 29.3372C24.6116 29.3372 21.0116 29.956 22.6429 27.0872C22.6429 27.0872 23.3741 24.9497 22.6991 22.531C22.7554 22.531 23.1491 21.2935 24.3866 20.6185Z" fill="#E8E8E8"/>
<path d="M36.5906 21.5195C36.7031 26.4695 32.7656 34.682 24.9468 34.682H24.8343C24.1031 35.8633 24.4406 36.5383 25.2281 36.5383C34.1156 36.482 37.9968 25.907 36.5906 21.5195Z" fill="#D1D1D1"/>
<path d="M32.5425 24.2188C30.855 30.2938 24.105 30.8 24.105 30.8C23.8238 32.0938 24.3863 32.6562 25.1175 32.6562C27.5925 32.7125 32.205 28.6063 32.5425 24.2188Z" fill="#D1D1D1"/>
<path d="M27.8167 24.2188C23.8229 29.8438 22.4167 27.7625 22.4167 27.7625C21.4042 30.0125 24.0479 30.0125 24.4979 29.5063C25.7917 28.1 27.8729 25.175 27.8167 24.2188Z" fill="#D1D1D1"/>
<path d="M24.7812 34.85C25.4563 33.95 26.3 33.2188 27.1438 32.4875C27.9875 31.7563 28.8313 31.025 29.675 30.2375C30.4625 29.45 31.25 28.55 31.8125 27.5375C32.375 26.525 32.6562 25.3438 32.5437 24.2188C32.4312 25.3438 32.0375 26.4125 31.4187 27.3125C30.8 28.2125 30.0687 29.0563 29.2812 29.8438C28.4938 30.6312 27.65 31.3625 26.8625 32.2063C26.0188 32.9375 25.2875 33.8375 24.7812 34.85Z" fill="#8D9998"/>
<path d="M24.1094 30.8C24.3344 30.1813 24.6719 29.675 25.0656 29.1688C25.4594 28.6625 25.8531 28.2125 26.3031 27.7063C26.6969 27.2 27.1469 26.6938 27.4281 26.1313C27.7656 25.5688 27.9344 24.8375 27.8219 24.2188C27.7094 24.8375 27.4281 25.4 27.0344 25.9063C26.6969 26.4125 26.2469 26.8625 25.8531 27.3687C25.4594 27.875 25.0094 28.3813 24.6719 28.9438C24.3344 29.5063 24.1094 30.1813 24.1094 30.8Z" fill="#8D9998"/>
<path d="M18.9875 15.6121C18.9875 15.6121 18.2 12.8559 19.8875 6.44337C21.575 0.0308702 3.125 3.06837 3.125 14.7684C3.125 16.0621 4.75625 16.1184 7.68125 12.5184C7.68125 12.5184 6.5 17.5809 10.2687 15.3871C10.2687 15.3871 9.65 18.9871 12.5188 17.3559C12.5188 17.3559 14.6562 16.6246 17.075 17.2996C17.075 17.2434 18.3125 16.8496 18.9875 15.6121Z" fill="#E8E8E8"/>
<path d="M18.0875 3.40617C13.1375 3.29367 4.925 7.23117 4.925 15.0499V15.1624C3.74375 15.8374 3.125 15.5562 3.125 14.7687C3.125 5.88117 13.7 1.99992 18.0875 3.40617Z" fill="#D1D1D1"/>
<path d="M15.3912 7.45703C9.3162 9.14453 8.80995 15.8945 8.80995 15.8945C7.5162 16.1758 6.9537 15.6133 6.9537 14.882C6.89745 12.407 11.0037 7.79453 15.3912 7.45703Z" fill="#D1D1D1"/>
<path d="M15.389 12.1808C9.76398 16.1746 11.8452 17.5808 11.8452 17.5808C9.59523 18.5933 9.59523 15.9496 10.1015 15.4996C11.5077 14.2058 14.4327 12.1246 15.389 12.1808Z" fill="#D1D1D1"/>
<path d="M4.75781 15.2186C5.65781 14.5436 6.38906 13.6998 7.12031 12.8561C7.85156 12.0123 8.58281 11.1686 9.37031 10.3248C10.1578 9.53734 11.0578 8.74984 12.0703 8.18734C13.0828 7.62484 14.2641 7.34359 15.3891 7.45609C14.2641 7.56859 13.1953 7.96234 12.2953 8.58109C11.3953 9.19984 10.5516 9.93109 9.76406 10.7186C8.97656 11.5061 8.24531 12.3498 7.40156 13.1373C6.61406 13.9811 5.77031 14.7123 4.75781 15.2186Z" fill="#8D9998"/>
<path d="M8.80469 15.8937C9.42344 15.6687 9.92969 15.3312 10.4359 14.9374C10.9422 14.5437 11.3922 14.1499 11.8984 13.6999C12.4047 13.3062 12.9109 12.8562 13.4734 12.5749C14.0359 12.2374 14.7672 12.0687 15.3859 12.1812C14.7672 12.2937 14.2047 12.5749 13.6984 12.9687C13.1922 13.3062 12.7422 13.7562 12.2359 14.1499C11.7297 14.5437 11.2234 14.9937 10.6609 15.3312C10.0984 15.6687 9.42344 15.8937 8.80469 15.8937Z" fill="#8D9998"/>
</svg>
