<svg width="40" height="40" viewBox="0 0 40 40" fill="none" xmlns="http://www.w3.org/2000/svg">
<g clip-path="url(#clip0_2755_4871)">
<mask id="mask0_2755_4871" style="mask-type:luminance" maskUnits="userSpaceOnUse" x="2" y="2" width="37" height="37">
<path d="M38.0156 2.01562H2.01562V38.0156H38.0156V2.01562Z" fill="white"/>
</mask>
<g mask="url(#mask0_2755_4871)">
<path d="M38.0156 2.01562H2.01562V38.0156H38.0156V2.01562Z" fill="#FF0032"/>
<path d="M12.9707 4.78516L10.3245 10.2787L7.67921 4.78516H4.78906V13.0925H6.81445V7.14735L9.40148 12.1694H11.2476L13.8355 7.14735V13.0925H15.8609V4.78516H12.9707Z" fill="white"/>
<path d="M26 4.78516V6.43915H29.6176L29.6094 13.0906H31.6347L31.6438 6.43915H35.2622V4.78516H26Z" fill="white"/>
<path d="M33.2313 32.4772C33.1804 32.8085 33.0475 33.0807 32.8345 33.2855C32.6333 33.4794 32.3602 33.6169 32.0225 33.6942C31.6885 33.7716 31.1996 33.8153 30.6816 33.8153C30.1637 33.8153 29.6694 33.7461 29.2689 33.6087C28.8802 33.4758 28.5725 33.2437 28.354 32.9187C28.1346 32.5919 28.0237 32.1204 28.0237 31.5159V30.6666C28.0237 30.0622 28.1346 29.5906 28.354 29.2639C28.5716 28.9398 28.8793 28.7077 29.268 28.5739C29.6685 28.4373 30.1437 28.3673 30.6807 28.3673C31.2178 28.3673 31.6876 28.4118 32.0215 28.4883C32.3584 28.5656 32.6324 28.7041 32.8335 28.897C33.0466 29.1028 33.1795 29.3749 33.2304 29.7063H35.2568C35.2012 29.0209 34.9672 28.4364 34.5622 27.9695C34.1917 27.5425 33.6793 27.2303 33.0402 27.0401C32.4193 26.8553 31.6038 26.7578 30.6807 26.7578C29.7103 26.7578 28.8674 26.8971 28.1766 27.173C27.4747 27.4524 26.9303 27.9185 26.5571 28.5584C26.1993 29.172 26.0119 29.9911 26 30.9943V31.0872L26.1084 31.0909L26 31.0945V31.1864C26.0128 32.1905 26.2003 33.0088 26.5571 33.6223C26.9303 34.2623 27.4747 34.7283 28.1766 35.0077C28.8674 35.2827 29.7103 35.4228 30.6807 35.4228C31.6511 35.4228 32.4193 35.3254 33.0402 35.1407C33.6793 34.9504 34.1917 34.6382 34.5622 34.2112C34.9672 33.7443 35.2012 33.1599 35.2568 32.4744H33.2295L33.2313 32.4772Z" fill="white"/>
</g>
</g>
<defs>
<clipPath id="clip0_2755_4871">
<rect width="36" height="36" fill="white" transform="translate(2 2)"/>
</clipPath>
</defs>
</svg>
