<svg width="40" height="40" viewBox="0 0 40 40" fill="none" xmlns="http://www.w3.org/2000/svg">
<g clip-path="url(#clip0_2755_4863)">
<path d="M5.09153 29C8.6796 29 10.5663 25.4851 12.2131 20.7289H12.4785C11.8151 24.8379 12.0259 29 15.9865 29C19.5474 29 21.2487 25.4585 22.7355 20.7289H23.0009C22.3102 24.7619 22.4956 29 26.5617 29C30.1224 29 32.1147 25.5364 32.8852 20.7536H30.388C30.0953 21.8127 29.5899 22.847 28.661 22.847C26.7216 22.847 27.7849 19.6928 28.6339 15.7393L29.8571 10H23.8789C23.8789 10 20.7161 22.847 18.2186 22.847C16.3847 22.847 17.288 19.3321 18.0587 15.6862L19.2566 10H13.2782C12.1622 14.2646 9.79745 22.847 7.59083 22.847C6.87284 22.847 6.68745 22.4068 6.68745 21.8392C6.68745 21.4767 6.79288 21.0896 6.92738 20.7536H1.4526C1.15995 21.8905 1 22.9761 1 24.0882C1 26.8801 2.06333 29 5.09153 29Z" fill="#E31235"/>
<path d="M36.1848 29.0003C37.7532 29.0003 39.0021 27.8104 39.0021 26.2863C39.0021 24.7621 37.7532 23.5723 36.1848 23.5723C34.6161 23.5723 33.3672 24.7603 33.3672 26.2863C33.3672 27.8121 34.6161 29.0003 36.1848 29.0003Z" fill="#E31235"/>
</g>
<defs>
<clipPath id="clip0_2755_4863">
<rect width="38" height="19" fill="white" transform="translate(1 10)"/>
</clipPath>
</defs>
</svg>
