<svg width="40" height="40" viewBox="0 0 40 40" fill="none" xmlns="http://www.w3.org/2000/svg">
<path d="M2.02111 19.3113C2.02111 11.1538 2.02111 7.08561 4.56223 4.54261C7.0821 2 11.1692 2 19.3012 2H20.7412C28.8939 2 32.9597 2 35.4801 4.54261C38 7.06396 38 11.1534 38 19.2902V20.731C38 28.8886 38 32.9568 35.4801 35.4786C32.9602 38 28.8732 38 20.7412 38H19.3012C11.1484 38 7.08263 38 4.54112 35.4786C2 32.9573 2 28.8678 2 20.731L2.02111 19.3113Z" fill="#FF7700"/>
<path d="M24.3405 17.7234C23.2394 18.8252 21.7147 19.5033 20.0207 19.5033C18.3267 19.5033 16.802 18.8253 15.7009 17.7234C14.5997 16.6216 13.922 15.096 13.922 13.4011C13.922 11.7061 14.5997 10.1805 15.7009 9.07871C16.802 7.97691 18.3267 7.29883 20.0207 7.29883C21.7147 7.29883 23.2394 7.97685 24.3405 9.07871C25.4416 10.1806 26.1193 11.7061 26.1193 13.4011C26.1193 15.096 25.4417 16.6216 24.3405 17.7234ZM20.0207 10.6465C19.2584 10.6465 18.5596 10.9644 18.0726 11.4517C17.5643 11.9602 17.2679 12.6382 17.2679 13.401C17.2679 14.1637 17.5855 14.8629 18.0726 15.3502C18.5808 15.8588 19.2584 16.1554 20.0207 16.1554C20.783 16.1554 21.4818 15.8376 21.9688 15.3502C22.477 14.8417 22.7735 14.1637 22.7735 13.401C22.7735 12.6382 22.4559 11.939 21.9688 11.4517C21.4818 10.9432 20.783 10.6465 20.0207 10.6465ZM26.4369 19.5457L28.2158 21.9824C28.3005 22.1095 28.2793 22.279 28.1734 22.3638C26.67 23.5927 24.9124 24.4191 23.0912 24.8428L26.5429 31.496C26.6488 31.6866 26.5006 31.9197 26.2888 31.9197H22.6042C22.4983 31.9197 22.3924 31.8561 22.3501 31.7502L20.0207 26.2624L17.6914 31.7502C17.6491 31.8561 17.5432 31.9197 17.4373 31.9197H13.7316C13.5198 31.9197 13.3716 31.6866 13.4775 31.496L16.9503 24.8428C15.1291 24.419 13.3715 23.5926 11.8681 22.3638C11.7622 22.279 11.741 22.1095 11.8257 21.9824L13.6256 19.5457C13.7315 19.4185 13.9221 19.3974 14.0492 19.5033C15.7433 20.9441 17.8185 21.8764 20.042 21.8764C22.2655 21.8764 24.3407 20.9441 26.0348 19.5033C26.1407 19.3762 26.3313 19.3974 26.4372 19.5457H26.4369Z" fill="white"/>
</svg>
