<svg width="40" height="40" viewBox="0 0 40 40" fill="none" xmlns="http://www.w3.org/2000/svg">
<g clip-path="url(#clip0_2755_4879)">
<mask id="mask0_2755_4879" style="mask-type:luminance" maskUnits="userSpaceOnUse" x="2" y="2" width="36" height="36">
<path d="M30.8025 37.9921H9.22469C5.25117 37.9921 2.03125 34.7707 2.03125 30.7979V9.21036C2.03125 5.23505 5.25117 2.01367 9.22469 2.01367H30.8025C34.776 2.01367 37.9959 5.23505 37.9959 9.21036V30.7979C37.9934 34.7707 34.7734 37.9921 30.8025 37.9921Z" fill="white"/>
</mask>
<g mask="url(#mask0_2755_4879)">
<path d="M37.9934 2.01367H2.03125V37.9921H37.9934V2.01367Z" fill="#005BFF"/>
</g>
<mask id="mask1_2755_4879" style="mask-type:luminance" maskUnits="userSpaceOnUse" x="2" y="2" width="36" height="36">
<path d="M30.8025 2.01367H9.22469C5.25117 2.01367 2.03125 5.23505 2.03125 9.21036V30.7979C2.03125 34.7707 5.25117 37.9921 9.22469 37.9921H30.8025C34.7734 37.9921 37.9934 34.7707 37.9959 30.7979V9.21036C37.9959 5.23505 34.776 2.01367 30.8025 2.01367Z" fill="white"/>
</mask>
<g mask="url(#mask1_2755_4879)">
<path d="M41.9748 32.8388C39.2423 35.2978 36.0922 38.9272 32.1351 38.7844C31.0698 38.0662 32.7544 36.6661 33.2943 36.0602C35.0191 34.1246 36.7206 32.0585 38.3972 29.9526C44.4283 22.3769 42.454 26.5997 41.9748 32.8388Z" fill="#F1117E"/>
<path d="M34.96 -4.42164C32.2682 1.73558 28.9678 7.85214 24.3108 12.7719C21.0884 16.1761 18.8449 18.7184 14.8689 21.7779C10.2697 25.317 5.77001 28.0757 1.41359 31.8285C-0.888519 33.9489 -3.60267 35.7025 -6.53125 36.9483C-6.51331 37.1872 -6.26719 40.6421 -6.25957 40.6878C-6.21897 40.6649 -5.40448 40.01 -5.24209 39.8907C1.63101 35.1085 9.53369 31.8949 16.2618 26.7736C24.5405 19.8066 31.4745 11.192 37.3959 2.16341C42.785 -5.36415 46.3192 -5.49098 34.96 -4.42164Z" fill="#F1117E"/>
<path d="M8.61206 3.91776C7.00591 5.61857 5.43782 7.32191 3.86719 9.05826C3.01209 10.0077 2.24073 11.0307 1.39579 11.9953C-0.113942 13.719 -1.67696 15.4223 -3.46073 16.8312C-5.26987 18.2578 -7.21603 19.6997 -9.0607 21.0807C-9.06577 20.9766 -9.28399 16.1382 -9.28906 16.029C-8.50755 14.7039 -7.72097 13.2037 -7.13991 11.7643C-6.79737 10.9139 -6.49542 10.0204 -6.15034 9.16995C-5.49062 7.53261 -4.62538 6.03488 -3.35162 4.84178C-2.64116 4.17415 -1.82413 3.70199 -0.984259 3.25267C1.53535 1.90218 4.05242 0.528844 6.5771 -0.808954C8.08176 -1.60859 9.22103 -3.00223 10.5633 -4.05572L15.8892 -4.29688C13.4711 -1.54258 11.1317 1.24978 8.61206 3.91776Z" fill="#F1117E"/>
<path d="M20.2911 42.6418C22.2954 40.6059 29.3177 35.8765 28.1988 35.2283C28.098 35.17 27.9735 35.1701 27.8688 35.2208C24.0121 37.086 20.4117 39.7362 17.702 43.0966C17.6321 43.1833 17.527 43.2337 17.4156 43.2325C16.7811 43.226 14.7299 43.203 13.414 43.1884C13.0624 43.1845 12.9215 42.7324 13.2086 42.5293C13.4314 42.3717 13.6158 42.2377 13.7198 42.1605C16.8977 39.7094 20.4377 37.8696 23.8675 35.8698C27.9795 33.4722 31.5445 30.2397 34.3348 26.3824C35.6182 24.6083 36.9268 22.8561 38.4596 21.3037C38.4761 21.287 38.4943 21.2721 38.5137 21.2589C42.7928 18.3493 43.9766 9.64798 49.8794 6.57316C50.1233 6.44613 50.414 6.62319 50.4117 6.89826C50.3922 9.13669 47.4352 10.9567 47.2413 13.2536C47.2394 13.2762 47.2356 13.2986 47.2296 13.3205C44.9349 21.6682 36.8481 27.3304 33.0103 31.6885C30.7307 34.2771 28.0275 39.4274 24.9205 42.8659C24.8864 42.9037 24.8608 42.9482 24.8449 42.9966C24.6895 43.4702 21.9082 43.3067 20.5377 43.258C20.2228 43.2469 20.07 42.8664 20.2911 42.6418Z" fill="#F1117E"/>
<path d="M-8.03906 44.2305C-0.345015 38.919 8.85223 36.1545 16.3884 30.6791C20.7538 26.9216 24.093 22.0141 28.5202 18.3607C29.7436 17.6233 29.4003 18.7423 29.0031 19.4675C24.5564 28.3901 15.6778 33.5098 7.40486 38.4041C1.43859 42.221 0.250222 45.4029 -8.03906 44.2305Z" fill="#F1117E"/>
<path d="M44.957 7.63951C51.6362 4.32176 49.9028 0.817179 49.038 -5.87891C45.5474 -3.39853 43.3519 -0.593831 40.686 2.67888C32.8003 11.8089 30.0065 25.1702 19.3207 32.0033C13.8337 35.1967 9.3988 39.7385 4.71094 43.9473C5.77057 43.5745 11.7136 44.1966 12.0136 42.5613C13.415 40.1909 14.9444 38.3098 17.52 37.1928C22.3516 34.6551 26.5205 31.0516 30.7598 27.6502C36.5766 21.8937 36.5814 11.0375 44.957 7.63951Z" fill="#F1117E"/>
<path d="M34.1743 -4.39814C29.9292 3.29552 22.149 11.1585 14.2815 17.046C11.2179 19.3386 7.66103 20.8762 3.89796 21.5667C1.02697 22.0936 -0.224601 22.9312 -4.32756 26.3794C-5.74608 27.8588 -6.50983 29.2321 -7.73538 31.5955C-7.73792 31.5142 -8.07031 24.2236 -8.07031 24.2236C-4.80625 19.775 0.184407 17.8455 3.96455 14.0545C7.08163 10.7982 9.2572 6.71461 12.1323 3.24797C13.5679 1.42242 18.1185 -2.69527 18.9755 -3.71036C18.9856 -3.7102 23.6848 -3.92343 23.6848 -3.92343C21.5367 -1.20139 19.3488 1.39618 14.8098 6.77016C14.2637 7.41672 9.75312 12.0631 8.10436 14.6194C7.56754 15.4517 7.20393 16.298 7.60902 16.6138C8.03813 16.9483 8.64239 16.392 9.61956 15.7812C15.2268 12.2761 19.1467 8.96748 23.6875 3.30899C31.0381 -5.85084 25.4039 -5.03646 34.1743 -4.39814Z" fill="#F1117E"/>
</g>
<mask id="mask2_2755_4879" style="mask-type:luminance" maskUnits="userSpaceOnUse" x="2" y="2" width="36" height="36">
<path d="M30.8025 2.01367H9.22469C5.25117 2.01367 2.03125 5.23505 2.03125 9.21036V30.7979C2.03125 34.7707 5.25117 37.9921 9.22469 37.9921H30.8025C34.7734 37.9921 37.9934 34.7707 37.9959 30.7979V9.21036C37.9959 5.23505 34.776 2.01367 30.8025 2.01367Z" fill="white"/>
</mask>
<g mask="url(#mask2_2755_4879)">
<path d="M17.1022 22.7427L13.929 23.5933L16.5437 17.141C16.6011 16.997 16.531 16.8338 16.387 16.7764C16.3314 16.7542 16.2703 16.7504 16.2124 16.7655L10.3498 18.3371C9.83237 18.4758 9.52524 19.008 9.66389 19.5257C9.80255 20.0434 10.3345 20.3507 10.852 20.2119L13.4882 19.5052L10.859 25.9641C10.7995 26.1057 10.8659 26.2687 11.0073 26.3282C11.0653 26.3527 11.1299 26.3566 11.1903 26.3396L17.605 24.62C18.1146 24.4546 18.3936 23.9072 18.2282 23.3974C18.0749 22.9247 17.5894 22.6443 17.1035 22.7478L17.1022 22.7427ZM36.0363 11.4513C35.5188 11.59 35.2117 12.1222 35.3504 12.6399L36.1925 15.7841L30.0507 13.1211C29.9107 13.058 29.7462 13.1205 29.6833 13.2606C29.6567 13.3197 29.6516 13.3863 29.6689 13.4488L31.3999 19.9119C31.5386 20.4296 32.0705 20.7368 32.588 20.5981C33.1055 20.4594 33.4126 19.9273 33.274 19.4096L32.4319 16.2654L38.5743 18.9309C38.7168 18.9918 38.8816 18.9254 38.9423 18.7828C38.9668 18.7253 38.9714 18.6611 38.9553 18.6007L37.2243 12.1376C37.0857 11.6199 36.5538 11.3126 36.0363 11.4513ZM24.2379 21.0199C22.0955 21.5942 20.1898 20.8939 19.9191 19.883C19.6483 18.8721 20.9487 17.3125 23.0912 16.7382C25.2336 16.1639 27.1393 16.8641 27.41 17.8749C27.6808 18.8858 26.3854 20.4442 24.2379 21.0199ZM22.5897 14.8658C19.4875 15.6975 17.4538 18.1679 18.0476 20.3847C18.6413 22.6016 21.6372 23.7238 24.7394 22.8922C27.8416 22.0606 29.8752 19.5901 29.2814 17.3733C28.6877 15.1564 25.6919 14.0342 22.5897 14.8658ZM5.79494 25.9666C4.61211 26.2852 3.39506 25.5842 3.07656 24.4007C2.75817 23.2174 3.4589 21.9998 4.64175 21.6812C5.82457 21.3626 7.04162 22.0637 7.3601 23.247L7.36078 23.2496C7.67757 24.4324 6.97684 25.6483 5.79494 25.9666ZM4.14603 19.8101C1.92885 20.4029 0.611825 22.6817 1.20446 24.8999C1.79704 27.1181 4.07483 28.4357 6.29201 27.8429C8.50917 27.25 9.82622 24.9712 9.23356 22.753C9.2331 22.7513 9.23265 22.7496 9.2322 22.7479C8.6386 20.5315 6.36147 19.2162 4.14603 19.8101Z" fill="white"/>
</g>
</g>
<defs>
<clipPath id="clip0_2755_4879">
<rect width="36" height="36" fill="white" transform="translate(2 2)"/>
</clipPath>
</defs>
</svg>
