<svg width="40" height="40" viewBox="0 0 40 40" fill="none" xmlns="http://www.w3.org/2000/svg">
<g clip-path="url(#clip0_2704_4884)">
<path d="M29.2135 24.6509C24.1291 29.8358 15.887 29.8358 10.8133 24.6509C5.7289 19.4659 5.7289 11.0608 10.8133 5.88677C15.8977 0.701807 24.1398 0.701807 29.2135 5.88677C34.2979 11.0717 34.2979 19.4768 29.2135 24.6509Z" fill="white"/>
<path d="M27.2553 5.41812C25.2323 3.86809 22.7275 2.95117 20.0194 2.95117C13.3508 2.96209 7.94531 8.47452 7.94531 15.2641C7.94531 18.0039 8.82304 20.5255 10.3002 22.5667C18.4138 20.1652 24.8255 13.6704 27.2553 5.41812Z" fill="#EB1D39"/>
<path d="M30.1427 8.57227C30.3889 9.38003 30.5174 10.2315 30.5174 11.1156C30.5174 13.9755 29.1366 16.4862 27.0493 18.058C23.3992 20.7979 18.09 20.7979 10.7578 23.1557C12.9735 25.8518 16.3025 27.5765 20.0168 27.5765C26.6854 27.5765 32.0909 22.0641 32.0909 15.2636C32.0802 12.7966 31.3737 10.5043 30.1427 8.57227Z" fill="#005891"/>
<path d="M12.2707 36.5387C12.3028 36.5387 12.3456 36.5387 12.3778 36.5387C12.9451 36.5387 13.4696 36.3204 13.8656 35.9165C14.2617 35.5018 14.4864 34.9451 14.4864 34.3338C14.4864 33.0675 13.5338 32.0742 12.3135 32.0742C11.3181 32.0742 10.4832 32.7401 10.2263 33.7334C10.1834 33.8971 10.1406 34.3338 10.1406 34.7595V37.9032C10.1406 37.9578 10.1834 38.0014 10.237 38.0014H10.7829C10.8364 38.0014 10.8899 37.9578 10.8899 37.9032V35.9275L10.922 35.9602C11.1789 36.2113 11.682 36.506 12.2707 36.5387ZM12.3028 32.8274C13.0842 32.8274 13.6944 33.4823 13.6944 34.3229C13.6944 35.1634 13.1163 35.8074 12.3456 35.8074C11.9496 35.8074 11.5964 35.6655 11.3288 35.4035C11.0505 35.1415 10.9006 34.7595 10.9006 34.3447C10.9006 33.5151 11.5321 32.8274 12.3028 32.8274Z" fill="#005891"/>
<path d="M19.3799 34.2238C19.3799 34.1692 19.3692 34.1037 19.3585 34.0273C19.3371 33.8963 19.3157 33.7653 19.2729 33.6344C18.9732 32.6738 18.1811 32.0625 17.2391 32.0625C17.1428 32.0625 17.0464 32.0734 16.9501 32.0843C15.7513 32.2372 14.9378 33.3506 15.0983 34.6059C15.2375 35.7411 16.1473 36.527 17.2391 36.527C17.3247 36.527 17.4211 36.5161 17.5281 36.5052C18.1168 36.4288 18.6199 36.1777 19.0053 35.6974C19.0267 35.6647 19.0374 35.6319 19.0374 35.5992C19.0374 35.5774 19.016 35.5446 18.9839 35.5228C18.9196 35.4791 18.6949 35.359 18.5664 35.3045C18.5236 35.2826 18.5022 35.2717 18.4808 35.2608C18.438 35.239 18.4166 35.2281 18.3951 35.2281C18.363 35.2281 18.3309 35.239 18.3095 35.2826C18.0633 35.5774 17.7529 35.7302 17.4318 35.7738C17.3676 35.7848 17.3033 35.7848 17.2498 35.7848C16.6611 35.7848 16.0724 35.3918 15.9118 34.846V34.8351L15.9225 34.8242C15.9546 34.8133 16.2222 34.6823 16.629 34.6823C16.6825 34.6823 16.7253 34.6823 16.7788 34.6932C16.8966 34.7041 17.0143 34.715 17.1321 34.7368C17.3569 34.7696 17.5923 34.8023 17.8707 34.8023C18.0419 34.8023 18.2025 34.7914 18.3737 34.7696C19.0374 34.6386 19.305 34.4421 19.305 34.4421C19.3906 34.3766 19.3799 34.3221 19.3799 34.2238ZM18.6199 33.9509C18.5129 33.9837 18.363 34.0164 18.1704 34.0382C18.0847 34.0492 17.9884 34.0601 17.8707 34.0601C17.678 34.0601 17.4639 34.0492 17.2605 34.0273H17.2498C17.0571 34.0164 16.8859 33.9946 16.7146 33.9946C16.5862 33.9946 16.4791 34.0055 16.3721 34.0164C16.051 34.0601 15.7941 34.1583 15.7941 34.1583V34.1365C15.8583 33.4815 16.3935 32.9248 17.0571 32.8266C17.1214 32.8157 17.1749 32.8157 17.2391 32.8157C17.8492 32.8157 18.4487 33.296 18.6306 33.9291L18.6413 33.9509H18.6199Z" fill="#005891"/>
<path d="M22.1174 36.5387C22.1495 36.5387 22.1923 36.5387 22.2244 36.5387C22.7917 36.5387 23.3162 36.3204 23.7123 35.9165C24.1083 35.5018 24.3224 34.9451 24.3224 34.3338C24.3224 33.0675 23.3697 32.0742 22.1495 32.0742C21.154 32.0742 20.3191 32.7401 20.0622 33.7334C20.0194 33.8971 19.9766 34.3338 19.9766 34.7595V37.9032C19.9766 37.9578 20.0194 38.0014 20.0729 38.0014H20.6188C20.6723 38.0014 20.7258 37.9578 20.7258 37.9032V35.9275L20.758 35.9602C21.0256 36.2113 21.5179 36.506 22.1174 36.5387ZM22.1388 32.8274C22.9202 32.8274 23.541 33.4823 23.541 34.3229C23.541 35.1634 22.9523 35.8074 22.1816 35.8074C21.7962 35.8074 21.4323 35.6655 21.1647 35.4035C20.8864 35.1415 20.7365 34.7595 20.7365 34.3447C20.7473 33.5151 21.3681 32.8274 22.1388 32.8274Z" fill="#005891"/>
<path d="M24.8488 35.8276C25.3305 36.2752 25.8443 36.5262 26.5293 36.5262H26.5507C27.7175 36.5153 28.242 35.8713 28.242 35.2273C28.242 34.3431 27.4178 34.1029 27.1716 34.0484C27.0859 34.0265 27.011 34.0156 26.9147 33.9938C26.7113 33.9501 26.4972 33.9174 26.3046 33.8519C26.1761 33.8191 25.7372 33.6663 25.7372 33.3279C25.7372 32.9568 26.1333 32.7603 26.5079 32.7603C26.8291 32.7603 27.0859 32.8149 27.4285 33.0769C27.4499 33.0987 27.4927 33.1205 27.5355 33.1205C27.5676 33.1205 27.5997 33.1096 27.6318 33.0769C27.7282 33.0114 27.8994 32.8585 28.0065 32.7494C28.0386 32.7166 28.0493 32.6948 28.0493 32.6621C28.0493 32.6184 28.0065 32.5747 27.9958 32.5638C27.5462 32.2036 27.1074 32.0508 26.4972 32.0508C25.6195 32.0508 24.9559 32.6293 24.9559 33.3825C24.9559 33.9829 25.4482 34.4086 26.326 34.5941L26.8719 34.7033C27.2358 34.7688 27.4392 34.9653 27.4285 35.2382C27.4178 35.5111 27.0967 35.784 26.5722 35.784C26.144 35.784 25.7587 35.6093 25.4375 35.3146C25.4161 35.2927 25.384 35.2709 25.3519 35.2709C25.3305 35.2709 25.2984 35.2818 25.277 35.3037C25.2449 35.3364 24.8702 35.6311 24.8381 35.6748C24.8167 35.6966 24.806 35.7185 24.8167 35.7403C24.806 35.784 24.8381 35.8167 24.8488 35.8276Z" fill="#005891"/>
<path d="M29.8274 32.3248C29.8274 32.2702 29.7846 32.2266 29.7311 32.2266H29.1745C29.1209 32.2266 29.0781 32.2702 29.0781 32.3248V36.3309C29.0781 36.3854 29.1209 36.4291 29.1745 36.4291H29.7311C29.7846 36.4291 29.8274 36.3854 29.8274 36.3309V32.3248Z" fill="#005891"/>
<path d="M29.4455 30.7852C29.1779 30.7852 28.9531 31.0144 28.9531 31.2982C28.9531 31.582 29.1779 31.8112 29.4455 31.8112C29.7238 31.8112 29.9486 31.582 29.9486 31.2982C29.9486 31.0144 29.7238 30.7852 29.4455 30.7852Z" fill="#005891"/>
</g>
<defs>
<clipPath id="clip0_2704_4884">
<rect width="26" height="36" fill="white" transform="translate(7 2)"/>
</clipPath>
</defs>
</svg>
