<svg width="40" height="40" viewBox="0 0 40 40" fill="none" xmlns="http://www.w3.org/2000/svg">
<path d="M29.8738 7.66461C27.6733 13.383 21.8308 12.6431 17.7115 12.7863L16.7091 16.6861C21.7926 12.5429 28.5086 16.6527 27.7926 22.9009C27.3105 27.1109 24.3081 29.8651 21.1339 30.6575C17.6733 31.5214 13.8404 30.2279 12.122 26.7052C11.9406 26.3329 11.6208 25.5882 11.5015 25.1873L15.1482 24.2517C15.2103 24.4618 15.3201 24.667 15.4346 24.8484C17.8785 28.7863 22.8237 26.815 23.3869 22.7291C23.9549 18.5715 18.122 16.3567 15.4633 21.2159L12.227 19.8365L12.1697 19.8126L13.3726 14.9773C13.5635 14.1181 14.1363 11.8699 14.2031 11.6551C14.3081 11.3209 14.3272 11.2064 14.4466 10.9009C16.5277 5.45459 20.6279 4.90566 24.27 4.90566C24.4179 4.90566 24.5611 4.90566 24.7043 4.91044C23.2198 4.44743 21.6399 4.19922 20.0026 4.19922C11.2771 4.19922 4.20312 11.2732 4.20312 19.9987C4.20312 28.7243 11.2771 35.7983 20.0026 35.7983C28.7282 35.7983 35.8022 28.7243 35.8022 19.9987C35.8022 15.0107 33.4871 10.562 29.8738 7.66461Z" fill="#EB2316"/>
<path d="M28.4357 6.60156C27.8247 8.5061 26.7555 9.69941 25.104 10.3438C23.3856 11.0121 21.2949 11.0312 19.271 11.0455C18.1827 11.055 17.1422 11.0646 16.1875 11.1791C17.9059 7.03116 20.9846 6.62543 24.2734 6.62543C24.7317 6.62543 25.1899 6.63498 25.6338 6.64452C26.0777 6.65407 26.4978 6.66361 26.913 6.66361C27.5049 6.65884 27.9966 6.63975 28.4357 6.60156Z" fill="#008F32"/>
</svg>
