<svg width="40" height="40" viewBox="0 0 40 40" fill="none" xmlns="http://www.w3.org/2000/svg">
<path fill-rule="evenodd" clip-rule="evenodd" d="M23.1337 2.88254L20.976 15.8441C20.9251 16.1522 20.5929 16.2915 20.3028 16.1783L13.8197 13.6722C13.0165 13.3628 12.7479 12.7599 12.8591 12.0948L14.2411 3.79962C14.3509 3.1344 14.7997 2.6508 15.6599 2.61726L22.6058 2.34795C22.9166 2.33595 23.1853 2.57433 23.1337 2.88254ZM4.52039 12.2147L16.1938 18.2463C16.4711 18.3883 16.5019 18.7473 16.3056 18.9891L11.9306 24.3897C11.3901 25.059 10.7335 25.1306 10.134 24.8204L2.66348 20.9599C2.06464 20.6498 1.74174 20.075 1.9742 19.2457L3.84919 12.5529C3.93293 12.2521 4.24306 12.0706 4.52039 12.2147ZM7.64341 32.7485L17.0003 23.5229C17.2227 23.3039 17.5723 23.3863 17.7418 23.6475L21.5186 29.4822C21.9862 30.2043 21.8495 30.8501 21.3692 31.3237L15.3819 37.228C14.9015 37.7016 14.2544 37.8289 13.5376 37.3505L7.75796 33.4907C7.49871 33.3186 7.42168 32.9676 7.64341 32.7485ZM28.2476 36.0952L22.2964 24.3797C22.1551 24.101 22.3392 23.7929 22.64 23.7105L29.3449 21.8824C30.1762 21.6559 30.7503 21.9822 31.0557 22.5837L34.864 30.081C35.1688 30.6826 35.0944 31.3377 34.4219 31.875L28.9898 36.2124C28.746 36.4067 28.389 36.3732 28.2476 36.0952ZM37.7231 17.6976L24.7294 19.649C24.4199 19.6959 24.1854 19.4233 24.2029 19.1131L24.584 12.1724C24.6303 11.313 25.1213 10.8715 25.7885 10.7704L34.1037 9.52309C34.7709 9.42262 35.3698 9.70053 35.6665 10.5084L38.068 17.0304C38.1759 17.3231 38.0319 17.6521 37.7231 17.6976Z" fill="#F9AA24"/>
</svg>
