<svg width="40" height="40" viewBox="0 0 40 40" fill="none" xmlns="http://www.w3.org/2000/svg">
<g clip-path="url(#clip0_2704_7295)">
<path d="M29.3076 8.6641C28.4329 7.00149 27.0634 5.61619 25.3669 4.61133C23.6712 3.61092 21.6242 3.00005 19.4026 3.00005C16.6641 2.99327 14.3889 3.70674 12.6717 4.6948C10.9477 5.67934 10.2043 6.82565 10.2043 6.82565C9.9146 7.07706 9.75118 7.44282 9.75802 7.82546C9.76585 8.20862 9.9423 8.56828 10.241 8.80721L12.6272 10.7184C13.1135 11.1078 13.8096 11.0932 14.279 10.684C14.279 10.684 14.5721 10.1542 15.4907 9.62945C16.4144 9.10816 17.6121 8.68827 19.4026 8.68263C20.9643 8.67924 22.3259 9.26202 23.2552 10.0584C23.7169 10.4529 24.0617 10.8947 24.2731 11.2988C24.4861 11.7063 24.5639 12.0625 24.5628 12.333C24.5583 13.2472 24.3807 13.8451 24.1243 14.3546C23.9288 14.735 23.6735 15.0726 23.3449 15.4001C22.8545 15.8904 22.1895 16.3435 21.4434 16.76C20.6967 17.1816 19.8918 17.5524 19.0785 18.0005C18.1503 18.5145 17.168 19.2528 16.4421 20.3608C16.0803 20.9086 15.7973 21.5353 15.6176 22.1964C15.4356 22.858 15.3533 23.5519 15.3533 24.2597C15.3533 25.0148 15.3533 25.6348 15.3533 25.6348C15.3533 26.3466 15.9304 26.9238 16.6423 26.9238H19.7476C20.4594 26.9238 21.0365 26.3466 21.0365 25.6348C21.0365 25.6348 21.0365 25.0148 21.0365 24.2597C21.0365 23.9869 21.0675 23.8111 21.0974 23.6995C21.1488 23.5327 21.1775 23.491 21.2614 23.3895C21.3471 23.2931 21.5201 23.1455 21.839 22.9691C22.3051 22.707 23.0541 22.3531 23.9023 21.8949C25.172 21.2005 26.7157 20.2582 28.0176 18.7033C28.6652 17.9272 29.2378 16.9928 29.6328 15.9163C30.0313 14.8399 30.2465 13.6299 30.2455 12.333C30.2443 11.0193 29.8881 9.77149 29.3076 8.6641Z" fill="#73DB73"/>
<path d="M18.193 29.9902C16.2571 29.9902 14.6875 31.5603 14.6875 33.4957C14.6875 35.4305 16.2571 37.0001 18.193 37.0001C20.1278 37.0001 21.6967 35.4305 21.6967 33.4957C21.6967 31.5603 20.1278 29.9902 18.193 29.9902Z" fill="#73DB73"/>
</g>
<defs>
<clipPath id="clip0_2704_7295">
<rect width="34" height="34" fill="white" transform="translate(3 3)"/>
</clipPath>
</defs>
</svg>
