<svg width="40" height="40" viewBox="0 0 40 40" fill="none" xmlns="http://www.w3.org/2000/svg">
<g clip-path="url(#clip0_2784_4821)">
<path d="M20.0002 19.1518C21.102 19.1518 21.9978 19.4329 21.9978 19.7835C21.9978 20.134 21.1041 20.4151 20.0002 20.4151C18.8963 20.4151 18.0026 20.1351 18.0026 19.7835C18.0026 19.4318 18.8952 19.1518 20.0002 19.1518ZM15.637 13.527C15.6903 13.5263 15.7433 13.5189 15.7947 13.5049L17.6062 19.6708C17.8081 20.3593 18.809 20.8804 20.0128 20.8804C21.2166 20.8804 22.2207 20.354 22.4194 19.6708L24.2288 13.5102C24.3574 13.5387 24.4917 13.5266 24.6131 13.4755C24.7345 13.4244 24.8371 13.3368 24.9066 13.2248C24.9762 13.1128 25.0093 12.982 25.0015 12.8504C24.9936 12.7187 24.9451 12.5928 24.8627 12.4899C24.7803 12.387 24.6681 12.3123 24.5414 12.276C24.4148 12.2397 24.2801 12.2437 24.1558 12.2874C24.0315 12.3311 23.9239 12.4124 23.8477 12.5199C23.7715 12.6275 23.7305 12.7561 23.7305 12.888C23.7298 13.0084 23.7635 13.1264 23.8275 13.2282C23.8916 13.3301 23.9834 13.4114 24.0921 13.4628L21.9894 17.9664L22.3321 11.8932H22.3469C22.5064 11.8929 22.6599 11.8321 22.7764 11.7231C22.893 11.614 22.964 11.4648 22.9751 11.3055C22.9862 11.1462 22.9366 10.9885 22.8363 10.8643C22.736 10.7401 22.5924 10.6586 22.4345 10.6361C22.2766 10.6137 22.116 10.652 21.9851 10.7433C21.8543 10.8346 21.7628 10.9722 21.7292 11.1283C21.6955 11.2845 21.7222 11.4476 21.8039 11.5848C21.8855 11.722 22.016 11.8232 22.1692 11.8679L20.773 17.799L20.1053 11.2678C20.2652 11.2452 20.4106 11.1627 20.5122 11.0369C20.6137 10.9112 20.6639 10.7516 20.6526 10.5903C20.6412 10.4289 20.5692 10.2779 20.4511 10.1677C20.333 10.0574 20.1775 9.99609 20.016 9.99609C19.8545 9.99609 19.699 10.0574 19.5808 10.1677C19.4627 10.2779 19.3907 10.4289 19.3794 10.5903C19.368 10.7516 19.4182 10.9112 19.5197 11.0369C19.6213 11.1627 19.7667 11.2452 19.9266 11.2678L19.2548 17.7948L17.8617 11.8763C18.017 11.839 18.1524 11.7441 18.2405 11.6108C18.3287 11.4774 18.363 11.3156 18.3367 11.1579C18.3103 11.0001 18.2252 10.8583 18.0985 10.761C17.9718 10.6636 17.8129 10.618 17.654 10.6334C17.495 10.6487 17.3478 10.7239 17.242 10.8436C17.1362 10.9634 17.0797 11.1189 17.0839 11.2788C17.0881 11.4386 17.1527 11.5909 17.2647 11.7049C17.3766 11.819 17.5276 11.8862 17.6872 11.8932H17.6956L18.0331 17.9591L15.9303 13.4502C16.0671 13.3788 16.173 13.2597 16.228 13.1154C16.283 12.9711 16.2833 12.8117 16.2289 12.6672C16.1744 12.5227 16.069 12.4032 15.9326 12.3312C15.7961 12.2593 15.638 12.2399 15.4882 12.2767C15.3385 12.3135 15.2073 12.404 15.1197 12.531C15.032 12.6581 14.9938 12.8129 15.0124 12.9662C15.031 13.1195 15.105 13.2607 15.2205 13.363C15.336 13.4654 15.4849 13.5219 15.6391 13.5217" fill="#9B7A33"/>
<path d="M14.3412 28.62C14.2383 28.7752 14.1096 28.9116 13.9606 29.0232C13.7281 29.2131 13.4412 29.3237 13.1415 29.339C13.0252 29.3515 12.9078 29.3515 12.7914 29.339C12.4918 29.3238 12.2048 29.2131 11.9724 29.0232C11.8231 28.912 11.6943 28.7755 11.5918 28.62C11.2161 28.0661 11.0214 27.4092 11.0346 26.7398C11.0247 26.1078 11.197 25.4865 11.5308 24.9501C11.705 24.6402 11.9762 24.3964 12.3026 24.2564H12.3099C12.3257 24.25 12.3415 24.2437 12.3583 24.2385C12.4017 24.2199 12.4463 24.2041 12.4918 24.1911C12.8008 24.1012 13.129 24.1012 13.438 24.1911C13.4833 24.2042 13.5279 24.2196 13.5716 24.2374L13.6199 24.2564H13.6273C13.9534 24.3968 14.2245 24.6405 14.399 24.9501C14.733 25.4864 14.9053 26.1078 14.8952 26.7398C14.9085 27.4093 14.7134 28.0664 14.337 28.62M12.9628 23.4668C11.1376 23.4668 9.65625 24.9512 9.65625 26.7303C9.65625 28.5094 11.1366 29.9938 12.9628 29.9938C14.789 29.9938 16.2694 28.5105 16.2694 26.7303C16.2694 24.9501 14.789 23.4668 12.9628 23.4668Z" fill="#00623E"/>
<path d="M22.8263 27.4125H22.3668V28.3337C22.3602 28.5997 22.2502 28.8525 22.06 29.0384C21.8699 29.2242 21.6148 29.3283 21.3491 29.3285H19.4104V24.1564H20.2967V23.6953H17.1016V24.1564H17.9889V29.3296H17.1016V29.7896H22.8284V28.2842L22.8263 27.4125Z" fill="#00623E"/>
<path d="M29.8134 23.6985H23.7891V24.1596H24.6585V29.3338H23.7891V29.7907H29.845V27.601H29.3845V28.3274C29.3811 28.5957 29.2723 28.852 29.0816 29.0405C28.8909 29.2291 28.6337 29.3349 28.3657 29.3349H26.0842V26.7662H26.8149C27.0132 26.7678 27.2028 26.8479 27.3424 26.9888C27.482 27.1298 27.5603 27.3203 27.5603 27.5189C27.5603 27.5241 27.5603 27.5305 27.5603 27.5357V27.8726H27.9809V25.3218H27.5603V25.6176C27.5603 25.6176 27.5603 25.6292 27.5603 25.6345C27.5594 25.7307 27.5392 25.8258 27.5009 25.9141C27.4626 26.0023 27.4071 26.082 27.3374 26.1484C27.2678 26.2148 27.1856 26.2665 27.0957 26.3004C27.0057 26.3344 26.9099 26.3499 26.8139 26.3461H26.0832V24.1596H28.3688C28.6359 24.1609 28.8918 24.2673 29.0814 24.4557C29.271 24.6442 29.3791 24.8996 29.3824 25.167V25.7903H29.8429V23.6953L29.8134 23.6985Z" fill="#00623E"/>
<path d="M37.7021 29.3532C37.2606 29.3416 37.1565 29.2048 36.8148 28.8131L34.7993 26.3013L36.1324 24.7074C36.491 24.2969 36.5898 24.1569 37.0492 24.1484H37.3962V23.7031H34.9412V24.1484H35.4827C35.5385 24.1484 35.5919 24.1706 35.6314 24.2101C35.6708 24.2496 35.693 24.3031 35.693 24.359C35.6929 24.4026 35.6789 24.445 35.653 24.48L34.4713 25.896L33.5429 24.738L33.3505 24.4906C33.3265 24.4598 33.3116 24.423 33.3073 24.3842C33.303 24.3454 33.3096 24.3062 33.3262 24.2709C33.3429 24.2356 33.3691 24.2057 33.4018 24.1844C33.4345 24.1632 33.4724 24.1515 33.5114 24.1505H34.0371V23.7052H30.965V24.1505H31.1111C31.5033 24.1695 31.6157 24.3032 31.9249 24.6559L33.7122 26.8782L32.1067 28.7984C31.7482 29.2079 31.6504 29.349 31.1878 29.3574H30.8125V29.8017H33.4409V29.3574H32.7933C32.754 29.3568 32.7157 29.3453 32.6827 29.324C32.6497 29.3028 32.6233 29.2728 32.6064 29.2373C32.5896 29.2018 32.583 29.1623 32.5874 29.1232C32.5918 29.0842 32.607 29.0471 32.6314 29.0163L34.057 27.3109L35.243 28.7847L35.4228 29.0111C35.4468 29.042 35.4618 29.079 35.466 29.118C35.4702 29.1569 35.4635 29.1963 35.4465 29.2316C35.4296 29.267 35.4032 29.2969 35.3702 29.318C35.3372 29.3391 35.2989 29.3506 35.2598 29.3511H34.691V29.7953H38.0028V29.3511L37.7021 29.3532Z" fill="#00623E"/>
<path d="M5.77968 26.3753H4.29725V24.1456H5.77863C6.41681 24.1709 6.92567 24.6141 6.92567 25.2594C6.92567 25.9047 6.41681 26.3479 5.77968 26.3753ZM8.61838 29.323L8.21571 28.1513C8.02751 27.6249 7.89399 27.3965 7.5996 27.1259C7.40366 26.9736 7.17691 26.8658 6.93514 26.8101C7.32622 26.7488 7.67972 26.5417 7.92483 26.2305C8.16994 25.9192 8.28855 25.5268 8.25691 25.1317C8.22527 24.7366 8.04571 24.368 7.7542 24.0999C7.46269 23.8317 7.08076 23.6837 6.68491 23.6856H2.01682V24.1425H2.87264V29.3219H2V29.7915H5.16883V29.3304H4.29409V26.8438H5.17619C5.37044 26.8504 5.56318 26.8805 5.75024 26.9333C5.90248 26.9666 6.04885 27.0227 6.18446 27.0996C6.37174 27.2176 6.52674 27.3804 6.6355 27.5733C6.67229 27.6365 6.70489 27.7007 6.74063 27.766C6.99927 28.2545 7.15487 28.9293 7.3273 29.7883H9.31754V29.3272L8.61838 29.323Z" fill="#00623E"/>
</g>
<defs>
<clipPath id="clip0_2784_4821">
<rect width="36" height="20" fill="white" transform="translate(2 10)"/>
</clipPath>
</defs>
</svg>
