<svg width="40" height="40" viewBox="0 0 40 40" fill="none" xmlns="http://www.w3.org/2000/svg">
<path d="M16.1437 1.5V4.57814H12.9012V7.6626H9.62713V10.8166H6.35938V21.3088C6.35938 21.3088 12.1238 26.5739 12.9455 27.326V38.5009H27.091V27.3892C27.9063 26.6307 33.6328 21.2962 33.6328 21.2962V10.8103H30.384V7.68156H27.091V4.58446H23.7979V1.5H16.1437Z" fill="white"/>
<path d="M18.0716 22.2324H15.2969V36.0556H18.0716V22.2324Z" fill="#FFD100"/>
<path d="M21.3529 19.3809H18.5781V36.0546H21.3529V19.3809Z" fill="#FFD100"/>
<path d="M24.6356 22.2324H21.8672V36.0556H24.6356V22.2324Z" fill="#FFD100"/>
<path d="M11.495 22.7751L8.72656 20.31V13.2246H11.495V22.7751Z" fill="#1D1D1B"/>
<path d="M14.7841 25.8534L12.0156 23.1356V10.0898H14.7841V25.8534Z" fill="#1D1D1B"/>
<path d="M18.0716 7.01172H15.2969V21.7956H18.0716V7.01172Z" fill="#1D1D1B"/>
<path d="M21.3529 3.92773H18.5781V18.7685H21.3529V3.92773Z" fill="#1D1D1B"/>
<path d="M28.4375 22.7751L31.2059 20.31V13.2246H28.4375V22.7751Z" fill="#1D1D1B"/>
<path d="M25.1562 25.8534L27.9247 23.1356V10.0898H25.1562V25.8534Z" fill="#1D1D1B"/>
<path d="M24.6356 7.01172H21.8672V21.7956H24.6356V7.01172Z" fill="#1D1D1B"/>
</svg>
