<svg width="40" height="40" viewBox="0 0 40 40" fill="none" xmlns="http://www.w3.org/2000/svg">
<g clip-path="url(#clip0_2752_4795)">
<path fill-rule="evenodd" clip-rule="evenodd" d="M37.6709 3.48012C37.6766 2.89926 37.1614 2.37788 36.5801 2.37995C25.5634 2.37841 14.5461 2.38048 3.52945 2.37892C3.41307 2.37841 3.29616 2.39081 3.18444 2.42392C2.83376 2.52633 2.5441 2.81082 2.43548 3.15944C2.37289 3.34616 2.38324 3.54529 2.38375 3.73978C2.38479 14.6877 2.38273 25.6356 2.38479 36.5835C2.38168 37.1809 2.92997 37.7023 3.5253 37.6769C14.5244 37.6769 25.523 37.6769 36.5221 37.6769C37.1216 37.7059 37.6735 37.182 37.6709 36.5809C37.6725 25.5472 37.6725 14.5139 37.6709 3.48012Z" fill="white"/>
<path fill-rule="evenodd" clip-rule="evenodd" d="M2.04843 3.37663C2.06912 2.62663 2.78135 2.00128 3.5236 2.02611C14.5243 2.02508 25.5244 2.02611 36.5251 2.02611C36.9213 2.02146 37.3185 2.17662 37.5963 2.46162C37.8772 2.73991 38.0313 3.13559 38.0235 3.52973C38.0235 14.4445 38.0235 25.3588 38.0235 36.2731C38.0282 36.5498 38.0313 36.8359 37.9216 37.096C37.7147 37.6376 37.1618 38.0266 36.5804 38.025C25.5451 38.0255 14.5098 38.0255 3.47446 38.025C2.74464 38.0317 2.06343 37.4007 2.04688 36.6667C2.07998 36.45 2.07687 36.2307 2.07221 36.0124C2.07377 25.2192 2.0717 14.4254 2.07221 3.63214C2.06808 3.5468 2.05722 3.46145 2.04843 3.37663ZM3.18532 2.42387C2.83463 2.52628 2.54497 2.81076 2.43636 3.15938C2.37377 3.3461 2.38412 3.54524 2.38463 3.73973C2.38567 14.6876 2.3836 25.6356 2.38567 36.5835C2.38256 37.1809 2.93084 37.7022 3.52618 37.6769C14.5253 37.6769 25.5239 37.6769 36.523 37.6769C37.1225 37.7059 37.6744 37.1819 37.6718 36.5809C37.6734 25.5471 37.6734 14.5138 37.6718 3.48007C37.6775 2.89921 37.1623 2.37783 36.5809 2.3799C25.5642 2.37836 14.547 2.38043 3.53033 2.37887C3.41394 2.37836 3.29704 2.39076 3.18532 2.42387ZM11.5988 8.34317C11.4384 9.28402 11.2677 10.2228 11.1043 11.1632C11.4586 11.1709 11.8237 11.1301 12.1667 11.2428C12.6725 11.3923 13.1086 11.789 13.2674 12.2975C13.3522 12.5535 13.3538 12.8302 13.2994 13.093C12.8727 15.4997 12.4522 17.9075 12.0244 20.3137C11.8382 21.1138 11.1529 21.7252 10.3962 21.988C10.0046 22.1354 9.58307 22.1064 9.17341 22.1095C9.00996 23.0494 8.84237 23.9887 8.67739 24.9285C12.3751 24.9305 16.0729 24.929 19.7706 24.9295C19.9362 23.9892 20.1027 23.0488 20.2682 22.1085C19.8146 22.1007 19.3377 22.1556 18.9131 21.9585C18.2836 21.7014 17.8237 21.0223 17.9256 20.3333C18.026 19.7323 18.1356 19.1328 18.2412 18.5323C18.6193 18.4376 18.9979 18.3456 19.376 18.2488C20.3406 19.5425 21.3017 20.8397 22.2653 22.1343C22.8523 22.9118 23.5848 23.5795 24.418 24.0854C26.0184 25.0692 28.0454 25.393 29.848 24.8209C30.0203 23.9199 30.1672 23.0142 30.3322 22.1121C29.7911 22.1049 29.2439 21.868 28.917 21.4278C27.6948 19.7995 26.4725 18.1707 25.2513 16.5419C26.4327 16.0733 27.6068 15.5369 28.6149 14.7513C29.2977 14.2164 29.8982 13.5285 30.162 12.6885C30.4211 11.8454 30.4051 10.8792 29.951 10.1038C29.5387 9.3911 28.8115 8.91161 28.0398 8.66334C27.2075 8.4011 26.3272 8.34057 25.4592 8.33903C20.8393 8.34213 16.2187 8.33386 11.5988 8.34317ZM12.9601 8.97627C12.9084 9.26592 12.8572 9.55507 12.807 9.84471C13.3594 9.98023 13.8725 10.2818 14.2424 10.7168C14.7301 11.278 14.9531 12.0611 14.8212 12.7945C14.4069 15.1532 13.9894 17.5112 13.5746 19.8694C13.3832 21.3766 12.0069 22.5507 10.5348 22.7287C10.4888 22.9981 10.4407 23.2671 10.3925 23.5366C13.4572 23.5366 16.5213 23.5376 19.586 23.5361C19.633 23.2614 19.6822 22.9878 19.7298 22.7142C19.2146 22.7126 18.6849 22.6102 18.2453 22.3309C17.8796 22.1018 17.5987 21.7418 17.4694 21.3295C17.3148 20.8594 17.3448 20.3524 17.4405 19.8735C17.8501 17.4507 18.2587 15.028 18.6694 12.6057C18.8137 11.7828 19.2617 11.023 19.8953 10.4804C20.7125 9.77799 21.8003 9.40248 22.8761 9.43868C23.6261 9.46092 24.3989 9.7185 24.9239 10.2725C25.3822 10.7426 25.6041 11.4151 25.5611 12.0663C25.5337 12.7092 25.2792 13.3242 24.9084 13.8435C24.4041 14.5537 23.7301 15.1232 23.0267 15.628C22.2498 16.1835 21.4144 16.65 20.5682 17.0897C21.567 18.4252 22.5565 19.768 23.5558 21.1035C24.1641 21.8204 24.8241 22.5166 25.6356 23.0059C26.5067 23.5387 27.5479 23.759 28.5622 23.6969C28.8792 23.6752 29.2046 23.64 29.4968 23.5061C29.5558 23.1212 29.6323 22.7395 29.6965 22.3557C29.4373 22.2787 29.1901 22.1612 28.9718 22.0019C28.6144 21.7526 28.406 21.3585 28.1354 21.028C26.8041 19.2523 25.4717 17.4771 24.1398 15.7014C25.376 15.2157 26.6391 14.7699 27.776 14.0716C28.3811 13.6966 28.9661 13.2554 29.3722 12.6616C29.7492 12.1164 29.9127 11.4114 29.7601 10.7618C29.6256 10.2083 29.1756 9.79765 28.6879 9.54109C27.8882 9.12317 26.9722 8.97989 26.0779 8.97627C21.7051 8.97678 17.3324 8.97627 12.9601 8.97627ZM21.6239 10.889C20.8724 11.0307 20.1529 11.4176 19.676 12.0228C19.4075 12.3626 19.228 12.7713 19.1577 13.1985C18.9374 14.4926 18.716 15.7868 18.4972 17.0814C19.7422 16.5207 20.9618 15.885 22.0677 15.0802C22.6739 14.6292 23.2615 14.1244 23.6727 13.4825C23.9706 13.0216 24.133 12.4418 23.9908 11.8997C23.8941 11.5242 23.6096 11.2169 23.2646 11.0514C22.7577 10.8063 22.1696 10.7877 21.6239 10.889ZM26.1979 9.97041C26.5273 10.4318 26.7549 10.9749 26.7906 11.5444C26.846 12.3678 26.5273 13.183 26.0199 13.8218C26.6773 13.5373 27.3141 13.1809 27.8406 12.69C28.152 12.3926 28.4458 12.0337 28.5213 11.5976C28.5937 11.1549 28.3279 10.7297 27.9891 10.4675C27.4827 10.0775 26.8206 9.97609 26.1979 9.97041ZM15.4455 10.0485C15.6658 10.2445 15.8344 10.4923 15.9534 10.7613C16.2487 11.4306 16.2493 12.1909 16.1174 12.8995C15.7 15.2499 15.295 17.6023 14.8698 19.9516C14.697 20.9018 14.3039 21.8473 13.5606 22.4928C14.6406 22.4938 15.7206 22.4907 16.8006 22.4944C16.5456 22.258 16.375 21.9445 16.2632 21.6187C16.0191 20.8883 16.0548 20.0974 16.1924 19.3495C16.6031 17.0261 17.0008 14.7006 17.4208 12.3792C17.5796 11.5071 17.9665 10.6454 18.6384 10.0495C17.5739 10.0501 16.51 10.0516 15.4455 10.0485ZM22.362 17.2697C23.2015 18.3999 24.0389 19.5316 24.8763 20.6633C25.5705 21.6569 26.6432 22.4411 27.8665 22.5905C26.3551 20.6147 24.8422 18.6399 23.3303 16.6645C23.0065 16.8647 22.6842 17.0675 22.362 17.2697ZM10.6217 32.2454C10.1251 32.2981 9.62548 32.4947 9.28411 32.8707C8.9267 33.2535 8.7772 33.7898 8.78031 34.305C8.77669 34.8114 8.89462 35.3441 9.23031 35.7373C9.55825 36.1283 10.0631 36.3238 10.5601 36.3791C11.1441 36.4433 11.7674 36.3848 12.28 36.0771C12.6513 35.8583 12.9327 35.4978 13.0641 35.0876C13.2094 34.6381 13.2125 34.1488 13.1169 33.689C13.0212 33.2333 12.7538 32.8071 12.3513 32.5629C11.8388 32.2485 11.2093 32.19 10.6217 32.2454ZM10.7908 32.94C10.5777 33.043 10.4955 33.2881 10.4453 33.5033C10.361 33.9186 10.3631 34.3474 10.3936 34.7685C10.4225 35.0323 10.4598 35.3141 10.6238 35.5324C10.7624 35.7254 11.0624 35.7621 11.246 35.6131C11.4084 35.4817 11.4741 35.2712 11.5175 35.0752C11.5941 34.6842 11.591 34.2822 11.5657 33.8866C11.5377 33.6067 11.5 33.3078 11.3272 33.076C11.2082 32.9131 10.9729 32.8531 10.7908 32.94ZM14.5175 32.4248C14.1963 32.5578 13.8969 32.8009 13.7898 33.1428C13.6558 33.6016 13.8006 34.1535 14.2036 34.4333C14.7834 34.8512 15.5324 34.8222 16.1893 35.0338C16.3206 35.0793 16.4779 35.1372 16.5244 35.2841C16.5643 35.4817 16.3594 35.5961 16.196 35.6302C15.8872 35.6938 15.5551 35.7129 15.252 35.6116C14.9629 35.5138 14.7472 35.2769 14.6003 35.0173C14.3236 35.0162 14.0468 35.0167 13.7701 35.0173C13.7696 35.311 13.7696 35.6048 13.7701 35.8986C14.3225 36.2504 14.9856 36.3735 15.6317 36.3812C16.1505 36.3807 16.6853 36.3243 17.158 36.0962C17.4834 35.94 17.7772 35.6612 17.8481 35.2955C17.9329 34.8916 17.7906 34.4354 17.4482 34.1912C17.0132 33.8638 16.4525 33.8167 15.9415 33.6838C15.6565 33.6057 15.3493 33.583 15.087 33.4386C14.9329 33.3414 14.9877 33.1071 15.1315 33.028C15.3668 32.8831 15.6648 32.8717 15.9301 32.9224C16.2772 32.9995 16.5275 33.2778 16.7215 33.5586C16.9941 33.5597 17.2667 33.5586 17.5398 33.5597C17.5362 33.2447 17.5501 32.9297 17.532 32.6157C17.1399 32.4011 16.6946 32.3157 16.2565 32.2578C15.6762 32.189 15.0653 32.1998 14.5175 32.4248ZM26.9613 32.3866C26.5972 32.5216 26.277 32.7792 26.0815 33.1169C25.8192 33.5654 25.7623 34.1043 25.8079 34.6143C25.8518 35.0928 26.0391 35.5774 26.4089 35.8981C26.8237 36.2664 27.3973 36.389 27.9384 36.3905C28.4458 36.3962 28.9832 36.2995 29.3908 35.9783C29.7394 35.7098 29.9411 35.2909 30.012 34.8636C29.5889 34.8595 29.1653 34.8672 28.7422 34.859C28.6884 35.1124 28.6341 35.3917 28.4349 35.5759C28.2353 35.7652 27.883 35.7388 27.7134 35.5226C27.4822 35.2417 27.4237 34.8636 27.3989 34.5119C27.3767 34.0454 27.4268 33.5369 27.718 33.1536C27.8582 32.9648 28.1298 32.8469 28.3506 32.9654C28.5761 33.0962 28.661 33.3667 28.7065 33.6083C29.1073 33.616 29.5077 33.6098 29.9085 33.6119C29.9096 33.2933 29.908 32.9747 29.9091 32.656C29.4932 32.3876 28.9977 32.2764 28.5094 32.2407C27.9916 32.2035 27.4532 32.1973 26.9613 32.3866ZM32.5372 32.6943C32.0132 33.1428 32.1094 34.0707 32.6722 34.4457C33.2685 34.8631 34.034 34.8207 34.6997 35.054C34.828 35.1005 34.9806 35.1828 34.9832 35.34C34.9703 35.5236 34.7763 35.6023 34.6216 35.6369C34.3289 35.6912 34.017 35.7098 33.7294 35.6198C33.4284 35.5273 33.2028 35.2857 33.0528 35.0173C32.7761 35.0162 32.4994 35.0167 32.2232 35.0173C32.2232 35.311 32.2222 35.6054 32.2237 35.8997C32.9173 36.3357 33.7697 36.4272 34.571 36.361C35.0861 36.3109 35.6344 36.1831 36.0171 35.8112C36.3658 35.4791 36.4144 34.9086 36.1785 34.4995C35.9763 34.1597 35.5961 33.9807 35.2289 33.8793C34.7665 33.7614 34.2978 33.6683 33.8344 33.5529C33.7066 33.5142 33.5551 33.4862 33.4728 33.3698C33.3942 33.2307 33.4935 33.0647 33.6249 33.0026C33.8597 32.8831 34.1401 32.8723 34.3951 32.9255C34.7354 33.0067 34.9821 33.2798 35.1715 33.5581C35.4461 33.5602 35.7203 33.5586 35.9949 33.5592C35.9939 33.2478 35.9991 32.9364 35.9923 32.625C35.4797 32.3374 34.8792 32.264 34.3025 32.2242C33.6916 32.2076 33.0172 32.279 32.5372 32.6943ZM3.73722 32.3105C3.72738 32.5345 3.73153 32.759 3.73307 32.984C3.96221 33.0021 4.18308 33.1826 4.18825 33.4231C4.19187 34.0112 4.19187 34.5998 4.18825 35.1879C4.18359 35.4274 3.96325 35.609 3.73463 35.6266C3.72998 35.8516 3.72791 36.0766 3.73669 36.3021C4.52498 36.3005 5.31274 36.3016 6.10101 36.3016C6.10152 36.076 6.10049 35.8505 6.10152 35.6255C5.88893 35.6193 5.67997 35.4786 5.62877 35.2666C5.60653 35.099 5.62255 34.9298 5.61946 34.7617C5.70014 34.7395 5.78032 34.7167 5.861 34.6955C6.14498 35.0214 6.42531 35.3504 6.71135 35.6752C7.14169 36.1448 7.79962 36.4288 8.43945 36.3062C8.44618 36.0791 8.44669 35.8521 8.43945 35.6255C8.33186 35.6054 8.22944 35.5593 8.16065 35.4719C7.81566 35.0767 7.4722 34.68 7.12565 34.2864C7.42669 34.1416 7.74117 33.9823 7.94134 33.7045C8.17618 33.3874 8.11979 32.9023 7.82808 32.639C7.5767 32.4067 7.22393 32.3173 6.88876 32.3116C5.83825 32.31 4.78773 32.3126 3.73722 32.3105ZM5.61531 33.4216C5.61015 33.7505 5.6148 34.0805 5.61998 34.41C5.95204 34.2316 6.28618 34.0319 6.52721 33.736C6.64566 33.5954 6.716 33.405 6.66894 33.2214C6.62083 33.0248 6.41342 32.91 6.22101 32.9131C5.93084 32.8997 5.62824 33.1185 5.61531 33.4216ZM18.2903 32.3111C18.2903 32.7631 18.2903 33.2152 18.2903 33.6673C18.5215 33.6678 18.7522 33.6673 18.9834 33.6678C19.033 33.331 19.287 32.9783 19.6584 32.9866C19.6589 33.6512 19.6641 34.3164 19.6677 34.981C19.6672 35.1171 19.6858 35.2676 19.6062 35.3881C19.5213 35.5345 19.3579 35.6126 19.1934 35.626C19.1918 35.849 19.1965 36.0724 19.1898 36.2964C19.9786 36.3078 20.7679 36.2979 21.5572 36.301C21.5572 36.076 21.5561 35.851 21.5582 35.6266C21.3032 35.6198 21.0591 35.4021 21.0803 35.1372C21.0798 34.4193 21.0653 33.7009 21.0761 32.9835C21.4149 33.0248 21.7025 33.3197 21.6953 33.6688C21.926 33.6662 22.1567 33.6678 22.3879 33.6678C22.3879 33.2152 22.3879 32.7631 22.3879 32.3111C21.0218 32.3111 19.6563 32.3111 18.2903 32.3111ZM23.0044 32.3116C23.0049 32.5371 23.0044 32.7626 23.0049 32.9881C23.2051 32.9592 23.4555 33.0492 23.4772 33.2793C23.4911 33.9129 23.4824 34.5481 23.4818 35.1822C23.4777 35.4326 23.2424 35.6167 23.0044 35.6271C23.0049 35.8516 23.0044 36.076 23.0044 36.3005C23.7937 36.301 24.583 36.3016 25.3718 36.3005C25.3718 36.076 25.3713 35.8516 25.3724 35.6271C25.138 35.6167 24.9017 35.4367 24.897 35.1905C24.8975 34.5512 24.8903 33.9119 24.9006 33.2736C24.9192 33.0414 25.1727 32.9592 25.3718 32.9886C25.3718 32.7626 25.3718 32.5371 25.3724 32.3116C24.583 32.3111 23.7937 32.3105 23.0044 32.3116ZM30.5453 32.3111C30.5499 32.8935 30.5468 33.4759 30.5525 34.0583C30.8763 34.0583 31.1996 34.0583 31.5234 34.0583C31.6284 33.4759 31.7313 32.8935 31.8358 32.3111C31.4054 32.3111 30.9756 32.3111 30.5453 32.3111Z" fill="#000001"/>
<path fill-rule="evenodd" clip-rule="evenodd" d="M3.27259 3.12403C3.40914 3.03972 3.57621 3.06248 3.72879 3.05886C5.50758 3.06092 7.28689 3.05834 9.06568 3.0599C7.42499 7.58316 5.77654 12.1038 4.1312 16.6256C5.77396 21.1483 7.42189 25.6695 9.06619 30.1917C7.06498 30.1938 5.06379 30.1923 3.06258 30.1923C3.0631 21.3035 3.06207 12.4152 3.0631 3.52644C3.05483 3.36765 3.13293 3.20473 3.27259 3.12403ZM30.9827 3.0599C32.8298 3.05938 34.6768 3.05834 36.5239 3.06041C36.7768 3.04283 37.008 3.27352 36.9822 3.52799C36.9817 12.4163 36.9822 21.304 36.9822 30.1923C34.9815 30.1928 32.9813 30.1938 30.9811 30.1917C32.6255 25.6695 34.2729 21.1488 35.9156 16.6261C34.2713 12.1038 32.6208 7.5842 30.9827 3.0599Z" fill="#EE0028"/>
<path fill-rule="evenodd" clip-rule="evenodd" d="M2.04215 3.34375L2.04629 3.37635C2.05508 3.46116 2.06594 3.54651 2.07008 3.63186C2.06956 14.4251 2.07163 25.2189 2.07008 36.0121C2.07474 36.2304 2.07785 36.4497 2.04474 36.6665L2.04112 36.6959C2.00594 35.9004 2.03594 35.1023 2.0256 34.3058C2.02508 24.0644 2.02663 13.8236 2.02508 3.5822C2.02715 3.50254 2.03284 3.4229 2.04215 3.34375Z" fill="#202020"/>
</g>
<defs>
<clipPath id="clip0_2752_4795">
<rect width="36" height="36" fill="white" transform="translate(2 2)"/>
</clipPath>
</defs>
</svg>
