<svg width="40" height="40" viewBox="0 0 40 40" fill="none" xmlns="http://www.w3.org/2000/svg">
<g clip-path="url(#clip0_2755_4887)">
<path d="M27.4953 13.416V13.994H32.4986C32.8264 13.994 33.3309 13.994 33.6644 14.3275C33.9978 14.6624 33.9978 15.1599 33.9978 15.502V20.5034C33.9978 20.8269 33.9978 21.3344 33.6644 21.665C33.3309 21.9971 32.8264 21.9971 32.4986 21.9971H30.081C29.6656 21.9971 29.1209 21.9971 28.9096 21.5371C28.707 21.0814 28.9987 20.6673 29.2488 20.3352L32.4986 15.9994H27.4953L25.5031 18.6647C25.1654 19.1205 24.875 19.4957 24.875 19.9974C24.875 20.5034 25.1424 20.8643 25.5031 21.3344L26.0005 21.9971C26.4935 22.6685 26.9951 23.3341 27.662 23.6648C28.3318 23.9968 29.1209 23.9968 30.2075 23.9968H32.375C33.6198 23.9968 35.4998 23.9968 36.7489 22.7504C37.9979 21.4968 37.9979 19.6682 37.9979 18.9983V16.9986C37.9979 16.3272 37.9979 14.5 36.7489 13.2464C35.4998 12 33.6198 12 32.375 12H28.9096C28.5833 12 28.1608 12 27.8288 12.3321C27.4953 12.6613 27.4953 13.0768 27.4953 13.416Z" fill="#EE3524"/>
<path d="M21.4994 16H26.4984L20.5005 24.0003H15.5L21.4994 16Z" fill="#EE3524"/>
<path d="M2 17.416C2 17.0811 2 16.6613 2.33196 16.3278C2.66831 16 3.0794 16 3.41575 16H11.7867C12.8733 16 13.6696 16 14.3337 16.3278C14.9978 16.6613 15.4965 17.3298 16.0024 17.9968L16.4954 18.6639C16.8548 19.1383 17.1265 19.4963 17.1265 19.9966C17.1265 20.5026 16.8361 20.8821 16.4954 21.335L14.4961 24.0003H9.49854L12.7483 19.6688C12.9998 19.3367 13.2931 18.9183 13.0833 18.4526C12.8733 17.9968 12.3329 17.9968 11.9132 17.9968H8.00366V27.9997H3.99932V17.9968H2V17.416Z" fill="#EE3524"/>
</g>
<defs>
<clipPath id="clip0_2755_4887">
<rect width="36" height="16" fill="white" transform="translate(2 12)"/>
</clipPath>
</defs>
</svg>
