<svg width="40" height="40" viewBox="0 0 40 40" fill="none" xmlns="http://www.w3.org/2000/svg">
<g clip-path="url(#clip0_2704_7301)">
<mask id="mask0_2704_7301" style="mask-type:luminance" maskUnits="userSpaceOnUse" x="2" y="2" width="36" height="36">
<path d="M2.01562 2.00977H37.958V37.9391H2.01562V2.00977Z" fill="white"/>
</mask>
<g mask="url(#mask0_2704_7301)">
<mask id="mask1_2704_7301" style="mask-type:luminance" maskUnits="userSpaceOnUse" x="-16" y="-16" width="72" height="72">
<path d="M17.66 55.7562L55.7759 22.3067L22.3191 -15.8008L-15.7969 17.6485L17.66 55.7562Z" fill="white"/>
</mask>
<g mask="url(#mask1_2704_7301)">
<path d="M17.66 55.7562L-15.7969 17.6485L22.3191 -15.8008L55.7759 22.3067L17.66 55.7562Z" fill="url(#paint0_radial_2704_7301)"/>
</g>
</g>
<path d="M21.8445 17.0872C22.271 17.3004 22.5518 17.732 22.4997 18.0855C22.4323 18.4442 22.0526 18.5587 21.6106 18.3455C21.1685 18.1271 20.8877 17.6852 20.9553 17.3263C21.0336 16.9835 21.4181 16.8793 21.8445 17.0872Z" fill="white"/>
<path d="M23.1117 10.1721C23.4552 10.3591 23.6993 10.6659 23.6734 10.8843C23.6319 11.1081 23.3352 11.139 22.9713 10.9571C22.6177 10.7701 22.3734 10.4528 22.4099 10.2293C22.4567 10.0161 22.7582 9.98997 23.1117 10.1719" fill="white"/>
<path d="M23.2252 9.48643C23.5166 9.64222 23.7192 9.89186 23.6983 10.0738C23.6683 10.2507 23.4177 10.2663 23.1213 10.1153C22.8198 9.95954 22.6167 9.69935 22.6429 9.52268C22.6844 9.34578 22.9341 9.33568 23.2252 9.48505" fill="white"/>
<path d="M23.335 8.79945C23.6055 8.94514 23.7925 9.17895 23.7769 9.33497C23.7468 9.49604 23.5169 9.5066 23.2414 9.36503C22.9658 9.21428 22.7733 8.98025 22.7992 8.81918C22.8371 8.66339 23.0647 8.65811 23.335 8.79646" fill="white"/>
<path d="M23.4409 8.13404C23.6904 8.26895 23.8675 8.48211 23.8519 8.62276C23.8253 8.76823 23.6126 8.7735 23.3577 8.63767C23.103 8.50276 22.9263 8.28433 22.947 8.1439C22.9772 8.00348 23.1915 8.00348 23.4409 8.13243" fill="white"/>
<path d="M23.5402 7.52023C23.774 7.64505 23.9353 7.83756 23.9197 7.96742C23.9009 8.09224 23.7065 8.09706 23.4672 7.96742C23.2334 7.84237 23.0668 7.64505 23.0877 7.51496C23.1141 7.39541 23.3114 7.39541 23.5402 7.51886" fill="white"/>
<path d="M23.6333 6.96488C23.8464 7.08465 23.9974 7.26155 23.9869 7.37582C23.9678 7.4848 23.7843 7.4848 23.5656 7.36434C23.3472 7.2448 23.1966 7.06813 23.212 6.95364C23.2384 6.84465 23.4146 6.84947 23.6333 6.96488Z" fill="white"/>
<path d="M23.7141 6.42981C23.9119 6.53879 24.0523 6.67922 24.0365 6.79876C24.0213 6.9183 23.8593 6.89237 23.6567 6.78361C23.4592 6.67463 23.3135 6.52893 23.3293 6.41466C23.3557 6.29512 23.5165 6.32105 23.7141 6.42981Z" fill="white"/>
<path d="M23.8022 5.88299C23.9739 5.98165 24.0985 6.10142 24.0884 6.20008C24.0657 6.29897 23.9323 6.27305 23.7554 6.1776C23.5838 6.08398 23.4592 5.95917 23.4693 5.85523C23.492 5.76184 23.6306 5.78777 23.8022 5.88184" fill="white"/>
<path d="M23.8805 5.3735C24.0367 5.46184 24.1512 5.57128 24.1407 5.65939C24.1255 5.74772 24.0003 5.72707 23.844 5.6369C23.6829 5.54329 23.5684 5.4343 23.5788 5.34551C23.5939 5.2574 23.7245 5.28333 23.8803 5.37189" fill="white"/>
<path d="M23.9634 4.86841C24.0985 4.94642 24.1974 5.03475 24.1873 5.113C24.1758 5.19101 24.0675 5.16485 23.9326 5.08638C23.7975 5.00837 23.6933 4.91475 23.7039 4.84202C23.719 4.76401 23.8287 4.78994 23.9638 4.86841" fill="white"/>
<path d="M24.034 4.39555C24.1538 4.46324 24.2369 4.54125 24.2318 4.6087C24.2206 4.67639 24.1228 4.65023 24.0033 4.58232C23.8835 4.51486 23.7952 4.43134 23.8055 4.36389C23.8168 4.30171 23.9145 4.32626 24.034 4.39417" fill="white"/>
<path d="M21.393 19.503C21.0288 19.3213 20.795 18.9415 20.8524 18.6348C20.9146 18.3335 21.2422 18.2346 21.6011 18.4062C21.9546 18.5831 22.1887 18.9521 22.1419 19.2589C22.0845 19.5709 21.7621 19.6749 21.393 19.5032" fill="white"/>
<path d="M21.1136 20.9797C20.7547 20.8028 20.526 20.4236 20.5884 20.1065C20.6558 19.7997 20.9731 19.6905 21.3267 19.8571C21.675 20.0287 21.9038 20.3976 21.8519 20.7097C21.7895 21.0318 21.4722 21.1463 21.1136 20.9802" fill="white"/>
<path d="M20.8104 22.5138C20.4621 22.3472 20.249 21.9677 20.3061 21.6456C20.3788 21.3283 20.6909 21.214 21.0341 21.37C21.3721 21.5417 21.5905 21.9108 21.5385 22.2279C21.4763 22.5501 21.1642 22.6749 20.8104 22.5138Z" fill="white"/>
<path d="M20.4841 24.2045C20.1409 24.0434 19.933 23.6639 19.9954 23.3365C20.0681 23.0141 20.3802 22.8893 20.7078 23.0403C21.0405 23.2013 21.2537 23.5652 21.1915 23.8929C21.1291 24.2203 20.8223 24.3554 20.4841 24.2049" fill="white"/>
<path d="M20.1452 25.8882C19.854 25.7478 19.6721 25.4151 19.7292 25.1136C19.7969 24.8169 20.0674 24.6976 20.3586 24.8275C20.6498 24.9626 20.8267 25.2956 20.7746 25.5918C20.7124 25.8885 20.4417 26.0181 20.1452 25.8885" fill="white"/>
<path d="M19.7266 27.9303C19.4407 27.8006 19.2744 27.4677 19.3315 27.1557C19.4042 26.8597 19.6644 26.7243 19.9503 26.8491C20.2259 26.9739 20.3975 27.3014 20.3404 27.6081C20.278 27.9147 20.0127 28.0551 19.7266 27.9303Z" fill="white"/>
<path d="M19.264 30.1404C19.0038 30.0262 18.8584 29.7194 18.9205 29.4282C18.988 29.1423 19.2273 29.0072 19.4769 29.1109C19.7264 29.2254 19.8721 29.5269 19.8202 29.8128C19.758 30.1039 19.5187 30.2444 19.2638 30.1402" fill="white"/>
<path d="M18.8027 32.3494C18.5843 32.2558 18.4648 31.9853 18.5221 31.7203C18.5843 31.4603 18.7926 31.3304 19.0108 31.4137C19.224 31.5071 19.3438 31.7724 19.2917 32.0323C19.2293 32.2923 19.0209 32.4327 18.8027 32.3496" fill="white"/>
<path d="M23.3476 17.9174C23.6803 18.0891 23.9143 18.4371 23.8779 18.7232C23.8366 19.0144 23.5452 19.1027 23.1969 18.9364C22.8486 18.7595 22.6196 18.4061 22.6611 18.115C22.7132 17.8341 23.0094 17.7509 23.3476 17.9172" fill="white"/>
<path d="M24.8454 18.5418C25.2563 18.7602 25.5475 19.2021 25.5163 19.561C25.4784 19.9299 25.1262 20.0497 24.6999 19.8363C24.2734 19.6126 23.9822 19.1603 24.0187 18.7964C24.0761 18.4376 24.4241 18.3339 24.8454 18.5418Z" fill="white"/>
<path d="M35.1661 17.9964C34.9945 17.8925 34.88 17.9237 34.9009 18.0746C34.9197 18.2304 35.0725 18.4333 35.2441 18.5478C35.416 18.6517 35.5303 18.6205 35.5096 18.4642C35.483 18.3085 35.3325 18.1056 35.1666 17.9964" fill="white"/>
<path d="M33.9675 17.1746C33.7436 17.0397 33.5825 17.0812 33.6034 17.2735C33.6298 17.466 33.8218 17.7257 34.0506 17.8714C34.2791 18.0065 34.4301 17.965 34.4094 17.7672C34.383 17.5697 34.1908 17.315 33.9673 17.1746" fill="white"/>
<path d="M30.6139 28.3777C30.3225 28.2013 30.099 28.3204 30.0938 28.6689C30.0938 29.0172 30.3177 29.4332 30.6086 29.6204C30.9053 29.8074 31.1235 29.6725 31.1235 29.3189C31.1196 28.9706 30.9 28.5599 30.6139 28.378" fill="white"/>
<path d="M29.1786 25.5399C28.8406 25.3473 28.5754 25.4774 28.5547 25.8411C28.5508 26.2101 28.8046 26.6575 29.1474 26.8601C29.4856 27.0579 29.7506 26.9174 29.7612 26.543C29.7612 26.174 29.5065 25.7372 29.1786 25.5394" fill="white"/>
<path d="M27.6716 23.0866C27.3387 22.9097 27.0737 23.0244 27.0475 23.3571C27.0326 23.6898 27.2763 24.1005 27.6145 24.2928C27.9525 24.4747 28.2177 24.3501 28.2383 24.0069C28.2422 23.6742 27.9993 23.2738 27.6716 23.0868" fill="white"/>
<path d="M26.7496 13.0255C26.4481 12.8697 26.2088 12.9007 26.1879 13.1139C26.1767 13.327 26.4013 13.6182 26.7081 13.7845C27.0148 13.9456 27.2539 13.9041 27.2645 13.6909C27.2681 13.4778 27.0458 13.1919 26.7496 13.0255Z" fill="white"/>
<path d="M32.8905 17.4866C32.6565 17.3515 32.4901 17.393 32.5005 17.5956C32.5232 17.7982 32.7189 18.0687 32.9582 18.2142C33.192 18.3546 33.3586 18.3025 33.343 18.0999C33.3166 17.8973 33.1243 17.6268 32.8905 17.4866Z" fill="white"/>
<path d="M31.6842 16.7583C31.4348 16.6126 31.2526 16.6594 31.2579 16.8673C31.2731 17.0752 31.4816 17.3507 31.731 17.5015C31.9857 17.6472 32.1626 17.5951 32.1523 17.3872C32.1372 17.1794 31.9286 16.9038 31.6842 16.7581" fill="white"/>
<path d="M29.2621 16.3489C28.9709 16.1878 28.7475 16.2399 28.7422 16.4737C28.7459 16.7128 28.9762 17.0249 29.2674 17.1963C29.5689 17.3521 29.7873 17.2951 29.7873 17.0561C29.7836 16.8168 29.5535 16.51 29.2621 16.3489Z" fill="white"/>
<path d="M30.4834 16.0208C30.2081 15.8701 30 15.9118 30 16.1353C30.0112 16.359 30.2338 16.6603 30.5199 16.8266C30.8005 16.9824 31.0086 16.9255 30.9983 16.7018C30.9832 16.4731 30.7643 16.1819 30.4834 16.0208Z" fill="white"/>
<path d="M29.2101 15.2823C28.8981 15.116 28.6537 15.1625 28.6484 15.4018C28.6484 15.6462 28.8978 15.9789 29.2152 16.1556C29.5375 16.3272 29.7768 16.2753 29.7716 16.0259C29.7603 15.7813 29.5169 15.4592 29.2101 15.2825" fill="white"/>
<path d="M27.9652 15.5946C27.6428 15.423 27.3828 15.4803 27.3672 15.7298C27.3633 15.9897 27.6116 16.3277 27.9392 16.5096C28.2719 16.6865 28.5266 16.6239 28.5372 16.3639C28.5372 16.1093 28.2878 15.7713 27.9652 15.5946Z" fill="white"/>
<path d="M26.2404 20.7422C25.8974 20.5653 25.6112 20.6695 25.58 20.9815C25.5536 21.3036 25.8037 21.6937 26.152 21.886C26.4951 22.0629 26.7759 21.9534 26.8071 21.6313C26.8223 21.3091 26.5786 20.9244 26.2404 20.7424" fill="white"/>
<path d="M26.3337 19.3888C25.9696 19.1963 25.6628 19.2952 25.6263 19.6226C25.6038 19.9555 25.8709 20.3662 26.2504 20.5688C26.6246 20.7666 26.9264 20.6572 26.9523 20.3194C26.9674 19.9867 26.7029 19.5866 26.3337 19.389" fill="white"/>
<path d="M26.4292 18.11C26.0288 17.9074 25.7014 18.001 25.6649 18.3386C25.6461 18.682 25.9354 19.1184 26.3409 19.3419C26.7465 19.5498 27.0742 19.4461 27.1001 19.0976C27.1153 18.7493 26.8248 18.323 26.4292 18.1098" fill="white"/>
<path d="M26.5131 16.9205C26.1283 16.7229 25.8112 16.8009 25.7747 17.1182C25.752 17.4356 26.0399 17.8513 26.435 18.0645C26.8304 18.2671 27.1422 18.1787 27.1683 17.8513C27.1796 17.5292 26.8928 17.1286 26.5131 16.9207" fill="white"/>
<path d="M26.5673 15.8847C26.2243 15.7131 25.9487 15.7705 25.9225 16.0357C25.9074 16.311 26.1566 16.6596 26.4998 16.8468C26.8481 17.0285 27.1186 16.9558 27.1446 16.6855C27.1482 16.4152 26.9 16.0669 26.5673 15.885" fill="white"/>
<path d="M26.6453 14.8357C26.2811 14.6434 25.9847 14.7005 25.9537 14.9761C25.9386 15.2567 26.2137 15.6312 26.5829 15.8338C26.9571 16.0315 27.2535 15.9636 27.2744 15.678C27.2781 15.3974 27.0092 15.0335 26.6453 14.8359" fill="white"/>
<path d="M26.7027 13.8793C26.3439 13.6921 26.058 13.7389 26.0318 13.9989C26.0169 14.2588 26.2865 14.6175 26.6507 14.8152C27.0148 15.0075 27.3007 14.9502 27.3163 14.6801C27.3202 14.4201 27.0563 14.0718 26.7027 13.8793Z" fill="white"/>
<path d="M24.3886 10.9465C24.1339 10.8214 23.9258 10.8423 23.8999 10.9985C23.8808 11.1596 24.0556 11.3884 24.3106 11.5235C24.5652 11.6536 24.7786 11.6325 24.7993 11.4714C24.8144 11.3104 24.6382 11.0869 24.3886 10.9465Z" fill="white"/>
<path d="M24.4353 10.204C24.2065 10.0843 24.014 10.0999 23.9931 10.2341C23.9782 10.3798 24.1388 10.5824 24.3729 10.7072C24.6014 10.832 24.7941 10.8114 24.8148 10.6696C24.8263 10.5292 24.6638 10.3266 24.4353 10.2015" fill="white"/>
<path d="M24.4718 9.49563C24.2692 9.39146 24.1029 9.40201 24.087 9.51834C24.0719 9.63788 24.2171 9.81479 24.4147 9.92377C24.6173 10.0279 24.7788 10.0174 24.7994 9.89739C24.8107 9.77785 24.6691 9.60622 24.4718 9.497" fill="white"/>
<path d="M24.5007 8.81495C24.3189 8.72134 24.1732 8.71078 24.1574 8.82619C24.1423 8.94573 24.277 9.08616 24.4539 9.18505C24.6411 9.27866 24.7868 9.28921 24.8022 9.1738C24.8136 9.05403 24.6773 8.91384 24.5007 8.81495Z" fill="white"/>
<path d="M24.5368 8.18151C24.3704 8.09341 24.2353 8.07758 24.2195 8.18151C24.2082 8.29073 24.3337 8.42083 24.5003 8.51444C24.6666 8.60255 24.8018 8.6131 24.8176 8.51054C24.8289 8.40155 24.7031 8.27146 24.5368 8.18312" fill="white"/>
<path d="M24.5707 7.5417C24.4197 7.46346 24.3002 7.44809 24.2899 7.5378C24.2786 7.63142 24.3887 7.7404 24.5393 7.82392C24.685 7.90721 24.8047 7.9173 24.8148 7.82392C24.8185 7.73558 24.7159 7.62614 24.5702 7.54308" fill="white"/>
<path d="M24.5967 6.97448C24.4563 6.90152 24.3473 6.88614 24.3368 6.96301C24.3255 7.05134 24.4304 7.15023 24.5655 7.22825C24.7059 7.30121 24.8149 7.32186 24.8255 7.23215C24.8292 7.14909 24.7319 7.0502 24.5967 6.97218" fill="white"/>
<path d="M24.6195 6.39718C24.4944 6.32949 24.4011 6.30884 24.3907 6.38204C24.3871 6.45477 24.4738 6.54311 24.5986 6.61056C24.7184 6.67825 24.8173 6.69408 24.8226 6.62204C24.8262 6.54907 24.7395 6.46624 24.6197 6.39833" fill="white"/>
<path d="M23.0315 20.1392C23.302 20.264 23.5305 20.1857 23.5617 19.9572C23.592 19.7234 23.4162 19.4478 23.1563 19.3125C22.8908 19.1876 22.6673 19.2604 22.6205 19.4896C22.5905 19.7181 22.7662 19.999 23.0315 20.1394" fill="white"/>
<path d="M22.8076 21.6154C23.0623 21.7402 23.281 21.657 23.3225 21.4229C23.3489 21.1944 23.1821 20.9239 22.9325 20.794C22.6778 20.6742 22.4593 20.7525 22.4176 20.981C22.3875 21.2095 22.5527 21.4853 22.8076 21.6154Z" fill="white"/>
<path d="M22.4551 23.1335C22.7098 23.253 22.9232 23.1635 22.9647 22.9256C22.995 22.6863 22.8348 22.4109 22.5905 22.2861C22.3411 22.1718 22.1224 22.2597 22.0756 22.494C22.038 22.7331 22.2057 23.0086 22.4551 23.1335Z" fill="white"/>
<path d="M22.1274 24.7854C22.3615 24.8944 22.5694 24.8006 22.6058 24.567C22.6361 24.3385 22.4863 24.0732 22.2575 23.9587C22.0235 23.8498 21.8207 23.9363 21.7792 24.1719C21.7415 24.4059 21.8934 24.6709 22.1274 24.7854Z" fill="white"/>
<path d="M21.7426 26.4399C21.961 26.5388 22.1585 26.4438 22.195 26.2162C22.2251 25.9877 22.0908 25.7328 21.8777 25.6288C21.6593 25.5299 21.4617 25.6252 21.4202 25.8473C21.3823 26.0758 21.5239 26.336 21.7423 26.4399" fill="white"/>
<path d="M21.2793 28.405C21.4871 28.4986 21.6693 28.3937 21.7109 28.1712C21.7409 27.9477 21.6172 27.7033 21.4146 27.6097C21.2116 27.5161 21.0299 27.6134 20.9831 27.8334C20.9452 28.062 21.0767 28.3116 21.2793 28.4052" fill="white"/>
<path d="M27.942 14.6167C27.6403 14.4554 27.4063 14.497 27.3907 14.7257C27.387 14.9543 27.6194 15.2613 27.9211 15.4326C28.2332 15.5884 28.467 15.5419 28.4723 15.3078C28.4723 15.0793 28.2437 14.7776 27.942 14.6165" fill="white"/>
<path d="M27.8819 16.6817C27.6119 16.5412 27.3932 16.5933 27.3829 16.8115C27.379 17.0352 27.5807 17.3209 27.856 17.4769C28.1315 17.6226 28.3449 17.5653 28.3553 17.3365C28.3553 17.1181 28.1474 16.8322 27.8819 16.6814" fill="white"/>
<path d="M27.8536 17.7528C27.5469 17.5864 27.2972 17.6541 27.2816 17.9141C27.2704 18.1791 27.5056 18.517 27.8224 18.6937C28.1398 18.8601 28.3788 18.782 28.3894 18.5168C28.3894 18.2568 28.1606 17.9191 27.8536 17.7525" fill="white"/>
<path d="M27.7052 21.5842C27.3985 21.4232 27.1541 21.5165 27.1332 21.8075C27.122 22.0987 27.3464 22.4573 27.6531 22.6289C27.9652 22.7952 28.2045 22.6964 28.2201 22.4004C28.2238 22.1037 28.0014 21.7556 27.7052 21.584" fill="white"/>
<path d="M32.797 16.4359C32.5423 16.2902 32.3603 16.3317 32.3759 16.5401C32.3984 16.7532 32.6097 17.0338 32.8699 17.1898C33.1299 17.3408 33.3015 17.294 33.2859 17.0809C33.2595 16.8677 33.0466 16.5869 32.797 16.4361" fill="white"/>
<path d="M29.0749 27.38C28.794 27.219 28.5756 27.3385 28.5547 27.6554C28.5511 27.9828 28.7626 28.3623 29.0437 28.5339C29.3296 28.695 29.548 28.5755 29.5636 28.248C29.5636 27.9206 29.3557 27.5462 29.0749 27.3798" fill="white"/>
<path d="M30.6268 30.2862C30.3616 30.1199 30.1588 30.2447 30.1484 30.5774C30.1484 30.9154 30.3563 31.3155 30.6216 31.4977C30.8921 31.6641 31.0947 31.5392 31.0999 31.1962C31.0963 30.8532 30.8921 30.4579 30.6268 30.2865" fill="white"/>
<path d="M27.544 24.6873C27.2372 24.5209 26.9876 24.6352 26.9616 24.9578C26.9465 25.2852 27.1748 25.6753 27.4868 25.852C27.7989 26.0183 28.0483 25.8988 28.0692 25.5661C28.0804 25.2384 27.8508 24.8589 27.544 24.6875" fill="white"/>
<path d="M26.1101 22.3018C25.8033 22.146 25.5537 22.2445 25.5172 22.5409C25.4947 22.8371 25.715 23.196 26.0218 23.3676C26.3338 23.5234 26.5885 23.4142 26.6144 23.1129C26.6296 22.8167 26.4118 22.4682 26.1101 22.3018Z" fill="white"/>
<path d="M24.719 19.9763C24.381 19.81 24.1002 19.9036 24.0586 20.2001C24.021 20.5068 24.2564 20.876 24.5942 21.0527C24.9376 21.2243 25.2183 21.1204 25.2547 20.8136C25.2811 20.5121 25.0466 20.148 24.719 19.9766" fill="white"/>
<path d="M27.7522 20.2834C27.4714 20.1324 27.2426 20.2107 27.227 20.4706C27.2155 20.7306 27.4296 21.058 27.7157 21.2191C28.0071 21.3701 28.2253 21.2868 28.2409 21.0215C28.2446 20.7616 28.0383 20.4392 27.7522 20.2832" fill="white"/>
<path d="M26.786 12.2093C26.5208 12.0688 26.3077 12.0948 26.2973 12.2714C26.2861 12.4483 26.4846 12.703 26.7548 12.8485C27.0201 12.9889 27.2282 12.9575 27.2438 12.781C27.2438 12.5991 27.046 12.3547 26.786 12.209" fill="white"/>
<path d="M31.6119 15.8187C31.404 15.6989 31.2478 15.7357 31.2583 15.8967C31.2696 16.0631 31.4455 16.2918 31.6534 16.4167C31.8666 16.5362 32.0176 16.4997 32.007 16.3283C31.9919 16.162 31.82 15.9435 31.6119 15.8189" fill="white"/>
<path d="M29.2703 18.6299C29.031 18.5 28.849 18.5569 28.8438 18.7648C28.8438 18.9726 29.0257 19.2432 29.265 19.3783C29.5096 19.5082 29.6913 19.451 29.6913 19.2379C29.6876 19.03 29.5043 18.765 29.2703 18.6296" fill="white"/>
<path d="M29.158 23.9696C28.8618 23.8033 28.6328 23.9074 28.6172 24.2087C28.6172 24.5208 28.8356 24.895 29.1321 25.0719C29.4336 25.2382 29.6623 25.1341 29.6676 24.8172C29.6676 24.5104 29.4492 24.1412 29.158 23.9696Z" fill="white"/>
<path d="M27.8065 19.0351C27.536 18.8894 27.3125 18.9571 27.2969 19.2015C27.2933 19.4461 27.4947 19.7579 27.7753 19.9086C28.0509 20.0594 28.2693 19.9866 28.2849 19.737C28.2849 19.4924 28.0823 19.1911 27.8065 19.0351Z" fill="white"/>
<path d="M30.6399 20.6322C30.3747 20.4814 30.1772 20.5489 30.1719 20.8038C30.1758 21.0585 30.3905 21.3808 30.6608 21.5421C30.9313 21.6979 31.1287 21.6202 31.1236 21.3602C31.1121 21.1055 30.9052 20.7884 30.6399 20.6324" fill="white"/>
<path d="M31.786 33.5399C31.5726 33.3889 31.4115 33.4984 31.4062 33.8052C31.4102 34.1117 31.5834 34.4706 31.7963 34.6369C32.0147 34.7927 32.1708 34.6784 32.1708 34.3664C32.1669 34.0596 31.9989 33.701 31.7858 33.5397" fill="white"/>
<path d="M30.5253 17.096C30.2759 16.9556 30.0938 17.0024 30.0938 17.2103C30.105 17.4182 30.3016 17.6885 30.5462 17.8342C30.8009 17.9744 30.9831 17.9223 30.9725 17.7144C30.9613 17.5065 30.7699 17.2362 30.5253 17.0958" fill="white"/>
<path d="M25.5445 11.5752C25.3052 11.4504 25.1077 11.4712 25.0868 11.6273C25.0719 11.7883 25.2534 12.0121 25.4925 12.1472C25.737 12.272 25.9346 12.2461 25.9502 12.085C25.9539 11.9292 25.7836 11.7055 25.5445 11.5754" fill="white"/>
<path d="M27.981 12.085C27.7525 11.9655 27.5754 11.9862 27.5703 12.1371C27.5703 12.2929 27.7472 12.5114 27.976 12.6362C28.2098 12.761 28.392 12.7403 28.392 12.5841C28.3881 12.4283 28.21 12.2151 27.981 12.085Z" fill="white"/>
<path d="M30.445 15.1687C30.2525 15.0598 30.1121 15.0907 30.1173 15.2364C30.1212 15.3819 30.2784 15.5845 30.4709 15.6939C30.6634 15.7979 30.8038 15.7667 30.7986 15.621C30.7871 15.4702 30.6373 15.2729 30.445 15.1687Z" fill="white"/>
<path d="M29.2153 19.858C28.971 19.7228 28.7838 19.7852 28.7734 20.0089C28.7734 20.2327 28.9607 20.5133 29.2103 20.6587C29.4549 20.7939 29.6419 20.7264 29.6469 20.4977C29.6433 20.274 29.4547 19.9933 29.2153 19.8582" fill="white"/>
<path d="M30.5645 19.4056C30.3513 19.2861 30.1953 19.3382 30.1953 19.5305C30.1992 19.7177 30.3672 19.9671 30.5803 20.0919C30.7935 20.2115 30.9493 20.1543 30.9445 19.9623C30.933 19.7698 30.7678 19.5307 30.5647 19.4059" fill="white"/>
<path d="M31.9398 21.4535C31.7057 21.3133 31.5341 21.3808 31.5392 21.6146C31.5506 21.8486 31.742 22.1451 31.976 22.2958C32.2153 22.436 32.3817 22.3685 32.3764 22.1292C32.3615 21.8954 32.1685 21.599 31.9398 21.4535Z" fill="white"/>
<path d="M34.0531 18.2717C33.8711 18.1627 33.7516 18.199 33.767 18.3552C33.7821 18.5163 33.9335 18.7295 34.1152 18.844C34.2924 18.9529 34.4167 18.9167 34.4014 18.7556C34.3826 18.5946 34.2245 18.3867 34.0531 18.2722" fill="white"/>
<path d="M27.9813 11.3678C27.7835 11.2588 27.6225 11.2689 27.6172 11.3981C27.6209 11.5277 27.7783 11.7202 27.9813 11.8347C28.1839 11.9437 28.3402 11.923 28.3454 11.7932C28.3418 11.6633 28.1844 11.4758 27.9813 11.3669" fill="white"/>
<path d="M27.9709 12.9112C27.7576 12.7967 27.5912 12.8229 27.5859 12.9686C27.5859 13.1141 27.7472 13.3167 27.9604 13.4364C28.1788 13.5507 28.3399 13.5298 28.3452 13.3791C28.3415 13.2281 28.1788 13.0308 27.9709 12.9112Z" fill="white"/>
<path d="M32.0175 31.5592C31.7729 31.3928 31.5912 31.5124 31.5859 31.8345C31.5972 32.1619 31.7885 32.5573 32.0331 32.7339C32.2825 32.9106 32.4647 32.7913 32.4594 32.4533C32.4482 32.1259 32.2568 31.7358 32.0175 31.5589" fill="white"/>
<path d="M26.8223 11.4866C26.6145 11.3724 26.4481 11.393 26.4376 11.5245C26.4339 11.6647 26.5885 11.8572 26.8017 11.9767C27.0096 12.0857 27.1814 12.0651 27.1865 11.9299C27.1904 11.7948 27.0307 11.6025 26.8223 11.488" fill="white"/>
<path d="M29.2053 17.4977C28.9975 17.3887 28.8359 17.4302 28.8359 17.6019C28.8359 17.7785 28.997 18.0073 29.2053 18.1271C29.4132 18.2413 29.5743 18.1945 29.5743 18.0178C29.5743 17.8409 29.4132 17.6177 29.2053 17.4979" fill="white"/>
<path d="M29.1896 14.5131C29.0177 14.4198 28.8881 14.4457 28.8828 14.5705C28.8865 14.7008 29.023 14.8773 29.2001 14.9762C29.377 15.0751 29.5069 15.0436 29.5069 14.9138C29.503 14.7837 29.3665 14.6072 29.1896 14.5136" fill="white"/>
<path d="M29.1792 22.5667C28.9766 22.4472 28.81 22.5147 28.8047 22.7225C28.8011 22.9304 28.9608 23.1904 29.1689 23.3101C29.3823 23.4297 29.5433 23.3622 29.5486 23.1491C29.5486 22.9412 29.3875 22.6863 29.1794 22.5667" fill="white"/>
<path d="M30.6451 26.6366C30.4113 26.4909 30.224 26.5845 30.2188 26.8603C30.2188 27.1356 30.406 27.4686 30.6451 27.6244C30.8897 27.7701 31.0716 27.6712 31.0716 27.3906C31.0677 27.1152 30.8844 26.7873 30.6451 26.6366Z" fill="white"/>
<path d="M27.958 13.857C27.7967 13.7742 27.6772 13.7948 27.6719 13.9091C27.6719 14.0234 27.7914 14.1796 27.9474 14.268C28.1085 14.3563 28.2333 14.3301 28.2386 14.2159C28.2349 14.1016 28.1138 13.9454 27.958 13.857Z" fill="white"/>
<path d="M30.528 32.2353C30.3357 32.1155 30.19 32.2089 30.1797 32.4638C30.1797 32.7185 30.3254 33.0149 30.5179 33.1448C30.7104 33.2643 30.8559 33.1675 30.8611 32.911C30.8611 32.6563 30.7157 32.3599 30.5284 32.235" fill="white"/>
<path d="M31.7524 17.8866C31.5546 17.7721 31.4089 17.8137 31.4142 17.9853C31.4293 18.1569 31.5911 18.3804 31.7887 18.5052C31.9913 18.6195 32.1319 18.5779 32.1214 18.401C32.1101 18.2294 31.9497 18.0059 31.7524 17.8864" fill="white"/>
<path d="M29.1767 12.0437C28.995 11.9448 28.8594 11.9554 28.8594 12.0738C28.8633 12.1933 29.0051 12.37 29.187 12.4689C29.3742 12.5678 29.5092 12.5524 29.5043 12.4313C29.5007 12.3117 29.3534 12.1399 29.1767 12.0414" fill="white"/>
<path d="M36.3422 18.7977C36.1967 18.7041 36.1031 18.7303 36.1189 18.8652C36.1453 19.0003 36.2699 19.1825 36.4154 19.2862C36.5611 19.3798 36.6547 19.3486 36.634 19.2082C36.6076 19.0731 36.4831 18.8909 36.3426 18.7975" fill="white"/>
<path d="M33.2658 22.3273C33.058 22.1973 32.9123 22.2599 32.9224 22.473C32.9375 22.6915 33.1096 22.9668 33.3177 23.1125C33.5256 23.2426 33.6766 23.18 33.661 22.9615C33.6458 22.7378 33.4737 22.4625 33.2658 22.3273Z" fill="white"/>
<path d="M32.6296 35.6512C32.458 35.5108 32.3281 35.6097 32.3281 35.8905C32.3394 36.1764 32.4791 36.5142 32.6505 36.6651C32.8274 36.8159 32.952 36.7119 32.9467 36.4258C32.9352 36.1399 32.801 35.802 32.6292 35.6512" fill="white"/>
<path d="M29.0073 29.3185C28.7992 29.1989 28.6329 29.296 28.6173 29.5472C28.6134 29.8019 28.7682 30.0931 28.9814 30.2229C29.1945 30.348 29.3556 30.2493 29.3662 29.9891C29.3698 29.7397 29.2152 29.4483 29.0073 29.3185Z" fill="white"/>
<path d="M31.8824 20.278C31.7369 20.1899 31.6277 20.2261 31.633 20.3716C31.6369 20.512 31.758 20.6937 31.9086 20.7876C32.0595 20.8759 32.1685 20.8344 32.1632 20.694C32.152 20.5485 32.0331 20.3665 31.8824 20.2782" fill="white"/>
<path d="M29.1143 11.3058C28.9585 11.2225 28.8438 11.2175 28.8438 11.3285C28.8474 11.4375 28.9686 11.5729 29.1244 11.6559C29.2802 11.7443 29.3949 11.7443 29.3949 11.6332C29.3912 11.5242 29.2652 11.3889 29.1143 11.3058Z" fill="white"/>
<path d="M30.2186 11.9663C30.0885 11.8933 29.9954 11.8933 30.0002 11.9887C30.0114 12.0824 30.1092 12.1913 30.2342 12.2643C30.359 12.3318 30.4579 12.3318 30.4526 12.2379C30.4414 12.1496 30.3437 12.0349 30.2186 11.9674" fill="white"/>
<path d="M27.4683 26.6632C27.2811 26.559 27.1253 26.6368 27.1094 26.8449C27.1058 27.0528 27.2398 27.2921 27.4268 27.4013C27.614 27.5002 27.7698 27.4238 27.7803 27.2141C27.7918 27.0062 27.656 26.7671 27.4683 26.6632Z" fill="white"/>
<path d="M25.9226 24.0798C25.7353 23.9914 25.5793 24.0571 25.5637 24.2461C25.5486 24.4331 25.678 24.6568 25.8652 24.7555C26.0524 24.8491 26.2082 24.7819 26.224 24.5944C26.2353 24.4022 26.1045 24.1837 25.9226 24.0798Z" fill="white"/>
<path d="M24.4982 21.6867C24.3162 21.5983 24.16 21.6603 24.1341 21.8271C24.1189 21.9987 24.243 22.2066 24.4252 22.3052C24.6125 22.3936 24.7687 22.3316 24.7894 22.1596C24.8045 21.9879 24.6804 21.7853 24.4982 21.6867Z" fill="white"/>
<path d="M30.143 11.2637C30.0079 11.1909 29.909 11.1857 29.9143 11.2788C29.9257 11.3775 30.034 11.492 30.1692 11.57C30.3041 11.6427 30.403 11.648 30.3977 11.5473C30.3865 11.4539 30.2782 11.3394 30.143 11.2614" fill="white"/>
<path d="M31.0073 11.2851C30.8877 11.2229 30.8047 11.2176 30.8047 11.3002C30.8159 11.3837 30.9089 11.4822 31.0231 11.5496C31.1427 11.6118 31.231 11.6171 31.2257 11.5345C31.2145 11.4512 31.1216 11.3528 31.0073 11.2848" fill="white"/>
<path d="M34.5812 23.3293C34.4511 23.241 34.3574 23.2825 34.368 23.4282C34.3831 23.5737 34.4928 23.7609 34.6227 23.8545C34.7578 23.9374 34.8464 23.9013 34.8358 23.7504C34.8246 23.6047 34.7163 23.4229 34.5812 23.3293Z" fill="white"/>
<path d="M33.3697 23.6625C33.2086 23.5583 33.0838 23.6104 33.0944 23.7923C33.1056 23.9741 33.2401 24.2031 33.4117 24.3173C33.578 24.4316 33.6978 24.3747 33.6873 24.1872C33.6758 24.0053 33.5363 23.7765 33.3697 23.662" fill="white"/>
<path d="M32.0127 22.8208C31.8569 22.7222 31.7422 22.7687 31.7422 22.9353C31.7534 23.0964 31.8771 23.2992 32.0334 23.3979C32.1891 23.4968 32.3039 23.4447 32.2986 23.2783C32.2873 23.1173 32.1637 22.9142 32.0127 22.8208Z" fill="white"/>
<path d="M30.6297 21.9995C30.484 21.9162 30.375 21.9579 30.375 22.1036C30.375 22.244 30.4893 22.4258 30.635 22.5143C30.7807 22.5978 30.8844 22.5522 30.8844 22.4102C30.8844 22.2647 30.7701 22.088 30.6297 21.9995Z" fill="white"/>
<path d="M29.208 21.1782C29.057 21.0954 28.9428 21.1406 28.9375 21.2771C28.9412 21.4176 29.0518 21.5945 29.2027 21.6775C29.3484 21.7608 29.4627 21.719 29.4627 21.5786C29.4627 21.4382 29.3537 21.2613 29.208 21.1782Z" fill="white"/>
<path d="M34.6483 24.5988C34.5132 24.5052 34.4246 24.552 34.4299 24.7078C34.4451 24.8586 34.56 25.0559 34.6899 25.1548C34.82 25.2484 34.9134 25.2016 34.903 25.0458C34.8918 24.89 34.7835 24.6922 34.6483 24.5988Z" fill="white"/>
<path d="M35.9927 25.6125C35.8731 25.5242 35.7949 25.5657 35.8057 25.7114C35.8206 25.8569 35.9199 26.0388 36.0395 26.1325C36.1593 26.2261 36.2373 26.1845 36.2267 26.0336C36.2116 25.8881 36.1072 25.7009 35.9927 25.6125Z" fill="white"/>
<path d="M29.1584 12.8288C29.0127 12.7455 28.8984 12.7508 28.8984 12.8591C28.9021 12.9734 29.018 13.1083 29.169 13.1918C29.3146 13.2698 29.4289 13.2645 29.4289 13.1503C29.425 13.0413 29.3094 12.9057 29.1584 12.8281" fill="white"/>
<path d="M20.2696 16.3839C19.9213 16.2228 19.604 16.3006 19.526 16.5764C19.4638 16.857 19.6873 17.2055 20.0409 17.3769C20.3997 17.5433 20.7168 17.4552 20.7845 17.1743C20.8366 16.8937 20.6181 16.5557 20.2696 16.3841" fill="white"/>
<path d="M18.759 15.5326C18.3171 15.33 17.9011 15.4287 17.7919 15.7614C17.6983 16.1095 17.9688 16.5413 18.421 16.7595C18.8785 16.9621 19.2948 16.8531 19.3881 16.5048C19.4712 16.162 19.1959 15.7458 18.759 15.5326Z" fill="white"/>
<path d="M8.61683 4.82207C8.85614 4.90559 8.9704 5.05083 8.89239 5.16509C8.79878 5.27408 8.54891 5.30001 8.30478 5.22246C8.06019 5.14422 7.94042 4.99898 8.02922 4.87944C8.12283 4.77045 8.37752 4.74452 8.61683 4.82207Z" fill="white"/>
<path d="M10.2929 5.3429C10.5735 5.45188 10.7192 5.63911 10.6256 5.78481C10.5267 5.91995 10.2304 5.94588 9.93928 5.84217C9.64789 5.73318 9.50242 5.54573 9.60108 5.40026C9.70525 5.26511 10.0067 5.23919 10.2926 5.3429" fill="white"/>
<path d="M9.65463 18.5843C9.91986 18.6933 10.0497 18.9323 9.95612 19.156C9.85218 19.3745 9.56606 19.4628 9.28522 19.3639C9.0147 19.2549 8.88484 19.0051 8.989 18.7869C9.09317 18.5684 9.38411 18.4854 9.65463 18.5843Z" fill="white"/>
<path d="M12.0503 17.382C12.4092 17.5328 12.6014 17.8655 12.4869 18.1619C12.3621 18.4531 11.9826 18.5674 11.6082 18.4217C11.2339 18.2659 11.0465 17.9226 11.1713 17.6264C11.3016 17.3403 11.6809 17.2363 12.0503 17.3818" fill="white"/>
<path d="M14.4512 16.6869C14.836 16.8586 15.0441 17.2119 14.9452 17.5187C14.8257 17.8202 14.4459 17.9294 14.0508 17.7681C13.6608 17.5965 13.4476 17.2326 13.5621 16.9258C13.6869 16.6296 14.0715 16.5307 14.4512 16.6865" fill="white"/>
<path d="M18.9501 9.00802C19.2722 9.16909 19.4803 9.44488 19.4232 9.63716C19.3658 9.83494 19.0643 9.86041 18.7316 9.70462C18.3987 9.53827 18.1908 9.2627 18.2532 9.06515C18.326 8.87815 18.6222 8.85727 18.9501 9.00779" fill="white"/>
<path d="M11.3431 6.70512C11.6446 6.82466 11.8059 7.03254 11.7173 7.19361C11.6132 7.34963 11.3066 7.38611 10.9946 7.27713C10.6878 7.15758 10.5265 6.94443 10.6204 6.78313C10.7293 6.62734 11.0414 6.59613 11.3431 6.70512Z" fill="white"/>
<path d="M12.8889 7.29699C13.1956 7.42181 13.3673 7.65033 13.2789 7.82196C13.1853 7.98831 12.8786 8.02456 12.5612 7.89997C12.2439 7.77033 12.0725 7.54135 12.1661 7.36972C12.2597 7.20337 12.5768 7.17217 12.8889 7.29699Z" fill="white"/>
<path d="M15.4609 9.37626C15.7988 9.53206 15.9911 9.80258 15.9131 10.0105C15.8248 10.2135 15.4921 10.255 15.1488 10.1041C14.8005 9.94827 14.608 9.67776 14.6911 9.4646C14.79 9.2721 15.1229 9.2308 15.4609 9.37626Z" fill="white"/>
<path d="M14.3895 7.87837C14.7171 8.02407 14.9044 8.27875 14.8264 8.47103C14.7327 8.65298 14.4051 8.68946 14.0618 8.54927C13.7239 8.39829 13.5316 8.14361 13.6252 7.95133C13.7241 7.76961 14.0568 7.73818 14.3895 7.8786" fill="white"/>
<path d="M15.8811 8.52461C16.2294 8.68568 16.4322 8.96124 16.3595 9.16935C16.2712 9.37218 15.9279 9.40843 15.569 9.25264C15.2102 9.08629 15.0021 8.80545 15.0907 8.59757C15.1895 8.39979 15.5275 8.36904 15.8811 8.52484" fill="white"/>
<path d="M16.9381 10.0162C17.3022 10.1878 17.5204 10.4893 17.4477 10.7181C17.3594 10.9466 17.0108 10.9987 16.6366 10.8271C16.2622 10.6502 16.0437 10.3436 16.127 10.1096C16.2204 9.89116 16.5742 9.84963 16.9381 10.016" fill="white"/>
<path d="M16.6867 16.0778C17.0612 16.255 17.2796 16.6083 17.1965 16.9045C17.1029 17.2012 16.7335 17.2996 16.3437 17.1333C15.9589 16.9562 15.7405 16.5925 15.8341 16.296C15.9431 16.0049 16.3072 15.9168 16.6867 16.0776" fill="white"/>
<path d="M17.0707 14.8345C17.4763 15.027 17.7156 15.396 17.6271 15.7027C17.5284 16.0095 17.1383 16.1082 16.7224 15.9212C16.3064 15.7289 16.0671 15.3441 16.1609 15.0373C16.2752 14.7409 16.6652 14.6528 17.0707 14.8345Z" fill="white"/>
<path d="M17.4168 13.6655C17.8484 13.8733 18.1083 14.2634 18.02 14.5805C17.9211 14.8978 17.5001 14.9912 17.0529 14.7937C16.6057 14.5805 16.3404 14.1751 16.4444 13.8577C16.5586 13.5512 16.9799 13.4679 17.4168 13.6655Z" fill="white"/>
<path d="M17.7703 12.5738C18.1915 12.7713 18.4464 13.1456 18.3631 13.442C18.2695 13.738 17.8691 13.8162 17.4323 13.6237C17.0007 13.4159 16.746 13.0311 16.8396 12.7349C16.9486 12.4435 17.3492 12.376 17.7703 12.5738Z" fill="white"/>
<path d="M18.0715 11.6222C18.4356 11.7993 18.6642 12.1215 18.5967 12.3709C18.5136 12.6155 18.1651 12.6776 17.7907 12.501C17.4112 12.3241 17.1874 11.9916 17.2655 11.742C17.3538 11.5029 17.7023 11.4508 18.0715 11.6224" fill="white"/>
<path d="M18.4079 10.6613C18.803 10.8589 19.0473 11.1966 18.9799 11.4566C18.8968 11.7165 18.5221 11.7633 18.1167 11.5764C17.7058 11.3786 17.4561 11.0303 17.5394 10.7705C17.6383 10.5211 18.0075 10.4739 18.4079 10.6613Z" fill="white"/>
<path d="M18.7111 9.78747C19.0959 9.97997 19.335 10.3021 19.2675 10.5465C19.1893 10.7856 18.8357 10.8271 18.4353 10.6454C18.0402 10.4529 17.7958 10.1151 17.8739 9.87076C17.9622 9.642 18.321 9.60552 18.7111 9.7877" fill="white"/>
<path d="M21.771 9.59044C22.0257 9.72054 22.2026 9.94402 22.1714 10.0998C22.1338 10.2558 21.9115 10.2769 21.6462 10.1466C21.3863 10.0117 21.2146 9.788 21.2458 9.62693C21.2874 9.47595 21.5164 9.45507 21.771 9.58907" fill="white"/>
<path d="M21.9821 8.88276C22.2106 9.00781 22.3721 9.20513 22.3462 9.34556C22.3159 9.4807 22.1122 9.49653 21.8729 9.37584C21.6338 9.25079 21.4725 9.04819 21.5039 8.90777C21.5415 8.77286 21.743 8.7623 21.9823 8.88139" fill="white"/>
<path d="M22.1783 8.22793C22.3809 8.33691 22.5213 8.50854 22.4956 8.62303C22.4692 8.7373 22.2978 8.74257 22.0899 8.63795C21.8821 8.52896 21.7467 8.35733 21.7678 8.23779C21.7978 8.12858 21.9757 8.1233 22.1785 8.22632" fill="white"/>
<path d="M22.3596 7.59425C22.5416 7.69314 22.6717 7.83356 22.651 7.94782C22.6246 8.06208 22.4691 8.05199 22.2869 7.95149C22.0996 7.85283 21.9696 7.71241 21.9955 7.59815C22.0219 7.48365 22.1774 7.49925 22.3596 7.59425Z" fill="white"/>
<path d="M22.5333 7.02153C22.6996 7.11491 22.8192 7.23996 22.8038 7.34367C22.7774 7.44784 22.6375 7.43201 22.4603 7.34367C22.2887 7.25006 22.1692 7.11996 22.1898 7.02153C22.2201 6.91736 22.3614 6.93319 22.5333 7.02153Z" fill="white"/>
<path d="M22.6894 6.48044C22.8401 6.55868 22.9441 6.66767 22.9285 6.76129C22.9097 6.84939 22.7828 6.83402 22.6323 6.75738C22.4813 6.66905 22.3723 6.55983 22.3932 6.4715C22.4157 6.38316 22.5387 6.39876 22.6894 6.48274" fill="white"/>
<path d="M22.8321 6.01862C22.9673 6.09663 23.0662 6.19552 23.0556 6.27858C23.0368 6.35659 22.9205 6.34076 22.7803 6.26343C22.6346 6.18519 22.541 6.08653 22.5563 6.00875C22.5715 5.92569 22.6915 5.94657 22.8319 6.01999" fill="white"/>
<path d="M22.9752 5.55104C23.1002 5.61872 23.1885 5.70706 23.1729 5.7798C23.1578 5.84725 23.0587 5.8266 22.9339 5.76465C22.8141 5.69192 22.7205 5.60886 22.7361 5.53612C22.7512 5.46844 22.8556 5.48932 22.9752 5.55104Z" fill="white"/>
<path d="M19.7667 18.5313C19.4913 18.4017 19.3248 18.1259 19.3766 17.8972C19.434 17.6787 19.6836 17.6113 19.9539 17.7361C20.2244 17.8662 20.3908 18.1365 20.349 18.36C20.2916 18.5885 20.0422 18.6614 19.7667 18.5316" fill="white"/>
<path d="M19.4699 19.9775C19.2047 19.8526 19.0436 19.5824 19.0957 19.3589C19.1579 19.1352 19.3921 19.0574 19.6571 19.1769C19.9118 19.302 20.0731 19.567 20.0263 19.7905C19.969 20.0142 19.7296 20.0972 19.4699 19.9777" fill="white"/>
<path d="M19.1944 21.5047C18.9344 21.3852 18.7784 21.1096 18.8302 20.8756C18.8924 20.6471 19.1317 20.5636 19.3919 20.6778C19.6413 20.7976 19.7976 21.0679 19.7508 21.3017C19.6934 21.5304 19.4541 21.624 19.1944 21.5047Z" fill="white"/>
<path d="M18.9374 23.1634C18.6928 23.0544 18.5526 22.7892 18.6045 22.5602C18.6618 22.3365 18.8906 22.2431 19.135 22.3523C19.3688 22.4615 19.5092 22.7215 19.4624 22.9503C19.4103 23.179 19.1818 23.2724 18.9372 23.1634" fill="white"/>
<path d="M18.6072 24.9688C18.3787 24.8646 18.2484 24.6102 18.3005 24.3814C18.3627 24.163 18.576 24.0693 18.7997 24.1682C19.0235 24.2724 19.1533 24.5216 19.1065 24.7453C19.0492 24.9637 18.836 25.0626 18.6072 24.969" fill="white"/>
<path d="M18.2488 27.0159C18.0356 26.9223 17.9214 26.6777 17.9734 26.4545C18.0308 26.236 18.2334 26.1371 18.4466 26.2257C18.6544 26.3193 18.7742 26.5584 18.7274 26.7821C18.67 27.0054 18.4622 27.1042 18.249 27.0159" fill="white"/>
<path d="M17.3052 9.18867C17.6381 9.34974 17.8407 9.62553 17.7786 9.83341C17.7003 10.031 17.3832 10.0725 17.04 9.91142C16.6917 9.75035 16.4889 9.46951 16.5616 9.26163C16.6499 9.06385 16.9672 9.03311 17.3052 9.1889" fill="white"/>
<path d="M16.5566 10.9933C16.8581 11.1335 17.04 11.3935 16.9725 11.591C16.8998 11.7888 16.6084 11.8356 16.2966 11.7002C15.9846 11.5545 15.8026 11.2895 15.8753 11.092C15.9586 10.8995 16.2496 10.858 16.5566 10.9931" fill="white"/>
<path d="M16.2073 11.9448C16.5556 12.1059 16.7533 12.4076 16.6806 12.6467C16.5923 12.8805 16.2541 12.9432 15.8954 12.7871C15.5366 12.6208 15.3338 12.314 15.417 12.0749C15.5159 11.8462 15.8537 11.7941 16.2073 11.9446" fill="white"/>
<path d="M14.9259 15.3657C15.2694 15.5215 15.4616 15.8338 15.3731 16.0988C15.2795 16.364 14.9312 16.4471 14.5776 16.3014C14.224 16.1456 14.0315 15.8232 14.1251 15.558C14.2293 15.298 14.5776 15.22 14.9259 15.3655" fill="white"/>
<path d="M11.8388 5.88353C12.1612 6.01845 12.3328 6.24216 12.2342 6.4085C12.13 6.57485 11.7973 6.60101 11.4697 6.46586C11.137 6.336 10.9653 6.10701 11.0693 5.94066C11.1835 5.77959 11.5165 5.75367 11.8388 5.88353Z" fill="white"/>
<path d="M11.4169 18.994C11.7549 19.1395 11.9263 19.4619 11.812 19.7478C11.6925 20.0392 11.3336 20.1585 10.9851 20.0233C10.637 19.8776 10.4652 19.5502 10.5847 19.2538C10.7146 18.9732 11.0737 18.8639 11.4169 18.9938" fill="white"/>
<path d="M9.01267 19.9572C9.35569 20.0921 9.51194 20.4147 9.38689 20.7109C9.2467 21.0074 8.87225 21.1372 8.51339 21.0074C8.16509 20.8725 8.0038 20.5395 8.14445 20.2433C8.28991 19.9519 8.66437 19.8326 9.01267 19.9572Z" fill="white"/>
<path d="M13.9095 18.183C14.2631 18.3388 14.4556 18.677 14.3567 18.9785C14.2425 19.2749 13.8836 19.3892 13.5144 19.2384C13.1556 19.0774 12.9631 18.7288 13.0672 18.4273C13.1868 18.1415 13.5507 18.0322 13.9095 18.183Z" fill="white"/>
<path d="M16.2206 17.5234C16.5535 17.6742 16.7458 18.0016 16.668 18.2772C16.5744 18.5525 16.2468 18.6567 15.9035 18.5057C15.5552 18.3499 15.3627 18.017 15.451 17.7364C15.5499 17.4658 15.8776 17.3722 16.2206 17.5232" fill="white"/>
<path d="M18.3559 16.8728C18.7042 17.0391 18.9226 17.3824 18.8552 17.6683C18.7716 17.9594 18.4339 18.0581 18.07 17.892C17.7059 17.7204 17.4927 17.3721 17.5707 17.0809C17.6591 16.8003 17.997 16.712 18.3559 16.873" fill="white"/>
<path d="M15.3678 14.1591C15.6851 14.3099 15.8721 14.5958 15.7891 14.8298C15.706 15.0636 15.3887 15.1363 15.0558 14.9961C14.7284 14.8504 14.5462 14.5542 14.6295 14.3202C14.7284 14.0917 15.0454 14.0237 15.3678 14.1591Z" fill="white"/>
<path d="M19.1954 8.25798C19.476 8.40368 19.6529 8.63748 19.6114 8.80406C19.5593 8.96513 19.2994 8.98578 19.0029 8.84536C18.717 8.69989 18.5351 8.46081 18.5869 8.29446C18.6443 8.13867 18.9093 8.12284 19.1954 8.2566" fill="white"/>
<path d="M13.3444 6.57885C13.5991 6.69311 13.7342 6.88034 13.6665 7.01548C13.5885 7.15063 13.3285 7.16646 13.0686 7.05701C12.8086 6.94275 12.6732 6.75552 12.7462 6.6151C12.8293 6.485 13.0892 6.4694 13.3441 6.57747" fill="white"/>
<path d="M14.618 11.3459C14.8936 11.4709 15.0549 11.6942 14.9822 11.8763C14.9042 12.0581 14.6286 12.1049 14.3477 11.9906C14.0619 11.8607 13.9058 11.6317 13.9788 11.4447C14.0621 11.2729 14.3429 11.2263 14.6183 11.3459" fill="white"/>
<path d="M12.6266 15.9577C12.9749 16.1087 13.1621 16.4205 13.0582 16.6908C12.9439 16.9661 12.5851 17.0598 12.2209 16.9196C11.8621 16.7686 11.6801 16.4464 11.7893 16.1709C11.9144 15.9109 12.273 15.8173 12.6266 15.9577Z" fill="white"/>
<path d="M15.7642 13.0945C16.0763 13.2347 16.2582 13.5102 16.1855 13.7287C16.0971 13.9471 15.7954 14.0093 15.4783 13.8691C15.161 13.7287 14.9791 13.4478 15.0571 13.2296C15.1507 13.0165 15.4522 12.9591 15.7642 13.0945Z" fill="white"/>
<path d="M12.518 11.6791C12.8404 11.8141 13.0173 12.0743 12.9237 12.2925C12.82 12.5056 12.487 12.568 12.1541 12.4382C11.8214 12.2977 11.6445 12.0325 11.7484 11.8193C11.8577 11.6117 12.1906 11.5491 12.518 11.6791Z" fill="white"/>
<path d="M6.92737 20.9855C7.17195 21.0738 7.27566 21.3028 7.17195 21.5157C7.05769 21.7289 6.7819 21.8278 6.53249 21.7442C6.2879 21.6509 6.18419 21.4221 6.29318 21.2037C6.41272 20.9958 6.68828 20.9022 6.92759 20.9852" fill="white"/>
<path d="M13.9242 8.75812C14.2208 8.88775 14.387 9.11674 14.309 9.29341C14.2257 9.46504 13.9294 9.50129 13.6277 9.38175C13.3262 9.25188 13.1599 9.01762 13.2379 8.84118C13.3315 8.67483 13.6277 8.63812 13.9242 8.75766" fill="white"/>
<path d="M20.5081 8.94963C20.7575 9.07972 20.9241 9.29288 20.8876 9.44362C20.8461 9.59437 20.6224 9.60997 20.3624 9.48492C20.1077 9.35528 19.9414 9.13685 19.9829 8.98588C20.0244 8.84041 20.2534 8.82481 20.5081 8.94825" fill="white"/>
<path d="M16.8205 6.44358C17.0128 6.52159 17.1378 6.65673 17.1169 6.76067C17.0869 6.85956 16.9143 6.88572 16.7218 6.81276C16.5241 6.73475 16.3997 6.5996 16.4252 6.49566C16.4555 6.39149 16.6278 6.37062 16.8205 6.44358Z" fill="white"/>
<path d="M14.7472 7.16606C14.9709 7.26495 15.1008 7.43657 15.0437 7.56116C14.9815 7.6807 14.7631 7.70158 14.5341 7.60269C14.3003 7.5038 14.1752 7.32736 14.2326 7.20758C14.295 7.08277 14.5187 7.06716 14.7475 7.16606" fill="white"/>
<path d="M14.1354 12.433C14.4215 12.5578 14.5826 12.8019 14.5045 12.9997C14.4263 13.1867 14.1354 13.2441 13.8442 13.1245C13.5528 12.9997 13.3917 12.7503 13.475 12.5578C13.5634 12.3655 13.8495 12.3134 14.1354 12.433Z" fill="white"/>
<path d="M13.018 10.7174C13.2674 10.8263 13.4131 11.0294 13.3401 11.1905C13.2621 11.3515 13.0021 11.3931 12.7422 11.2946C12.4822 11.1802 12.3418 10.9773 12.42 10.8163C12.4981 10.6605 12.758 10.6185 13.018 10.7174Z" fill="white"/>
<path d="M10.8091 11.0866C11.1106 11.2009 11.2616 11.4347 11.168 11.6219C11.0643 11.8144 10.752 11.8713 10.44 11.7623C10.1385 11.6428 9.97717 11.4087 10.0758 11.2165C10.1848 11.0345 10.5021 10.9774 10.8091 11.0866Z" fill="white"/>
<path d="M9.76944 6.21659C10.0088 6.29942 10.1336 6.46095 10.0556 6.58049C9.96722 6.70554 9.72263 6.73652 9.47827 6.65346C9.23392 6.56512 9.10933 6.41415 9.18711 6.28451C9.27544 6.17025 9.53013 6.13881 9.76944 6.21682" fill="white"/>
<path d="M17.148 5.78983C17.3561 5.87312 17.4915 6.01354 17.4656 6.12253C17.4389 6.23152 17.2522 6.25239 17.039 6.16934C16.8311 6.08582 16.696 5.94058 16.7219 5.83136C16.7522 5.72719 16.9406 5.70631 17.1485 5.78983" fill="white"/>
<path d="M17.8771 7.6553C18.1318 7.78011 18.2878 7.98799 18.2412 8.12841C18.1891 8.27411 17.9498 8.28948 17.6848 8.16604C17.4301 8.04122 17.2741 7.83335 17.3207 7.68788C17.3829 7.54746 17.6222 7.5369 17.8771 7.65759" fill="white"/>
<path d="M18.174 6.94948C18.3974 7.06374 18.5429 7.24546 18.5067 7.37051C18.469 7.50015 18.2623 7.50543 18.0335 7.393C17.8098 7.28401 17.6646 7.09701 17.7009 6.96692C17.7474 6.84715 17.9503 6.84187 18.174 6.95177" fill="white"/>
<path d="M15.0114 10.4265C15.2507 10.5355 15.3856 10.7332 15.3287 10.884C15.2613 11.04 15.0273 11.0763 14.7827 10.9673C14.5333 10.8583 14.3979 10.6605 14.4605 10.5047C14.528 10.359 14.7673 10.3228 15.0117 10.4265" fill="white"/>
<path d="M16.1947 7.84731C16.3925 7.94092 16.512 8.09672 16.4702 8.21144C16.4182 8.32043 16.2257 8.33626 16.0231 8.24173C15.8253 8.14811 15.7055 7.99232 15.7523 7.8776C15.8044 7.76861 15.9969 7.75278 16.1945 7.84731" fill="white"/>
<path d="M13.1492 14.7626C13.3987 14.8668 13.529 15.0848 13.4613 15.267C13.3833 15.4487 13.1286 15.5113 12.879 15.4071C12.6243 15.2982 12.4942 15.0797 12.5669 14.8978C12.65 14.7158 12.8998 14.6585 13.1492 14.7626Z" fill="white"/>
<path d="M17.5402 8.50314C17.7171 8.59148 17.8264 8.7319 17.7949 8.83607C17.7534 8.94001 17.587 8.95033 17.4049 8.8737C17.228 8.78536 17.119 8.63989 17.1555 8.53573C17.197 8.43683 17.3633 8.42674 17.5402 8.50544" fill="white"/>
<path d="M19.388 7.59933C19.5858 7.7035 19.7157 7.86457 19.6895 7.97884C19.6595 8.0931 19.4816 8.10366 19.2735 8.00522C19.0758 7.89624 18.9461 7.72989 18.972 7.6154C19.0099 7.50618 19.1852 7.49563 19.388 7.60025" fill="white"/>
<path d="M12.3465 8.18072C12.5911 8.27961 12.7263 8.46684 12.6586 8.60703C12.5757 8.74217 12.3259 8.77361 12.0762 8.67999C11.8216 8.57583 11.6862 8.39388 11.7642 8.24841C11.8422 8.11326 12.0971 8.08206 12.3465 8.18095" fill="white"/>
<path d="M6.95354 4.28218C7.15637 4.34436 7.25022 4.45863 7.17221 4.55224C7.09396 4.64058 6.87553 4.66123 6.66765 4.60433C6.46505 4.54215 6.37121 4.42261 6.44922 4.33427C6.53228 4.24593 6.75599 4.22001 6.95354 4.28218Z" fill="white"/>
<path d="M9.05901 10.4839C9.33986 10.5828 9.48028 10.7854 9.38666 10.9571C9.28295 11.1234 8.98628 11.1805 8.69511 11.0869C8.409 10.988 8.26858 10.7802 8.36747 10.6085C8.47645 10.4422 8.77313 10.3901 9.05901 10.4837" fill="white"/>
<path d="M6.32791 22.555C6.55162 22.6383 6.63996 22.8565 6.53579 23.0643C6.42153 23.2722 6.16684 23.3711 5.93786 23.2931C5.7091 23.2048 5.62581 22.9811 5.73525 22.7732C5.84424 22.5701 6.1042 22.4767 6.32814 22.5548" fill="white"/>
<path d="M4.57084 23.4699C4.76862 23.5374 4.8464 23.7193 4.74774 23.9013C4.64357 24.0782 4.40977 24.1718 4.20694 24.1044C4.00434 24.0369 3.92632 23.8444 4.03049 23.6675C4.1342 23.4906 4.36847 23.4025 4.5713 23.4699" fill="white"/>
<path d="M10.7903 20.5546C11.0402 20.6638 11.1698 20.9082 11.0817 21.1422C10.9828 21.3659 10.7072 21.4697 10.4473 21.3659C10.1871 21.2567 10.0625 21.0018 10.1559 20.7733C10.26 20.5496 10.5301 20.456 10.7903 20.5549" fill="white"/>
<path d="M8.38672 21.5844C8.64141 21.6886 8.76623 21.9377 8.67789 22.1665C8.57923 22.3952 8.30894 22.4941 8.0437 22.3952C7.78879 22.2863 7.66397 22.0311 7.75758 21.8026C7.85647 21.5789 8.13181 21.4853 8.38672 21.5842" fill="white"/>
<path d="M11.3462 10.1408C11.5387 10.2135 11.6376 10.3592 11.5802 10.4735C11.5125 10.5877 11.3202 10.6245 11.1277 10.5515C10.93 10.4735 10.8311 10.3278 10.8937 10.2135C10.9561 10.0993 11.1539 10.0678 11.3462 10.1408Z" fill="white"/>
<path d="M16.2872 4.80762C16.4535 4.87531 16.5577 4.97397 16.5318 5.06758C16.5015 5.15064 16.3546 5.15592 16.1936 5.0903C16.0272 5.02284 15.9235 4.92395 15.9492 4.83561C15.9868 4.74728 16.1309 4.74728 16.2872 4.80923" fill="white"/>
<path d="M13.3336 19.758C13.552 19.8514 13.6663 20.0646 13.5988 20.2623C13.5259 20.4493 13.3021 20.5274 13.0839 20.4392C12.8602 20.3404 12.746 20.1219 12.8187 19.9296C12.8914 19.7426 13.1154 19.6697 13.3336 19.758Z" fill="white"/>
<path d="M15.7044 18.958C15.907 19.0516 16.0218 19.2547 15.9697 19.4312C15.9123 19.6028 15.7097 19.6757 15.5018 19.5869C15.2937 19.4881 15.1795 19.2855 15.2311 19.1035C15.2935 18.9319 15.4966 18.8697 15.7044 18.9578" fill="white"/>
<path d="M17.8977 18.4692C18.0955 18.5576 18.2097 18.7501 18.1682 18.9164C18.1214 19.0775 17.9344 19.1401 17.7366 19.0516C17.5388 18.9632 17.4246 18.7602 17.4714 18.5991C17.5182 18.438 17.7001 18.3807 17.8977 18.4695" fill="white"/>
<path d="M7.16986 9.99602C7.35686 10.0534 7.44519 10.1833 7.37774 10.2927C7.30477 10.4017 7.10217 10.4382 6.90967 10.3808C6.71716 10.3234 6.62378 10.1938 6.69651 10.0844C6.76925 9.97537 6.97736 9.93338 7.16963 9.99602" fill="white"/>
<path d="M8.41428 11.3628C8.64303 11.4459 8.7573 11.6122 8.67424 11.7582C8.5859 11.8984 8.34682 11.9504 8.10751 11.8724C7.87875 11.7942 7.76403 11.623 7.84755 11.4824C7.93588 11.3422 8.18552 11.2901 8.41428 11.3628Z" fill="white"/>
<path d="M10.1967 12.1575C10.3993 12.2355 10.4982 12.3915 10.436 12.5265C10.3631 12.6566 10.1552 12.6981 9.94731 12.6254C9.74448 12.5473 9.64055 12.3915 9.708 12.2564C9.78074 12.1316 9.99412 12.0848 10.1967 12.1575Z" fill="white"/>
<path d="M11.9613 12.8643C12.1382 12.9371 12.2318 13.0828 12.1797 13.2071C12.1224 13.3216 11.9406 13.3629 11.7587 13.2955C11.5767 13.2174 11.4831 13.0717 11.54 12.9472C11.5974 12.8329 11.7793 12.7964 11.9613 12.8639" fill="white"/>
<path d="M13.649 13.5763C13.8206 13.6491 13.9143 13.8 13.8675 13.9246C13.8154 14.0442 13.6389 14.0804 13.462 14.0079C13.2854 13.9352 13.1917 13.7842 13.2385 13.6596C13.2959 13.5401 13.4726 13.5038 13.6493 13.5763" fill="white"/>
<path d="M17.4457 5.24883C17.6015 5.31652 17.711 5.41518 17.6903 5.50352C17.6639 5.5868 17.5293 5.59185 17.368 5.5299C17.2122 5.46772 17.1027 5.36883 17.1289 5.27522C17.1553 5.19193 17.2899 5.19193 17.4462 5.24883" fill="white"/>
<path d="M16.6091 4.29168C16.7548 4.34904 16.8484 4.44265 16.8223 4.5202C16.7998 4.59317 16.6768 4.59844 16.5364 4.53535C16.396 4.47799 16.3023 4.3846 16.3232 4.30682C16.3496 4.22858 16.4687 4.22858 16.6091 4.29168Z" fill="white"/>
<path d="M15.7434 3.45541C15.8682 3.5075 15.9566 3.58528 15.941 3.65802C15.9146 3.72547 15.806 3.73075 15.681 3.68073C15.5511 3.62865 15.4626 3.55063 15.4784 3.47767C15.5048 3.40494 15.6135 3.40494 15.7436 3.45519" fill="white"/>
<path d="M18.4039 6.37701C18.5649 6.46007 18.6744 6.58488 18.6485 6.68378C18.6106 6.78267 18.4713 6.77739 18.3002 6.69502C18.1336 6.61173 18.0246 6.48714 18.0507 6.38297C18.0884 6.28959 18.2325 6.29487 18.4043 6.3793" fill="white"/>
<path d="M6.55031 10.8271C6.74786 10.8893 6.8362 11.0247 6.76346 11.1389C6.68522 11.2534 6.47734 11.3002 6.27979 11.2431C6.08201 11.1809 5.98839 11.0455 6.06664 10.931C6.14465 10.8168 6.35275 10.77 6.55008 10.8271" fill="white"/>
<path d="M4.81518 10.3538C4.99713 10.4006 5.08042 10.5149 5.01297 10.6243C4.92991 10.7283 4.73212 10.7698 4.53985 10.7283C4.35262 10.6762 4.27438 10.5619 4.34734 10.4577C4.42536 10.3538 4.62796 10.3123 4.81518 10.3538Z" fill="white"/>
<path fill-rule="evenodd" clip-rule="evenodd" d="M19.5637 9.70664C19.6366 9.48293 19.9696 9.45195 20.3438 9.63367C20.7079 9.82618 20.9679 10.1329 20.9158 10.3617C20.9782 10.1327 21.2953 10.1224 21.6594 10.3043C21.9609 10.4604 22.1794 10.7045 22.2262 10.9229C22.3457 10.7681 22.6369 10.7628 22.9751 10.9344C23.3078 11.1111 23.5469 11.3866 23.5989 11.6257C23.7082 11.4975 23.9628 11.4975 24.2542 11.6484C24.556 11.8095 24.7845 12.0697 24.8313 12.2982C24.9199 12.1388 25.1745 12.1335 25.4813 12.2946C25.8296 12.4816 26.0854 12.809 26.0742 13.0536C26.0483 13.2614 25.8349 13.3241 25.5387 13.2199C25.8558 13.4381 26.0751 13.7552 26.0639 13.9998C26.0377 14.2189 25.856 14.3011 25.5855 14.249C25.8402 14.4727 26.0008 14.7432 25.9859 14.9717C25.9597 15.2374 25.7103 15.3253 25.367 15.2108C25.6947 15.4501 25.92 15.7934 25.8973 16.0687C25.8714 16.3025 25.6947 16.4108 25.4295 16.3807C25.6736 16.6198 25.8225 16.9007 25.8037 17.1501C25.7778 17.4206 25.5644 17.5401 25.2629 17.4828C25.544 17.7324 25.7186 18.0704 25.6997 18.351C25.6633 18.7305 25.2888 18.845 24.8313 18.6162C24.5039 18.4448 24.254 18.1539 24.145 17.8572C23.9784 18.0194 23.6873 18.0298 23.3546 17.8687C23.032 17.7074 22.7879 17.4268 22.6837 17.1407C22.5017 17.288 22.2106 17.2981 21.8776 17.137C21.5553 16.9759 21.3111 16.7001 21.207 16.4195C21.0197 16.5593 20.718 16.5694 20.3853 16.4083C19.9955 16.2211 19.73 15.8833 19.6832 15.566C19.5013 15.7739 19.1374 15.8101 18.742 15.6282C18.2586 15.3944 17.9672 14.9472 18.0661 14.5885C18.1494 14.3233 18.4247 14.2139 18.7682 14.2712C18.4773 14.0269 18.3263 13.7201 18.399 13.4707C18.4667 13.2417 18.7005 13.1364 18.9972 13.174C18.7579 12.9505 18.6333 12.6855 18.6957 12.4671C18.7787 12.2083 19.091 12.1241 19.46 12.2383C19.122 12.0096 18.9297 11.6874 18.9972 11.4431C19.0649 11.237 19.2989 11.157 19.6004 11.2143C19.3453 10.9959 19.2101 10.7414 19.2622 10.5437C19.3352 10.3151 19.6316 10.2578 19.9799 10.3773C19.6835 10.1798 19.5118 9.90947 19.5639 9.71191M22.2422 11.3144C22.0965 11.243 21.9719 11.2478 21.9456 11.352C21.9297 11.4509 22.0286 11.5755 22.1741 11.6535C22.3198 11.7248 22.4467 11.7145 22.4655 11.6156C22.4811 11.5119 22.3875 11.3924 22.2418 11.3144H22.2422ZM23.5161 11.9678C23.3704 11.8965 23.249 11.9015 23.23 12.0055C23.2146 12.1094 23.3183 12.2342 23.464 12.3122C23.6097 12.3852 23.7297 12.3749 23.7449 12.2707C23.7607 12.167 23.6565 12.0422 23.5161 11.9694V11.9678ZM24.4679 12.6438C24.4522 12.7528 24.5718 12.9035 24.7278 12.9918C24.8942 13.0701 25.0231 13.054 25.0346 12.945C25.05 12.8308 24.9357 12.6851 24.7746 12.597C24.6133 12.5187 24.4828 12.5346 24.4679 12.6438ZM20.6246 11.5312C20.4739 11.4529 20.3326 11.4685 20.3023 11.5727C20.2816 11.6819 20.3801 11.8118 20.5363 11.8898C20.6926 11.9681 20.8272 11.9522 20.8536 11.843C20.8796 11.7391 20.7758 11.6092 20.6249 11.5312H20.6246ZM24.7118 13.6107C24.5608 13.5326 24.4408 13.5485 24.4256 13.6575C24.4155 13.7717 24.5192 13.9069 24.6702 13.9849C24.8159 14.0631 24.9412 14.0471 24.9563 13.9328C24.9612 13.8185 24.8574 13.6887 24.7118 13.6107ZM20.063 12.5137C20.0368 12.6282 20.1407 12.7684 20.297 12.8519C20.4581 12.9246 20.6033 12.9035 20.6297 12.7945C20.6558 12.6855 20.5517 12.5451 20.3957 12.4618C20.2346 12.3889 20.093 12.4097 20.063 12.5137ZM24.3008 14.645C24.2903 14.7542 24.3992 14.905 24.5502 14.988C24.7012 15.066 24.8318 15.0348 24.8467 14.9258C24.8572 14.8116 24.7482 14.6659 24.5973 14.5828C24.4463 14.5101 24.3233 14.5307 24.3008 14.645ZM20.1465 13.4652C19.9854 13.3869 19.8386 13.4131 19.8085 13.5274C19.7771 13.6416 19.8812 13.7926 20.0423 13.8754C20.2089 13.9537 20.3605 13.9222 20.3906 13.808C20.4168 13.6937 20.3073 13.5432 20.1462 13.4652H20.1465ZM24.1714 15.6954C24.1556 15.8202 24.265 15.976 24.4208 16.0593C24.5766 16.1375 24.7124 16.1061 24.7276 15.9866C24.7381 15.8617 24.6287 15.7112 24.4729 15.6277C24.3171 15.5497 24.1866 15.5809 24.1714 15.6954ZM20.1774 14.8533C20.2036 14.7129 20.0891 14.536 19.9019 14.4477C19.7149 14.3593 19.5497 14.396 19.5121 14.5259C19.4758 14.6661 19.5953 14.843 19.7826 14.9366C19.9698 15.0247 20.1401 14.9882 20.1777 14.8531L20.1774 14.8533ZM21.1186 15.3108C21.0975 15.4357 21.207 15.5915 21.368 15.675C21.5344 15.7525 21.676 15.7218 21.706 15.5967C21.7271 15.4719 21.6179 15.3157 21.4566 15.2328C21.2955 15.155 21.1487 15.186 21.1186 15.3108ZM22.8867 15.9453C22.7254 15.8677 22.5855 15.8987 22.5591 16.0235C22.5384 16.143 22.6527 16.3092 22.8138 16.3924C22.9751 16.4702 23.1134 16.434 23.1361 16.3092C23.152 16.1841 23.0425 16.023 22.8867 15.945V15.9453ZM24.2958 16.6263C24.1193 16.5381 23.9612 16.5742 23.9422 16.7199C23.9268 16.8603 24.0514 17.0422 24.2283 17.1359C24.4103 17.2295 24.5631 17.1879 24.5819 17.0475C24.592 16.9018 24.4729 16.7199 24.2958 16.6265V16.6263ZM20.8534 10.5916C20.687 10.5099 20.5404 10.5253 20.5104 10.6295C20.4895 10.7336 20.5987 10.8791 20.7651 10.9674C20.9314 11.0455 21.0842 11.0301 21.1033 10.9259C21.1292 10.8169 21.0202 10.6765 20.8539 10.5932L20.8534 10.5916Z" fill="white"/>
</g>
<defs>
<radialGradient id="paint0_radial_2704_7301" cx="0" cy="0" r="1" gradientUnits="userSpaceOnUse" gradientTransform="translate(-14.7491 48.7651) scale(69.4409 69.4409)">
<stop stop-color="#73C52A"/>
<stop offset="0.25" stop-color="#73C52A"/>
<stop offset="0.273" stop-color="#73C52A"/>
<stop offset="0.293" stop-color="#72C52B"/>
<stop offset="0.297" stop-color="#72C52B"/>
<stop offset="0.301" stop-color="#71C52B"/>
<stop offset="0.305" stop-color="#70C42B"/>
<stop offset="0.309" stop-color="#6FC42C"/>
<stop offset="0.313" stop-color="#6FC42C"/>
<stop offset="0.316" stop-color="#6EC42C"/>
<stop offset="0.32" stop-color="#6DC42C"/>
<stop offset="0.324" stop-color="#6DC32C"/>
<stop offset="0.328" stop-color="#6CC32D"/>
<stop offset="0.332" stop-color="#6BC32D"/>
<stop offset="0.336" stop-color="#6AC32D"/>
<stop offset="0.34" stop-color="#6AC32D"/>
<stop offset="0.344" stop-color="#69C22E"/>
<stop offset="0.348" stop-color="#68C22E"/>
<stop offset="0.352" stop-color="#68C22E"/>
<stop offset="0.355" stop-color="#67C22E"/>
<stop offset="0.359" stop-color="#66C12E"/>
<stop offset="0.363" stop-color="#65C12F"/>
<stop offset="0.367" stop-color="#65C12F"/>
<stop offset="0.371" stop-color="#64C12F"/>
<stop offset="0.375" stop-color="#63C12F"/>
<stop offset="0.379" stop-color="#63C030"/>
<stop offset="0.383" stop-color="#62C030"/>
<stop offset="0.387" stop-color="#61C030"/>
<stop offset="0.391" stop-color="#60C030"/>
<stop offset="0.395" stop-color="#60C030"/>
<stop offset="0.398" stop-color="#5FBF31"/>
<stop offset="0.402" stop-color="#5EBF31"/>
<stop offset="0.406" stop-color="#5EBF31"/>
<stop offset="0.41" stop-color="#5DBF31"/>
<stop offset="0.414" stop-color="#5CBE32"/>
<stop offset="0.418" stop-color="#5BBE32"/>
<stop offset="0.422" stop-color="#5BBE32"/>
<stop offset="0.426" stop-color="#5ABE32"/>
<stop offset="0.43" stop-color="#59BE32"/>
<stop offset="0.434" stop-color="#58BD33"/>
<stop offset="0.438" stop-color="#58BD33"/>
<stop offset="0.441" stop-color="#56BD33"/>
<stop offset="0.445" stop-color="#55BC34"/>
<stop offset="0.449" stop-color="#54BB34"/>
<stop offset="0.453" stop-color="#52BB34"/>
<stop offset="0.457" stop-color="#51BA34"/>
<stop offset="0.461" stop-color="#50B935"/>
<stop offset="0.465" stop-color="#4EB935"/>
<stop offset="0.469" stop-color="#4DB835"/>
<stop offset="0.473" stop-color="#4CB836"/>
<stop offset="0.477" stop-color="#4AB736"/>
<stop offset="0.48" stop-color="#49B636"/>
<stop offset="0.484" stop-color="#48B636"/>
<stop offset="0.488" stop-color="#46B537"/>
<stop offset="0.492" stop-color="#45B437"/>
<stop offset="0.496" stop-color="#44B437"/>
<stop offset="0.5" stop-color="#42B338"/>
<stop offset="0.504" stop-color="#41B338"/>
<stop offset="0.508" stop-color="#40B238"/>
<stop offset="0.512" stop-color="#3FB138"/>
<stop offset="0.516" stop-color="#3DB139"/>
<stop offset="0.52" stop-color="#3CB039"/>
<stop offset="0.523" stop-color="#3BAF39"/>
<stop offset="0.527" stop-color="#39AF3A"/>
<stop offset="0.531" stop-color="#38AE3A"/>
<stop offset="0.535" stop-color="#37AE3A"/>
<stop offset="0.539" stop-color="#36AD3A"/>
<stop offset="0.543" stop-color="#34AC3B"/>
<stop offset="0.547" stop-color="#33AC3B"/>
<stop offset="0.551" stop-color="#32AB3B"/>
<stop offset="0.555" stop-color="#31AB3B"/>
<stop offset="0.559" stop-color="#2FAA3C"/>
<stop offset="0.563" stop-color="#2EA93C"/>
<stop offset="0.566" stop-color="#2DA93C"/>
<stop offset="0.57" stop-color="#2CA83D"/>
<stop offset="0.574" stop-color="#2AA73D"/>
<stop offset="0.578" stop-color="#29A73D"/>
<stop offset="0.582" stop-color="#28A63D"/>
<stop offset="0.586" stop-color="#27A63E"/>
<stop offset="0.59" stop-color="#25A53E"/>
<stop offset="0.594" stop-color="#24A43E"/>
<stop offset="0.598" stop-color="#23A43E"/>
<stop offset="0.602" stop-color="#22A33F"/>
<stop offset="0.605" stop-color="#20A33F"/>
<stop offset="0.609" stop-color="#1FA23F"/>
<stop offset="0.613" stop-color="#1EA13F"/>
<stop offset="0.617" stop-color="#1DA140"/>
<stop offset="0.621" stop-color="#1CA040"/>
<stop offset="0.625" stop-color="#1AA040"/>
<stop offset="0.629" stop-color="#199F40"/>
<stop offset="0.633" stop-color="#189F41"/>
<stop offset="0.637" stop-color="#179E41"/>
<stop offset="0.641" stop-color="#169D41"/>
<stop offset="0.645" stop-color="#159D41"/>
<stop offset="0.648" stop-color="#139C42"/>
<stop offset="0.652" stop-color="#129C42"/>
<stop offset="0.656" stop-color="#119B42"/>
<stop offset="0.66" stop-color="#109A42"/>
<stop offset="0.664" stop-color="#0F9A42"/>
<stop offset="0.668" stop-color="#0E9943"/>
<stop offset="0.672" stop-color="#0C9943"/>
<stop offset="0.676" stop-color="#0B9843"/>
<stop offset="0.68" stop-color="#0A9843"/>
<stop offset="0.684" stop-color="#0B944D"/>
<stop offset="0.688" stop-color="#0E8C63"/>
<stop offset="0.691" stop-color="#12827B"/>
<stop offset="0.695" stop-color="#167791"/>
<stop offset="0.699" stop-color="#1A6AA4"/>
<stop offset="0.703" stop-color="#1C61B0"/>
<stop offset="0.707" stop-color="#1D5FB5"/>
<stop offset="0.711" stop-color="#1D60B6"/>
<stop offset="0.715" stop-color="#1C62B7"/>
<stop offset="0.719" stop-color="#1C63B8"/>
<stop offset="0.723" stop-color="#1C65B9"/>
<stop offset="0.727" stop-color="#1B66BA"/>
<stop offset="0.73" stop-color="#1B67BB"/>
<stop offset="0.734" stop-color="#1B69BC"/>
<stop offset="0.738" stop-color="#1A6ABD"/>
<stop offset="0.742" stop-color="#1A6CBE"/>
<stop offset="0.746" stop-color="#1A6DBF"/>
<stop offset="0.75" stop-color="#196FC0"/>
<stop offset="0.754" stop-color="#1970C1"/>
<stop offset="0.758" stop-color="#1971C2"/>
<stop offset="0.762" stop-color="#1873C3"/>
<stop offset="0.766" stop-color="#1874C4"/>
<stop offset="0.77" stop-color="#1876C5"/>
<stop offset="0.773" stop-color="#1777C6"/>
<stop offset="0.777" stop-color="#1778C7"/>
<stop offset="0.781" stop-color="#177AC8"/>
<stop offset="0.785" stop-color="#167BCA"/>
<stop offset="0.789" stop-color="#167DCB"/>
<stop offset="0.793" stop-color="#167ECC"/>
<stop offset="0.797" stop-color="#1580CD"/>
<stop offset="0.801" stop-color="#1581CE"/>
<stop offset="0.805" stop-color="#1583CF"/>
<stop offset="0.809" stop-color="#1584D0"/>
<stop offset="0.813" stop-color="#1485D1"/>
<stop offset="0.816" stop-color="#1487D2"/>
<stop offset="0.82" stop-color="#1488D3"/>
<stop offset="0.824" stop-color="#138AD4"/>
<stop offset="0.828" stop-color="#138BD5"/>
<stop offset="0.832" stop-color="#138DD6"/>
<stop offset="0.836" stop-color="#128ED7"/>
<stop offset="0.84" stop-color="#1290D8"/>
<stop offset="0.844" stop-color="#1291D9"/>
<stop offset="0.848" stop-color="#1193DA"/>
<stop offset="0.852" stop-color="#1194DB"/>
<stop offset="0.855" stop-color="#1196DD"/>
<stop offset="0.859" stop-color="#1197DE"/>
<stop offset="0.863" stop-color="#1099DF"/>
<stop offset="0.867" stop-color="#109AE0"/>
<stop offset="0.871" stop-color="#109CE1"/>
<stop offset="0.875" stop-color="#0F9DE2"/>
<stop offset="0.879" stop-color="#0F9FE3"/>
<stop offset="0.883" stop-color="#0FA0E4"/>
<stop offset="0.887" stop-color="#0FA2E5"/>
<stop offset="0.891" stop-color="#0EA3E6"/>
<stop offset="0.895" stop-color="#0EA5E7"/>
<stop offset="0.898" stop-color="#0EA6E8"/>
<stop offset="0.902" stop-color="#0EA6E8"/>
<stop offset="0.906" stop-color="#0DA7E9"/>
<stop offset="0.91" stop-color="#0DA7E9"/>
<stop offset="0.914" stop-color="#0DA7E9"/>
<stop offset="0.918" stop-color="#0DA7E9"/>
<stop offset="0.922" stop-color="#0DA8E9"/>
<stop offset="0.926" stop-color="#0DA8EA"/>
<stop offset="0.93" stop-color="#0DA8EA"/>
<stop offset="0.934" stop-color="#0DA9EA"/>
<stop offset="0.938" stop-color="#0DA9EA"/>
<stop offset="0.941" stop-color="#0DA9EB"/>
<stop offset="0.945" stop-color="#0CAAEB"/>
<stop offset="0.949" stop-color="#0CAAEB"/>
<stop offset="0.953" stop-color="#0CAAEB"/>
<stop offset="0.957" stop-color="#0CABEB"/>
<stop offset="0.961" stop-color="#0CABEC"/>
<stop offset="0.965" stop-color="#0CABEC"/>
<stop offset="0.969" stop-color="#0CABEC"/>
<stop offset="0.973" stop-color="#0CACEC"/>
<stop offset="0.977" stop-color="#0CACED"/>
<stop offset="0.98" stop-color="#0CACED"/>
<stop offset="0.984" stop-color="#0BADED"/>
<stop offset="0.988" stop-color="#0BADED"/>
<stop offset="0.992" stop-color="#0BADED"/>
<stop offset="0.996" stop-color="#0BAEEE"/>
<stop offset="1" stop-color="#0BAEEE"/>
</radialGradient>
<clipPath id="clip0_2704_7301">
<rect width="36" height="36" fill="white" transform="translate(2 2)"/>
</clipPath>
</defs>
</svg>
