<svg width="40" height="40" viewBox="0 0 40 40" fill="none" xmlns="http://www.w3.org/2000/svg">
<g clip-path="url(#clip0_2704_7305)">
<path d="M32.6 2H7.4C4.41766 2 2 4.41766 2 7.4V32.6C2 35.5823 4.41766 38 7.4 38H32.6C35.5823 38 38 35.5823 38 32.6V7.4C38 4.41766 35.5823 2 32.6 2Z" fill="#034EA2"/>
<path d="M7.06126 17.75C5.93626 17.75 5.44407 18.1016 5.51439 19.1562C5.72532 20 7.2722 20.4922 7.41282 20.7734V21.0547C7.41282 21.1953 7.34251 21.3359 7.06126 21.3359C6.78001 21.3359 6.63939 21.125 6.63939 20.9844V20.6328H5.51439C5.44407 21.7578 6.28782 22.1094 7.06126 22.1094C8.04564 22.1094 8.53782 21.8281 8.53782 20.9141C8.60814 19.5781 6.85032 19.5078 6.7097 18.9453C6.7097 18.875 6.7097 18.875 6.7097 18.7344C6.7097 18.6641 6.78001 18.4531 7.06126 18.4531C7.34251 18.4531 7.41282 18.6641 7.41282 18.8047V19.0859H8.46751V18.8047C8.46751 17.8906 7.62376 17.75 7.06126 17.75ZM31.8816 18.8047V21.125C31.9519 22.6016 34.6238 22.3203 34.6238 21.125V19.7188H33.4285V20.2812H33.78V21.0547C33.7097 21.4062 32.866 21.4062 32.866 21.0547C32.866 20.2812 32.866 19.5781 32.866 18.875C32.866 18.5234 33.6394 18.5234 33.7097 18.875V19.2266H34.6238V18.8047C34.5535 17.3984 31.8816 17.6094 31.8816 18.8047ZM20.6316 17.75C19.5066 17.75 19.0144 18.1016 19.0847 19.1562C19.2956 20 20.8425 20.4922 20.9831 20.7734V21.0547C20.9831 21.1953 20.9128 21.3359 20.6316 21.3359C20.3503 21.3359 20.2097 21.125 20.2097 20.9844V20.6328H19.0847C19.0144 21.7578 19.8581 22.1094 20.6316 22.1094C21.616 22.1094 22.1081 21.8281 22.1081 20.9141C22.1785 19.5781 20.4206 19.5078 20.28 18.9453C20.28 18.875 20.28 18.875 20.28 18.7344C20.28 18.6641 20.3503 18.4531 20.6316 18.4531C20.9128 18.4531 20.9831 18.6641 20.9831 18.8047V19.0859H22.0378V18.8047C22.0378 17.8906 21.1941 17.75 20.6316 17.75ZM13.6003 17.8203L13.53 21.9688H14.5847V18.2422L15.3581 21.9688H16.4128L17.0456 18.2422V21.9688H18.1003L18.03 17.8203H16.3425L15.8503 20.9844L15.3581 17.8203H13.6706H13.6003ZM23.0925 17.8203V20.8438C23.0925 20.9141 23.0925 21.0547 23.0925 20.9844C23.1628 21.7578 23.7253 22.0391 24.5691 22.0391C25.3425 22.0391 25.9753 21.7578 25.9753 20.9844C25.9753 20.9844 25.9753 20.7734 25.9753 20.7031V17.8203H24.9206V20.8438C24.9206 20.9141 24.9206 20.9141 24.9206 21.0547C24.9206 21.125 24.8503 21.3359 24.4285 21.3359C24.1472 21.3359 24.0769 21.125 24.0769 21.0547C24.0769 21.0547 24.0769 20.9844 24.0769 20.8438V17.8203H23.0925ZM10.0847 17.8203L9.31126 21.9688H10.4363L10.9988 18.2422L11.5613 21.9688H12.6863L11.9128 17.8203H10.0847ZM27.1706 17.8203V21.9688H28.2253V18.5938L29.28 21.9688H30.7566V17.8203H29.7019V21.125L28.7878 17.8203H27.1706Z" fill="white"/>
</g>
<defs>
<clipPath id="clip0_2704_7305">
<rect width="36" height="36" fill="white" transform="translate(2 2)"/>
</clipPath>
</defs>
</svg>
