<svg width="40" height="40" viewBox="0 0 40 40" fill="none" xmlns="http://www.w3.org/2000/svg">
<g clip-path="url(#clip0_2704_7311)">
<path d="M20 38C29.9411 38 38 29.9411 38 20C38 10.0589 29.9411 2 20 2C10.0589 2 2 10.0589 2 20C2 29.9411 10.0589 38 20 38Z" fill="#48B254"/>
<path fill-rule="evenodd" clip-rule="evenodd" d="M27.5161 10.289L28.5793 11.2542L15.1558 18.9178L8.65775 15.1771L9.26525 13.97L15.1558 17.3191L27.5161 10.289ZM24.8139 8.75L26.2404 9.4745L15.1558 15.8105L9.99425 12.8832L10.874 11.828L15.1558 14.2715L24.815 8.75H24.8139ZM29.5209 12.2499L30.3095 13.3063L15.1558 21.9654L7.83763 17.8017L8.17175 16.4743L15.1558 20.4567L29.5209 12.2499ZM31.7068 16.1424C32.1523 17.39 32.375 18.6961 32.375 20.0641C32.375 21.4321 32.1523 22.7607 31.7068 24.0466L31.403 24.8623C30.7793 26.3252 29.8828 27.6562 28.7615 28.784C27.6269 29.8981 26.2855 30.7797 24.8128 31.3794C23.2546 32.0431 21.6459 32.375 19.9854 32.375C18.3046 32.375 16.6948 32.0431 15.1558 31.3794C13.7006 30.7642 12.3723 29.8842 11.2385 28.784C10.1043 27.6668 9.20605 26.3332 8.597 24.8623C7.95575 23.3435 7.62388 21.7122 7.625 20.0641V19.2496L15.1558 23.5044L31.0385 14.4526L31.7068 16.1424Z" fill="white"/>
</g>
<defs>
<clipPath id="clip0_2704_7311">
<rect width="36" height="36" fill="white" transform="translate(2 2)"/>
</clipPath>
</defs>
</svg>
