<svg width="40" height="40" viewBox="0 0 40 40" fill="none" xmlns="http://www.w3.org/2000/svg">
<path d="M37.9985 14.5596C37.7843 16.807 37.3494 19.3051 36.6345 22.0756H36.6371C36.1906 23.7893 35.7041 25.3651 35.1776 26.8066C35.1711 26.8283 35.1634 26.8501 35.153 26.8719C34.7388 27.1588 34.3142 27.3838 33.8819 27.5218C32.447 27.9758 30.679 27.5582 29.0931 26.9046C27.9601 26.4363 26.7728 25.8299 25.5276 25.0637C25.5301 25.0565 25.534 25.0456 25.5379 25.0383C26.1883 23.4516 26.787 21.6688 27.3058 19.661C28.1123 16.5493 28.4969 13.808 28.5769 11.4007C28.6272 9.91201 28.5549 8.55042 28.3924 7.31229C28.1665 5.6094 27.6439 3.87746 26.5328 2.85718C26.1805 2.54129 25.7521 2.27624 25.2733 2.05838C27.5419 1.81148 29.5576 1.79333 31.3359 1.92404C33.2057 2.0838 35.1092 2.54493 36.2202 3.6342C37.3313 4.72346 37.8217 6.62242 38.0178 8.48507C38.1985 10.2606 38.2127 12.2794 37.9985 14.5596ZM28.0426 29.3918C26.889 28.9161 25.6721 28.2989 24.4049 27.511C22.3647 26.2401 20.1786 24.5336 17.8842 22.286V22.2824C16.4066 20.8302 15.1639 19.425 14.1109 18.0707C14.1006 18.0597 14.0929 18.0452 14.0825 18.0343C12.8114 18.7205 11.7042 19.4394 10.7454 20.1765C9.384 21.2259 8.13873 22.5475 7.81483 24.0143C7.71417 24.4792 7.6961 24.9839 7.74642 25.5104C7.7503 25.514 7.75416 25.5212 7.75675 25.5248C8.74524 26.694 9.86018 27.8995 11.1235 29.1412C13.1779 31.1527 15.1394 32.7757 16.9912 34.0792C18.8534 35.3937 20.6032 36.3885 22.2227 37.1292C23.9261 37.9172 25.8244 38.4219 27.3239 38.0079C28.8234 37.5903 30.1745 36.167 31.2494 34.6311C32.2727 33.1679 33.2638 31.4106 34.1787 29.3155C33.7438 29.6278 33.2935 29.8747 32.8328 30.0162C31.3978 30.4665 29.6338 30.049 28.0426 29.3918ZM9.08205 18.0489C10.0705 17.2899 11.2139 16.553 12.5288 15.8485C14.6491 14.7121 17.2261 13.6773 20.3271 12.8167C22.3169 12.2648 24.1545 11.8909 25.854 11.6621C25.8644 11.6621 25.8721 11.6585 25.8824 11.6585C25.9263 10.1989 25.8579 8.86995 25.6979 7.65723C25.4682 5.95434 24.9456 4.21877 23.8345 3.20574C23.5015 2.90075 23.0976 2.64659 22.6434 2.43237C22.6189 2.436 22.5931 2.43963 22.5673 2.44689C21.0574 2.70832 19.456 3.06777 17.7461 3.53979C14.9936 4.30228 12.6114 5.17369 10.5609 6.1141C8.49488 7.06175 6.76569 8.07478 5.32039 9.10958C3.78087 10.2134 2.36136 11.5967 1.96908 13.1181C1.58064 14.6394 2.14715 16.5384 2.95368 18.2449C3.71248 19.8534 4.73967 21.5781 6.08302 23.4045C6.02885 22.867 6.04304 22.3551 6.14885 21.883C6.4792 20.4198 7.72449 19.0981 9.08205 18.0489Z" fill="#002F6C"/>
</svg>
