<svg width="40" height="40" viewBox="0 0 40 40" fill="none" xmlns="http://www.w3.org/2000/svg">
<g clip-path="url(#clip0_2704_7299)">
<path fill-rule="evenodd" clip-rule="evenodd" d="M34.6441 15.0114C33.8362 13.1017 32.6976 11.4123 31.2411 9.94337C29.7841 8.48661 28.0948 7.34809 26.1973 6.54014C24.2144 5.6956 22.1455 5.2793 20.0033 5.2793C17.8487 5.2793 15.7923 5.6956 13.809 6.54014C11.9115 7.34809 10.2099 8.48661 8.75331 9.94337C7.2844 11.4123 6.15803 13.1017 5.35008 15.0114C4.51767 16.9823 4.10156 19.0511 4.10156 21.1935C4.10156 22.2463 4.19943 23.2989 4.41981 24.3885L9.32854 27.926L10.0997 33.9611H18.1179L18.5952 34.2547C19.0115 34.5731 19.4644 34.7197 20.0031 34.7197C20.5296 34.7197 20.9948 34.5731 21.3986 34.2547L21.8392 33.9611H29.9432L30.7023 27.926L35.5865 24.3885C35.7948 23.2989 35.905 22.2461 35.905 21.1935C35.905 19.0511 35.4888 16.9823 34.6441 15.0114Z" fill="#CC2229"/>
<path fill-rule="evenodd" clip-rule="evenodd" d="M32.2884 16.8243C31.97 15.4777 31.2846 14.3268 30.2195 13.3966L22.7646 26.2379L29.3626 12.1602C28.4812 10.9972 27.3672 10.2016 25.9595 9.74849L21.3933 25.7115L24.7355 9.09967C23.6948 8.52425 22.5931 8.23047 21.4178 8.23047L20.6711 8.2794L20.0102 25.5643L19.3124 8.2794L18.5779 8.23047C17.4027 8.23047 16.2887 8.52425 15.2604 9.09967L18.5655 25.7115L14.0363 9.74868C12.6285 10.2018 11.4901 10.9974 10.6333 12.1604L17.2681 26.2381L9.7762 13.3968C8.71127 14.327 8.02566 15.4779 7.70741 16.8244L16.0562 27.0827L7.46256 18.4523C7.07073 19.3338 6.875 20.2519 6.875 21.1945C6.875 21.7209 6.93626 22.2838 7.08306 22.8838L11.9063 26.4094L12.5429 31.1467H18.4066L19.239 31.7832C19.4717 31.9423 19.7166 32.0159 19.998 32.028C20.2673 32.0161 20.5245 31.9423 20.7326 31.7832L21.6139 31.1467H27.502L28.1021 26.4094L32.9128 22.8838C33.0474 22.2838 33.121 21.7209 33.121 21.1945C33.121 20.2519 32.9128 19.3338 32.5335 18.4523L23.989 27.0823L32.2884 16.8243Z" fill="#F6D330"/>
</g>
<defs>
<clipPath id="clip0_2704_7299">
<rect width="36" height="36" fill="white" transform="translate(2 2)"/>
</clipPath>
</defs>
</svg>
