<svg width="40" height="40" viewBox="0 0 40 40" fill="none" xmlns="http://www.w3.org/2000/svg">
<g clip-path="url(#clip0_2730_4900)">
<path d="M5.85448 17.1029C4.57796 17.0966 4.50424 17.105 4.0812 17.308C3.98592 17.3538 3.8746 17.4151 3.83375 17.4441C3.7115 17.5311 3.48738 17.7514 3.48738 17.7846C3.48738 17.8016 3.48071 17.8154 3.47258 17.8154C3.43341 17.8154 3.257 18.1463 3.25669 18.2204C3.25657 18.2481 3.25007 18.2777 3.24228 18.2863C3.19023 18.3439 3.17377 18.8457 3.21688 19.0609C3.23145 19.1335 3.24992 19.2261 3.25803 19.267C3.27348 19.3445 3.34071 19.4847 3.4176 19.6001C3.4424 19.6374 3.4701 19.6796 3.47912 19.6941C3.51994 19.7598 3.79312 20.0118 3.9086 20.0901C4.06953 20.1993 4.2649 20.318 4.31499 20.3372C4.33611 20.3453 4.4202 20.3881 4.50184 20.4323C4.5835 20.4765 4.68364 20.5266 4.72446 20.5437C4.76529 20.5607 4.90272 20.6246 5.02975 20.6855C5.7087 21.0112 5.76693 21.0448 5.82465 21.1433C5.88408 21.2446 5.88587 21.3506 5.82967 21.4331C5.80697 21.4665 5.77599 21.4936 5.76065 21.4937C5.7453 21.4938 5.72737 21.5026 5.72085 21.5131C5.70865 21.5328 4.309 21.5237 3.61518 21.4995L3.30586 21.4887V21.1285C3.30586 20.8192 3.30232 20.768 3.28106 20.768C3.26748 20.768 3.25645 20.7755 3.25645 20.7845C3.25645 20.7936 3.24799 20.8011 3.23761 20.8011C3.21714 20.8011 3.04206 20.9437 3.02058 20.9779C3.01332 20.9895 2.98485 21.0106 2.95733 21.0248C2.92981 21.0391 2.865 21.0896 2.81353 21.1369C2.76205 21.1842 2.68543 21.2467 2.64321 21.2757C2.60098 21.3048 2.56399 21.3344 2.56092 21.3415C2.55257 21.3608 2.39025 21.4939 2.37503 21.4939C2.36775 21.4939 2.33849 21.5185 2.31005 21.5487C2.2815 21.579 2.18028 21.6661 2.08504 21.7426C1.98978 21.8191 1.89718 21.8965 1.87913 21.9147C1.86108 21.9328 1.81901 21.9661 1.7857 21.9889C1.7524 22.0115 1.6833 22.0699 1.6321 22.1184L1.53906 22.2069L1.64306 22.3035C1.70025 22.3568 1.75232 22.4006 1.75879 22.4008C1.76529 22.4011 1.82832 22.4532 1.89893 22.5167C1.96955 22.5802 2.0361 22.6323 2.04697 22.6323C2.05782 22.6323 2.07644 22.6452 2.08831 22.6611C2.10016 22.6771 2.15061 22.7236 2.20038 22.7643C2.25014 22.8051 2.3057 22.8505 2.32401 22.8655C2.34227 22.8804 2.40479 22.9324 2.46279 22.981C2.5208 23.0296 2.59996 23.0931 2.6387 23.1221C2.67744 23.1511 2.73476 23.2005 2.76616 23.2319C2.79756 23.2633 2.85211 23.3077 2.88727 23.3305C2.92243 23.3533 2.99568 23.413 3.05011 23.4635C3.10454 23.514 3.15787 23.5555 3.16852 23.5556C3.17917 23.5558 3.20509 23.5777 3.2262 23.6044C3.30072 23.6988 3.30486 23.6827 3.30962 23.2796L3.31405 22.9043L3.38827 22.9064C3.42907 22.9075 3.85769 22.9098 4.34081 22.9118C4.9524 22.9143 5.21916 22.9208 5.21916 22.9332C5.21916 22.9533 5.73258 22.9396 5.99448 22.9124C6.19992 22.891 6.45861 22.8403 6.49756 22.8138C6.50664 22.8076 6.55867 22.7851 6.61312 22.7638C6.66753 22.7424 6.71584 22.7204 6.72037 22.7149C6.73631 22.6956 6.85442 22.6321 6.87454 22.6321C6.88576 22.6321 6.92078 22.6081 6.9524 22.5786C6.98403 22.5492 7.03823 22.5026 7.07293 22.4754C7.14443 22.4193 7.32353 22.1954 7.37629 22.0961C7.42979 21.9954 7.51088 21.7403 7.53759 21.5886C7.59106 21.2848 7.55675 20.8839 7.45627 20.6376C7.43251 20.5793 7.41302 20.5253 7.41302 20.5176C7.41302 20.5006 7.33148 20.3705 7.30633 20.3475C7.29641 20.3384 7.25288 20.2848 7.20963 20.2281C7.16636 20.1715 7.11579 20.117 7.09736 20.1072C7.06492 20.0898 7.03677 20.0669 6.93145 19.9732C6.90405 19.9488 6.85448 19.9163 6.82149 19.9007C6.7885 19.8852 6.73578 19.8512 6.70422 19.8254C6.67267 19.7995 6.64084 19.7785 6.63347 19.7785C6.62611 19.7785 6.58144 19.7525 6.53428 19.7208C6.48713 19.689 6.43835 19.6629 6.42585 19.6629C6.39937 19.6629 6.26919 19.5946 6.2611 19.5764C6.25809 19.5696 6.24512 19.5641 6.23228 19.5641C6.21943 19.5641 6.20901 19.5566 6.20901 19.5476C6.20901 19.5385 6.19681 19.531 6.1821 19.531C6.16738 19.531 6.11358 19.51 6.06253 19.4843C5.79255 19.3484 5.65498 19.2825 5.64248 19.283C5.6348 19.2834 5.60829 19.2693 5.58364 19.2517C5.55902 19.2342 5.51708 19.2145 5.49041 19.2081C5.46376 19.2016 5.36584 19.1547 5.27281 19.1039C5.17977 19.053 5.07217 18.9953 5.03365 18.9757C4.99512 18.956 4.94166 18.9169 4.91484 18.8888C4.87018 18.8418 4.86602 18.8277 4.86602 18.72C4.86602 18.6072 4.86821 18.6006 4.92041 18.557C4.95034 18.532 4.99827 18.5082 5.02691 18.5039C5.05556 18.4996 5.5689 18.4999 6.16769 18.5047L7.2564 18.5133L7.25333 17.822L7.25007 17.1309L7.05534 17.1196C6.94795 17.1134 6.40748 17.1059 5.85412 17.1031L5.85448 17.1029ZM7.87431 17.1062L7.87989 19.3454C7.88475 21.338 7.88825 21.5937 7.91162 21.6671C7.9606 21.8209 8.01192 21.9461 8.05906 22.026C8.08489 22.0699 8.10615 22.113 8.10615 22.122C8.10615 22.1796 8.53746 22.6322 8.59235 22.6322C8.59833 22.6322 8.63443 22.6526 8.67251 22.6776C8.85822 22.7992 8.92954 22.8339 9.13138 22.9013C9.3529 22.9753 9.55521 23.0242 9.75561 23.0522C9.97022 23.0822 10.4989 23.0825 10.6958 23.0528C10.9846 23.0092 11.197 22.9553 11.3499 22.8865C11.3784 22.8736 11.4144 22.863 11.4296 22.863C11.4625 22.863 11.7288 22.7236 11.7763 22.6816C11.7944 22.6655 11.8365 22.6385 11.8697 22.6216C11.9487 22.5813 12.2256 22.3244 12.2584 22.2609C12.2725 22.2337 12.3 22.1954 12.3195 22.1756C12.367 22.1276 12.4802 21.9194 12.505 21.8344C12.516 21.7968 12.5437 21.6994 12.5665 21.6177L12.6083 21.4691L12.6089 19.2877L12.6095 17.1062H10.8774V19.1916C10.8774 20.4772 10.8713 21.2933 10.8616 21.3188C10.8412 21.3724 10.7314 21.4939 10.7034 21.4939C10.6915 21.4939 10.6718 21.5038 10.6595 21.516C10.602 21.5735 10.4617 21.6012 10.2259 21.6012H9.99496L9.86405 21.5376C9.72655 21.471 9.68866 21.4353 9.62734 21.3141L9.59023 21.2409V17.1061H7.87388L7.87431 17.1062ZM13.1535 17.1064V22.9457L14.7082 22.9451C16.2889 22.9446 16.439 22.9397 16.6338 22.8807C16.6655 22.8711 16.7117 22.8632 16.7365 22.8632C16.7801 22.8632 16.9357 22.8004 17.071 22.7281L17.2273 22.6446C17.3046 22.6034 17.399 22.524 17.5479 22.3753C17.5928 22.3305 17.6936 22.1899 17.7446 22.1008C17.7886 22.0239 17.8883 21.7378 17.9216 21.5931C17.9499 21.4705 17.9647 21.151 17.9491 20.9992C17.9372 20.8833 17.8668 20.6152 17.8386 20.5786C17.8316 20.5696 17.8164 20.5324 17.8049 20.4961C17.7737 20.397 17.5768 20.1589 17.4362 20.0503C17.4012 20.0233 17.3552 19.9853 17.3339 19.9657C17.3127 19.9462 17.2653 19.917 17.2286 19.9008C17.1919 19.8846 17.1617 19.8666 17.1617 19.861C17.1617 19.8508 17.2532 19.7785 17.2661 19.7785C17.2784 19.7785 17.5412 19.519 17.5412 19.5069C17.5412 19.5003 17.5551 19.4752 17.5721 19.4511C17.6209 19.3823 17.7161 19.1967 17.739 19.1257C17.7505 19.0901 17.7682 19.0505 17.7784 19.0378C17.7907 19.0224 17.7963 18.9091 17.7955 18.6996C17.7944 18.4064 17.7914 18.3752 17.7507 18.2473C17.7006 18.0896 17.5851 17.8487 17.5247 17.7757C17.4183 17.6474 17.293 17.5248 17.199 17.4576C17.0684 17.3642 16.8394 17.2525 16.6671 17.1981C16.4013 17.1143 16.2222 17.1064 14.6198 17.1064H13.1535ZM14.8526 18.3742L15.3186 18.3796C15.8241 18.3853 15.8203 18.3847 15.9399 18.4853C16.0682 18.5933 16.1184 18.8423 16.0641 19.1024C16.0451 19.1933 15.9334 19.3445 15.8539 19.3869C15.7873 19.4225 15.7651 19.4242 15.3186 19.4292L14.8526 19.4346V18.3742ZM14.8649 20.5507C14.8717 20.5479 15.1154 20.5493 15.4064 20.5538L15.9355 20.5621L16.0049 20.608C16.0431 20.6333 16.1019 20.6966 16.1354 20.7484L16.1963 20.8426L16.1965 21.0831C16.1967 21.3033 16.1935 21.3306 16.1569 21.4087C16.135 21.4557 16.107 21.4941 16.0947 21.4941C16.0823 21.4941 16.068 21.5047 16.0631 21.5175C16.0489 21.5546 15.9399 21.6188 15.8555 21.6398C15.8057 21.6522 15.6132 21.659 15.3153 21.659H14.8526V21.1075C14.8526 20.8041 14.8581 20.5535 14.8649 20.5507Z" fill="#FFCB08"/>
<path d="M36.7245 16.3635C36.7127 16.3699 36.7118 16.444 36.7115 16.7068L36.7111 17.0738L36.0473 17.0742C35.4085 17.0745 35.3235 17.0792 35.041 17.1298C34.8076 17.1715 34.5508 17.3259 34.3957 17.5179C34.2691 17.6745 34.1917 17.8501 34.1294 18.1213C34.1232 18.1486 34.1132 18.4751 34.1073 18.847C34.0955 19.5918 34.1006 19.5557 33.9852 19.6993C33.8918 19.8156 33.6637 19.8944 33.4203 19.8944C33.3012 19.8944 33.0934 19.8463 33.0227 19.8025C32.9328 19.7468 32.8322 19.6461 32.8128 19.5922C32.7995 19.5556 32.7914 19.1765 32.7855 18.3274L32.777 17.1151L31.9315 17.1109L31.0862 17.1065L31.0864 18.3974C31.0866 19.1074 31.0935 19.7353 31.1018 19.7927C31.12 19.9184 31.1893 20.1525 31.242 20.2658C31.3413 20.4796 31.5747 20.7468 31.7891 20.8925C31.8425 20.9288 31.9009 20.9718 31.9189 20.988C31.9368 21.0043 31.9702 21.0218 31.9931 21.0271C32.0159 21.0323 32.0648 21.0538 32.1019 21.0749C32.1791 21.1189 32.3937 21.2068 32.5088 21.2414L32.5873 21.2651V22.9462H34.3028V21.2714L34.4389 21.2243C34.6374 21.1557 35.0227 20.9633 35.1264 20.8812C35.2578 20.7771 35.469 20.5584 35.5299 20.4636C35.6052 20.3464 35.7121 20.1029 35.7435 19.977C35.7884 19.7974 35.8034 19.5779 35.8039 19.0864C35.8042 18.8278 35.8088 18.5996 35.8143 18.5793C35.8304 18.5191 35.916 18.5079 36.3264 18.5127L36.7028 18.5172L36.7074 18.8761C36.7101 19.0965 36.718 19.2348 36.728 19.2348C36.7323 19.2347 36.7364 19.233 36.7395 19.2299C36.7425 19.2268 36.7442 19.2226 36.7441 19.2183C36.7441 19.2092 36.7534 19.2018 36.7647 19.2017C36.776 19.2017 36.8423 19.1497 36.9117 19.0862C36.9813 19.0227 37.0444 18.9708 37.0523 18.9708C37.0601 18.9708 37.1109 18.9289 37.1649 18.8778C37.219 18.8267 37.2893 18.768 37.3212 18.7473C37.3531 18.7265 37.4236 18.6682 37.4781 18.6177C37.5325 18.5672 37.5827 18.526 37.5894 18.5258C37.5961 18.5257 37.6411 18.4903 37.6894 18.4472C37.7967 18.3513 38.1106 18.0905 38.2026 18.0208C38.2397 17.9927 38.3108 17.9312 38.3607 17.8841L38.4514 17.7984L38.3382 17.6919C38.2759 17.6332 38.2151 17.5852 38.2032 17.5852C38.1913 17.5852 38.1681 17.5683 38.1515 17.5477C38.135 17.5271 38.077 17.4752 38.0225 17.4323C37.9681 17.3894 37.9086 17.3405 37.8905 17.3235C37.8723 17.3066 37.778 17.2283 37.6807 17.1496C37.5835 17.0708 37.482 16.9845 37.4552 16.9577C37.4284 16.9309 37.3998 16.9089 37.3918 16.9089C37.3837 16.9089 37.3208 16.857 37.2518 16.7935C37.1829 16.7303 37.1189 16.6783 37.1111 16.6783C37.1026 16.6783 37.0518 16.637 36.9982 16.5866C36.9446 16.5361 36.8711 16.4757 36.8348 16.4526C36.7985 16.4294 36.7559 16.3947 36.7402 16.3753C36.7334 16.3669 36.7284 16.3616 36.7245 16.3638L36.7245 16.3635ZM28.3576 16.9327C28.2565 16.931 28.1554 16.934 28.0546 16.9417C27.7306 16.967 27.4087 17.0334 27.2226 17.1134C27.1889 17.1279 27.1487 17.1399 27.1332 17.1399C27.0975 17.1399 26.8622 17.2604 26.7756 17.3231C26.7395 17.3493 26.7009 17.3708 26.6901 17.3708C26.6792 17.3708 26.6452 17.3949 26.6143 17.4244C26.5835 17.454 26.5117 17.5183 26.455 17.5673C26.3983 17.6162 26.3519 17.6633 26.3519 17.6721C26.3519 17.6808 26.3234 17.7222 26.2885 17.7643C26.1819 17.8927 26.1419 17.9654 26.0734 18.1544C25.95 18.4944 25.9561 18.359 25.9561 20.7789V22.9462H27.655V21.2637H28.9582V22.9462H30.6572V20.7895C30.6571 18.9184 30.6537 18.6135 30.6316 18.487C30.5923 18.2619 30.4567 17.9126 30.3783 17.8341C30.3615 17.8174 30.3176 17.7594 30.281 17.7053C30.2443 17.6513 30.1968 17.5957 30.1753 17.5815C30.1537 17.5674 30.0961 17.518 30.0474 17.4718C29.9987 17.4256 29.944 17.3831 29.9259 17.3774C29.9078 17.3716 29.8591 17.3426 29.8175 17.313C29.721 17.2441 29.5517 17.1593 29.4553 17.1311C29.3833 17.1098 29.3114 17.088 29.2397 17.0656C28.9759 16.9837 28.6649 16.9377 28.3588 16.9328L28.3576 16.9327ZM25.4293 17.1065L24.5752 17.1109L23.7209 17.1151L23.7126 19.21L23.7044 21.305L23.6599 21.3804C23.6048 21.4742 23.5955 21.4816 23.4735 21.5272C23.2787 21.6001 22.9581 21.5649 22.8418 21.4578C22.8194 21.4373 22.7874 21.3907 22.7707 21.3544C22.7416 21.2914 22.7403 21.1956 22.7399 19.2236C22.7397 18.0881 22.735 17.1474 22.7295 17.133C22.7206 17.1097 22.6303 17.1069 21.88 17.1069H21.0405V19.1731C21.0405 20.4626 21.0343 21.2604 21.0243 21.2953C20.9821 21.4424 20.8488 21.5357 20.6435 21.5617C20.5199 21.5774 20.3559 21.559 20.2792 21.5208C20.2505 21.5065 20.2183 21.4948 20.2077 21.4948C20.1776 21.4948 20.1249 21.4279 20.0904 21.3462C20.0602 21.2748 20.0588 21.1944 20.0548 19.21C20.0525 18.076 20.0506 17.139 20.0506 17.1277C20.0506 17.1115 19.8697 17.107 19.2011 17.107H18.3516V19.2493C18.3516 21.6053 18.3484 21.5209 18.4535 21.8411C18.5438 22.1167 18.6599 22.301 18.8733 22.5071C18.9448 22.5761 19.0084 22.6327 19.0146 22.6328C19.0208 22.6329 19.0738 22.6658 19.1323 22.7058C19.2747 22.8033 19.3041 22.8174 19.5106 22.8871C19.7194 22.9576 19.8585 22.9919 20.0506 23.0207C20.2515 23.0508 20.7039 23.0507 20.8763 23.0205C21.0828 22.9844 21.4347 22.872 21.5499 22.8054C21.5806 22.7877 21.6399 22.7496 21.6818 22.7206C21.8333 22.616 21.8774 22.5972 21.9186 22.6203C21.9391 22.6318 21.9596 22.6457 21.9642 22.6512C21.9844 22.6757 22.2901 22.8493 22.3271 22.8573C22.3498 22.8623 22.3869 22.8741 22.4096 22.8837C22.4987 22.9213 22.6885 22.9779 22.822 23.0067C23.0208 23.0497 23.6058 23.0501 23.8199 23.0073C23.9774 22.9758 24.1668 22.9238 24.2488 22.8896C24.276 22.8783 24.3281 22.8597 24.3644 22.8483C24.4006 22.8369 24.4562 22.8109 24.4879 22.7906C24.5197 22.7703 24.5974 22.7211 24.6606 22.681C24.7237 22.641 24.8288 22.5563 24.894 22.4929C25.0264 22.3639 25.1972 22.1463 25.1975 22.1064C25.1976 22.0921 25.2163 22.0478 25.239 22.008C25.2872 21.9237 25.3494 21.7492 25.3896 21.5854C25.4154 21.4799 25.4183 21.2818 25.4236 19.2883L25.4293 17.1065ZM28.2293 18.3963C28.2725 18.3946 28.3198 18.3949 28.3726 18.3969C28.5354 18.403 28.5669 18.4093 28.6778 18.4593C28.8405 18.5326 28.8652 18.557 28.9156 18.6931L28.9581 18.8079V19.9111H27.654L27.6586 19.3296L27.6634 18.7483L27.7076 18.657C27.7603 18.5483 27.7824 18.5274 27.907 18.4695C28.0063 18.4234 28.0997 18.4012 28.2293 18.3963Z" fill="#009743" stroke="#009743" stroke-width="0.412413"/>
</g>
<defs>
<clipPath id="clip0_2730_4900">
<rect width="40" height="40" fill="white"/>
</clipPath>
</defs>
</svg>
