<svg width="40" height="40" viewBox="0 0 40 40" fill="none" xmlns="http://www.w3.org/2000/svg">
<g clip-path="url(#clip0_2755_4903)">
<path d="M32.3876 13.3712C29.2232 11.6352 24.8456 10.5655 20 10.5655C15.1544 10.5655 10.7768 11.6352 7.6124 13.3712C4.4876 15.0783 2.558 17.423 2.558 19.9982C2.558 22.5734 4.4876 24.9181 7.6124 26.6289C10.7768 28.3612 15.158 29.4345 20 29.4345C24.842 29.4345 29.2232 28.3612 32.3876 26.6289C35.5088 24.9217 37.442 22.5734 37.442 19.9982C37.442 17.423 35.5124 15.0783 32.3876 13.3712ZM20 10C24.9428 10 29.4212 11.1021 32.672 12.8885C35.966 14.6966 38 17.2105 38 20.0018C38 22.7931 35.9624 25.307 32.672 27.1151C29.4248 28.8979 24.9428 30.0036 20 30.0036C15.0572 30.0036 10.5788 28.9015 7.328 27.1151C4.0376 25.3034 2 22.7895 2 19.9982C2 17.2069 4.0376 14.6966 7.328 12.8885C10.5788 11.1021 15.0572 10 20 10Z" fill="#B18538"/>
<path fill-rule="evenodd" clip-rule="evenodd" d="M7.24119 19.9838L7.68039 18.7484H8.25279L7.56519 20.6069C7.46799 20.8806 7.35999 21.0859 7.24119 21.23C7.12239 21.374 6.95679 21.4425 6.74799 21.4353C6.66519 21.4281 6.58239 21.4137 6.50319 21.3885V20.9563C6.54999 20.9707 6.59679 20.9779 6.64719 20.9779C6.72279 20.9815 6.79839 20.9527 6.84879 20.8986C6.90999 20.823 6.95319 20.733 6.98199 20.6393L6.03159 18.752H6.63639L7.24119 19.9838ZM9.21399 20.0739H9.46959C9.59559 20.0811 9.72159 20.045 9.82239 19.9694C9.90519 19.901 9.94839 19.7893 9.95199 19.6417C9.96279 19.3355 9.80439 19.1806 9.46599 19.1806H9.21399V20.0739ZM9.21399 20.5205V21.374H8.63799V18.7484H9.44799C9.81879 18.7484 10.1068 18.8133 10.3084 18.9465C10.51 19.0798 10.6072 19.3139 10.6 19.6525C10.5928 20.2287 10.2364 20.5169 9.53079 20.5169L9.21399 20.5205ZM12.616 19.1878H11.6008V21.374H11.0284V18.752H12.616V19.1878ZM14.002 19.9838L14.4448 18.7484H15.0136L14.326 20.6069C14.2288 20.8806 14.1208 21.0859 14.002 21.23C13.8832 21.374 13.7176 21.4425 13.5088 21.4353C13.426 21.4281 13.3432 21.4137 13.264 21.3885V20.9563C13.3108 20.9707 13.3576 20.9779 13.408 20.9779C13.4836 20.9815 13.5592 20.9527 13.6096 20.8986C13.6708 20.823 13.714 20.733 13.7428 20.6393L12.796 18.752H13.4008L14.002 19.9838ZM16.4248 19.1842V21.374H15.8524V19.1842H15.1828V18.752H17.0944V19.1842H16.4248ZM18.052 20.1675V21.374H17.4796V18.7484H18.052V19.7281H19.006V18.7484H19.5784V21.374H19.006V20.1675H18.052ZM21.8068 19.1878H20.7592V19.8073H21.6376V20.2647H20.7592V20.9491H21.94V21.374H20.1832V18.7484H21.8068V19.1878ZM23.9488 19.2959V20.5601C24.1684 20.5745 24.3268 20.5349 24.4276 20.4376C24.5284 20.3404 24.5788 20.1711 24.5788 19.9262C24.5788 19.4832 24.37 19.2707 23.9488 19.2959ZM23.3836 19.2995C22.984 19.2635 22.786 19.4724 22.786 19.9226C22.786 20.1675 22.8328 20.3404 22.9264 20.434C23.02 20.5313 23.1748 20.5709 23.3836 20.5565V19.2995ZM23.3836 21.374V20.9887C23.3692 20.9887 23.3548 20.9887 23.344 20.9887C23.3296 20.9887 23.3116 20.9887 23.2972 20.9887C23.0704 20.9851 22.9084 20.9599 22.804 20.9238C22.624 20.8518 22.4764 20.7258 22.3792 20.5601C22.264 20.3692 22.2064 20.1495 22.2136 19.9262C22.2136 19.7641 22.246 19.602 22.3 19.4508C22.3684 19.2779 22.4908 19.1338 22.6492 19.033C22.822 18.9141 23.0668 18.8637 23.38 18.8781V18.5684H23.9452V18.8781C24.2692 18.8673 24.5176 18.9177 24.6976 19.033C24.8596 19.1302 24.982 19.2743 25.054 19.4508C25.1116 19.602 25.1404 19.7641 25.144 19.9262C25.1476 20.1495 25.09 20.3692 24.9748 20.5601C24.874 20.7294 24.7192 20.859 24.5356 20.9238C24.4312 20.9635 24.262 20.9851 24.0316 20.9887C24.0172 20.9887 24.0028 20.9887 23.9848 20.9887C23.974 20.9887 23.9596 20.9887 23.9452 20.9887V21.374H23.3836ZM26.62 19.1842V21.374H26.0476V19.1842H25.378V18.752H27.2896V19.1842H26.62ZM29.302 19.1878H28.2544V19.8073H29.1328V20.2647H28.2544V20.9491H29.4316V21.374H27.6748V18.7484H29.2984L29.302 19.1878ZM31.4512 19.1878H30.436V21.374H29.8636V18.752H31.4512V19.1878ZM32.5708 20.3836H33.208L32.8804 19.5588L32.5708 20.3836ZM32.4016 20.8338L32.2 21.374H31.624L32.614 18.7484H33.154L34.162 21.374H33.586L33.3664 20.823L32.4016 20.8338ZM34.702 19.3463L34.45 18.9862C34.7164 18.7845 35.044 18.68 35.3752 18.6836C35.5552 18.6764 35.7352 18.7088 35.9008 18.7809C36.0232 18.8385 36.1312 18.9285 36.2032 19.0402C36.2644 19.1374 36.304 19.2491 36.3184 19.3643C36.3256 19.4544 36.3148 19.5444 36.2896 19.6308C36.2608 19.7173 36.2104 19.7965 36.142 19.8578C36.0628 19.9226 35.9692 19.9658 35.8684 19.9838V20.0234C36.0124 20.0342 36.1456 20.0955 36.2464 20.1963C36.3544 20.3044 36.4084 20.452 36.4012 20.6033C36.4012 20.7438 36.3616 20.8806 36.2824 20.9995C36.1924 21.1327 36.07 21.2372 35.926 21.3056C35.7424 21.3921 35.5444 21.4353 35.3464 21.4353C34.99 21.4461 34.648 21.3164 34.324 21.0535L34.5976 20.7005C34.6084 20.7041 34.6192 20.7077 34.63 20.7149C34.6372 20.7222 34.648 20.7294 34.6588 20.7366C34.6876 20.751 34.7164 20.769 34.7416 20.787C34.774 20.8086 34.8136 20.8338 34.8568 20.8554C35.008 20.9346 35.1808 20.9707 35.3536 20.9527C35.4688 20.9419 35.5768 20.8878 35.656 20.8014C35.7244 20.7294 35.7604 20.6285 35.7532 20.5277C35.746 20.3296 35.6128 20.2287 35.3536 20.2287H35.1016V19.7857H35.3104C35.4688 19.7857 35.5768 19.7497 35.6308 19.6777C35.6848 19.6128 35.7064 19.5264 35.692 19.4436C35.6812 19.3571 35.6308 19.2815 35.5588 19.2311C35.4688 19.1734 35.3644 19.1446 35.2564 19.1482C35.0944 19.1554 34.9072 19.2203 34.702 19.3463ZM5.75439 19.0546L5.46999 19.4003C5.26479 19.2203 5.06319 19.1446 4.85799 19.1734C4.76799 19.1878 4.68519 19.2203 4.60599 19.2635C4.50159 19.3283 4.41879 19.4256 4.36479 19.5372C4.29639 19.6669 4.26399 19.8433 4.26399 20.063C4.27119 20.3692 4.33599 20.5853 4.45479 20.7077C4.55919 20.823 4.69959 20.8986 4.85079 20.9274C5.07759 20.9635 5.30079 20.859 5.51319 20.6213L5.82999 20.9022C5.54199 21.2588 5.19999 21.4353 4.80399 21.4353C4.58439 21.4389 4.36839 21.3777 4.18119 21.2624C3.99399 21.1435 3.84279 20.9743 3.74919 20.7726C3.64119 20.5565 3.58719 20.3152 3.59439 20.0703C3.60159 19.6128 3.73479 19.2671 3.99399 19.033C4.23519 18.8061 4.55199 18.6836 4.88319 18.6836C5.05239 18.6836 5.21799 18.716 5.37279 18.7809C5.52039 18.8457 5.64999 18.9393 5.75439 19.0546Z" fill="#006295"/>
<path fill-rule="evenodd" clip-rule="evenodd" d="M29.3945 22.5049C26.9969 26.0742 20.3801 27.8426 15.9881 28.4873C15.1889 28.3864 14.9477 28.3576 14.1953 28.2352C16.8593 27.3492 22.9973 25.7788 24.1133 22.5049H29.3945ZM22.9829 13.5332C25.1393 14.1455 27.7997 15.1576 29.3513 17.5022H23.0153C22.9289 17.3942 22.8389 17.2825 22.7489 17.1745V17.1709L22.6733 17.0808L22.6481 17.052C22.5797 16.9728 22.5113 16.8935 22.4429 16.8143L22.4177 16.7855L22.3673 16.7279L22.2593 16.6126L22.1801 16.5262L22.0721 16.4109L22.0433 16.3821L21.9785 16.3173L21.8957 16.2344L21.8381 16.1804L21.8093 16.1516L21.7517 16.1012L21.7229 16.0724L21.6941 16.0436L21.6365 15.9931L21.6077 15.9679L21.5789 15.9427L21.5501 15.9139L21.5249 15.8923L21.4997 15.8707L21.4745 15.8491L21.4493 15.8275L21.4241 15.8022L21.3989 15.7806L21.3737 15.759L21.3485 15.7374L21.3233 15.7158L21.2729 15.6726L21.2477 15.651L21.2225 15.6294L21.1973 15.6078L21.1721 15.5861L21.1217 15.5429L21.0965 15.5213L21.0713 15.4997L21.0461 15.4781L20.9957 15.4349L20.9705 15.4133L20.9453 15.3917L20.8949 15.3484L20.7977 15.2656C20.7473 15.226 20.7005 15.1828 20.6501 15.1431C20.5997 15.1035 20.5529 15.0639 20.5061 15.0279L20.5025 15.0063C21.1073 14.5345 22.2593 13.8682 22.9829 13.5332Z" fill="#B18538"/>
<path fill-rule="evenodd" clip-rule="evenodd" d="M30.0388 22.5047C27.976 26.0991 21.6688 28.0981 17.8672 28.6743C18.5872 28.7031 19.2136 28.7536 20.056 28.7536C24.7396 28.75 28.9228 27.7451 31.9792 26.128C34.0312 25.015 35.2912 23.8229 36.0472 22.5047H30.0388ZM23.7496 13.162C26.4928 14.1416 28.5592 15.1573 30.0532 17.4984L36.04 17.4804C34.2832 14.419 30.208 12.809 26.8204 12.0059C26.2192 12.1679 24.0052 13.0287 23.7496 13.162Z" fill="#CB9B45"/>
<path fill-rule="evenodd" clip-rule="evenodd" d="M10.6094 22.5049C11.8514 24.2985 13.7846 25.4763 16.1102 26.1714C16.5026 26.2902 17.165 26.4163 17.5574 26.4919C18.191 26.3371 19.685 25.7428 20.6606 25.1953L20.063 25.2205H19.775L19.7246 25.2169L19.6742 25.2133L19.6238 25.2097L19.5734 25.2061L19.523 25.2025L19.4726 25.1989L19.4222 25.1917L19.3718 25.1845C18.3998 25.0549 17.489 24.6479 16.8374 23.9996C16.4126 23.5782 16.085 23.0703 15.8798 22.5085L10.6094 22.5049ZM24.0338 11.5234C17.7374 12.4311 12.5426 14.6065 10.6454 17.4986H17.0066L17.0246 17.4734L17.0714 17.4121L17.1182 17.3509L17.1434 17.3185L17.2154 17.2285C17.255 17.178 17.2982 17.1276 17.3378 17.0772L17.363 17.0484C17.4314 16.9691 17.4998 16.8899 17.5682 16.8107L17.5934 16.7819L17.6438 16.7242L17.7518 16.609L17.831 16.5225L17.939 16.4073L17.9678 16.3785L18.0218 16.3208L18.1046 16.238L18.1586 16.184L18.1874 16.1552L18.245 16.1047L18.2738 16.0759L18.3026 16.0471L18.3422 16.0075C18.5762 15.777 18.8246 15.5573 19.0802 15.3412L19.1414 15.2908L19.1882 15.2512C19.2386 15.2079 19.2854 15.1683 19.3358 15.1287C19.3826 15.0891 19.433 15.0495 19.4798 15.0134C19.631 14.8946 19.7822 14.7829 19.9262 14.6857C21.8378 13.3027 24.1202 12.287 25.8338 11.7756L25.7654 11.7575C25.2974 11.6675 24.527 11.5883 24.0338 11.5234Z" fill="#006295"/>
<path fill-rule="evenodd" clip-rule="evenodd" d="M9.95073 17.5022C12.1611 13.742 18.6411 11.9412 22.1511 11.3397C21.3447 11.2785 20.7867 11.2461 19.9479 11.2461C15.2643 11.2497 11.0379 12.2546 7.98152 13.8717C6.18513 14.8874 4.75592 16.1227 3.95312 17.4914L9.95073 17.5022ZM14.9547 26.3442C12.8235 25.4762 11.1459 24.4822 9.95792 22.5049H3.96752C5.68472 25.5015 9.79233 27.1726 13.1655 28.0118C13.8135 27.8389 16.0131 27.115 16.6791 26.8413C16.0887 26.726 15.5127 26.5603 14.9547 26.3442Z" fill="#0078AD"/>
</g>
<defs>
<clipPath id="clip0_2755_4903">
<rect width="36" height="20" fill="white" transform="translate(2 10)"/>
</clipPath>
</defs>
</svg>
