<svg width="40" height="40" viewBox="0 0 40 40" fill="none" xmlns="http://www.w3.org/2000/svg">
<g clip-path="url(#clip0_2702_4832)">
<path d="M19.5 2C9.83494 2 2 9.83494 2 19.5C2 29.1651 9.83494 37 19.5 37C29.1651 37 37 29.1651 37 19.5C37 9.83494 29.1651 2 19.5 2Z" fill="#40B3E0"/>
<path d="M28.0128 12.066L24.8872 27.8252C24.8872 27.8252 24.4501 28.9181 23.2479 28.3935L16.0349 22.8635L13.4121 21.5959L8.99688 20.1095C8.99688 20.1095 8.3193 19.8691 8.25368 19.3445C8.18819 18.8199 9.01876 18.5358 9.01876 18.5358L26.5702 11.6507C26.5702 11.6507 28.0128 11.0169 28.0128 12.066Z" fill="white"/>
<path d="M15.4825 27.6488C15.4825 27.6488 15.2719 27.6291 15.0096 26.7984C14.7473 25.9679 13.4141 21.5964 13.4141 21.5964L24.0148 14.8644C24.0148 14.8644 24.6269 14.4928 24.605 14.8644C24.605 14.8644 24.7143 14.9299 24.3864 15.2358C24.0586 15.542 16.0588 22.733 16.0588 22.733" fill="#D2E5F1"/>
<path d="M18.8045 24.9838L15.9514 27.585C15.9514 27.585 15.7284 27.7543 15.4844 27.6482L16.0307 22.8164" fill="#B5CFE4"/>
</g>
<defs>
<clipPath id="clip0_2702_4832">
<rect width="35" height="35" fill="white" transform="translate(2 2)"/>
</clipPath>
</defs>
</svg>
