<svg width="40" height="40" viewBox="0 0 40 40" fill="none" xmlns="http://www.w3.org/2000/svg">
<path d="M20 8.35352C10.0595 8.35352 2 13.5675 2 19.9965C2 26.43 10.0595 31.6455 20 31.6455C29.9405 31.6455 38 26.4315 38 19.9965C38 13.5615 29.9405 8.35352 20 8.35352ZM20 26.6475C18.521 26.6475 17.315 23.7345 17.24 20.07C19.0765 20.2308 20.9235 20.2308 22.76 20.07C22.685 23.733 21.479 26.6475 20 26.6475ZM17.4215 17.1615C17.8235 14.571 18.827 12.732 20 12.732C21.173 12.732 22.175 14.571 22.5785 17.1615C20.8629 17.3138 19.1371 17.3138 17.4215 17.1615ZM20 10.0365C18.0695 10.0365 16.4225 12.9285 15.815 16.965C12.155 16.395 9.6005 15.093 9.6005 13.581C9.6005 11.541 14.2565 9.88952 20 9.88952C25.745 9.88952 30.3995 11.5425 30.3995 13.581C30.3995 15.093 27.845 16.395 24.185 16.965C23.5775 12.93 21.9305 10.038 20 10.038V10.0365ZM4.58 19.5615C4.58 17.589 5.3405 15.7365 6.662 14.1465C6.6485 14.2575 6.6395 14.3715 6.6395 14.4855C6.6395 16.971 10.367 19.0905 15.569 19.8705C15.5645 20.0505 15.5645 20.2335 15.5645 20.4165C15.5645 25.0515 16.8635 28.974 18.659 30.306C10.769 29.8305 4.58 25.2015 4.58 19.5615ZM21.341 30.306C23.1365 28.974 24.4355 25.05 24.4355 20.4165C24.4355 20.232 24.4325 20.052 24.431 19.872C29.63 19.092 33.3605 16.974 33.3605 14.4855C33.3605 14.3715 33.3515 14.2575 33.338 14.1465C34.6595 15.741 35.4185 17.589 35.4185 19.5615C35.4185 25.2015 29.231 29.8305 21.341 30.306Z" fill="black"/>
</svg>
