<svg width="40" height="40" viewBox="0 0 40 40" fill="none" xmlns="http://www.w3.org/2000/svg">
<path d="M16.6367 28.7517C12.0887 26.6451 9.00952 22.9023 8.10553 18.9176C7.65833 16.6635 8.45513 15.1812 8.97353 14.3567C9.53512 13.4584 10.2271 13.4055 10.2271 13.4055C10.2271 13.4055 9.51993 13.069 8.57512 12.928C7.38872 12.7517 5.83912 12.8807 4.85992 14.3823C4.13113 16.0922 3.71593 17.9777 3.70312 19.956C3.72473 23.7501 5.15673 28.1419 9.51993 31.6307C10.7375 32.5322 12.0943 33.2469 13.5599 33.7325C13.7583 33.7974 13.9687 33.8535 14.1695 33.908C14.8111 34.0867 15.4383 34.2149 16.0471 34.3078C16.0895 34.3102 16.1367 34.3214 16.1831 34.327C16.3719 34.3519 16.5559 34.3695 16.7391 34.3896C17.0159 34.4168 17.2911 34.4392 17.5695 34.448C17.7103 34.4529 17.8463 34.4569 17.9847 34.4569C18.0279 34.4601 18.0791 34.4601 18.1295 34.4601C18.3919 34.4601 18.6583 34.4529 18.9175 34.4392C18.9263 34.436 18.9319 34.436 18.9319 34.436C19.2007 34.4256 19.4663 34.3984 19.7255 34.3679C19.7591 34.3655 19.7855 34.3607 19.8143 34.3591C20.0351 34.3303 20.2535 34.2982 20.4671 34.2613C20.6015 34.2381 20.7311 34.2149 20.8527 34.1908C20.8751 34.1852 20.8943 34.1836 20.9167 34.1764C23.3319 33.6748 25.3375 32.5819 26.8767 31.4521C27.7727 30.7573 28.5863 29.9608 29.2919 29.081C25.7527 30.7774 21.0391 30.7902 16.6367 28.7517Z" fill="#035597"/>
<path d="M8.87987 11.9145C11.3591 8.76783 15.1703 6.71173 19.4759 6.71173C22.6647 6.71173 25.5959 7.82071 27.9055 9.66527C25.3359 7.2534 21.8759 5.77344 18.0703 5.77344C13.0351 5.77344 8.61507 8.36157 6.03906 12.2839C6.76547 11.9569 7.81747 11.731 8.87987 11.9145Z" fill="#035597"/>
<path d="M17.3458 27.6682C19.1394 28.6955 21.113 29.2644 23.0666 29.4487C23.8866 29.2468 24.6706 28.9471 25.3634 28.5537C28.1298 26.8245 36.3026 15.4711 36.3026 15.4711C36.3026 15.4711 31.853 14.5544 29.9226 15.9727C27.9874 17.3862 26.541 19.6322 24.4002 22.0536C22.2578 24.4759 21.3162 25.9992 19.4242 26.4783C18.0202 26.8365 16.6874 26.7764 15.4922 26.5088C16.0658 26.9006 16.6778 27.2852 17.3458 27.6682Z" fill="#035597"/>
<path d="M30.559 28.1791C32.2694 26.9315 36.2662 21.4772 36.2662 21.4772C36.2662 21.4772 33.199 19.8674 30.415 21.4772C27.6294 23.0974 27.7126 23.5076 24.947 25.7873C22.187 28.0709 20.1198 28.3257 18.5966 28.2088C18.5118 28.2056 18.4286 28.1879 18.3438 28.1815C22.3302 30.0357 27.5158 30.3394 30.559 28.1791Z" fill="#E3061C"/>
<path d="M36.2539 5.77582C36.2539 5.77582 31.8747 4.5723 28.3555 7.61477C25.8283 9.80388 20.3827 24.4882 16.0987 25.3183C15.2683 25.4818 14.6003 25.4994 14.0547 25.4329C14.0635 25.4417 14.0699 25.4489 14.0787 25.4529C14.7995 25.5195 15.6339 25.4946 16.5987 25.3071C20.8795 24.477 26.5427 10.9209 29.1651 8.84313C31.7899 6.77503 34.9267 7.28786 34.9267 7.28786L32.2827 11.9762L36.2539 5.77582Z" fill="#035597"/>
</svg>
