<svg width="40" height="40" viewBox="0 0 40 40" fill="none" xmlns="http://www.w3.org/2000/svg">
<g clip-path="url(#clip0_2704_4890)">
<path d="M34.24 9H4.76C3.78798 9 3 9.79847 3 10.7834V28.2166C3 29.2015 3.78798 30 4.76 30H34.24C35.212 30 36 29.2015 36 28.2166V10.7834C36 9.79847 35.212 9 34.24 9Z" fill="#0E4595"/>
<path d="M15.2422 23.9021L16.7101 15.1738H19.0579L17.589 23.9021H15.2422Z" fill="white"/>
<path d="M26.0683 15.3627C25.6031 15.1859 24.8743 14.9961 23.9641 14.9961C21.6442 14.9961 20.01 16.1799 19.9961 17.8765C19.9831 19.1307 21.1628 19.8303 22.0533 20.2478C22.9672 20.6756 23.2744 20.9485 23.2701 21.3305C23.2642 21.9156 22.5403 22.1829 21.8654 22.1829C20.9257 22.1829 20.4265 22.0506 19.6555 21.7247L19.353 21.5859L19.0234 23.5399C19.5718 23.7835 20.5858 23.9946 21.6387 24.0055C24.1066 24.0055 25.7088 22.8353 25.727 21.0235C25.7358 20.0307 25.1103 19.275 23.7558 18.6521C22.9352 18.2483 22.4326 17.9789 22.4379 17.57C22.4379 17.2072 22.8633 16.8193 23.7824 16.8193C24.5502 16.8072 25.1063 16.9769 25.5396 17.1537L25.75 17.2544L26.0683 15.3627Z" fill="white"/>
<path d="M32.1085 15.1738H30.2943C29.7323 15.1738 29.3117 15.3293 29.0649 15.8976L25.5781 23.8965H28.0435C28.0435 23.8965 28.4466 22.821 28.5378 22.5849C28.8072 22.5849 31.2022 22.5886 31.5446 22.5886C31.6148 22.8942 31.8302 23.8965 31.8302 23.8965H34.0087L32.1085 15.1738ZM29.2301 20.8098C29.4243 20.3069 30.1655 18.3699 30.1655 18.3699C30.1517 18.3932 30.3582 17.8646 30.4768 17.5369L30.6355 18.2894C30.6355 18.2894 31.0851 20.3729 31.179 20.8098H29.2301V20.8098Z" fill="white"/>
<path d="M5.02218 15.1738L4.99219 15.3555C5.92019 15.5831 6.74907 15.9125 7.47475 16.3224L9.55796 23.8882L12.042 23.8853L15.7382 15.1738H13.2512L10.9526 21.1259L10.7077 19.9163C10.6964 19.8794 10.6841 19.8423 10.6715 19.8053L9.87223 15.9107C9.73011 15.358 9.3179 15.1931 8.80798 15.1738H5.02218Z" fill="white"/>
</g>
<defs>
<clipPath id="clip0_2704_4890">
<rect width="33" height="21" fill="white" transform="translate(3 9)"/>
</clipPath>
</defs>
</svg>
