<svg width="40" height="40" viewBox="0 0 40 40" fill="none" xmlns="http://www.w3.org/2000/svg">
<g clip-path="url(#clip0_2755_4848)">
<path d="M20 39C30.4934 39 39 30.4934 39 20C39 9.50659 30.4934 1 20 1C9.50659 1 1 9.50659 1 20C1 30.4934 9.50659 39 20 39Z" fill="#2787F5"/>
<path d="M22.7427 11.0742H17.2631C12.2623 11.0742 11.0781 12.2584 11.0781 17.2592V22.7388C11.0781 27.7397 12.2623 28.9238 17.2631 28.9238H22.7427C27.7436 28.9238 28.9277 27.7397 28.9277 22.7388V17.2592C28.9277 12.2584 27.731 11.0742 22.7427 11.0742ZM25.4888 23.8094H24.19C23.6987 23.8094 23.5476 23.419 22.6659 22.5247C21.8974 21.7825 21.5574 21.6808 21.3671 21.6808C21.1025 21.6808 21.0268 21.755 21.0268 22.1217V23.2932C21.0268 23.6083 20.9258 23.7972 20.0946 23.7972C18.7215 23.7972 17.1975 22.9659 16.1265 21.4162C14.5141 19.1488 14.0732 17.4481 14.0732 17.0956C14.0732 16.9067 14.1474 16.7304 14.5141 16.7304H15.8129C16.1406 16.7304 16.2664 16.8815 16.3922 17.2344C17.0346 19.0861 18.1055 20.7112 18.5445 20.7112C18.7082 20.7112 18.7839 20.6369 18.7839 20.2198V18.305C18.7334 17.4233 18.2673 17.3476 18.2673 17.0329C18.2673 16.8818 18.3931 16.7304 18.595 16.7304H20.636C20.9132 16.7304 21.0138 16.8815 21.0138 17.2091V19.7912C21.0138 20.0684 21.1396 20.169 21.2153 20.169C21.3789 20.169 21.5177 20.068 21.8198 19.766C22.752 18.7206 23.4196 17.1082 23.4196 17.1082C23.5079 16.9193 23.6589 16.743 23.9866 16.743H25.2854C25.6758 16.743 25.7642 16.9446 25.6758 17.2218C25.5122 17.9777 23.925 20.2198 23.925 20.2198C23.7866 20.4466 23.7361 20.5475 23.925 20.7991C24.0634 20.988 24.5188 21.3784 24.8194 21.7313C25.3738 22.3621 25.802 22.8902 25.9152 23.2554C26.0432 23.6205 25.854 23.8094 25.4888 23.8094Z" fill="white"/>
</g>
<defs>
<clipPath id="clip0_2755_4848">
<rect width="38" height="38" fill="white" transform="translate(1 1)"/>
</clipPath>
</defs>
</svg>
