<svg width="40" height="40" viewBox="0 0 40 40" fill="none" xmlns="http://www.w3.org/2000/svg">
<g clip-path="url(#clip0_2731_4907)">
<path fill-rule="evenodd" clip-rule="evenodd" d="M25.2844 6.08782C22.4692 7.94771 21.58 11.5868 23.3224 14.4608L34.4032 32.7544C34.5544 33.0036 34.8964 33.0703 35.1448 32.9088C37.96 31.049 38.8492 27.4099 37.1068 24.5358L26.026 6.24222C25.8748 5.99307 25.5328 5.92639 25.2844 6.08782Z" fill="#EE7203"/>
<path fill-rule="evenodd" clip-rule="evenodd" d="M14.2063 6.08782C11.3911 7.94771 10.5019 11.5868 12.2443 14.4608L23.3251 32.7544C23.4763 33.0036 23.8183 33.0703 24.0667 32.9088C26.8819 31.049 27.7711 27.4099 26.0287 24.5358L14.9479 6.24222C14.7967 5.99307 14.4547 5.92639 14.2063 6.08782Z" fill="#EE7203"/>
<path fill-rule="evenodd" clip-rule="evenodd" d="M15.266 26.6838C15.266 23.1956 12.296 20.3672 8.6348 20.3672C4.97 20.3672 2 23.1956 2 26.6838C2 30.172 4.97 33.0004 8.6312 33.0004C12.296 33.0004 15.266 30.172 15.266 26.6838Z" fill="#FB471F"/>
</g>
<defs>
<clipPath id="clip0_2731_4907">
<rect width="36" height="27" fill="white" transform="translate(2 6)"/>
</clipPath>
</defs>
</svg>
