<svg width="40" height="40" viewBox="0 0 40 40" fill="none" xmlns="http://www.w3.org/2000/svg">
<path fill-rule="evenodd" clip-rule="evenodd" d="M20.0069 35.7498C28.7038 35.7498 35.75 28.7036 35.75 20.0069C35.75 11.2962 28.7038 4.25 20.0069 4.25C11.3101 4.25 4.25 11.2962 4.25 20.0069C4.25 28.7036 11.3101 35.7498 20.0069 35.7498Z" fill="url(#paint0_linear_2704_4898)"/>
<path fill-rule="evenodd" clip-rule="evenodd" d="M11.5914 28.3155C12.5837 29.3075 13.7375 30.1236 15.0035 30.7287L11.5914 22.906L8.74793 16.3869C8.37343 17.5242 8.17925 18.7449 8.17925 20.007C8.17925 23.2389 9.48306 26.1794 11.5914 28.3155ZM28.4299 31.3392C31.8837 28.7731 34.1306 24.6535 34.1306 20.007C34.1306 15.3604 31.8837 11.2409 28.4299 8.66101C26.0719 6.91333 23.1593 5.87305 20.0107 5.87305C16.8621 5.87305 13.9494 6.91333 11.5914 8.66101C8.13763 11.2409 5.89062 15.3604 5.89062 20.007C5.89062 24.6535 8.13763 28.7731 11.5914 31.3392C13.9494 33.0867 16.8621 34.1272 20.0107 34.1272C23.1593 34.1272 26.0719 33.0869 28.4299 31.3392ZM28.4299 11.6986C28.8503 12.1194 29.2354 12.5741 29.5813 13.058L28.4299 15.7211L24.0886 25.6939L21.8417 20.5757H18.1798L15.9328 25.6939L11.5914 15.7211L10.4401 13.058C10.7859 12.574 11.171 12.1194 11.5914 11.6986C12.3117 10.9632 13.1282 10.3287 14.0187 9.81226L18.1243 19.369H21.8969L26.0026 9.81226C26.893 10.3287 27.7096 10.9632 28.4299 11.6986ZM28.4299 22.906L31.2733 16.3869C31.6481 17.5242 31.8423 18.7449 31.8423 20.007C31.8423 23.2387 30.5384 26.1794 28.4299 28.3155C27.4377 29.3075 26.2839 30.1236 25.018 30.7287L28.4299 22.906ZM20.0107 23.8214L23.3121 31.3531C22.2397 31.6668 21.1281 31.8256 20.0107 31.8247C18.8935 31.8256 17.7819 31.6668 16.7095 31.3531L20.0107 23.8214ZM20.0107 16.4145L23.4091 8.67488C22.341 8.34199 21.1897 8.17555 20.0107 8.17555C18.8317 8.17555 17.6944 8.34199 16.6125 8.67488L20.0107 16.4145Z" fill="white"/>
<defs>
<linearGradient id="paint0_linear_2704_4898" x1="4.25485" y1="4.25484" x2="35.7449" y2="35.7449" gradientUnits="userSpaceOnUse">
<stop stop-color="#2088FA"/>
<stop offset="1" stop-color="#032B5C"/>
</linearGradient>
</defs>
</svg>
