<svg width="40" height="40" viewBox="0 0 40 40" fill="none" xmlns="http://www.w3.org/2000/svg">
<g clip-path="url(#clip0_2755_4905)">
<path fill-rule="evenodd" clip-rule="evenodd" d="M4.44591 13.5L3.83405 15.1873H12.313L12.9249 13.5H4.44591ZM3.52793 16.0305L2.91607 17.7174H11.3951L12.0069 16.0305H3.52793ZM2.61186 18.5611L2 20.248H10.479L11.0905 18.5611H2.61186Z" fill="#009FDF"/>
<mask id="mask0_2755_4905" style="mask-type:luminance" maskUnits="userSpaceOnUse" x="14" y="16" width="24" height="11">
<path d="M14.7188 26.3982H37.929V16.0625H14.7188V26.3982Z" fill="white"/>
</mask>
<g mask="url(#mask0_2755_4905)">
<path fill-rule="evenodd" clip-rule="evenodd" d="M20.0234 20.8905V20.9261C20.4109 21.0693 20.781 21.3197 20.9749 21.4804C21.5741 21.9812 21.8386 22.6427 21.8386 23.5011C21.8386 24.9141 21.0983 25.9333 19.8822 26.2552C19.5121 26.3624 19.1246 26.3984 18.4017 26.3984H14.7188V16.0625H17.9791C18.6488 16.0625 19.1069 16.0981 19.5121 16.2053C20.6931 16.5273 21.4685 17.35 21.4685 18.6551C21.4685 19.3526 21.2217 19.943 20.8165 20.3361C20.6403 20.5149 20.3935 20.7297 20.0234 20.8905ZM16.763 21.9812V24.6994H18.173C18.5956 24.6994 18.9835 24.6638 19.2657 24.3954C19.5476 24.127 19.671 23.7874 19.671 23.3403C19.671 23.0007 19.5827 22.6787 19.4065 22.4464C19.1069 22.0708 18.7367 21.9812 18.1025 21.9812H16.763ZM16.7453 20.193H17.8908C18.2432 20.193 18.4194 20.193 18.5956 20.1394C19.0718 19.9962 19.3714 19.5674 19.3714 18.9771C19.3714 18.2799 19.054 17.9755 18.5956 17.8328C18.4017 17.7792 18.2081 17.7612 17.8202 17.7612H16.7453V20.193ZM24.905 26.3984V17.7968H21.962V16.0625H30.1394L29.558 17.7968H26.9493V26.3984H24.905ZM30.7737 26.3984V16.0625H37.4004L36.819 17.7968H32.8006V20.0858H34.4397C35.7614 20.0858 36.4488 20.4077 36.9246 20.8189C37.2948 21.1409 37.929 21.856 37.929 23.2691C37.929 24.6638 37.277 25.4325 36.7307 25.8261C36.0964 26.2728 35.4267 26.3984 34.0695 26.3984H30.7737ZM32.8006 24.6638H34.334C34.9154 24.6638 35.2679 24.5206 35.5146 24.1986C35.638 24.0378 35.8142 23.7515 35.8142 23.2151C35.8142 22.6787 35.638 22.3032 35.2856 22.0348C35.0743 21.874 34.7921 21.7848 34.3163 21.7848H32.8006V24.6638Z" fill="#0A2973"/>
</g>
</g>
<defs>
<clipPath id="clip0_2755_4905">
<rect width="36" height="13" fill="white" transform="translate(2 13.5)"/>
</clipPath>
</defs>
</svg>
