<svg width="40" height="40" viewBox="0 0 40 40" fill="none" xmlns="http://www.w3.org/2000/svg">
<path d="M35.8475 13.4217C35.6301 15.0324 34.8282 20.4508 30.8893 25.7214C26.8778 31.1398 21.6251 33.8501 20.0939 34.5816C18.488 33.7774 13.2376 31.1398 9.22613 25.7214C5.28717 20.4508 4.48534 15.0324 4.26562 13.4217L6.6734 12.104V10.2729L9.08117 8.95526V7.27182C12.3633 5.73378 15.9353 4.70691 20.0939 4.12305C24.2503 4.63421 27.8246 5.65881 31.1067 7.27182V9.02795L33.5145 10.3456V12.1767L35.8475 13.4217Z" fill="url(#paint0_linear_2723_4888)"/>
<path fill-rule="evenodd" clip-rule="evenodd" d="M38.1777 12.1779L37.958 13.6409C37.3011 18.6208 35.4778 23.0872 32.6328 26.9675C29.7902 30.9228 25.8512 34.1443 21.0357 36.5593L20.0889 37L19.1398 36.5593C14.3265 34.1443 10.46 30.9228 7.54263 27.0402C4.6977 23.1599 2.87432 18.6208 2.21971 13.7159L2 12.2506L4.55274 10.8602V9.10178L6.96051 7.78411V5.95301L8.12702 5.36914C11.6288 3.75841 15.4205 2.65883 19.7967 2.0727L20.0889 2L20.3063 2.0727C24.7572 2.65883 28.5489 3.75841 31.9782 5.36914L33.1447 6.02798V7.85681L35.5525 9.10178V10.8602L38.1777 12.1779ZM33.5094 12.1779V10.3467L31.1016 9.02908V7.27067C27.8195 5.65994 24.2453 4.63534 20.0889 4.12417C15.9302 4.70804 12.3559 5.73491 9.07382 7.27067V8.95638L6.66831 10.274V12.1052L4.26054 13.4228C4.48025 15.0336 5.28209 20.4519 9.22105 25.7226C13.2325 31.1409 18.4829 33.7763 20.0889 34.5828C21.62 33.8512 26.8705 31.1409 30.8819 25.7226C34.8209 20.4519 35.6227 15.0336 35.8424 13.4228L33.5094 12.1779Z" fill="url(#paint1_linear_2723_4888)"/>
<path d="M18.9306 8.00391V30.9222C17.3247 29.2365 15.8659 27.1146 14.8444 24.9905L12.7311 26.2354C10.0311 23.2343 8.13526 19.4994 6.96875 14.5922C7.55087 13.8607 8.13526 13.2019 8.79213 12.6884C9.66645 16.7891 10.9802 20.3037 13.021 23.0867L13.8251 22.6482C12.5114 19.0587 11.7095 15.1784 11.4173 10.7869C12.2917 10.2008 13.0958 9.83501 13.8251 9.46697C14.0426 14.3015 14.9916 19.1337 16.5228 23.014L16.6678 22.9413L16.5228 8.44237C17.3971 8.222 18.1265 8.07661 18.9306 8.00391Z" fill="url(#paint2_linear_2723_4888)"/>
<path fill-rule="evenodd" clip-rule="evenodd" d="M31.6125 18.1818C31.6125 21.6213 25.9227 28.4323 21.1094 30.9222V8.00391C22.2759 8.07661 23.4424 8.222 24.5364 8.51507C26.4323 9.02851 27.746 9.76004 28.6204 10.2735C30.0791 11.2254 31.0281 12.25 31.0281 13.4222C31.0281 14.3015 30.8832 14.9603 30.0066 15.9122C31.1731 16.4234 31.7575 17.1549 31.6125 18.1818ZM23.5896 17.2299L26.5795 15.6191C28.1107 14.8126 28.5479 14.0084 28.5479 13.4949C28.5479 12.0296 24.7561 10.7869 23.5896 10.7869V17.2299ZM29.2047 18.6929C29.2047 18.6202 29.2772 17.5956 27.9657 17.3026C27.8185 17.3753 23.5149 19.8652 23.5149 19.8652V26.3808C24.6837 25.4289 25.8502 24.2589 26.507 23.4524C28.0382 21.6963 29.2772 19.8652 29.2047 18.6929Z" fill="url(#paint3_linear_2723_4888)"/>
<defs>
<linearGradient id="paint0_linear_2723_4888" x1="4.30413" y1="19.3898" x2="35.8362" y2="19.3898" gradientUnits="userSpaceOnUse">
<stop stop-color="#4047FF"/>
<stop offset="1" stop-color="#04006C"/>
</linearGradient>
<linearGradient id="paint1_linear_2723_4888" x1="2" y1="19.5295" x2="38.1301" y2="19.5295" gradientUnits="userSpaceOnUse">
<stop stop-color="#FFC800"/>
<stop offset="1" stop-color="#E9A600"/>
</linearGradient>
<linearGradient id="paint2_linear_2723_4888" x1="7.04576" y1="19.4881" x2="18.9736" y2="19.4881" gradientUnits="userSpaceOnUse">
<stop stop-color="#FFD100"/>
<stop offset="1" stop-color="#FABB00"/>
</linearGradient>
<linearGradient id="paint3_linear_2723_4888" x1="21.1751" y1="19.4881" x2="31.7008" y2="19.4881" gradientUnits="userSpaceOnUse">
<stop stop-color="#F7B700"/>
<stop offset="1" stop-color="#E9A600"/>
</linearGradient>
</defs>
</svg>
