<svg width="40" height="40" viewBox="0 0 40 40" fill="none" xmlns="http://www.w3.org/2000/svg">
<g clip-path="url(#clip0_2755_4877)">
<path d="M2 18.902C2 12.9836 2 10.028 3.152 7.7672C4.1636 5.78 5.78 4.1636 7.7672 3.152C10.028 2 12.9836 2 18.902 2H21.1016C27.0164 2 29.972 2 32.2328 3.152C34.22 4.1636 35.8364 5.78 36.848 7.7672C38 10.028 38 12.9836 38 18.902V21.1016C38 27.0164 38 29.9756 36.848 32.2364C35.8364 34.22 34.22 35.8364 32.2328 36.848C29.972 38 27.0164 38 21.098 38H18.8984C12.9836 38 10.0244 38 7.7636 36.848C5.78 35.8364 4.1636 34.22 3.152 32.2328C2 29.972 2 27.0164 2 21.098V18.902Z" fill="url(#paint0_linear_2755_4877)"/>
<path d="M29.3938 14.7044C28.105 14.7044 26.9386 15.0932 25.945 15.7628V9.66797H23.1946V20.9C23.1946 24.3164 25.9738 27.0668 29.3758 27.0668C32.7778 27.0668 35.5894 24.3344 35.5894 20.8676C35.593 17.4044 32.8426 14.7044 29.3938 14.7044ZM16.9126 21.6956L14.3962 15.14H12.4702L9.93945 21.6956L7.40505 15.14H4.40625L8.83425 26.6672H10.7602L13.4171 19.802L16.0882 26.6672H18.0142L22.4278 15.14H19.4434L16.9126 21.6956ZM29.3794 24.32C27.5146 24.32 25.945 22.8296 25.945 20.8856C25.945 18.9416 27.421 17.4692 29.3938 17.4692C31.3666 17.4692 32.8426 19.0064 32.8426 20.8856C32.8426 22.7684 31.273 24.32 29.3794 24.32Z" fill="white"/>
</g>
<defs>
<linearGradient id="paint0_linear_2755_4877" x1="9.12776" y1="38.1204" x2="31.2187" y2="1.30211" gradientUnits="userSpaceOnUse">
<stop stop-color="#6F01FB"/>
<stop offset="1" stop-color="#FF49D7"/>
</linearGradient>
<clipPath id="clip0_2755_4877">
<rect width="36" height="36" fill="white" transform="translate(2 2)"/>
</clipPath>
</defs>
</svg>
