<svg width="40" height="40" viewBox="0 0 40 40" fill="none" xmlns="http://www.w3.org/2000/svg">
<g clip-path="url(#clip0_2755_4867)">
<path d="M10.6549 18.1219C10.6681 17.9255 10.5739 17.6081 10.829 17.5357C11.0324 17.4956 11.2629 17.477 11.4573 17.5626C11.6175 17.65 11.5719 17.8512 11.5797 18.0009C11.5893 18.1153 11.5599 18.226 11.4915 18.3188C11.2941 18.4009 11.0786 18.3733 10.871 18.3781C10.7714 18.3212 10.6333 18.2608 10.6549 18.1219Z" fill="white"/>
<path d="M3.95109 17.6089C4.16954 17.6089 4.39038 17.5832 4.60641 17.6173C4.75224 17.6939 4.78045 17.87 4.81287 18.0155C5.05108 18.9926 5.30976 19.9649 5.52817 20.9475C5.73222 20.2098 6.02929 19.5021 6.27172 18.7771C6.30892 18.6226 6.46015 18.5088 6.61797 18.5058C6.79082 18.5028 6.96785 18.4873 7.13829 18.5196C7.32251 18.5897 7.37654 18.7956 7.43954 18.9615C7.65677 19.5764 7.91904 20.1757 8.11346 20.7978L8.19448 20.7954C8.35771 20.0368 8.57734 19.2914 8.7496 18.5346C8.77717 18.5022 8.73938 18.3861 8.82522 18.4184C8.81918 18.3951 8.8066 18.3478 8.80001 18.3244C8.90202 18.0963 8.8666 17.7844 9.09226 17.6287C9.26748 17.5963 9.4481 17.6059 9.62576 17.6149C9.73436 17.6185 9.85498 17.7029 9.84898 17.8227C9.88681 18.1089 9.76556 18.3771 9.68635 18.6453C9.3767 19.732 9.03704 20.8116 8.73938 21.9013C8.66917 22.0456 8.54074 22.1898 8.36252 22.1647C8.10625 22.1449 7.75341 22.2581 7.59677 21.9869C7.37233 21.3606 7.1779 20.7217 6.95826 20.0925C6.90845 19.9763 6.91444 19.8254 6.80881 19.7404C6.59817 20.4469 6.34434 21.1403 6.11508 21.8414C6.0767 22.0186 5.92306 22.1863 5.72804 22.1581C5.48857 22.1324 5.17593 22.2449 5.00548 22.018C4.88967 21.836 4.86328 21.6157 4.79844 21.4133C4.50559 20.4356 4.21214 19.4584 3.92589 18.4789C3.86348 18.2568 3.77166 18.0382 3.77346 17.8035C3.83047 17.7371 3.88988 17.6724 3.95109 17.6089Z" fill="white"/>
<path d="M16.8384 17.8194C16.8186 17.6835 16.92 17.5374 17.0658 17.5422C17.2915 17.5422 17.5508 17.4841 17.7434 17.6356C17.756 17.7565 17.765 17.8787 17.7644 18.0008C17.7602 19.3192 17.7656 20.6377 17.7614 21.9561C17.786 22.113 17.6312 22.2429 17.4805 22.2219C17.2735 22.2021 16.9986 22.2992 16.8582 22.095C16.8354 22.0112 16.8384 21.9232 16.8366 21.8369C16.8396 20.4976 16.8354 19.1588 16.8384 17.8194Z" fill="white"/>
<path d="M18.8405 18.1905C18.8657 17.9761 18.7601 17.6947 18.9725 17.5486C19.197 17.5253 19.4268 17.5193 19.6513 17.5522C19.8361 17.6755 19.7797 17.9216 19.7815 18.109C19.7815 18.2503 19.6597 18.333 19.5415 18.3791C19.302 18.3635 18.9798 18.4503 18.8405 18.1905Z" fill="white"/>
<path d="M25.5321 18.8458C25.7475 18.7081 26.0038 18.6955 26.2474 18.6512C26.3626 18.6392 26.4796 18.6422 26.593 18.6703C27.2688 18.6859 27.8371 19.2463 27.9415 19.8989C27.9589 20.1324 27.9871 20.3695 27.9487 20.6019C27.9007 20.6629 27.8365 20.7384 27.7495 20.7264C27.0335 20.7348 26.3176 20.7282 25.6017 20.7288C25.6035 21.0545 25.7985 21.391 26.1244 21.4844C26.4286 21.5539 26.7629 21.5353 27.0432 21.3886C27.2256 21.3078 27.3798 21.1533 27.5886 21.1407C27.7399 21.3126 27.9739 21.5323 27.8839 21.782C27.6103 22.0532 27.2274 22.1837 26.8577 22.2652C26.314 22.3232 25.7175 22.2963 25.2566 21.9688C24.8041 21.6419 24.6127 21.0551 24.6439 20.515C24.6097 19.857 24.9241 19.1517 25.5321 18.8458ZM25.8975 19.5211C25.7313 19.6319 25.6797 19.8355 25.6101 20.0103C26.0932 20.0516 26.5786 20.0325 27.0611 20.0085C27.0029 19.8391 26.9639 19.6457 26.8157 19.5271C26.5648 19.2984 26.1574 19.314 25.8975 19.5211Z" fill="white"/>
<path d="M12.8378 18.7049C13.0052 18.6851 13.1738 18.6989 13.3419 18.6995C13.3851 18.7246 13.4283 18.7492 13.4715 18.7743C13.4901 18.8042 13.5273 18.8647 13.5459 18.8947C13.5495 18.9737 13.5537 19.0533 13.5579 19.1329C13.7547 18.9186 14.0008 18.7162 14.3009 18.6827C14.6807 18.6222 15.1164 18.6617 15.4087 18.9378C15.6901 19.1617 15.7783 19.5353 15.7807 19.8784C15.7861 20.5711 15.7825 21.2639 15.7825 21.9566C15.7957 22.065 15.7375 22.1668 15.6391 22.2146C15.4549 22.2428 15.2665 22.232 15.081 22.226C14.9448 22.229 14.8452 22.0823 14.8608 21.9536C14.8572 21.3153 14.862 20.6765 14.8596 20.0376C14.8554 19.8383 14.8056 19.5934 14.5991 19.5078C14.3213 19.4102 13.975 19.4629 13.774 19.6892C13.6378 19.8514 13.5633 20.064 13.5621 20.2748C13.5573 20.8537 13.5693 21.4327 13.5579 22.0111C13.5603 22.1464 13.4193 22.2476 13.2897 22.229C13.0736 22.2152 12.8024 22.3003 12.6481 22.1015C12.6367 21.0531 12.6446 20.0047 12.644 18.9569C12.6199 18.827 12.7298 18.7438 12.8378 18.7049Z" fill="white"/>
<path d="M21.007 18.6966C21.1912 18.7098 21.3862 18.6661 21.5638 18.7212C21.7379 18.7906 21.7325 18.993 21.7295 19.1481C21.9749 18.8367 22.3572 18.6272 22.7629 18.6727C23.2351 18.6176 23.7086 18.9098 23.8785 19.3498C23.9523 19.5091 23.9373 19.6881 23.9505 19.8588C23.9571 19.9959 23.9943 20.1348 23.9565 20.2707C23.9649 20.4701 23.9091 20.6874 23.9883 20.8754C23.8917 21.2694 23.9955 21.6963 23.9361 22.1011C23.8959 22.1483 23.8521 22.1909 23.8035 22.2292C23.5952 22.2238 23.3852 22.2477 23.1793 22.2136C23.1157 22.1663 23.0413 22.1034 23.0419 22.0172C23.0215 21.2772 23.0581 20.5354 23.0227 19.7953C22.8361 19.2606 21.9917 19.4079 21.8261 19.8899C21.6863 20.3222 21.7589 20.7898 21.7355 21.2376C21.7133 21.537 21.7991 21.843 21.7061 22.1352C21.6737 22.1579 21.6077 22.2028 21.5752 22.225C21.3706 22.2274 21.1648 22.2453 20.9619 22.2154C20.8755 22.1555 20.7993 22.0675 20.8149 21.9556C20.8119 20.9563 20.8113 19.9576 20.8155 18.9589C20.8023 18.8325 20.9205 18.7625 21.007 18.6966Z" fill="white"/>
<path d="M10.7249 18.7948C10.8881 18.6805 11.118 18.7529 11.3082 18.7343C11.4739 18.702 11.6071 18.8619 11.5825 19.0193C11.5819 19.9989 11.5849 20.9784 11.5813 21.9585C11.5939 22.1034 11.4528 22.234 11.3101 22.2208C11.142 22.2232 10.9728 22.2316 10.8059 22.2112C10.6829 22.1591 10.6247 22.0226 10.6337 21.8951C10.6337 20.9766 10.6355 20.0575 10.6331 19.1391C10.6343 19.0211 10.6409 18.887 10.7249 18.7948Z" fill="white"/>
<path d="M18.9448 18.7814C19.1152 18.6886 19.3397 18.749 19.5323 18.7359C19.7207 18.7035 19.8174 18.9185 19.7976 19.0765C19.791 20.0561 19.8083 21.0368 19.7892 22.0163C19.7136 22.2996 19.3823 22.2109 19.1663 22.2223C18.9778 22.2583 18.808 22.0798 18.8398 21.8948C18.841 20.9961 18.8554 20.098 18.847 19.1999C18.8506 19.0568 18.8194 18.885 18.9448 18.7814Z" fill="white"/>
<path d="M2.88841 16.56C3.53713 16.1654 4.30587 15.9804 5.06321 16.002C13.6454 16.0026 22.2276 16.002 30.8098 16.0026C31.0318 16.0074 31.255 15.987 31.4759 16.0157C31.4783 16.0379 31.4837 16.0828 31.4861 16.1056C31.2731 16.3313 31.036 16.5349 30.8404 16.7767C30.1299 17.6569 29.7278 18.7873 29.7506 19.9189C29.7452 21.3241 30.3885 22.7168 31.4573 23.6305C31.4537 23.6664 31.4465 23.7371 31.4429 23.7724C22.5907 23.7724 13.7378 23.7724 4.88559 23.7724C4.76315 23.7712 4.64134 23.7652 4.5195 23.7574C3.9356 23.6826 3.3565 23.5119 2.8566 23.1958C2.04045 22.7096 1.43434 21.9049 1.15529 21.0014C0.965655 20.3524 0.956653 19.6609 1.09048 19.0005L1.11988 18.9663C1.13009 18.9011 1.14029 18.8364 1.15109 18.7711C1.44394 17.8599 2.05366 17.0432 2.88841 16.56ZM10.6587 18.1221C10.637 18.261 10.7751 18.3215 10.8747 18.3784C11.0823 18.3736 11.2978 18.4011 11.4952 18.3191C11.5636 18.2263 11.593 18.1155 11.5834 18.0012C11.5756 17.8515 11.6212 17.6503 11.461 17.5629C11.2666 17.4773 11.0361 17.4958 10.8327 17.5359C10.5776 17.6084 10.6718 17.9257 10.6587 18.1221ZM3.95421 17.609C3.893 17.6725 3.83358 17.7371 3.77657 17.8036C3.77477 18.0383 3.86659 18.2568 3.929 18.479C4.21526 19.4585 4.50872 20.4356 4.80157 21.4134C4.86638 21.6158 4.89277 21.8361 5.00862 22.0181C5.17902 22.245 5.4917 22.1325 5.73114 22.1582C5.92616 22.1863 6.0798 22.0187 6.11822 21.8415C6.34744 21.1403 6.6013 20.447 6.81194 19.7405C6.91754 19.8255 6.91155 19.9764 6.96136 20.0926C7.181 20.7218 7.37542 21.3607 7.59987 21.987C7.7565 22.2582 8.10938 22.145 8.36562 22.1648C8.54387 22.1899 8.67227 22.0456 8.74248 21.9013C9.04014 20.8117 9.3798 19.7321 9.68948 18.6454C9.76869 18.3772 9.88991 18.1089 9.85208 17.8227C9.85811 17.703 9.73749 17.6186 9.62886 17.615C9.45123 17.606 9.27058 17.5964 9.09536 17.6287C8.86973 17.7844 8.90512 18.0964 8.80311 18.3245C8.8097 18.3478 8.82232 18.3951 8.82831 18.4185C8.74248 18.3861 8.78031 18.5023 8.7527 18.5346C8.58048 19.2914 8.36081 20.0369 8.19758 20.7955L8.11656 20.7979C7.92214 20.1758 7.6599 19.5765 7.44264 18.9615C7.37964 18.7957 7.32564 18.5897 7.14139 18.5197C6.97095 18.4873 6.79392 18.5029 6.62111 18.5059C6.46328 18.5089 6.31205 18.6227 6.27485 18.7771C6.03239 19.5022 5.73532 20.2099 5.53131 20.9475C5.31286 19.965 5.05422 18.9927 4.81597 18.0155C4.78354 17.87 4.75534 17.694 4.60951 17.6174C4.39349 17.5832 4.17265 17.609 3.95421 17.609ZM16.8422 17.8185C16.8392 19.1579 16.8434 20.4967 16.8404 21.8361C16.8422 21.9223 16.8392 22.0103 16.862 22.0941C17.0024 22.2983 17.2773 22.2013 17.4843 22.2211C17.6349 22.242 17.7898 22.1121 17.7651 21.9552C17.7694 20.6368 17.764 19.3184 17.7681 18C17.7688 17.8778 17.7597 17.7557 17.7472 17.6347C17.5545 17.4833 17.2953 17.5413 17.0696 17.5413C16.9238 17.5365 16.8224 17.6826 16.8422 17.8185ZM18.8435 18.1904C18.9828 18.4502 19.3051 18.3634 19.5445 18.379C19.6627 18.3329 19.7845 18.2502 19.7845 18.1089C19.7827 17.9215 19.8391 17.6754 19.6543 17.5521C19.4299 17.5192 19.2 17.5252 18.9756 17.5485C18.7632 17.6946 18.8687 17.976 18.8435 18.1904ZM25.5336 18.8466C24.9257 19.1525 24.6112 19.8578 24.6454 20.5159C24.6142 21.0559 24.8057 21.6427 25.2582 21.9696C25.719 22.2971 26.3155 22.324 26.8592 22.266C27.2289 22.1846 27.6118 22.054 27.8854 21.7828C27.9754 21.5331 27.7414 21.3134 27.5902 21.1415C27.3813 21.1541 27.2271 21.3086 27.0447 21.3894C26.7644 21.5361 26.4302 21.5547 26.1259 21.4852C25.8001 21.3918 25.605 21.0553 25.6032 20.7296C26.3192 20.729 27.0351 20.7356 27.751 20.7272C27.838 20.7392 27.9022 20.6638 27.9502 20.6027C27.9886 20.3704 27.9604 20.1333 27.943 19.8998C27.8386 19.2471 27.2703 18.6867 26.5946 18.6711C26.4812 18.643 26.3642 18.64 26.2489 18.652C26.0053 18.6963 25.7491 18.7089 25.5336 18.8466ZM12.8388 18.7047C12.7308 18.7436 12.621 18.8268 12.645 18.9567C12.6456 20.0045 12.6378 21.0529 12.6492 22.1013C12.8034 22.3001 13.0747 22.2151 13.2907 22.2288C13.4204 22.2474 13.5614 22.1462 13.559 22.0109C13.5704 21.4325 13.5584 20.8535 13.5632 20.2746C13.5644 20.0638 13.6388 19.8513 13.775 19.689C13.9761 19.4627 14.3223 19.41 14.6002 19.5076C14.8066 19.5932 14.8564 19.8381 14.8606 20.0375C14.863 20.6763 14.8582 21.3152 14.8618 21.9534C14.8462 22.0822 14.9458 22.2288 15.0821 22.2258C15.2675 22.2318 15.4559 22.2426 15.6402 22.2145C15.7386 22.1666 15.7968 22.0648 15.7836 21.9564C15.7836 21.2637 15.7872 20.571 15.7818 19.8782C15.7794 19.5351 15.6912 19.1615 15.4097 18.9376C15.1175 18.6616 14.6818 18.6221 14.3019 18.6825C14.0019 18.7161 13.7558 18.9184 13.559 19.1328C13.5548 19.0531 13.5506 18.9735 13.547 18.8945C13.5284 18.8645 13.4912 18.8041 13.4726 18.7741C13.4293 18.749 13.3862 18.7244 13.343 18.6993C13.1749 18.6987 13.0063 18.6849 12.8388 18.7047ZM21.0106 18.6963C20.9241 18.7622 20.8059 18.8322 20.8191 18.9585C20.8149 19.9573 20.8155 20.9559 20.8185 21.9552C20.8029 22.0672 20.8791 22.1552 20.9655 22.2151C21.1684 22.245 21.3742 22.2271 21.5789 22.2247C21.6113 22.2025 21.6773 22.1576 21.7097 22.1349C21.8027 21.8426 21.7169 21.5367 21.7391 21.2373C21.7625 20.7895 21.6899 20.3219 21.8297 19.8896C21.9953 19.4076 22.8397 19.2603 23.0263 19.795C23.0618 20.535 23.0251 21.2769 23.0455 22.0169C23.045 22.1031 23.1193 22.166 23.183 22.2133C23.3888 22.2474 23.5988 22.2234 23.8071 22.2288C23.8557 22.1905 23.8995 22.148 23.9397 22.1007C23.9991 21.696 23.8953 21.2691 23.9919 20.8751C23.9127 20.6871 23.9685 20.4697 23.9601 20.2704C23.9979 20.1345 23.9607 19.9955 23.9541 19.8584C23.9409 19.6878 23.9559 19.5088 23.8821 19.3495C23.7122 18.9094 23.2388 18.6173 22.7665 18.6723C22.3608 18.6268 21.9785 18.8364 21.7331 19.1477C21.7361 18.9927 21.7415 18.7903 21.5674 18.7208C21.3898 18.6658 21.1948 18.7095 21.0106 18.6963ZM10.7229 18.7945C10.6389 18.8867 10.6322 19.0208 10.631 19.1388C10.6335 20.0572 10.6316 20.9763 10.6316 21.8947C10.6226 22.0223 10.6809 22.1588 10.8039 22.2109C10.9707 22.2312 11.1399 22.2229 11.308 22.2205C11.4508 22.2336 11.5918 22.1031 11.5792 21.9582C11.5828 20.9781 11.5798 19.9985 11.5804 19.019C11.605 18.8615 11.4718 18.7017 11.3062 18.734C11.1159 18.7526 10.8861 18.6801 10.7229 18.7945ZM18.9414 18.7813C18.816 18.8849 18.8472 19.0567 18.8435 19.1998C18.8519 20.0979 18.8375 20.996 18.8364 21.8947C18.8046 22.0798 18.9744 22.2582 19.1628 22.2223C19.3789 22.2109 19.7101 22.2995 19.7857 22.0163C19.8049 21.0368 19.7875 20.056 19.7941 19.0765C19.8139 18.9184 19.7173 18.7035 19.5289 18.7358C19.3363 18.749 19.1118 18.6885 18.9414 18.7813Z" fill="#2D2D2C"/>
<path d="M25.8968 19.5218C26.1567 19.3146 26.5642 19.2991 26.815 19.5278C26.9632 19.6464 27.0022 19.8398 27.0604 20.0092C26.578 20.0331 26.0925 20.0523 25.6094 20.011C25.679 19.8361 25.7306 19.6326 25.8968 19.5218Z" fill="#2D2D2C"/>
<path d="M33.754 16.2525C34.5624 15.9489 35.474 15.9166 36.2949 16.1932C37.1769 16.471 37.9519 17.0751 38.4288 17.8667C38.9497 18.7019 39.1118 19.7377 38.9179 20.6981C38.7241 21.5513 38.2531 22.3458 37.5646 22.8924C36.8855 23.4553 36.0055 23.7546 35.1265 23.7726C34.1591 23.7636 33.1887 23.4062 32.4818 22.7398C31.8517 22.1716 31.425 21.389 31.2774 20.5556C31.1772 19.7623 31.239 18.9306 31.6026 18.2061C32.0359 17.314 32.8185 16.5919 33.754 16.2525Z" fill="#FC5208"/>
</g>
<defs>
<clipPath id="clip0_2755_4867">
<rect width="38" height="8" fill="white" transform="translate(1 16)"/>
</clipPath>
</defs>
</svg>
