<svg width="40" height="40" viewBox="0 0 40 40" fill="none" xmlns="http://www.w3.org/2000/svg">
<g clip-path="url(#clip0_2704_7303)">
<path d="M2 2H38V38H2V2Z" fill="#F57921"/>
<mask id="mask0_2704_7303" style="mask-type:luminance" maskUnits="userSpaceOnUse" x="2" y="2" width="36" height="36">
<path d="M2 2H38V38H2V2Z" fill="white"/>
</mask>
<g mask="url(#mask0_2704_7303)">
<path d="M26.3846 29.1567V16.0338C26.3846 13.0522 23.9681 10.6348 20.9868 10.6348H5.81329C5.69624 10.6348 5.60156 10.729 5.60156 10.8448V29.1566C5.60156 29.2724 5.69624 29.3662 5.81329 29.3662H9.86626C9.89401 29.3663 9.92151 29.3609 9.94718 29.3503C9.97285 29.3398 9.99618 29.3243 10.0158 29.3047C10.0355 29.2851 10.0511 29.2618 10.0618 29.2362C10.0724 29.2106 10.0779 29.1831 10.078 29.1553V14.7827C10.078 14.755 10.0835 14.7275 10.0942 14.7018C10.1048 14.6761 10.1204 14.6528 10.1401 14.6332C10.1598 14.6136 10.1831 14.5981 10.2088 14.5875C10.2345 14.5769 10.262 14.5714 10.2898 14.5715H19.0054C20.6419 14.5715 21.9693 15.898 21.9693 17.5349V29.1548C21.9693 29.2108 21.9915 29.2644 22.0311 29.304C22.0707 29.3435 22.1243 29.3658 22.1802 29.3658H26.1737C26.2898 29.3658 26.3847 29.2717 26.3847 29.1561" fill="#FAF9F5"/>
</g>
<mask id="mask1_2704_7303" style="mask-type:luminance" maskUnits="userSpaceOnUse" x="2" y="2" width="36" height="36">
<path d="M2 2H38V38H2V2Z" fill="white"/>
</mask>
<g mask="url(#mask1_2704_7303)">
<path d="M18.1936 29.1547C18.1936 29.1824 18.1882 29.2099 18.1776 29.2355C18.167 29.2611 18.1515 29.2844 18.1319 29.304C18.1123 29.3236 18.089 29.3391 18.0634 29.3497C18.0378 29.3603 18.0103 29.3657 17.9826 29.3656H13.9305C13.8135 29.3656 13.7188 29.2714 13.7188 29.1547V18.141C13.7188 18.1132 13.7243 18.0857 13.7349 18.06C13.7456 18.0344 13.7612 18.0111 13.7809 17.9915C13.8005 17.9718 13.8239 17.9563 13.8496 17.9457C13.8752 17.9351 13.9027 17.9297 13.9305 17.9297H17.9826C18.0103 17.9297 18.0378 17.9351 18.0634 17.9457C18.089 17.9563 18.1123 17.9719 18.1319 17.9915C18.1515 18.0112 18.1671 18.0345 18.1776 18.0601C18.1882 18.0857 18.1936 18.1132 18.1936 18.141V29.1552V29.1547Z" fill="#FAF9F5"/>
</g>
<mask id="mask2_2704_7303" style="mask-type:luminance" maskUnits="userSpaceOnUse" x="2" y="2" width="36" height="36">
<path d="M2 2H38V38H2V2Z" fill="white"/>
</mask>
<g mask="url(#mask2_2704_7303)">
<path d="M34.3976 29.1552C34.3976 29.2718 34.3029 29.3661 34.1858 29.3661H30.1346C30.0175 29.3661 29.9219 29.2718 29.9219 29.1552V10.8465C29.9219 10.7294 30.0175 10.6348 30.1346 10.6348H34.1858C34.2136 10.6347 34.2411 10.6402 34.2668 10.6508C34.2925 10.6614 34.3159 10.677 34.3356 10.6967C34.3552 10.7164 34.3708 10.7397 34.3815 10.7654C34.3921 10.7911 34.3976 10.8187 34.3976 10.8465V29.1552Z" fill="#FAF9F5"/>
</g>
</g>
<defs>
<clipPath id="clip0_2704_7303">
<rect width="36" height="36" fill="white" transform="translate(2 2)"/>
</clipPath>
</defs>
</svg>
