<svg width="40" height="40" viewBox="0 0 40 40" fill="none" xmlns="http://www.w3.org/2000/svg">
<path d="M5.0625 20C5.0625 11.7155 11.7765 5 20.0625 5C28.3455 5 35.0625 11.7155 35.0625 20C35.0625 28.2845 28.3455 35 20.0625 35C11.7765 35 5.0625 28.2845 5.0625 20Z" fill="#FC3F1D"/>
<path d="M21.9794 13.4988H20.5934C18.0524 13.4988 16.7159 14.7858 16.7159 16.6833C16.7159 18.8283 17.6399 19.8333 19.5374 21.1218L21.1049 22.1778L16.6004 28.9083H13.2344L17.2769 22.8873C14.9519 21.2208 13.6469 19.6023 13.6469 16.8648C13.6469 13.4328 16.0394 11.0898 20.5769 11.0898H25.0814V28.8918H21.9794V13.4988Z" fill="white"/>
</svg>
